<?xml version="1.0" standalone="no"?>
<!DOCTYPE svg PUBLIC "-//W3C//DTD SVG 1.1//EN" "http://www.w3.org/Graphics/SVG/1.1/DTD/svg11.dtd" >
<svg>
<metadata>
Created by FontForge 20090622 at Wed Oct  7 07:34:49 2020
 By deploy user
Copyright &#194;&#169; 2017 by Martin V&#195;&#161;cha. All rights reserved.
</metadata>
<defs>
<font id="Gellix-SemiBold" horiz-adv-x="360" >
  <font-face 
    font-family="Gellix SemiBold"
    font-weight="600"
    font-stretch="normal"
    units-per-em="1000"
    panose-1="0 0 7 0 0 0 0 0 0 0"
    ascent="828"
    descent="-172"
    x-height="489"
    cap-height="700"
    bbox="-500 -220 1219 1139"
    underline-thickness="50"
    underline-position="-50"
    unicode-range="U+0020-U+25CF"
  />
<missing-glyph horiz-adv-x="720" 
d="M360 710q150 0 255 -105t105 -254t-105 -255t-255 -106q-148 0 -254 106t-106 255t105.5 254t254.5 105zM249 306q21 0 37 35.5t16 84.5q0 50 -16 85t-37 35q-23 0 -39.5 -35t-16.5 -85q0 -49 16.5 -84.5t39.5 -35.5zM472 306q23 0 39 35t16 85t-16 85t-39 35
q-22 0 -37.5 -35t-15.5 -85q0 -49 15.5 -84.5t37.5 -35.5zM360 96q31 0 53 21.5t22 51.5q0 31 -21.5 52.5t-53.5 21.5q-31 0 -52 -21t-21 -53q0 -30 21 -51.5t52 -21.5z" />
    <glyph glyph-name=".notdef" horiz-adv-x="720" 
d="M360 710q150 0 255 -105t105 -254t-105 -255t-255 -106q-148 0 -254 106t-106 255t105.5 254t254.5 105zM249 306q21 0 37 35.5t16 84.5q0 50 -16 85t-37 35q-23 0 -39.5 -35t-16.5 -85q0 -49 16.5 -84.5t39.5 -35.5zM472 306q23 0 39 35t16 85t-16 85t-39 35
q-22 0 -37.5 -35t-15.5 -85q0 -49 15.5 -84.5t37.5 -35.5zM360 96q31 0 53 21.5t22 51.5q0 31 -21.5 52.5t-53.5 21.5q-31 0 -52 -21t-21 -53q0 -30 21 -51.5t52 -21.5z" />
    <glyph glyph-name=".null" horiz-adv-x="0" 
 />
    <glyph glyph-name="nonmarkingreturn" horiz-adv-x="333" 
 />
    <glyph glyph-name="space" unicode=" " horiz-adv-x="220" 
 />
    <glyph glyph-name="exclam" unicode="!" horiz-adv-x="262" 
d="M71 700h120l-4 -497h-112zM131 -10q-32 0 -54.5 22t-22.5 54t22.5 54t54.5 22q33 0 55 -22t22 -54t-22 -54t-55 -22z" />
    <glyph glyph-name="quotedbl" unicode="&#x22;" horiz-adv-x="381" 
d="M58 461l-8 239h112l-8 -239h-96zM228 461l-9 239h112l-8 -239h-95z" />
    <glyph glyph-name="numbersign" unicode="#" horiz-adv-x="681" 
d="M657 421h-134l-40 -142h134v-95h-160l-52 -184h-97l52 184h-131l-52 -184h-97l52 184h-109v95h135l40 142h-135v96h162l51 183h97l-51 -183h131l51 183h97l-51 -183h107v-96zM386 279l40 142h-131l-40 -142h131z" />
    <glyph glyph-name="dollar" unicode="$" horiz-adv-x="595" 
d="M555 199q0 -80 -56.5 -136.5t-147.5 -69.5v-113h-107v116q-89 17 -144.5 79.5t-55.5 150.5h116q0 -56 40.5 -91t103.5 -35q60 0 97.5 27.5t37.5 71.5q0 43 -40 67.5t-96.5 37.5t-113 31t-96.5 62t-40 115q0 76 52.5 129t138.5 66v113h107v-115q88 -17 135 -76t47 -139
h-120q-2 48 -36.5 78.5t-90.5 30.5q-53 0 -85.5 -23.5t-32.5 -62.5q0 -29 21.5 -48.5t55.5 -30.5t75.5 -20.5t82.5 -23.5t75 -35.5t55.5 -61t21.5 -94.5z" />
    <glyph glyph-name="percent" unicode="%" horiz-adv-x="732" 
d="M345 562q0 -65 -41 -107.5t-102 -42.5q-62 0 -102.5 42.5t-40.5 107.5q0 64 40.5 106t102.5 42t102.5 -42t40.5 -106zM554 700h90l-465 -700h-90zM270 562q0 34 -18.5 56t-49.5 22q-32 0 -50.5 -22t-18.5 -56q0 -35 18.5 -57t50.5 -22q31 0 49.5 22t18.5 57zM674 140
q0 -65 -41 -107.5t-103 -42.5t-102.5 42.5t-40.5 107.5q0 64 40.5 106t102.5 42t103 -42t41 -106zM599 140q0 34 -19 55.5t-50 21.5t-50 -21.5t-19 -55.5q0 -35 19 -57t50 -22t50 22t19 57z" />
    <glyph glyph-name="ampersand" unicode="&#x26;" horiz-adv-x="746" 
d="M690 0h-151l-76 81q-96 -91 -206 -91q-91 0 -151.5 56t-60.5 141q0 73 37 117.5t101 76.5q-64 73 -64 148q0 77 54.5 129t134.5 52q78 0 131.5 -52.5t53.5 -128.5q0 -67 -34.5 -108t-95.5 -71l102 -110l72 74h152l-148 -154zM226 531q0 -37 63 -104q47 22 71.5 45.5
t24.5 58.5q0 32 -22 54.5t-55 22.5q-34 0 -58 -22.5t-24 -54.5zM268 104q59 0 120 58l-132 140q-44 -22 -67.5 -46t-23.5 -61q0 -40 28 -65.5t75 -25.5z" />
    <glyph glyph-name="quotesingle" unicode="'" horiz-adv-x="212" 
d="M58 461l-8 239h112l-8 -239h-96z" />
    <glyph glyph-name="parenleft" unicode="(" horiz-adv-x="328" 
d="M70 292q0 154 59.5 292t158.5 220l65 -74q-80 -67 -128.5 -185.5t-48.5 -252.5t48.5 -252.5t128.5 -185.5l-65 -74q-99 81 -158.5 219.5t-59.5 292.5z" />
    <glyph glyph-name="parenright" unicode=")" horiz-adv-x="329" 
d="M258 292q0 -154 -59.5 -292.5t-157.5 -219.5l-66 74q81 67 129 185.5t48 252.5t-48 252.5t-129 185.5l66 74q98 -82 157.5 -220t59.5 -292z" />
    <glyph glyph-name="asterisk" unicode="*" horiz-adv-x="506" 
d="M459 544l-148 -45l99 -131l-56 -48l-101 133l-102 -133l-57 48l101 130l-149 46l24 72l145 -45v149h75v-149l145 45z" />
    <glyph glyph-name="plus" unicode="+" horiz-adv-x="586" 
d="M527 371v-105h-182v-182h-105v182h-181v105h181v181h105v-181h182z" />
    <glyph glyph-name="comma" unicode="," horiz-adv-x="264" 
d="M210 109l-64 -231h-92l41 231h115z" />
    <glyph glyph-name="hyphen" unicode="-" horiz-adv-x="348" 
d="M25 207v104h298v-104h-298z" />
    <glyph glyph-name="period" unicode="." horiz-adv-x="262" 
d="M131 -10q-32 0 -54.5 22t-22.5 54t22.5 54t54.5 22q33 0 55 -22t22 -54t-22 -54t-55 -22z" />
    <glyph glyph-name="slash" unicode="/" horiz-adv-x="441" 
d="M7 0l308 700h119l-308 -700h-119z" />
    <glyph glyph-name="zero" unicode="0" horiz-adv-x="605" 
d="M302 -10q-123 0 -193.5 97.5t-70.5 262.5t70.5 262.5t193.5 97.5q124 0 194.5 -97.5t70.5 -262.5t-70.5 -262.5t-194.5 -97.5zM302 104q69 0 107 62.5t38 183.5t-38 183.5t-107 62.5t-106.5 -62.5t-37.5 -183.5t37.5 -183.5t106.5 -62.5z" />
    <glyph glyph-name="one" unicode="1" horiz-adv-x="379" 
d="M315 700v-700h-116v539l-158 -128v141l194 148h80z" />
    <glyph glyph-name="two" unicode="2" horiz-adv-x="560" 
d="M44 0v85l244 241q59 59 83 93.5t24 73.5q0 45 -32.5 74t-81.5 29q-59 0 -93 -38t-32 -102h-118q-4 113 65.5 183.5t179.5 70.5q101 0 166.5 -60t65.5 -154q0 -61 -36.5 -119t-107.5 -125l-138 -138h287v-114h-476z" />
    <glyph glyph-name="three" unicode="3" horiz-adv-x="546" 
d="M177 409l164 179h-304v112h469v-78l-187 -199q82 1 137.5 -56t55.5 -142q0 -103 -70.5 -169t-178.5 -66q-100 0 -168.5 56.5t-76.5 146.5h117q8 -39 42 -64t86 -25q56 0 92.5 34.5t36.5 89.5q0 70 -64 99t-151 5v77z" />
    <glyph glyph-name="four" unicode="4" horiz-adv-x="592" 
d="M568 256v-106h-83v-150h-117v150h-348v80l249 470h133l-236 -444h202v197h117v-197h83z" />
    <glyph glyph-name="five" unicode="5" horiz-adv-x="539" 
d="M262 -10q-99 0 -168 55t-76 148h117q9 -40 43 -64.5t84 -24.5q53 0 89.5 36t36.5 88q0 55 -36 91.5t-90 36.5q-74 0 -111 -43h-102l32 387h382v-110h-278l-17 -171q43 35 110 35q100 0 165 -62.5t65 -165.5q0 -99 -71.5 -167.5t-174.5 -68.5z" />
    <glyph glyph-name="six" unicode="6" horiz-adv-x="540" 
d="M291 460q96 0 160 -65.5t64 -165.5q0 -98 -72 -168.5t-172 -70.5t-172 70.5t-72 168.5q0 82 56 172l186 299h134l-157 -247q26 7 45 7zM271 101q55 0 93 37.5t38 91.5q0 55 -38.5 93t-93.5 38q-54 0 -91.5 -38t-37.5 -93q0 -54 37.5 -91.5t92.5 -37.5z" />
    <glyph glyph-name="seven" unicode="7" horiz-adv-x="513" 
d="M15 700h476v-80l-295 -620h-131l283 587h-333v113z" />
    <glyph glyph-name="eight" unicode="8" horiz-adv-x="537" 
d="M269 -8q-105 0 -172.5 58.5t-67.5 149.5q0 58 34.5 106.5t91.5 70.5q-44 19 -71.5 60t-27.5 86q0 81 59.5 132.5t153.5 51.5q93 0 152.5 -51.5t59.5 -132.5q0 -46 -27.5 -86.5t-71.5 -59.5q57 -21 91.5 -69t34.5 -108q0 -91 -67.5 -149.5t-171.5 -58.5zM269 432
q43 0 71 24t28 61q0 38 -28 62t-71 24q-44 0 -72 -24.5t-28 -61.5t28.5 -61t71.5 -24zM269 100q53 0 88 30.5t35 76.5t-35 76.5t-88 30.5q-54 0 -89 -30t-35 -77q0 -46 35 -76.5t89 -30.5z" />
    <glyph glyph-name="nine" unicode="9" horiz-adv-x="540" 
d="M269 710q101 0 173 -70.5t72 -168.5q0 -81 -57 -172l-186 -299h-134l158 248q-24 -8 -46 -8q-96 0 -160 65.5t-64 165.5q0 98 72 168.5t172 70.5zM270 339q54 0 91.5 38t37.5 93q0 54 -37.5 91.5t-92.5 37.5t-93 -37.5t-38 -91.5q0 -55 38.5 -93t93.5 -38z" />
    <glyph glyph-name="colon" unicode=":" horiz-adv-x="262" 
d="M131 318q-32 0 -54.5 22t-22.5 54t22.5 54t54.5 22q33 0 55 -22t22 -54t-22 -54t-55 -22zM131 -10q-32 0 -54.5 22t-22.5 54t22.5 54t54.5 22q33 0 55 -22t22 -54t-22 -54t-55 -22z" />
    <glyph glyph-name="semicolon" unicode=";" horiz-adv-x="291" 
d="M160 292q-33 0 -55 22t-22 54t22 54t55 22t55 -22t22 -54t-22 -54t-55 -22zM210 118l-64 -232h-92l41 232h115z" />
    <glyph glyph-name="less" unicode="&#x3c;" horiz-adv-x="547" 
d="M488 109l-429 196v86l429 196v-114l-281 -125l281 -124v-115z" />
    <glyph glyph-name="equal" unicode="=" horiz-adv-x="586" 
d="M527 483v-105h-468v105h468zM527 269v-105h-468v105h468z" />
    <glyph glyph-name="greater" unicode="&#x3e;" horiz-adv-x="547" 
d="M59 109v115l281 124l-281 125v114l429 -196v-86z" />
    <glyph glyph-name="question" unicode="?" horiz-adv-x="511" 
d="M256 710q98 0 164 -58.5t66 -146.5q0 -51 -19 -91.5t-46.5 -65t-55 -46t-47 -46t-19.5 -53.5h-114q0 50 18.5 87.5t45.5 59.5t53.5 41t45 44t18.5 58q0 47 -31 75t-81 28q-56 0 -89 -36t-33 -92h-118q-2 103 67.5 172.5t174.5 69.5zM245 -10q-33 0 -55 22t-22 54t22 54
t55 22q32 0 54.5 -22t22.5 -54t-22.5 -54t-54.5 -22z" />
    <glyph glyph-name="at" unicode="@" horiz-adv-x="934" 
d="M571 448h90v-238q0 -47 12.5 -66.5t43.5 -19.5q35 0 56.5 44t21.5 115q0 130 -89 204.5t-244 74.5q-139 0 -231 -91.5t-92 -229.5q0 -135 89.5 -224.5t223.5 -89.5q51 0 95 15t60 39h122q-33 -62 -109 -99.5t-168 -37.5q-171 0 -286.5 113.5t-115.5 283.5
q0 173 118.5 288.5t293.5 115.5q197 0 309.5 -96.5t112.5 -265.5q0 -112 -47.5 -177.5t-124.5 -65.5q-93 0 -124 67q-50 -71 -144 -71q-81 0 -137.5 61t-56.5 149t56.5 149t137.5 61t127 -65v57zM456 125q51 0 83 33.5t32 87.5q0 55 -32 88t-83 33q-49 0 -83 -35t-34 -86
t34 -86t83 -35z" />
    <glyph glyph-name="A" unicode="A" horiz-adv-x="674" 
d="M538 0l-54 140h-296l-55 -140h-124l279 700h98l279 -700h-127zM231 252h209l-104 268z" />
    <glyph glyph-name="B" unicode="B" horiz-adv-x="590" 
d="M64 0v700h254q87 0 148.5 -53t61.5 -128q0 -52 -30.5 -94.5t-75.5 -54.5q61 -10 100.5 -58.5t39.5 -114.5q0 -83 -62.5 -140t-150.5 -57h-285zM181 410h134q40 0 67.5 26.5t27.5 64.5q0 37 -28 62t-67 25h-134v-178zM181 112h160q43 0 72.5 29.5t29.5 71.5
q0 43 -29.5 72.5t-71.5 29.5h-161v-203z" />
    <glyph glyph-name="C" unicode="C" horiz-adv-x="760" 
d="M392 -10q-150 0 -251 103.5t-101 257.5q0 153 101 256t251 103q122 0 215.5 -70.5t109.5 -177.5h-129q-17 59 -71.5 96.5t-124.5 37.5q-98 0 -164.5 -70.5t-66.5 -174.5q0 -105 66.5 -176t164.5 -71q71 0 126 39.5t71 103.5h130q-21 -114 -112 -185.5t-215 -71.5z" />
    <glyph glyph-name="D" unicode="D" horiz-adv-x="684" 
d="M294 700q150 0 250 -98.5t100 -248.5q0 -151 -100.5 -252t-249.5 -101h-230v700h230zM302 112q95 0 158.5 69t63.5 172q0 102 -63 168.5t-159 66.5h-121v-476h121z" />
    <glyph glyph-name="E" unicode="E" horiz-adv-x="522" 
d="M64 700h413v-112h-296v-165h264v-112h-264v-199h296v-112h-413v700z" />
    <glyph glyph-name="F" unicode="F" horiz-adv-x="509" 
d="M64 700h413v-112h-296v-181h264v-112h-264v-295h-117v700z" />
    <glyph glyph-name="G" unicode="G" horiz-adv-x="773" 
d="M728 392q5 -28 5 -66q0 -147 -97 -241.5t-243 -94.5q-151 0 -252 103.5t-101 257.5q0 153 101.5 256t251.5 103q116 0 210.5 -68t114.5 -162h-132q-19 51 -74 83.5t-119 32.5q-99 0 -165.5 -70.5t-66.5 -174.5q0 -106 68 -176.5t172 -70.5q82 0 140.5 48.5t72.5 126.5
h-219v113h333z" />
    <glyph glyph-name="H" unicode="H" horiz-adv-x="701" 
d="M520 700h117v-700h-117v307h-339v-307h-117v700h117v-281h339v281z" />
    <glyph glyph-name="I" unicode="I" horiz-adv-x="245" 
d="M64 700h117v-700h-117v700z" />
    <glyph glyph-name="J" unicode="J" horiz-adv-x="322" 
d="M26 103h22q98 0 98 116v481h117v-511q0 -92 -50 -144.5t-132 -52.5q-37 0 -55 4v107z" />
    <glyph glyph-name="K" unicode="K" horiz-adv-x="653" 
d="M632 0h-154l-297 342v-342h-117v700h117v-305l275 305h149l-302 -331z" />
    <glyph glyph-name="L" unicode="L" horiz-adv-x="546" 
d="M64 700h117v-588h335v-112h-452v700z" />
    <glyph glyph-name="M" unicode="M" horiz-adv-x="862" 
d="M64 0v700h141l233 -528l240 528h120v-700h-117v470l-209 -470h-86l-205 470v-470h-117z" />
    <glyph glyph-name="N" unicode="N" horiz-adv-x="679" 
d="M64 700h102l331 -474v474h118v-700h-101l-333 474v-474h-117v700z" />
    <glyph glyph-name="O" unicode="O" horiz-adv-x="791" 
d="M396 710q151 0 253 -103t102 -256q0 -154 -102 -257.5t-253 -103.5q-152 0 -254 103.5t-102 257.5q0 153 102 256t254 103zM396 596q-100 0 -167.5 -70.5t-67.5 -174.5q0 -105 67.5 -176t167.5 -71t167.5 71t67.5 176q0 104 -67.5 174.5t-167.5 70.5z" />
    <glyph glyph-name="P" unicode="P" horiz-adv-x="586" 
d="M332 700q97 0 160.5 -61t63.5 -153q0 -94 -63.5 -155t-160.5 -61h-151v-270h-117v700h268zM332 382q46 0 76 30t30 74t-30 73t-76 29h-151v-206h151z" />
    <glyph glyph-name="Q" unicode="Q" horiz-adv-x="804" 
d="M768 0h-135l-41 47q-87 -57 -196 -57q-152 0 -254 103.5t-102 257.5q0 153 102 256t254 103q151 0 253 -103t102 -256q0 -137 -82 -236zM396 104q66 0 119 33l-161 187h136l100 -116q41 63 41 143q0 104 -67.5 174.5t-167.5 70.5t-167.5 -70.5t-67.5 -174.5
q0 -105 67.5 -176t167.5 -71z" />
    <glyph glyph-name="R" unicode="R" horiz-adv-x="623" 
d="M600 0h-142l-174 281h-103v-281h-117v700h263q88 0 151.5 -60.5t63.5 -147.5q0 -72 -35.5 -124.5t-97.5 -73.5zM181 587v-194h142q44 0 72.5 28t28.5 71q0 41 -28.5 68t-72.5 27h-142z" />
    <glyph glyph-name="S" unicode="S" horiz-adv-x="595" 
d="M304 -10q-113 0 -186.5 66.5t-73.5 169.5h116q0 -56 40.5 -91t103.5 -35q60 0 97.5 27.5t37.5 71.5q0 43 -40 67.5t-96.5 37.5t-113 31t-96.5 62t-40 115q0 86 67 142t170 56q116 0 179.5 -63t63.5 -157h-120q-2 48 -36.5 78.5t-90.5 30.5q-53 0 -85.5 -23.5t-32.5 -62.5
q0 -29 21.5 -48.5t55.5 -30.5t75.5 -20.5t82.5 -23.5t75 -35.5t55.5 -61t21.5 -94.5q0 -91 -71.5 -150t-179.5 -59z" />
    <glyph glyph-name="T" unicode="T" horiz-adv-x="597" 
d="M572 700v-112h-215v-588h-117v588h-215v112h547z" />
    <glyph glyph-name="U" unicode="U" horiz-adv-x="674" 
d="M337 -9q-118 0 -195.5 78.5t-77.5 197.5v433h117v-433q0 -70 44.5 -116.5t111.5 -46.5t111.5 46.5t44.5 116.5v433h117v-433q0 -119 -77.5 -197.5t-195.5 -78.5z" />
    <glyph glyph-name="V" unicode="V" horiz-adv-x="649" 
d="M12 700h125l188 -513l188 513h124l-264 -700h-97z" />
    <glyph glyph-name="W" unicode="W" horiz-adv-x="1016" 
d="M881 701h122l-233 -701h-96l-165 507l-165 -507h-97l-235 701h125l160 -508l165 508h97l162 -508z" />
    <glyph glyph-name="X" unicode="X" horiz-adv-x="643" 
d="M631 0h-139l-172 258l-171 -258h-137l240 361l-226 339h140l156 -235l156 235h136l-224 -337z" />
    <glyph glyph-name="Y" unicode="Y" horiz-adv-x="655" 
d="M12 700h142l177 -278l174 278h137l-254 -396v-304h-117v304z" />
    <glyph glyph-name="Z" unicode="Z" horiz-adv-x="590" 
d="M48 700h507v-80l-370 -508h373v-112h-531v81l372 507h-351v112z" />
    <glyph glyph-name="bracketleft" unicode="[" horiz-adv-x="338" 
d="M161 709v-803h147v-92h-249v986h249v-91h-147z" />
    <glyph glyph-name="backslash" unicode="\" horiz-adv-x="437" 
d="M428 0h-120l-308 700h120z" />
    <glyph glyph-name="bracketright" unicode="]" horiz-adv-x="342" 
d="M181 709h-147v91h249v-986h-249v92h147v803z" />
    <glyph glyph-name="asciicircum" unicode="^" horiz-adv-x="578" 
d="M528 280h-115l-124 281l-125 -281h-114l196 430h86z" />
    <glyph glyph-name="underscore" unicode="_" horiz-adv-x="569" 
d="M20 -115v105h529v-105h-529z" />
    <glyph glyph-name="grave" unicode="`" horiz-adv-x="318" 
d="M50 695h134l84 -150h-104z" />
    <glyph glyph-name="a" unicode="a" horiz-adv-x="612" 
d="M441 489h112v-489h-112v86q-55 -96 -173 -96q-97 0 -165.5 74.5t-68.5 180.5t68.5 180t165.5 74q118 0 173 -96v86zM292 96q64 0 106.5 42.5t42.5 106.5q0 63 -42.5 105.5t-106.5 42.5q-62 0 -105 -43t-43 -105t43 -105.5t105 -43.5z" />
    <glyph glyph-name="b" unicode="b" horiz-adv-x="612" 
d="M344 499q97 0 165 -74t68 -180t-68 -180.5t-165 -74.5q-119 0 -174 98v-88h-111v700h111v-299q55 98 174 98zM320 96q62 0 105 43.5t43 105.5t-43 105t-105 43q-64 0 -107 -42.5t-43 -105.5q0 -64 43 -106.5t107 -42.5z" />
    <glyph glyph-name="c" unicode="c" horiz-adv-x="556" 
d="M287 -10q-107 0 -180 73t-73 181q0 109 73 182t180 73q89 0 156 -53t78 -132h-114q-9 34 -43 56t-77 22q-61 0 -102 -42.5t-41 -105.5q0 -62 41 -104.5t102 -42.5q44 0 78 23t43 59h114q-10 -82 -77.5 -135.5t-157.5 -53.5z" />
    <glyph glyph-name="d" unicode="d" horiz-adv-x="612" 
d="M441 700h112v-700h-112v86q-55 -96 -173 -96q-97 0 -165.5 74.5t-68.5 180.5t68.5 180t165.5 74q118 0 173 -96v297zM292 96q64 0 106.5 42.5t42.5 106.5q0 63 -42.5 105.5t-106.5 42.5q-62 0 -105 -43t-43 -105t43 -105.5t105 -43.5z" />
    <glyph glyph-name="e" unicode="e" horiz-adv-x="559" 
d="M525 255q0 -33 -3 -47h-375q11 -55 48 -86t95 -31q45 0 77.5 19.5t39.5 50.5h112q-13 -77 -77 -124t-154 -47q-107 0 -180.5 74t-73.5 183q0 106 73 179t179 73q100 0 169.5 -69t69.5 -175zM150 303h254q-8 43 -41 69t-83 26t-84 -25t-46 -70z" />
    <glyph glyph-name="f" unicode="f" horiz-adv-x="380" 
d="M321 614q-92 0 -92 -87v-38h127v-106h-127v-383h-112v383h-93v106h93v40q0 91 48.5 140.5t131.5 49.5q35 0 59 -6v-103q-13 4 -35 4z" />
    <glyph glyph-name="g" unicode="g" horiz-adv-x="612" 
d="M441 490h112v-472q0 -101 -70 -161.5t-179 -60.5q-40 0 -79.5 9t-77 28t-62 55.5t-26.5 85.5h111q2 -39 39.5 -62t91.5 -23q59 0 99.5 35t40.5 90v84q-55 -94 -173 -94q-97 0 -165.5 72.5t-68.5 175.5t68.5 175t165.5 72q118 0 173 -93v84zM292 108q64 0 106.5 41
t42.5 103t-42.5 103t-106.5 41q-62 0 -105 -42t-43 -102q0 -61 43 -102.5t105 -41.5z" />
    <glyph glyph-name="h" unicode="h" horiz-adv-x="579" 
d="M318 499q94 0 148.5 -59t54.5 -161v-279h-112v265q0 58 -32.5 92.5t-85.5 34.5q-55 0 -88 -34.5t-33 -92.5v-265h-111v700h111v-288q49 87 148 87z" />
    <glyph glyph-name="i" unicode="i" horiz-adv-x="229" 
d="M115 716q29 0 50.5 -21t21.5 -50q0 -30 -21.5 -51t-50.5 -21t-50 21t-21 51q0 29 21 50t50 21zM59 489h111v-489h-111v489z" />
    <glyph glyph-name="j" unicode="j" horiz-adv-x="229" 
d="M114 716q29 0 50.5 -21t21.5 -50q0 -30 -21.5 -51t-50.5 -21t-50 21t-21 51q0 29 21 50t50 21zM-16 -93q2 0 7 -0.5t8 -0.5q60 0 60 79v504h111v-515q0 -81 -42.5 -125t-119.5 -44q-14 0 -24 1v101z" />
    <glyph glyph-name="k" unicode="k" horiz-adv-x="534" 
d="M522 0h-144l-208 231v-231h-111v700h111v-422l198 211h139l-225 -235z" />
    <glyph glyph-name="l" unicode="l" horiz-adv-x="229" 
d="M170 700v-700h-111v700h111z" />
    <glyph glyph-name="m" unicode="m" horiz-adv-x="884" 
d="M626 499q89 0 144.5 -54.5t55.5 -145.5v-299h-113v274q0 55 -28.5 86.5t-77.5 31.5q-45 0 -77 -30t-32 -88v-274h-112v274q0 55 -28.5 86.5t-78.5 31.5q-45 0 -77 -29.5t-32 -88.5v-274h-111v489h111v-69q47 79 149 79q107 0 151 -86q21 40 63.5 63t92.5 23z" />
    <glyph glyph-name="n" unicode="n" horiz-adv-x="579" 
d="M318 499q94 0 148.5 -59t54.5 -161v-279h-112v265q0 58 -32.5 92.5t-85.5 34.5q-55 0 -88 -34.5t-33 -92.5v-265h-111v489h111v-77q49 87 148 87z" />
    <glyph glyph-name="o" unicode="o" horiz-adv-x="575" 
d="M287 499q107 0 180.5 -73.5t73.5 -181.5t-73 -181t-181 -73q-107 0 -180 73t-73 181q0 109 73 182t180 73zM287 392q-61 0 -102 -42.5t-41 -105.5q0 -62 41 -104.5t102 -42.5t102.5 42.5t41.5 104.5q0 63 -41.5 105.5t-102.5 42.5z" />
    <glyph glyph-name="p" unicode="p" horiz-adv-x="612" 
d="M344 499q97 0 165 -74.5t68 -180.5t-68 -180t-165 -74q-119 0 -174 98v-259h-111v660h111v-88q55 98 174 98zM320 96q62 0 105 43t43 105t-43 105.5t-105 43.5q-64 0 -107 -42.5t-43 -106.5q0 -63 43 -105.5t107 -42.5z" />
    <glyph glyph-name="q" unicode="q" horiz-adv-x="612" 
d="M441 489h112v-660h-112v257q-55 -96 -173 -96q-97 0 -165.5 74t-68.5 180t68.5 180.5t165.5 74.5q118 0 173 -96v86zM292 96q64 0 106.5 42.5t42.5 105.5q0 64 -42.5 106.5t-106.5 42.5q-62 0 -105 -43.5t-43 -105.5t43 -105t105 -43z" />
    <glyph glyph-name="r" unicode="r" horiz-adv-x="369" 
d="M302 499q16 0 46 -6v-102q-28 7 -49 7q-55 0 -92 -36.5t-37 -100.5v-261h-111v489h111v-65q46 75 132 75z" />
    <glyph glyph-name="s" unicode="s" horiz-adv-x="463" 
d="M241 -10q-91 0 -149 44.5t-65 122.5h107q3 -32 31 -51.5t70 -19.5q40 0 63 15.5t23 41.5q0 24 -21 39t-52.5 20t-68 14t-68 20.5t-52.5 40t-21 72.5q0 65 50.5 107.5t134.5 42.5q79 0 135.5 -40.5t64.5 -112.5h-112q-4 26 -28.5 43t-61.5 17q-33 0 -54 -13.5t-21 -36.5
q0 -27 29.5 -40t71 -19.5t83 -17.5t71 -44.5t29.5 -90.5q0 -66 -54 -110t-135 -44z" />
    <glyph glyph-name="t" unicode="t" horiz-adv-x="374" 
d="M345 383h-128v-197q0 -87 92 -87q21 0 36 4v-103q-25 -6 -60 -6q-83 0 -131.5 49.5t-48.5 140.5v199h-93v106h93v131h112v-131h128v-106z" />
    <glyph glyph-name="u" unicode="u" horiz-adv-x="579" 
d="M409 489h112v-489h-112v77q-49 -87 -147 -87q-94 0 -148.5 59t-54.5 162v278h111v-265q0 -58 32.5 -92.5t86.5 -34.5t87 34.5t33 92.5v265z" />
    <glyph glyph-name="v" unicode="v" horiz-adv-x="530" 
d="M518 489l-205 -489h-96l-205 489h121l132 -340l131 340h122z" />
    <glyph glyph-name="w" unicode="w" horiz-adv-x="788" 
d="M189 0l-177 489h120l102 -318l115 318h88l116 -318l102 318h120l-177 -489h-89l-116 317l-116 -317h-88z" />
    <glyph glyph-name="x" unicode="x" horiz-adv-x="524" 
d="M508 0h-134l-113 158l-112 -158h-133l179 252l-169 237h135l101 -143l102 143h132l-167 -236z" />
    <glyph glyph-name="y" unicode="y" horiz-adv-x="526" 
d="M394 489h120l-276 -661h-120l88 198l-194 463h120l131 -333z" />
    <glyph glyph-name="z" unicode="z" horiz-adv-x="502" 
d="M462 489v-81l-278 -304l280 3v-107h-437v81l278 305l-259 -3v106h416z" />
    <glyph glyph-name="braceleft" unicode="{" horiz-adv-x="409" 
d="M317 -186q-91 0 -144.5 55.5t-53.5 151.5v148q0 34 -27 62t-72 40v72q45 12 72 40.5t27 62.5v148q0 96 53.5 151t144.5 55h68v-91h-68q-45 0 -73.5 -31.5t-28.5 -83.5v-140q0 -95 -80 -147q80 -52 80 -146v-140q0 -52 28.5 -83.5t73.5 -31.5h68v-92h-68z" />
    <glyph glyph-name="bar" unicode="|" horiz-adv-x="234" 
d="M59 800h117v-972h-117v972z" />
    <glyph glyph-name="braceright" unicode="}" horiz-adv-x="409" 
d="M92 -186h-68v92h68q45 0 73.5 31.5t28.5 83.5v140q0 93 80 146q-80 53 -80 147v140q0 52 -28.5 83.5t-73.5 31.5h-68v91h68q91 0 145 -55t54 -151v-148q0 -34 26.5 -62.5t71.5 -40.5v-72q-45 -12 -71.5 -40t-26.5 -62v-148q0 -96 -54 -151.5t-145 -55.5z" />
    <glyph glyph-name="asciitilde" unicode="~" horiz-adv-x="588" 
d="M154 229l-95 12q9 75 45.5 117t91.5 42q40 0 102.5 -32t81.5 -32q42 0 52 73l97 -11q-11 -75 -48 -117.5t-91 -42.5q-38 0 -99.5 31.5t-82.5 31.5q-44 0 -54 -72z" />
    <glyph glyph-name="uni00A0" unicode="&#xa0;" horiz-adv-x="220" 
 />
    <glyph glyph-name="exclamdown" unicode="&#xa1;" horiz-adv-x="262" 
d="M131 710q33 0 55 -22t22 -54t-22 -54t-55 -22q-32 0 -54.5 22t-22.5 54t22.5 54t54.5 22zM71 0l4 497h112l4 -497h-120z" />
    <glyph glyph-name="cent" unicode="&#xa2;" horiz-adv-x="556" 
d="M522 179q-8 -70 -59 -119.5t-125 -64.5v-115h-111v117q-85 19 -139 87t-54 160t53.5 160t139.5 88v118h111v-116q72 -14 122.5 -63.5t60.5 -116.5h-114q-9 34 -43 56t-77 22q-61 0 -102 -42.5t-41 -105.5q0 -62 41 -104.5t102 -42.5q44 0 78 23t43 59h114z" />
    <glyph glyph-name="sterling" unicode="&#xa3;" horiz-adv-x="608" 
d="M265 260q0 -90 -70 -148h373v-112h-504v112q83 51 83 146v46h-79v95h79v89q0 98 59 160t156 62q87 0 146.5 -49.5t64.5 -130.5h-120q-2 28 -26.5 47t-61.5 19q-48 0 -74 -34.5t-26 -93.5v-69h172v-95h-172v-44z" />
    <glyph glyph-name="currency" unicode="&#xa4;" horiz-adv-x="789" 
d="M680 353q0 -85 -47 -152l98 -98l-85 -85l-98 98q-66 -47 -151 -47t-155 48l-99 -99l-84 85l98 99q-47 70 -47 151q0 83 47 153l-98 99l84 84l99 -98q70 48 155 48t151 -47l98 97l85 -84l-98 -98q47 -67 47 -154zM397 179q72 0 122.5 50.5t50.5 123.5t-50.5 124.5
t-122.5 51.5q-73 0 -125 -51.5t-52 -124.5q0 -71 52 -122.5t125 -51.5z" />
    <glyph glyph-name="yen" unicode="&#xa5;" horiz-adv-x="655" 
d="M642 700l-205 -320h137v-96h-186v-284h-117v284h-190v96h140l-209 320h142l177 -278l174 278h137z" />
    <glyph glyph-name="brokenbar" unicode="&#xa6;" horiz-adv-x="234" 
d="M59 426v374h117v-374h-117zM59 -172v374h117v-374h-117z" />
    <glyph glyph-name="section" unicode="&#xa7;" horiz-adv-x="606" 
d="M542 232q0 -59 -37 -107q37 -43 37 -113q0 -80 -65.5 -136.5t-169.5 -56.5q-106 0 -174.5 61.5t-68.5 157.5h98q0 -56 41 -91t104 -35q60 0 98.5 28t38.5 72q0 32 -20.5 54t-53 34t-72.5 21.5t-79.5 22.5t-72 31.5t-53 53t-20.5 83.5q0 62 41 109q-41 41 -41 110
q0 80 62.5 131.5t158.5 51.5q107 0 167.5 -58t60.5 -144h-102q-2 48 -37.5 78t-91.5 30q-53 0 -87 -24.5t-34 -63.5q0 -40 38.5 -62.5t93 -34.5t109 -29t93 -60t38.5 -114zM170 312q0 -32 25.5 -53t58 -30t85 -22t83.5 -26q22 22 22 51q0 28 -14 47.5t-42 32t-55.5 20.5
t-67.5 18t-66 20q-29 -23 -29 -58z" />
    <glyph glyph-name="dieresis" unicode="&#xa8;" horiz-adv-x="430" 
d="M122 716q29 0 50.5 -21t21.5 -50q0 -30 -21.5 -51t-50.5 -21t-50.5 21t-21.5 51q0 29 21.5 50t50.5 21zM309 716q29 0 50 -21t21 -50q0 -30 -21 -51t-50 -21t-50.5 21t-21.5 51q0 29 21.5 50t50.5 21z" />
    <glyph glyph-name="copyright" unicode="&#xa9;" horiz-adv-x="801" 
d="M399 -10q-148 0 -253.5 106t-105.5 254t105.5 254t253.5 106q149 0 255 -105.5t106 -254.5t-106 -254.5t-255 -105.5zM400 37q128 0 219.5 92t91.5 221t-91.5 221t-219.5 92t-219 -92t-91 -221t91 -221t219 -92zM404 147q-85 0 -142.5 59t-57.5 146t57.5 145.5
t142.5 58.5q69 0 122.5 -40.5t63.5 -100.5h-77q-10 33 -40 53.5t-69 20.5q-55 0 -92 -39.5t-37 -97.5q0 -59 37 -98.5t92 -39.5q39 0 70 22t39 58h78q-12 -65 -64 -106t-123 -41z" />
    <glyph glyph-name="ordfeminine" unicode="&#xaa;" horiz-adv-x="366" 
d="M260 704h72v-294h-72v49q-33 -55 -101 -55q-58 0 -98.5 44.5t-40.5 107.5q0 64 40.5 109t98.5 45q68 0 101 -56v50zM176 472q35 0 59.5 24t24.5 60t-24 60.5t-60 24.5t-61 -25t-25 -60t25 -59.5t61 -24.5z" />
    <glyph glyph-name="guillemotleft" unicode="&#xab;" horiz-adv-x="682" 
d="M328 38l-280 201v75l280 201v-115l-177 -124l177 -122v-116zM628 38l-281 201v75l281 201v-115l-178 -124l178 -122v-116z" />
    <glyph glyph-name="logicalnot" unicode="&#xac;" horiz-adv-x="583" 
d="M525 369v-315h-106v211h-360v104h466z" />
    <glyph glyph-name="uni00AD" unicode="&#xad;" horiz-adv-x="348" 
d="M25 207v104h298v-104h-298z" />
    <glyph glyph-name="registered" unicode="&#xae;" horiz-adv-x="789" 
d="M399 710q149 0 255 -105.5t106 -254.5t-106 -254.5t-255 -105.5q-148 0 -253.5 106t-105.5 254t105.5 254t253.5 106zM400 37q128 0 219.5 92t91.5 221t-91.5 221t-219.5 92t-219 -92t-91 -221t91 -221t219 -92zM540 431q0 -41 -20 -70.5t-55 -41.5l109 -167h-84l-98 159
h-56v-159h-69v398h150q51 0 87 -34.5t36 -84.5zM336 484v-113h74q25 0 42.5 16.5t17.5 40.5t-17 40t-43 16h-74z" />
    <glyph glyph-name="macron" unicode="&#xaf;" horiz-adv-x="420" 
d="M50 553v91h320v-91h-320z" />
    <glyph glyph-name="degree" unicode="&#xb0;" horiz-adv-x="407" 
d="M351 562q0 -62 -43.5 -106t-104.5 -44t-105 44t-44 106q0 61 44 104.5t105 43.5t104.5 -43.5t43.5 -104.5zM280 562q0 32 -22.5 55t-54.5 23q-33 0 -56 -23t-23 -55t23 -55.5t56 -23.5q32 0 54.5 23.5t22.5 55.5z" />
    <glyph glyph-name="plusminus" unicode="&#xb1;" horiz-adv-x="586" 
d="M345 465h182v-105h-182v-182h-105v182h-181v105h181v181h105v-181zM59 0v105h468v-105h-468z" />
    <glyph glyph-name="uni00B2" unicode="&#xb2;" horiz-adv-x="337" 
d="M26 280v54l144 142q37 36 50.5 55.5t13.5 42.5q0 25 -18.5 42t-46.5 17q-35 0 -54 -22.5t-17 -59.5h-76q-2 69 40 112t108 43q61 0 101 -36.5t40 -93.5q0 -68 -88 -148l-75 -75h166v-73h-288z" />
    <glyph glyph-name="uni00B3" unicode="&#xb3;" horiz-adv-x="329" 
d="M106 526l93 102h-178v72h285v-50l-109 -115q48 -1 80 -35t32 -84q0 -62 -43 -102t-108 -40q-61 0 -102.5 34.5t-45.5 89.5h75q5 -23 24 -37t49 -14q32 0 52.5 20t20.5 51q0 40 -37 57t-88 2v49z" />
    <glyph glyph-name="acute" unicode="&#xb4;" horiz-adv-x="318" 
d="M268 695l-114 -150h-104l84 150h134z" />
    <glyph glyph-name="uni00B5" unicode="&#xb5;" horiz-adv-x="579" 
d="M409 489h112v-489h-112v77q-49 -87 -147 -87q-52 0 -92 18v-180h-111v661h111v-265q0 -58 32.5 -92.5t86.5 -34.5t87 34.5t33 92.5v265z" />
    <glyph glyph-name="paragraph" unicode="&#xb6;" horiz-adv-x="748" 
d="M723 700v-112h-89v-760h-112v760h-96v-760h-112v442h-57q-97 0 -162 62t-65 154t64 153t161 61h468zM314 382v206h-63q-43 0 -73 -29.5t-30 -72.5q0 -44 30 -74t73 -30h63z" />
    <glyph glyph-name="periodcentered" unicode="&#xb7;" horiz-adv-x="262" 
d="M131 211q-32 0 -54.5 22t-22.5 54t22.5 54t54.5 22q33 0 55 -22t22 -54t-22 -54t-55 -22z" />
    <glyph glyph-name="cedilla" unicode="&#xb8;" horiz-adv-x="287" 
d="M88 20h85q59 -57 63.5 -115t-40.5 -92t-120 -30l-26 80q61 1 86 25t11 59.5t-59 72.5z" />
    <glyph glyph-name="uni00B9" unicode="&#xb9;" horiz-adv-x="229" 
d="M193 700v-420h-75v317l-94 -76v91l117 88h52z" />
    <glyph glyph-name="ordmasculine" unicode="&#xba;" horiz-adv-x="345" 
d="M172 710q65 0 109 -44.5t44 -109.5q0 -64 -44 -108t-109 -44q-64 0 -108 44t-44 108q0 65 44 109.5t108 44.5zM172 641q-35 0 -58.5 -24.5t-23.5 -60.5q0 -35 23.5 -59t58.5 -24t58.5 24t23.5 59q0 36 -23.5 60.5t-58.5 24.5z" />
    <glyph glyph-name="guillemotright" unicode="&#xbb;" horiz-adv-x="682" 
d="M55 38v116l177 122l-177 124v115l280 -201v-75zM354 38v116l178 122l-178 124v115l281 -201v-75z" />
    <glyph glyph-name="onequarter" unicode="&#xbc;" horiz-adv-x="823" 
d="M193 280h-75v317l-94 -76v91l117 88h52v-420zM586 700h90l-465 -700h-90zM809 159v-70h-49v-89h-75v89h-208v48l149 283h85l-138 -261h112v112h75v-112h49z" />
    <glyph glyph-name="onehalf" unicode="&#xbd;" horiz-adv-x="828" 
d="M193 700v-420h-75v317l-94 -76v91l117 88h52zM586 700h90l-465 -700h-90zM544 0v54l143 142q37 37 51 56t14 42q0 25 -19 42t-46 17q-34 0 -54 -22t-18 -60h-75q-3 69 39 112t109 43q61 0 101 -36.5t40 -93.5q0 -67 -88 -148l-76 -75h166v-73h-287z" />
    <glyph glyph-name="threequarters" unicode="&#xbe;" horiz-adv-x="873" 
d="M309 416q0 -62 -43 -102t-108 -40q-61 0 -102.5 34.5t-45.5 89.5h75q5 -23 24 -37t49 -14q32 0 52.5 20t20.5 51q0 40 -37 57t-88 2v49l93 102h-178v72h285v-50l-109 -115q48 -1 80 -35t32 -84zM637 700h90l-465 -700h-90zM859 159v-70h-49v-89h-75v89h-208v48l149 283
h85l-138 -261h112v112h75v-112h49z" />
    <glyph glyph-name="questiondown" unicode="&#xbf;" horiz-adv-x="507" 
d="M262 710q33 0 55 -22t22 -54t-22 -54t-55 -22q-32 0 -54.5 22t-22.5 54t22.5 54t54.5 22zM251 -10q-98 0 -164 58.5t-66 146.5q0 51 19 91.5t46.5 65t55 46t47 46t19.5 53.5h114q0 -42 -13.5 -75.5t-33.5 -53.5t-43.5 -39l-43.5 -34t-33.5 -37.5t-13.5 -50.5
q0 -47 31 -75t81 -28q56 0 89 36t33 92h118q2 -103 -67.5 -172.5t-174.5 -69.5z" />
    <glyph glyph-name="Agrave" unicode="&#xc0;" horiz-adv-x="674" 
d="M398 756h-104l-113 150h134zM538 0l-54 140h-296l-55 -140h-124l279 700h98l279 -700h-127zM231 252h209l-104 268z" />
    <glyph glyph-name="Aacute" unicode="&#xc1;" horiz-adv-x="674" 
d="M496 906l-114 -150h-103l83 150h134zM538 0l-54 140h-296l-55 -140h-124l279 700h98l279 -700h-127zM231 252h209l-104 268z" />
    <glyph glyph-name="Acircumflex" unicode="&#xc2;" horiz-adv-x="674" 
d="M338 839l-57 -79h-99l94 150h123l94 -150h-99zM538 0l-54 140h-296l-55 -140h-124l279 700h98l279 -700h-127zM231 252h209l-104 268z" />
    <glyph glyph-name="Atilde" unicode="&#xc3;" horiz-adv-x="674" 
d="M269 812q-17 0 -27 -14.5t-9 -37.5l-91 15q5 59 38.5 96t80.5 37q35 0 83 -27.5t59 -27.5q17 0 28 14t12 37l91 -15q-6 -58 -40 -95t-80 -37q-37 0 -84 27.5t-61 27.5zM538 0l-54 140h-296l-55 -140h-124l279 700h98l279 -700h-127zM231 252h209l-104 268z" />
    <glyph glyph-name="Adieresis" unicode="&#xc4;" horiz-adv-x="674" 
d="M245 758q-29 0 -50.5 21t-21.5 51q0 29 21.5 50t50.5 21t50 -21.5t21 -49.5q0 -30 -21 -51t-50 -21zM431 758q-29 0 -50 21t-21 51q0 29 21 50t50 21t50.5 -21t21.5 -50q0 -30 -21.5 -51t-50.5 -21zM538 0l-54 140h-296l-55 -140h-124l279 700h98l279 -700h-127zM231 252
h209l-104 268z" />
    <glyph glyph-name="Aring" unicode="&#xc5;" horiz-adv-x="674" 
d="M338 752q-56 0 -94 36.5t-38 90.5q0 55 38 91.5t94 36.5q57 0 95.5 -36.5t38.5 -91.5q0 -54 -38.5 -90.5t-95.5 -36.5zM338 940q-27 0 -44.5 -17.5t-17.5 -43.5t17.5 -43.5t44.5 -17.5t45.5 17.5t18.5 43.5t-18.5 43.5t-45.5 17.5zM538 0l-54 140h-296l-55 -140h-124
l279 700h98l279 -700h-127zM231 252h209l-104 268z" />
    <glyph glyph-name="AE" unicode="&#xc6;" horiz-adv-x="933" 
d="M888 588h-293v-165h261v-112h-261v-199h293v-112h-409v164h-245l-92 -164h-133l407 700h472v-112zM293 269h186v330z" />
    <glyph glyph-name="Ccedilla" unicode="&#xc7;" horiz-adv-x="760" 
d="M719 247q-19 -105 -98 -174.5t-190 -80.5q64 -82 23.5 -148.5t-146.5 -60.5l-26 80q80 2 97 41t-30 88q-134 16 -221.5 116.5t-87.5 242.5q0 153 101 256t251 103q122 0 215.5 -70.5t109.5 -177.5h-129q-17 59 -71.5 96.5t-124.5 37.5q-98 0 -164.5 -70.5t-66.5 -174.5
q0 -105 66.5 -176t164.5 -71q71 0 126 39.5t71 103.5h130z" />
    <glyph glyph-name="Egrave" unicode="&#xc8;" horiz-adv-x="522" 
d="M119 906h134l83 -150h-104zM64 700h413v-112h-296v-165h264v-112h-264v-199h296v-112h-413v700z" />
    <glyph glyph-name="Eacute" unicode="&#xc9;" horiz-adv-x="522" 
d="M434 906l-114 -150h-103l83 150h134zM64 700h413v-112h-296v-165h264v-112h-264v-199h296v-112h-413v700z" />
    <glyph glyph-name="Ecircumflex" unicode="&#xca;" horiz-adv-x="522" 
d="M276 839l-57 -79h-99l94 150h123l94 -150h-99zM477 588h-296v-165h264v-112h-264v-199h296v-112h-413v700h413v-112z" />
    <glyph glyph-name="Edieresis" unicode="&#xcb;" horiz-adv-x="522" 
d="M182 901q28 0 49.5 -21.5t21.5 -49.5q0 -30 -21 -51t-50 -21t-50.5 21t-21.5 51q0 29 21.5 50t50.5 21zM368 901q29 0 50.5 -21t21.5 -50q0 -30 -21.5 -51t-50.5 -21t-50 21t-21 51q0 29 21 50t50 21zM64 700h413v-112h-296v-165h264v-112h-264v-199h296v-112h-413v700z
" />
    <glyph glyph-name="Igrave" unicode="&#xcc;" horiz-adv-x="245" 
d="M-34 906h134l83 -150h-104zM64 700h117v-700h-117v700z" />
    <glyph glyph-name="Iacute" unicode="&#xcd;" horiz-adv-x="245" 
d="M281 906l-114 -150h-103l83 150h134zM64 700h117v-700h-117v700z" />
    <glyph glyph-name="Icircumflex" unicode="&#xce;" horiz-adv-x="245" 
d="M123 839l-57 -79h-100l95 150h123l94 -150h-99zM64 0v700h117v-700h-117z" />
    <glyph glyph-name="Idieresis" unicode="&#xcf;" horiz-adv-x="245" 
d="M29 901q29 0 50 -21.5t21 -49.5q0 -30 -21 -51t-50 -21q-30 0 -51 21t-21 51q0 29 21 50t51 21zM215 901q29 0 50.5 -21t21.5 -50q0 -30 -21.5 -51t-50.5 -21t-50 21t-21 51q0 29 21 50t50 21zM64 700h117v-700h-117v700z" />
    <glyph glyph-name="Eth" unicode="&#xd0;" horiz-adv-x="684" 
d="M294 700q150 0 250 -98.5t100 -248.5q0 -151 -100.5 -252t-249.5 -101h-230v315h-96v76h96v309h230zM302 112q95 0 158.5 69t63.5 172q0 102 -63 168.5t-159 66.5h-121v-197h107v-76h-107v-203h121z" />
    <glyph glyph-name="Ntilde" unicode="&#xd1;" horiz-adv-x="679" 
d="M146 775q5 59 38.5 96t80.5 37q35 0 83 -27.5t59 -27.5q17 0 28 14t12 37l91 -15q-6 -58 -40 -95t-80 -37q-37 0 -84 27.5t-61 27.5q-17 0 -27 -14.5t-9 -37.5zM64 700h102l331 -474v474h118v-700h-101l-333 474v-474h-117v700z" />
    <glyph glyph-name="Ograve" unicode="&#xd2;" horiz-adv-x="791" 
d="M239 906h134l83 -150h-104zM396 710q151 0 253 -103t102 -256q0 -154 -102 -257.5t-253 -103.5q-152 0 -254 103.5t-102 257.5q0 153 102 256t254 103zM396 596q-100 0 -167.5 -70.5t-67.5 -174.5q0 -105 67.5 -176t167.5 -71t167.5 71t67.5 176q0 104 -67.5 174.5
t-167.5 70.5z" />
    <glyph glyph-name="Oacute" unicode="&#xd3;" horiz-adv-x="791" 
d="M554 906l-114 -150h-103l83 150h134zM396 710q151 0 253 -103t102 -256q0 -154 -102 -257.5t-253 -103.5q-152 0 -254 103.5t-102 257.5q0 153 102 256t254 103zM396 596q-100 0 -167.5 -70.5t-67.5 -174.5q0 -105 67.5 -176t167.5 -71t167.5 71t67.5 176
q0 104 -67.5 174.5t-167.5 70.5z" />
    <glyph glyph-name="Ocircumflex" unicode="&#xd4;" horiz-adv-x="791" 
d="M396 839l-57 -79h-99l94 150h123l94 -150h-99zM396 710q151 0 253 -103t102 -256q0 -154 -102 -257.5t-253 -103.5q-152 0 -254 103.5t-102 257.5q0 153 102 256t254 103zM396 104q100 0 167.5 71t67.5 176q0 104 -67.5 174.5t-167.5 70.5t-167.5 -70.5t-67.5 -174.5
q0 -105 67.5 -176t167.5 -71z" />
    <glyph glyph-name="Otilde" unicode="&#xd5;" horiz-adv-x="791" 
d="M199 775q5 59 38.5 96t80.5 37q36 0 83 -27.5t59 -27.5q17 0 28 14t12 37l91 -15q-6 -58 -40 -95t-80 -37q-37 0 -84 27.5t-61 27.5q-17 0 -27 -14.5t-9 -37.5zM396 710q151 0 253 -103t102 -256q0 -154 -102 -257.5t-253 -103.5q-152 0 -254 103.5t-102 257.5
q0 153 102 256t254 103zM396 596q-100 0 -167.5 -70.5t-67.5 -174.5q0 -105 67.5 -176t167.5 -71t167.5 71t67.5 176q0 104 -67.5 174.5t-167.5 70.5z" />
    <glyph glyph-name="Odieresis" unicode="&#xd6;" horiz-adv-x="791" 
d="M303 901q29 0 50 -21.5t21 -49.5q0 -30 -21 -51t-50 -21t-50.5 21t-21.5 51q0 29 21.5 50t50.5 21zM489 901q29 0 50.5 -21t21.5 -50q0 -30 -21.5 -51t-50.5 -21t-50 21t-21 51q0 29 21 50t50 21zM396 710q151 0 253 -103t102 -256q0 -154 -102 -257.5t-253 -103.5
q-152 0 -254 103.5t-102 257.5q0 153 102 256t254 103zM396 596q-100 0 -167.5 -70.5t-67.5 -174.5q0 -105 67.5 -176t167.5 -71t167.5 71t67.5 176q0 104 -67.5 174.5t-167.5 70.5z" />
    <glyph glyph-name="multiply" unicode="&#xd7;" horiz-adv-x="550" 
d="M491 468l-142 -142l142 -142l-74 -74l-142 142l-142 -142l-74 74l141 142l-141 141l74 75l142 -142l141 142z" />
    <glyph glyph-name="Oslash" unicode="&#xd8;" horiz-adv-x="791" 
d="M396 710q151 0 253 -103t102 -256q0 -154 -102 -257.5t-253 -103.5q-152 0 -254 103.5t-102 257.5q0 153 102 256t254 103zM396 596q-100 0 -167.5 -70.5t-67.5 -174.5q0 -85 46 -150l302 367q-51 28 -113 28zM396 104q100 0 167.5 71t67.5 176q0 86 -47 150l-303 -367
q54 -30 115 -30z" />
    <glyph glyph-name="Ugrave" unicode="&#xd9;" horiz-adv-x="674" 
d="M180 906h134l83 -150h-104zM337 -9q-118 0 -195.5 78.5t-77.5 197.5v433h117v-433q0 -70 44.5 -116.5t111.5 -46.5t111.5 46.5t44.5 116.5v433h117v-433q0 -119 -77.5 -197.5t-195.5 -78.5z" />
    <glyph glyph-name="Uacute" unicode="&#xda;" horiz-adv-x="674" 
d="M495 906l-114 -150h-103l83 150h134zM337 -9q-118 0 -195.5 78.5t-77.5 197.5v433h117v-433q0 -70 44.5 -116.5t111.5 -46.5t111.5 46.5t44.5 116.5v433h117v-433q0 -119 -77.5 -197.5t-195.5 -78.5z" />
    <glyph glyph-name="Ucircumflex" unicode="&#xdb;" horiz-adv-x="674" 
d="M337 839l-57 -79h-99l94 150h123l94 -150h-99zM493 700h117v-433q0 -119 -77.5 -197.5t-195.5 -78.5t-195.5 78.5t-77.5 197.5v433h117v-433q0 -70 44.5 -116.5t111.5 -46.5t111.5 46.5t44.5 116.5v433z" />
    <glyph glyph-name="Udieresis" unicode="&#xdc;" horiz-adv-x="674" 
d="M244 901q28 0 49.5 -21.5t21.5 -49.5q0 -30 -21 -51t-50 -21t-50.5 21t-21.5 51q0 29 21.5 50t50.5 21zM430 901q29 0 50.5 -21t21.5 -50q0 -30 -21.5 -51t-50.5 -21t-50 21t-21 51q0 29 21 50t50 21zM337 -9q-118 0 -195.5 78.5t-77.5 197.5v433h117v-433
q0 -70 44.5 -116.5t111.5 -46.5t111.5 46.5t44.5 116.5v433h117v-433q0 -119 -77.5 -197.5t-195.5 -78.5z" />
    <glyph glyph-name="Yacute" unicode="&#xdd;" horiz-adv-x="655" 
d="M487 906l-114 -150h-103l83 150h134zM12 700h142l177 -278l174 278h137l-254 -396v-304h-117v304z" />
    <glyph glyph-name="Thorn" unicode="&#xde;" horiz-adv-x="583" 
d="M332 566q97 0 160.5 -61t63.5 -154t-63.5 -154t-160.5 -61h-151v-136h-117v700h117v-134h151zM332 248q46 0 76 29.5t30 73.5t-30 73.5t-76 29.5h-151v-206h151z" />
    <glyph glyph-name="germandbls" unicode="&#xdf;" horiz-adv-x="591" 
d="M57 0v453q0 119 67 188t181 69q89 0 154 -57.5t65 -141.5q0 -47 -25 -83t-63 -50q54 -17 88 -61t34 -103q0 -90 -62 -152t-151 -62h-108v112h101q42 0 71.5 29t29.5 71q0 44 -32 72.5t-84 28.5h-86v105h75q40 0 67 26t27 62q0 39 -29.5 65.5t-73.5 26.5q-57 0 -93 -40
t-36 -105v-453h-117z" />
    <glyph glyph-name="agrave" unicode="&#xe0;" horiz-adv-x="612" 
d="M395 545h-104l-113 150h134zM441 489h112v-489h-112v86q-55 -96 -173 -96q-97 0 -165.5 74.5t-68.5 180.5t68.5 180t165.5 74q118 0 173 -96v86zM292 96q64 0 106.5 42.5t42.5 106.5q0 63 -42.5 105.5t-106.5 42.5q-62 0 -105 -43t-43 -105t43 -105.5t105 -43.5z" />
    <glyph glyph-name="aacute" unicode="&#xe1;" horiz-adv-x="612" 
d="M493 695l-114 -150h-103l83 150h134zM441 489h112v-489h-112v86q-55 -96 -173 -96q-97 0 -165.5 74.5t-68.5 180.5t68.5 180t165.5 74q118 0 173 -96v86zM292 96q64 0 106.5 42.5t42.5 106.5q0 63 -42.5 105.5t-106.5 42.5q-62 0 -105 -43t-43 -105t43 -105.5t105 -43.5z
" />
    <glyph glyph-name="acircumflex" unicode="&#xe2;" horiz-adv-x="612" 
d="M334 629l-56 -80h-100l95 150h123l94 -150h-99zM441 489h112v-489h-112v86q-55 -96 -173 -96q-97 0 -165.5 74.5t-68.5 180.5t68.5 180t165.5 74q118 0 173 -96v86zM292 96q64 0 106.5 42.5t42.5 106.5q0 63 -42.5 105.5t-106.5 42.5q-62 0 -105 -43t-43 -105t43 -105.5
t105 -43.5z" />
    <glyph glyph-name="atilde" unicode="&#xe3;" horiz-adv-x="612" 
d="M265 601q-17 0 -27 -14.5t-9 -37.5l-91 15q5 59 38.5 96t80.5 37q35 0 83 -27.5t59 -27.5q17 0 28 14t12 37l91 -15q-6 -58 -40 -95t-80 -37q-37 0 -84 27.5t-61 27.5zM441 489h112v-489h-112v86q-55 -96 -173 -96q-97 0 -165.5 74.5t-68.5 180.5t68.5 180t165.5 74
q118 0 173 -96v86zM292 96q64 0 106.5 42.5t42.5 106.5q0 63 -42.5 105.5t-106.5 42.5q-62 0 -105 -43t-43 -105t43 -105.5t105 -43.5z" />
    <glyph glyph-name="adieresis" unicode="&#xe4;" horiz-adv-x="612" 
d="M241 573q-29 0 -50.5 21t-21.5 51q0 29 21.5 50t50.5 21t50.5 -21t21.5 -50q0 -30 -21.5 -51t-50.5 -21zM428 573q-29 0 -50.5 21t-21.5 51q0 29 21.5 50t50.5 21t50.5 -21t21.5 -50q0 -30 -21.5 -51t-50.5 -21zM441 489h112v-489h-112v86q-55 -96 -173 -96
q-97 0 -165.5 74.5t-68.5 180.5t68.5 180t165.5 74q118 0 173 -96v86zM292 96q64 0 106.5 42.5t42.5 106.5q0 63 -42.5 105.5t-106.5 42.5q-62 0 -105 -43t-43 -105t43 -105.5t105 -43.5z" />
    <glyph glyph-name="aring" unicode="&#xe5;" horiz-adv-x="612" 
d="M335 541q-57 0 -95 36.5t-38 90.5q0 55 38 91.5t95 36.5q56 0 94.5 -36.5t38.5 -91.5q0 -54 -38.5 -90.5t-94.5 -36.5zM335 729q-27 0 -45 -17.5t-18 -43.5t18 -43.5t45 -17.5t45 17.5t18 43.5t-18 43.5t-45 17.5zM441 489h112v-489h-112v86q-55 -96 -173 -96
q-97 0 -165.5 74.5t-68.5 180.5t68.5 180t165.5 74q118 0 173 -96v86zM292 96q64 0 106.5 42.5t42.5 106.5q0 63 -42.5 105.5t-106.5 42.5q-62 0 -105 -43t-43 -105t43 -105.5t105 -43.5z" />
    <glyph glyph-name="ae" unicode="&#xe6;" horiz-adv-x="997" 
d="M963 266q0 -21 -4 -41h-380q7 -65 49 -102.5t104 -37.5q42 0 77.5 17.5t51.5 46.5l88 -53q-25 -46 -83.5 -76t-124.5 -30q-128 0 -188 97v-87h-112v86q-55 -96 -173 -96q-97 0 -165.5 74.5t-68.5 180.5t68.5 180t165.5 74q118 0 173 -96v86h112v-86q60 96 186 96
q94 0 159 -67.5t65 -165.5zM582 295h270q-4 48 -42 80.5t-88 32.5q-55 0 -92 -30t-48 -83zM292 96q64 0 106.5 42.5t42.5 106.5q0 63 -42.5 105.5t-106.5 42.5q-62 0 -105 -43t-43 -105t43 -105.5t105 -43.5z" />
    <glyph glyph-name="ccedilla" unicode="&#xe7;" horiz-adv-x="556" 
d="M522 179q-9 -73 -64.5 -124t-133.5 -62q64 -82 24.5 -149t-146.5 -61l-26 80q54 1 79.5 20t21 48.5t-34.5 62.5q-91 15 -149.5 84.5t-58.5 165.5q0 109 73 182t180 73q89 0 156 -53t78 -132h-114q-9 34 -43 56t-77 22q-61 0 -102 -42.5t-41 -105.5q0 -62 41 -104.5
t102 -42.5q44 0 78 23t43 59h114z" />
    <glyph glyph-name="egrave" unicode="&#xe8;" horiz-adv-x="559" 
d="M341 545h-104l-113 150h134zM525 255q0 -33 -3 -47h-375q11 -55 48 -86t95 -31q45 0 77.5 19.5t39.5 50.5h112q-13 -77 -77 -124t-154 -47q-107 0 -180.5 74t-73.5 183q0 106 73 179t179 73q100 0 169.5 -69t69.5 -175zM150 303h254q-8 43 -41 69t-83 26t-84 -25t-46 -70
z" />
    <glyph glyph-name="eacute" unicode="&#xe9;" horiz-adv-x="559" 
d="M439 695l-114 -150h-103l83 150h134zM525 255q0 -33 -3 -47h-375q11 -55 48 -86t95 -31q45 0 77.5 19.5t39.5 50.5h112q-13 -77 -77 -124t-154 -47q-107 0 -180.5 74t-73.5 183q0 106 73 179t179 73q100 0 169.5 -69t69.5 -175zM150 303h254q-8 43 -41 69t-83 26t-84 -25
t-46 -70z" />
    <glyph glyph-name="ecircumflex" unicode="&#xea;" horiz-adv-x="559" 
d="M281 628l-57 -79h-99l94 150h123l94 -150h-99zM525 255q0 -33 -3 -47h-375q11 -55 48 -86t95 -31q45 0 77.5 19.5t39.5 50.5h112q-13 -77 -77 -124t-154 -47q-107 0 -180.5 74t-73.5 183q0 106 73 179t179 73q100 0 169.5 -69t69.5 -175zM150 303h254q-8 43 -41 69
t-83 26t-84 -25t-46 -70z" />
    <glyph glyph-name="edieresis" unicode="&#xeb;" horiz-adv-x="559" 
d="M188 573q-29 0 -50.5 21t-21.5 51q0 29 21.5 50t50.5 21q28 0 49.5 -21t21.5 -50q0 -30 -21 -51t-50 -21zM374 573q-29 0 -50 21t-21 51q0 29 21 50t50 21t50.5 -21t21.5 -50q0 -30 -21.5 -51t-50.5 -21zM525 255q0 -33 -3 -47h-375q11 -55 48 -86t95 -31q45 0 77.5 19.5
t39.5 50.5h112q-13 -77 -77 -124t-154 -47q-107 0 -180.5 74t-73.5 183q0 106 73 179t179 73q100 0 169.5 -69t69.5 -175zM150 303h254q-8 43 -41 69t-83 26t-84 -25t-46 -70z" />
    <glyph glyph-name="igrave" unicode="&#xec;" horiz-adv-x="229" 
d="M-42 695h134l83 -150h-104zM59 489h111v-489h-111v489z" />
    <glyph glyph-name="iacute" unicode="&#xed;" horiz-adv-x="229" 
d="M273 695l-114 -150h-103l83 150h134zM59 489h111v-489h-111v489z" />
    <glyph glyph-name="icircumflex" unicode="&#xee;" horiz-adv-x="229" 
d="M176 699l94 -150h-99l-56 79l-57 -79h-100l95 150h123zM59 0v489h111v-489h-111z" />
    <glyph glyph-name="idieresis" unicode="&#xef;" horiz-adv-x="229" 
d="M22 716q28 0 49.5 -21t21.5 -50q0 -30 -21 -51t-50 -21q-30 0 -51 21t-21 51q0 29 21 50t51 21zM208 716q29 0 50.5 -21t21.5 -50q0 -30 -21.5 -51t-50.5 -21t-50 21t-21 51q0 29 21 50t50 21zM59 489h111v-489h-111v489z" />
    <glyph glyph-name="eth" unicode="&#xf0;" horiz-adv-x="625" 
d="M673 642v-76h-120v-285q0 -131 -74 -211t-187 -80q-114 0 -186 73.5t-72 181.5q0 106 68.5 180t165.5 74q59 0 104 -27t69 -76v170h-121v76h121v58h112v-58h120zM292 96q64 0 106.5 42.5t42.5 106.5q0 63 -42.5 105.5t-106.5 42.5q-62 0 -105.5 -43t-43.5 -105
t43.5 -105.5t105.5 -43.5z" />
    <glyph glyph-name="ntilde" unicode="&#xf1;" horiz-adv-x="579" 
d="M214 601q-17 0 -27 -14.5t-9 -37.5l-91 15q4 59 38 96t80 37q36 0 84 -27.5t59 -27.5q17 0 28 14t12 37l90 -15q-5 -58 -39.5 -95t-80.5 -37q-36 0 -83 27.5t-61 27.5zM318 499q94 0 148.5 -59t54.5 -161v-279h-112v265q0 58 -32.5 92.5t-85.5 34.5q-55 0 -88 -34.5
t-33 -92.5v-265h-111v489h111v-77q49 87 148 87z" />
    <glyph glyph-name="ograve" unicode="&#xf2;" horiz-adv-x="575" 
d="M131 695h134l83 -150h-104zM287 499q107 0 180.5 -73.5t73.5 -181.5t-73 -181t-181 -73q-107 0 -180 73t-73 181q0 109 73 182t180 73zM287 392q-61 0 -102 -42.5t-41 -105.5q0 -62 41 -104.5t102 -42.5t102.5 42.5t41.5 104.5q0 63 -41.5 105.5t-102.5 42.5z" />
    <glyph glyph-name="oacute" unicode="&#xf3;" horiz-adv-x="575" 
d="M446 695l-114 -150h-103l83 150h134zM287 499q107 0 180.5 -73.5t73.5 -181.5t-73 -181t-181 -73q-107 0 -180 73t-73 181q0 109 73 182t180 73zM287 392q-61 0 -102 -42.5t-41 -105.5q0 -62 41 -104.5t102 -42.5t102.5 42.5t41.5 104.5q0 63 -41.5 105.5t-102.5 42.5z
" />
    <glyph glyph-name="ocircumflex" unicode="&#xf4;" horiz-adv-x="575" 
d="M288 628l-57 -79h-99l94 150h123l94 -150h-99zM287 499q107 0 180.5 -73.5t73.5 -181.5t-73 -181t-181 -73q-107 0 -180 73t-73 181q0 109 73 182t180 73zM287 97q61 0 102.5 42.5t41.5 104.5q0 63 -41.5 105.5t-102.5 42.5t-102 -42.5t-41 -105.5q0 -62 41 -104.5
t102 -42.5z" />
    <glyph glyph-name="otilde" unicode="&#xf5;" horiz-adv-x="575" 
d="M92 564q5 59 38.5 96t80.5 37q35 0 83 -27.5t59 -27.5q17 0 28 14t12 37l91 -15q-6 -58 -40 -95t-80 -37q-37 0 -84 27.5t-61 27.5q-17 0 -27 -14.5t-9 -37.5zM287 499q107 0 180.5 -73.5t73.5 -181.5t-73 -181t-181 -73q-107 0 -180 73t-73 181q0 109 73 182t180 73z
M287 392q-61 0 -102 -42.5t-41 -105.5q0 -62 41 -104.5t102 -42.5t102.5 42.5t41.5 104.5q0 63 -41.5 105.5t-102.5 42.5z" />
    <glyph glyph-name="odieresis" unicode="&#xf6;" horiz-adv-x="575" 
d="M195 716q29 0 50 -21t21 -50q0 -30 -21 -51t-50 -21t-50.5 21t-21.5 51q0 29 21.5 50t50.5 21zM381 716q29 0 50.5 -21t21.5 -50q0 -30 -21.5 -51t-50.5 -21t-50 21t-21 51q0 29 21 50t50 21zM287 499q107 0 180.5 -73.5t73.5 -181.5t-73 -181t-181 -73q-107 0 -180 73
t-73 181q0 109 73 182t180 73zM287 392q-61 0 -102 -42.5t-41 -105.5q0 -62 41 -104.5t102 -42.5t102.5 42.5t41.5 104.5q0 63 -41.5 105.5t-102.5 42.5z" />
    <glyph glyph-name="divide" unicode="&#xf7;" horiz-adv-x="586" 
d="M293 433q-32 0 -54.5 22t-22.5 54t22.5 54t54.5 22q33 0 55 -22t22 -54t-22 -54t-55 -22zM527 370v-104h-468v104h468zM293 51q-32 0 -54.5 22t-22.5 54t22.5 54t54.5 22q33 0 55 -22t22 -54t-22 -54t-55 -22z" />
    <glyph glyph-name="oslash" unicode="&#xf8;" horiz-adv-x="575" 
d="M287 499q107 0 180.5 -73.5t73.5 -181.5t-73 -181t-181 -73q-107 0 -180 73t-73 181q0 109 73 182t180 73zM287 392q-61 0 -102 -42.5t-41 -105.5q0 -66 45 -109l99 257h-1zM287 97q61 0 102.5 42.5t41.5 104.5q0 66 -46 110l-99 -257h1z" />
    <glyph glyph-name="ugrave" unicode="&#xf9;" horiz-adv-x="579" 
d="M350 545h-104l-114 150h134zM409 489h112v-489h-112v77q-49 -87 -147 -87q-94 0 -148.5 59t-54.5 162v278h111v-265q0 -58 32.5 -92.5t86.5 -34.5t87 34.5t33 92.5v265z" />
    <glyph glyph-name="uacute" unicode="&#xfa;" horiz-adv-x="579" 
d="M448 695l-114 -150h-104l84 150h134zM409 489h112v-489h-112v77q-49 -87 -147 -87q-94 0 -148.5 59t-54.5 162v278h111v-265q0 -58 32.5 -92.5t86.5 -34.5t87 34.5t33 92.5v265z" />
    <glyph glyph-name="ucircumflex" unicode="&#xfb;" horiz-adv-x="579" 
d="M289 629l-56 -80h-100l95 150h122l95 -150h-99zM409 489h112v-489h-112v77q-49 -87 -147 -87q-94 0 -148.5 59t-54.5 162v278h111v-265q0 -58 32.5 -92.5t86.5 -34.5t87 34.5t33 92.5v265z" />
    <glyph glyph-name="udieresis" unicode="&#xfc;" horiz-adv-x="579" 
d="M196 573q-29 0 -50.5 21t-21.5 51q0 29 21.5 50t50.5 21t50.5 -21t21.5 -50q0 -30 -21.5 -51t-50.5 -21zM383 573q-29 0 -50.5 21t-21.5 51q0 29 21.5 50t50.5 21t50 -21t21 -50q0 -30 -21 -51t-50 -21zM409 489h112v-489h-112v77q-49 -87 -147 -87q-94 0 -148.5 59
t-54.5 162v278h111v-265q0 -58 32.5 -92.5t86.5 -34.5t87 34.5t33 92.5v265z" />
    <glyph glyph-name="yacute" unicode="&#xfd;" horiz-adv-x="526" 
d="M430 695l-114 -150h-103l83 150h134zM394 489h120l-276 -661h-120l88 198l-194 463h120l131 -333z" />
    <glyph glyph-name="thorn" unicode="&#xfe;" horiz-adv-x="611" 
d="M343 499q98 0 166 -74.5t68 -180.5t-68 -180t-166 -74q-118 0 -173 96v-258h-111v872h111v-297q55 96 173 96zM319 96q62 0 105 43t43 105t-43 105.5t-105 43.5q-64 0 -106.5 -42.5t-42.5 -106.5q0 -63 42.5 -105.5t106.5 -42.5z" />
    <glyph glyph-name="ydieresis" unicode="&#xff;" horiz-adv-x="526" 
d="M179 573q-29 0 -50.5 21t-21.5 51q0 29 21.5 50t50.5 21t50 -21t21 -50q0 -30 -21 -51t-50 -21zM365 573q-29 0 -50 21t-21 51q0 29 21 50t50 21t50.5 -21t21.5 -50q0 -30 -21.5 -51t-50.5 -21zM394 489h120l-276 -661h-120l88 198l-194 463h120l131 -333z" />
    <glyph glyph-name="Amacron" unicode="&#x100;" horiz-adv-x="674" 
d="M498 855v-91h-320v91h320zM538 0l-54 140h-296l-55 -140h-124l279 700h98l279 -700h-127zM231 252h209l-104 268z" />
    <glyph glyph-name="amacron" unicode="&#x101;" horiz-adv-x="573" 
d="M458 644v-91h-320v91h320zM441 489h112v-489h-112v86q-55 -96 -173 -96q-97 0 -165.5 74.5t-68.5 180.5t68.5 180t165.5 74q118 0 173 -96v86zM292 96q64 0 106.5 42.5t42.5 106.5q0 63 -42.5 105.5t-106.5 42.5q-62 0 -105 -43t-43 -105t43 -105.5t105 -43.5z" />
    <glyph glyph-name="Abreve" unicode="&#x102;" horiz-adv-x="674" 
d="M338 749q-69 0 -113.5 43t-45.5 113h86q0 -36 20.5 -58.5t52.5 -22.5q31 0 51.5 22.5t20.5 58.5h86q-1 -70 -45.5 -113t-112.5 -43zM538 0l-54 140h-296l-55 -140h-124l279 700h98l279 -700h-127zM231 252h209l-104 268z" />
    <glyph glyph-name="abreve" unicode="&#x103;" horiz-adv-x="575" 
d="M281 538q-69 0 -113.5 43t-44.5 113h85q1 -36 21 -58.5t52 -22.5t52 22.5t21 58.5h85q0 -70 -44.5 -113t-113.5 -43zM441 489h112v-489h-112v86q-55 -96 -173 -96q-97 0 -165.5 74.5t-68.5 180.5t68.5 180t165.5 74q118 0 173 -96v86zM292 96q64 0 106.5 42.5t42.5 106.5
q0 63 -42.5 105.5t-106.5 42.5q-62 0 -105 -43t-43 -105t43 -105.5t105 -43.5z" />
    <glyph glyph-name="Aogonek" unicode="&#x104;" horiz-adv-x="674" 
d="M648 -101l29 -71q-41 -23 -106 -23q-48 0 -78 28t-30 71q0 67 67 116l-46 120h-296l-55 -140h-124l279 700h98l279 -700h-29q-35 -9 -55.5 -28.5t-20.5 -43.5q0 -17 12.5 -27.5t33.5 -10.5t42 9zM231 252h209l-104 268z" />
    <glyph glyph-name="aogonek" unicode="&#x105;" horiz-adv-x="612" 
d="M566 -101l28 -71q-39 -23 -106 -23q-48 0 -77.5 28t-29.5 71q0 64 60 111v71q-55 -96 -173 -96q-97 0 -165.5 74.5t-68.5 180.5t68.5 180t165.5 74q118 0 173 -96v86h112v-489q-34 -9 -54.5 -28.5t-20.5 -43.5q0 -17 12 -27.5t33 -10.5q22 0 43 9zM292 96
q64 0 106.5 42.5t42.5 106.5q0 63 -42.5 105.5t-106.5 42.5q-62 0 -105 -43t-43 -105t43 -105.5t105 -43.5z" />
    <glyph glyph-name="Cacute" unicode="&#x106;" horiz-adv-x="760" 
d="M550 906l-114 -150h-103l83 150h134zM392 -10q-150 0 -251 103.5t-101 257.5q0 153 101 256t251 103q122 0 215.5 -70.5t109.5 -177.5h-129q-17 59 -71.5 96.5t-124.5 37.5q-98 0 -164.5 -70.5t-66.5 -174.5q0 -105 66.5 -176t164.5 -71q71 0 126 39.5t71 103.5h130
q-21 -114 -112 -185.5t-215 -71.5z" />
    <glyph glyph-name="cacute" unicode="&#x107;" horiz-adv-x="556" 
d="M445 695l-114 -150h-103l83 150h134zM287 -10q-107 0 -180 73t-73 181q0 109 73 182t180 73q89 0 156 -53t78 -132h-114q-9 34 -43 56t-77 22q-61 0 -102 -42.5t-41 -105.5q0 -62 41 -104.5t102 -42.5q44 0 78 23t43 59h114q-10 -82 -77.5 -135.5t-157.5 -53.5z" />
    <glyph glyph-name="Ccircumflex" unicode="&#x108;" horiz-adv-x="760" 
d="M392 839l-57 -79h-99l94 150h123l94 -150h-99zM589 247h130q-21 -114 -112 -185.5t-215 -71.5q-150 0 -251 103.5t-101 257.5q0 153 101 256t251 103q122 0 215.5 -70.5t109.5 -177.5h-129q-17 59 -71.5 96.5t-124.5 37.5q-98 0 -164.5 -70.5t-66.5 -174.5
q0 -105 66.5 -176t164.5 -71q71 0 126 39.5t71 103.5z" />
    <glyph glyph-name="ccircumflex" unicode="&#x109;" horiz-adv-x="556" 
d="M287 628l-57 -79h-99l94 150h123l94 -150h-99zM408 179h114q-10 -82 -77.5 -135.5t-157.5 -53.5q-107 0 -180 73t-73 181q0 109 73 182t180 73q89 0 156 -53t78 -132h-114q-9 34 -43 56t-77 22q-61 0 -102 -42.5t-41 -105.5q0 -62 41 -104.5t102 -42.5q44 0 78 23t43 59z
" />
    <glyph glyph-name="Cdotaccent" unicode="&#x10a;" horiz-adv-x="760" 
d="M391 901q29 0 50.5 -21t21.5 -50q0 -30 -21.5 -51t-50.5 -21t-50 21t-21 51q0 29 21 50t50 21zM392 -10q-150 0 -251 103.5t-101 257.5q0 153 101 256t251 103q122 0 215.5 -70.5t109.5 -177.5h-129q-17 59 -71.5 96.5t-124.5 37.5q-98 0 -164.5 -70.5t-66.5 -174.5
q0 -105 66.5 -176t164.5 -71q71 0 126 39.5t71 103.5h130q-21 -114 -112 -185.5t-215 -71.5z" />
    <glyph glyph-name="cdotaccent" unicode="&#x10b;" horiz-adv-x="556" 
d="M287 716q29 0 50.5 -21t21.5 -50q0 -30 -21.5 -51t-50.5 -21t-50 21t-21 51q0 29 21 50t50 21zM287 -10q-107 0 -180 73t-73 181q0 109 73 182t180 73q89 0 156 -53t78 -132h-114q-9 34 -43 56t-77 22q-61 0 -102 -42.5t-41 -105.5q0 -62 41 -104.5t102 -42.5q44 0 78 23
t43 59h114q-10 -82 -77.5 -135.5t-157.5 -53.5z" />
    <glyph glyph-name="Ccaron" unicode="&#x10c;" horiz-adv-x="760" 
d="M330 756l-94 150h99l57 -79l56 79h99l-94 -150h-123zM589 247h130q-21 -114 -112 -185.5t-215 -71.5q-150 0 -251 103.5t-101 257.5q0 153 101 256t251 103q122 0 215.5 -70.5t109.5 -177.5h-129q-17 59 -71.5 96.5t-124.5 37.5q-98 0 -164.5 -70.5t-66.5 -174.5
q0 -105 66.5 -176t164.5 -71q71 0 126 39.5t71 103.5z" />
    <glyph glyph-name="ccaron" unicode="&#x10d;" horiz-adv-x="556" 
d="M225 545l-94 150h99l57 -79l56 79h99l-94 -150h-123zM408 179h114q-10 -82 -77.5 -135.5t-157.5 -53.5q-107 0 -180 73t-73 181q0 109 73 182t180 73q89 0 156 -53t78 -132h-114q-9 34 -43 56t-77 22q-61 0 -102 -42.5t-41 -105.5q0 -62 41 -104.5t102 -42.5q44 0 78 23
t43 59z" />
    <glyph glyph-name="Dcaron" unicode="&#x10e;" horiz-adv-x="684" 
d="M239 756l-94 150h99l57 -79l56 79h99l-94 -150h-123zM294 700q150 0 250 -98.5t100 -248.5q0 -151 -100.5 -252t-249.5 -101h-230v700h230zM302 112q95 0 158.5 69t63.5 172q0 102 -63 168.5t-159 66.5h-121v-476h121z" />
    <glyph glyph-name="dcaron" unicode="&#x10f;" horiz-adv-x="722" 
d="M618 755h118l-45 -210h-93zM441 403v297h112v-700h-112v86q-55 -96 -173 -96q-97 0 -165.5 74.5t-68.5 180.5t68.5 180t165.5 74q118 0 173 -96zM292 96q64 0 106.5 42.5t42.5 106.5q0 63 -42.5 105.5t-106.5 42.5q-62 0 -105 -43t-43 -105t43 -105.5t105 -43.5z" />
    <glyph glyph-name="Dcroat" unicode="&#x110;" horiz-adv-x="684" 
d="M294 700q150 0 250 -98.5t100 -248.5q0 -151 -100.5 -252t-249.5 -101h-230v315h-96v76h96v309h230zM302 112q95 0 158.5 69t63.5 172q0 102 -63 168.5t-159 66.5h-121v-197h107v-76h-107v-203h121z" />
    <glyph glyph-name="dcroat" unicode="&#x111;" horiz-adv-x="612" 
d="M660 639v-70h-107v-569h-112v86q-55 -96 -173 -96q-97 0 -165.5 74.5t-68.5 180.5t68.5 180t165.5 74q118 0 173 -96v166h-101v70h101v61h112v-61h107zM292 96q64 0 106.5 42.5t42.5 106.5q0 63 -42.5 105.5t-106.5 42.5q-62 0 -105 -43t-43 -105t43 -105.5t105 -43.5z
" />
    <glyph glyph-name="Emacron" unicode="&#x112;" horiz-adv-x="522" 
d="M115 764v91h320v-91h-320zM64 700h413v-112h-296v-165h264v-112h-264v-199h296v-112h-413v700z" />
    <glyph glyph-name="emacron" unicode="&#x113;" horiz-adv-x="559" 
d="M441 644v-91h-320v91h320zM525 255q0 -33 -3 -47h-375q11 -55 48 -86t95 -31q45 0 77.5 19.5t39.5 50.5h112q-13 -77 -77 -124t-154 -47q-107 0 -180.5 74t-73.5 183q0 106 73 179t179 73q100 0 169.5 -69t69.5 -175zM150 303h254q-8 43 -41 69t-83 26t-84 -25t-46 -70z
" />
    <glyph glyph-name="Ebreve" unicode="&#x114;" horiz-adv-x="522" 
d="M434 905q-1 -70 -45.5 -113t-112.5 -43q-69 0 -113.5 43t-45.5 113h86q0 -36 20.5 -58.5t52.5 -22.5q31 0 51.5 22.5t20.5 58.5h86zM64 700h413v-112h-296v-165h264v-112h-264v-199h296v-112h-413v700z" />
    <glyph glyph-name="ebreve" unicode="&#x115;" horiz-adv-x="559" 
d="M281 538q-69 0 -113.5 43t-45.5 113h86q0 -36 20.5 -58.5t52.5 -22.5q31 0 51.5 22.5t20.5 58.5h86q-1 -70 -45.5 -113t-112.5 -43zM525 255q0 -33 -3 -47h-375q11 -55 48 -86t95 -31q45 0 77.5 19.5t39.5 50.5h112q-13 -77 -77 -124t-154 -47q-107 0 -180.5 74
t-73.5 183q0 106 73 179t179 73q100 0 169.5 -69t69.5 -175zM150 303h254q-8 43 -41 69t-83 26t-84 -25t-46 -70z" />
    <glyph glyph-name="Edotaccent" unicode="&#x116;" horiz-adv-x="522" 
d="M275 901q29 0 50.5 -21t21.5 -50q0 -30 -21.5 -51t-50.5 -21t-50 21t-21 51q0 29 21 50t50 21zM64 700h413v-112h-296v-165h264v-112h-264v-199h296v-112h-413v700z" />
    <glyph glyph-name="edotaccent" unicode="&#x117;" horiz-adv-x="559" 
d="M280 573q-29 0 -50 21t-21 51q0 29 21 50t50 21t50.5 -21t21.5 -50q0 -30 -21.5 -51t-50.5 -21zM525 255q0 -33 -3 -47h-375q11 -55 48 -86t95 -31q45 0 77.5 19.5t39.5 50.5h112q-13 -77 -77 -124t-154 -47q-107 0 -180.5 74t-73.5 183q0 106 73 179t179 73
q100 0 169.5 -69t69.5 -175zM150 303h254q-8 43 -41 69t-83 26t-84 -25t-46 -70z" />
    <glyph glyph-name="Eogonek" unicode="&#x118;" horiz-adv-x="522" 
d="M477 588h-296v-165h264v-112h-264v-199h296v-112h-72q-35 -9 -55.5 -28.5t-20.5 -43.5q0 -17 12.5 -27.5t33.5 -10.5t42 9l29 -71q-41 -23 -106 -23q-48 0 -78 28t-30 71q0 54 44 96h-212v700h413v-112z" />
    <glyph glyph-name="eogonek" unicode="&#x119;" horiz-adv-x="559" 
d="M525 255q0 -33 -3 -47h-375q11 -55 48 -86t95 -31q45 0 77.5 19.5t39.5 50.5h112q-12 -67 -61 -110l2 -10q-88 -63 -88 -113q0 -17 12.5 -27.5t33.5 -10.5t42 9l29 -71q-41 -23 -106 -23q-48 0 -78 28t-30 71q0 45 34 87q-7 -1 -21 -1q-107 0 -180.5 74t-73.5 183
q0 106 73 179t179 73q100 0 169.5 -69t69.5 -175zM150 303h254q-8 43 -41 69t-83 26t-84 -25t-46 -70z" />
    <glyph glyph-name="Ecaron" unicode="&#x11a;" horiz-adv-x="522" 
d="M214 756l-94 150h99l57 -79l56 79h99l-94 -150h-123zM477 588h-296v-165h264v-112h-264v-199h296v-112h-413v700h413v-112z" />
    <glyph glyph-name="ecaron" unicode="&#x11b;" horiz-adv-x="559" 
d="M219 545l-94 150h99l57 -79l56 79h99l-94 -150h-123zM525 255q0 -33 -3 -47h-375q11 -55 48 -86t95 -31q45 0 77.5 19.5t39.5 50.5h112q-13 -77 -77 -124t-154 -47q-107 0 -180.5 74t-73.5 183q0 106 73 179t179 73q100 0 169.5 -69t69.5 -175zM150 303h254q-8 43 -41 69
t-83 26t-84 -25t-46 -70z" />
    <glyph glyph-name="Gcircumflex" unicode="&#x11c;" horiz-adv-x="773" 
d="M389 839l-57 -79h-99l94 150h123l94 -150h-99zM728 392q5 -28 5 -66q0 -147 -97 -241.5t-243 -94.5q-151 0 -252 103.5t-101 257.5q0 153 101.5 256t251.5 103q116 0 210.5 -68t114.5 -162h-132q-19 51 -74 83.5t-119 32.5q-99 0 -165.5 -70.5t-66.5 -174.5
q0 -106 68 -176.5t172 -70.5q82 0 140.5 48.5t72.5 126.5h-219v113h333z" />
    <glyph glyph-name="gcircumflex" unicode="&#x11d;" horiz-adv-x="612" 
d="M334 628l-57 -79h-99l94 150h123l94 -150h-99zM441 490h112v-472q0 -101 -70 -161.5t-179 -60.5q-40 0 -79.5 9t-77 28t-62 55.5t-26.5 85.5h111q2 -39 39.5 -62t91.5 -23q59 0 99.5 35t40.5 90v84q-55 -94 -173 -94q-97 0 -165.5 72.5t-68.5 175.5t68.5 175t165.5 72
q118 0 173 -93v84zM292 108q64 0 106.5 41t42.5 103t-42.5 103t-106.5 41q-62 0 -105 -42t-43 -102q0 -61 43 -102.5t105 -41.5z" />
    <glyph glyph-name="Gbreve" unicode="&#x11e;" horiz-adv-x="773" 
d="M390 749q-69 0 -113.5 43t-45.5 113h86q0 -36 20.5 -58.5t52.5 -22.5q31 0 51.5 22.5t20.5 58.5h86q-1 -70 -45.5 -113t-112.5 -43zM728 392q5 -28 5 -66q0 -147 -97 -241.5t-243 -94.5q-151 0 -252 103.5t-101 257.5q0 153 101.5 256t251.5 103q116 0 210.5 -68
t114.5 -162h-132q-19 51 -74 83.5t-119 32.5q-99 0 -165.5 -70.5t-66.5 -174.5q0 -106 68 -176.5t172 -70.5q82 0 140.5 48.5t72.5 126.5h-219v113h333z" />
    <glyph glyph-name="gbreve" unicode="&#x11f;" horiz-adv-x="612" 
d="M334 538q-69 0 -113.5 43t-45.5 113h86q0 -36 20.5 -58.5t52.5 -22.5q31 0 51.5 22.5t20.5 58.5h86q-1 -70 -45.5 -113t-112.5 -43zM441 490h112v-472q0 -101 -70 -161.5t-179 -60.5q-40 0 -79.5 9t-77 28t-62 55.5t-26.5 85.5h111q2 -39 39.5 -62t91.5 -23q59 0 99.5 35
t40.5 90v84q-55 -94 -173 -94q-97 0 -165.5 72.5t-68.5 175.5t68.5 175t165.5 72q118 0 173 -93v84zM292 108q64 0 106.5 41t42.5 103t-42.5 103t-106.5 41q-62 0 -105 -42t-43 -102q0 -61 43 -102.5t105 -41.5z" />
    <glyph glyph-name="Gdotaccent" unicode="&#x120;" horiz-adv-x="773" 
d="M389 758q-29 0 -50 21t-21 51q0 29 21 50t50 21t50.5 -21t21.5 -50q0 -30 -21.5 -51t-50.5 -21zM728 392q5 -28 5 -66q0 -147 -97 -241.5t-243 -94.5q-151 0 -252 103.5t-101 257.5q0 153 101.5 256t251.5 103q116 0 210.5 -68t114.5 -162h-132q-19 51 -74 83.5
t-119 32.5q-99 0 -165.5 -70.5t-66.5 -174.5q0 -106 68 -176.5t172 -70.5q82 0 140.5 48.5t72.5 126.5h-219v113h333z" />
    <glyph glyph-name="gdotaccent" unicode="&#x121;" horiz-adv-x="612" 
d="M333 573q-29 0 -50 21t-21 51q0 29 21 50t50 21t50.5 -21t21.5 -50q0 -30 -21.5 -51t-50.5 -21zM441 490h112v-472q0 -101 -70 -161.5t-179 -60.5q-40 0 -79.5 9t-77 28t-62 55.5t-26.5 85.5h111q2 -39 39.5 -62t91.5 -23q59 0 99.5 35t40.5 90v84q-55 -94 -173 -94
q-97 0 -165.5 72.5t-68.5 175.5t68.5 175t165.5 72q118 0 173 -93v84zM292 108q64 0 106.5 41t42.5 103t-42.5 103t-106.5 41q-62 0 -105 -42t-43 -102q0 -61 43 -102.5t105 -41.5z" />
    <glyph glyph-name="uni0122" unicode="&#x122;" horiz-adv-x="773" 
d="M728 392q5 -28 5 -66q0 -147 -97 -241.5t-243 -94.5q-151 0 -252 103.5t-101 257.5q0 153 101.5 256t251.5 103q116 0 210.5 -68t114.5 -162h-132q-19 51 -74 83.5t-119 32.5q-99 0 -165.5 -70.5t-66.5 -174.5q0 -106 68 -176.5t172 -70.5q82 0 140.5 48.5t72.5 126.5
h-219v113h333zM244 -218l83 150h134l-113 -150h-104z" />
    <glyph glyph-name="uni0123" unicode="&#x123;" horiz-adv-x="612" 
d="M492 700l-84 -149h-134l114 149h104zM441 490h112v-472q0 -101 -70 -161.5t-179 -60.5q-40 0 -79.5 9t-77 28t-62 55.5t-26.5 85.5h111q2 -39 39.5 -62t91.5 -23q59 0 99.5 35t40.5 90v84q-55 -94 -173 -94q-97 0 -165.5 72.5t-68.5 175.5t68.5 175t165.5 72
q118 0 173 -93v84zM292 108q64 0 106.5 41t42.5 103t-42.5 103t-106.5 41q-62 0 -105 -42t-43 -102q0 -61 43 -102.5t105 -41.5z" />
    <glyph glyph-name="Hcircumflex" unicode="&#x124;" horiz-adv-x="701" 
d="M351 839l-57 -79h-99l94 150h123l94 -150h-99zM520 700h117v-700h-117v307h-339v-307h-117v700h117v-281h339v281z" />
    <glyph glyph-name="hcircumflex" unicode="&#x125;" horiz-adv-x="579" 
d="M171 760l-56 80l-57 -80h-99l94 150h123l95 -150h-100zM318 499q94 0 148.5 -59t54.5 -161v-279h-112v265q0 58 -32.5 92.5t-85.5 34.5q-55 0 -88 -34.5t-33 -92.5v-265h-111v700h111v-288q49 87 148 87z" />
    <glyph glyph-name="Hbar" unicode="&#x126;" horiz-adv-x="701" 
d="M702 614v-96h-65v-518h-117v307h-339v-307h-117v518h-66v96h66v86h117v-86h339v86h117v-86h65zM520 419v99h-339v-99h339z" />
    <glyph glyph-name="hbar" unicode="&#x127;" horiz-adv-x="579" 
d="M318 499q94 0 148.5 -59t54.5 -161v-279h-112v265q0 58 -32.5 92.5t-85.5 34.5q-55 0 -88 -34.5t-33 -92.5v-265h-111v569h-104v70h104v61h111v-61h106v-70h-106v-157q49 87 148 87z" />
    <glyph glyph-name="Itilde" unicode="&#x128;" horiz-adv-x="245" 
d="M-74 775q5 59 38.5 96t80.5 37q35 0 83 -27.5t59 -27.5q17 0 28 14t12 37l91 -15q-6 -58 -40 -95t-80 -37q-37 0 -84 27.5t-61 27.5q-17 0 -27 -14.5t-9 -37.5zM64 700h117v-700h-117v700z" />
    <glyph glyph-name="itilde" unicode="&#x129;" horiz-adv-x="229" 
d="M-81 564q5 59 38.5 96t80.5 37q35 0 82.5 -27.5t59.5 -27.5q17 0 28 14t12 37l91 -15q-6 -58 -40 -95t-80 -37q-37 0 -84 27.5t-61 27.5q-17 0 -27 -14.5t-9 -37.5zM59 489h111v-489h-111v489z" />
    <glyph glyph-name="Imacron" unicode="&#x12a;" horiz-adv-x="245" 
d="M-38 764v91h320v-91h-320zM64 700h117v-700h-117v700z" />
    <glyph glyph-name="imacron" unicode="&#x12b;" horiz-adv-x="229" 
d="M-45 553v91h320v-91h-320zM59 489h111v-489h-111v489z" />
    <glyph glyph-name="Ibreve" unicode="&#x12c;" horiz-adv-x="245" 
d="M281 905q-1 -70 -45.5 -113t-112.5 -43q-69 0 -114 43t-45 113h86q0 -36 20.5 -58.5t52.5 -22.5q31 0 51.5 22.5t20.5 58.5h86zM64 700h117v-700h-117v700z" />
    <glyph glyph-name="ibreve" unicode="&#x12d;" horiz-adv-x="229" 
d="M273 694q-1 -70 -45.5 -113t-112.5 -43q-69 0 -114 43t-45 113h86q0 -36 20.5 -58.5t52.5 -22.5q31 0 51.5 22.5t20.5 58.5h86zM59 489h111v-489h-111v489z" />
    <glyph glyph-name="Iogonek" unicode="&#x12e;" horiz-adv-x="245" 
d="M193 -101l29 -71q-41 -23 -106 -23q-48 0 -78 28t-30 71q0 61 56 107v689h117v-700q-35 -9 -55.5 -28.5t-20.5 -43.5q0 -17 12.5 -27.5t33.5 -10.5t42 9z" />
    <glyph glyph-name="iogonek" unicode="&#x12f;" horiz-adv-x="229" 
d="M115 573q-29 0 -50 21t-21 51q0 29 21 50t50 21t50.5 -21t21.5 -50q0 -30 -21.5 -51t-50.5 -21zM183 -101l29 -71q-41 -23 -106 -23q-48 0 -78 28t-30 71q0 63 61 111v474h111v-422h1v-67q-35 -9 -55.5 -28.5t-20.5 -43.5q0 -17 12.5 -27.5t33.5 -10.5t42 9z" />
    <glyph glyph-name="Idotaccent" unicode="&#x130;" horiz-adv-x="245" 
d="M122 901q29 0 50.5 -21t21.5 -50q0 -30 -21.5 -51t-50.5 -21t-50 21t-21 51q0 29 21 50t50 21zM64 700h117v-700h-117v700z" />
    <glyph glyph-name="dotlessi" unicode="&#x131;" horiz-adv-x="229" 
d="M59 489h111v-489h-111v489z" />
    <glyph glyph-name="IJ" unicode="&#x132;" horiz-adv-x="567" 
d="M64 700h117v-700h-117v700zM271 103h22q98 0 98 116v481h117v-511q0 -92 -50 -144.5t-132 -52.5q-37 0 -55 4v107z" />
    <glyph glyph-name="ij" unicode="&#x133;" horiz-adv-x="458" 
d="M115 716q29 0 50.5 -21t21.5 -50q0 -30 -21.5 -51t-50.5 -21t-50 21t-21 51q0 29 21 50t50 21zM343 716q29 0 50.5 -21t21.5 -50q0 -30 -21.5 -51t-50.5 -21t-50 21t-21 51q0 29 21 50t50 21zM59 489h111v-489h-111v489zM213 -93q2 0 7 -0.5t8 -0.5q60 0 60 79v504h111
v-515q0 -81 -42.5 -125t-119.5 -44q-14 0 -24 1v101z" />
    <glyph glyph-name="Jcircumflex" unicode="&#x134;" horiz-adv-x="322" 
d="M205 839l-57 -79h-99l94 150h123l94 -150h-99zM146 219v481h117v-511q0 -92 -50 -144.5t-132 -52.5q-37 0 -55 4v107h22q98 0 98 116z" />
    <glyph glyph-name="jcircumflex" unicode="&#x135;" horiz-adv-x="229" 
d="M176 699l94 -150h-99l-56 79l-57 -79h-100l95 150h123zM59 -15v504h111v-515q0 -81 -42.5 -125t-119.5 -44q-14 0 -24 1v101q2 0 7 -0.5t8 -0.5q60 0 60 79z" />
    <glyph glyph-name="uni0136" unicode="&#x136;" horiz-adv-x="653" 
d="M303 369l329 -369h-154l-297 342v-342h-117v700h117v-305l275 305h149zM174 -218l83 150h134l-113 -150h-104z" />
    <glyph glyph-name="uni0137" unicode="&#x137;" horiz-adv-x="534" 
d="M282 254l240 -254h-144l-208 231v-231h-111v700h111v-422l198 211h139zM131 -218l83 150h134l-113 -150h-104z" />
    <glyph glyph-name="kgreenlandic" unicode="&#x138;" horiz-adv-x="535" 
d="M523 0h-145l-208 237v-237h-111v489h111v-217l199 217h138l-219 -235z" />
    <glyph glyph-name="Lacute" unicode="&#x139;" horiz-adv-x="546" 
d="M280 906l-114 -150h-103l83 150h134zM64 700h117v-588h335v-112h-452v700z" />
    <glyph glyph-name="lacute" unicode="&#x13a;" horiz-adv-x="229" 
d="M285 906l-114 -150h-103l83 150h134zM170 700v-700h-111v700h111z" />
    <glyph glyph-name="uni013B" unicode="&#x13b;" horiz-adv-x="546" 
d="M64 700h117v-588h335v-112h-452v700zM350 -68l-113 -150h-104l83 150h134z" />
    <glyph glyph-name="uni013C" unicode="&#x13c;" horiz-adv-x="229" 
d="M170 700v-700h-111v700h111zM203 -68l-113 -150h-104l83 150h134z" />
    <glyph glyph-name="Lcaron" unicode="&#x13d;" horiz-adv-x="546" 
d="M277 545l20 210h117l-44 -210h-93zM64 700h117v-588h335v-112h-452v700z" />
    <glyph glyph-name="lcaron" unicode="&#x13e;" horiz-adv-x="338" 
d="M214 545l20 210h117l-44 -210h-93zM170 700v-700h-111v700h111z" />
    <glyph glyph-name="Ldot" unicode="&#x13f;" horiz-adv-x="550" 
d="M64 700h117v-588h335v-112h-452v700zM382 311q-32 0 -54.5 22t-22.5 54t22.5 54t54.5 22q33 0 55 -22t22 -54t-22 -54t-55 -22z" />
    <glyph glyph-name="ldot" unicode="&#x140;" horiz-adv-x="358" 
d="M159 700v-700h-111v700h111zM285 291q-32 0 -54.5 22t-22.5 54t22.5 54t54.5 22q33 0 55 -22t22 -54t-22 -54t-55 -22z" />
    <glyph glyph-name="Lslash" unicode="&#x141;" horiz-adv-x="546" 
d="M181 112h335v-112h-452v281l-76 -35v101l76 35v318h117v-263l181 84v-101l-181 -84v-224z" />
    <glyph glyph-name="lslash" unicode="&#x142;" horiz-adv-x="229" 
d="M235 500v-103l-65 -30v-367h-111v316l-67 -31v103l67 31v281h111v-230z" />
    <glyph glyph-name="Nacute" unicode="&#x143;" horiz-adv-x="679" 
d="M500 906l-114 -150h-103l83 150h134zM64 700h102l331 -474v474h118v-700h-101l-333 474v-474h-117v700z" />
    <glyph glyph-name="nacute" unicode="&#x144;" horiz-adv-x="579" 
d="M441 695l-114 -150h-103l83 150h134zM318 499q94 0 148.5 -59t54.5 -161v-279h-112v265q0 58 -32.5 92.5t-85.5 34.5q-55 0 -88 -34.5t-33 -92.5v-265h-111v489h111v-77q49 87 148 87z" />
    <glyph glyph-name="uni0145" unicode="&#x145;" horiz-adv-x="679" 
d="M64 700h102l331 -474v474h118v-700h-101l-333 474v-474h-117v700zM427 -68l-113 -150h-104l83 150h134z" />
    <glyph glyph-name="uni0146" unicode="&#x146;" horiz-adv-x="579" 
d="M318 499q94 0 148.5 -59t54.5 -161v-279h-112v265q0 58 -32.5 92.5t-85.5 34.5q-55 0 -88 -34.5t-33 -92.5v-265h-111v489h111v-77q49 87 148 87zM153 -218l84 150h134l-114 -150h-104z" />
    <glyph glyph-name="Ncaron" unicode="&#x147;" horiz-adv-x="679" 
d="M280 756l-94 150h99l57 -79l56 79h99l-94 -150h-123zM497 700h118v-700h-101l-333 474v-474h-117v700h102l331 -474v474z" />
    <glyph glyph-name="ncaron" unicode="&#x148;" horiz-adv-x="579" 
d="M221 545l-94 150h99l57 -79l56 79h99l-94 -150h-123zM318 499q94 0 148.5 -59t54.5 -161v-279h-112v265q0 58 -32.5 92.5t-85.5 34.5q-55 0 -88 -34.5t-33 -92.5v-265h-111v489h111v-77q49 87 148 87z" />
    <glyph glyph-name="napostrophe" unicode="&#x149;" horiz-adv-x="575" 
d="M107 618q-41 18 -41 65q0 31 20.5 51.5t51.5 20.5q30 0 51 -20.5t21 -51.5q0 -24 -22 -61l-43 -77h-71zM318 499q94 0 148.5 -59t54.5 -161v-279h-112v265q0 58 -32.5 92.5t-85.5 34.5q-55 0 -88 -34.5t-33 -92.5v-265h-111v489h111v-77q49 87 148 87z" />
    <glyph glyph-name="Eng" unicode="&#x14a;" horiz-adv-x="679" 
d="M497 700h118v-685q0 -92 -50 -144.5t-132 -52.5q-38 0 -56 4v107h23q89 0 96 96l-315 449v-474h-117v700h102l331 -474v474z" />
    <glyph glyph-name="eng" unicode="&#x14b;" horiz-adv-x="578" 
d="M521 279v-279h-1v-26q0 -81 -43 -125t-119 -44q-15 0 -25 1v101q3 0 8 -0.5t7 -0.5q60 0 60 79v153h1v127q0 58 -32.5 92.5t-85.5 34.5q-55 0 -88 -34.5t-33 -92.5v-265h-111v489h111v-77q49 87 148 87q94 0 148.5 -59t54.5 -161z" />
    <glyph glyph-name="Omacron" unicode="&#x14c;" horiz-adv-x="791" 
d="M236 764v91h320v-91h-320zM396 710q151 0 253 -103t102 -256q0 -154 -102 -257.5t-253 -103.5q-152 0 -254 103.5t-102 257.5q0 153 102 256t254 103zM396 596q-100 0 -167.5 -70.5t-67.5 -174.5q0 -105 67.5 -176t167.5 -71t167.5 71t67.5 176q0 104 -67.5 174.5
t-167.5 70.5z" />
    <glyph glyph-name="omacron" unicode="&#x14d;" horiz-adv-x="575" 
d="M128 553v91h320v-91h-320zM287 499q107 0 180.5 -73.5t73.5 -181.5t-73 -181t-181 -73q-107 0 -180 73t-73 181q0 109 73 182t180 73zM287 392q-61 0 -102 -42.5t-41 -105.5q0 -62 41 -104.5t102 -42.5t102.5 42.5t41.5 104.5q0 63 -41.5 105.5t-102.5 42.5z" />
    <glyph glyph-name="Obreve" unicode="&#x14e;" horiz-adv-x="791" 
d="M554 905q-1 -70 -45.5 -113t-112.5 -43q-69 0 -113.5 43t-45.5 113h86q0 -36 20.5 -58.5t52.5 -22.5q31 0 51.5 22.5t20.5 58.5h86zM396 710q151 0 253 -103t102 -256q0 -154 -102 -257.5t-253 -103.5q-152 0 -254 103.5t-102 257.5q0 153 102 256t254 103zM396 596
q-100 0 -167.5 -70.5t-67.5 -174.5q0 -105 67.5 -176t167.5 -71t167.5 71t67.5 176q0 104 -67.5 174.5t-167.5 70.5z" />
    <glyph glyph-name="obreve" unicode="&#x14f;" horiz-adv-x="575" 
d="M446 694q-1 -70 -45.5 -113t-112.5 -43q-69 0 -113.5 43t-45.5 113h86q0 -36 20.5 -58.5t52.5 -22.5q31 0 51.5 22.5t20.5 58.5h86zM287 499q107 0 180.5 -73.5t73.5 -181.5t-73 -181t-181 -73q-107 0 -180 73t-73 181q0 109 73 182t180 73zM287 392q-61 0 -102 -42.5
t-41 -105.5q0 -62 41 -104.5t102 -42.5t102.5 42.5t41.5 104.5q0 63 -41.5 105.5t-102.5 42.5z" />
    <glyph glyph-name="Ohungarumlaut" unicode="&#x150;" horiz-adv-x="791" 
d="M353 756l63 154h-114l-64 -154h115zM543 756l64 154h-115l-64 -154h115zM396 710q151 0 253 -103t102 -256q0 -154 -102 -257.5t-253 -103.5q-152 0 -254 103.5t-102 257.5q0 153 102 256t254 103zM396 596q-100 0 -167.5 -70.5t-67.5 -174.5q0 -105 67.5 -176t167.5 -71
t167.5 71t67.5 176q0 104 -67.5 174.5t-167.5 70.5z" />
    <glyph glyph-name="ohungarumlaut" unicode="&#x151;" horiz-adv-x="575" 
d="M245 545l63 154h-114l-64 -154h115zM435 545l64 154h-115l-64 -154h115zM287 499q107 0 180.5 -73.5t73.5 -181.5t-73 -181t-181 -73q-107 0 -180 73t-73 181q0 109 73 182t180 73zM287 392q-61 0 -102 -42.5t-41 -105.5q0 -62 41 -104.5t102 -42.5t102.5 42.5
t41.5 104.5q0 63 -41.5 105.5t-102.5 42.5z" />
    <glyph glyph-name="OE" unicode="&#x152;" horiz-adv-x="962" 
d="M916 588h-295v-165h263v-112h-263v-199h295v-112h-526q-149 0 -249.5 101t-100.5 252q0 149 100.5 248t249.5 99h526v-112zM503 112v476h-120q-97 0 -159.5 -66t-62.5 -169q0 -104 63 -172.5t159 -68.5h120z" />
    <glyph glyph-name="oe" unicode="&#x153;" horiz-adv-x="958" 
d="M925 255q0 -33 -3 -47h-375q11 -55 48 -86t95 -31q44 0 77 19.5t40 50.5h111q-13 -77 -76.5 -124t-153.5 -47q-125 0 -200 95q-75 -95 -201 -95q-107 0 -180 73t-73 181q0 109 73 182t180 73q60 0 112.5 -25.5t87.5 -69.5q75 95 199 95q100 0 169.5 -69t69.5 -175z
M550 303h253q-7 43 -40 69t-83 26t-84 -25t-46 -70zM287 97q61 0 102.5 42.5t41.5 104.5q0 63 -41.5 105.5t-102.5 42.5t-102 -42.5t-41 -105.5q0 -62 41 -104.5t102 -42.5z" />
    <glyph glyph-name="Racute" unicode="&#x154;" horiz-adv-x="623" 
d="M431 906l-114 -150h-103l83 150h134zM600 0h-142l-174 281h-103v-281h-117v700h263q88 0 151.5 -60.5t63.5 -147.5q0 -72 -35.5 -124.5t-97.5 -73.5zM181 587v-194h142q44 0 72.5 28t28.5 71q0 41 -28.5 68t-72.5 27h-142z" />
    <glyph glyph-name="racute" unicode="&#x155;" horiz-adv-x="369" 
d="M363 695l-114 -150h-103l83 150h134zM170 424q46 75 132 75q16 0 46 -6v-102q-28 7 -49 7q-55 0 -92 -36.5t-37 -100.5v-261h-111v489h111v-65z" />
    <glyph glyph-name="uni0156" unicode="&#x156;" horiz-adv-x="623" 
d="M409 294l191 -294h-142l-174 281h-103v-281h-117v700h263q88 0 151.5 -60.5t63.5 -147.5q0 -72 -35.5 -124.5t-97.5 -73.5zM181 587v-194h142q44 0 72.5 28t28.5 71q0 41 -28.5 68t-72.5 27h-142zM171 -218l83 150h134l-113 -150h-104z" />
    <glyph glyph-name="uni0157" unicode="&#x157;" horiz-adv-x="369" 
d="M302 499q16 0 46 -6v-102q-28 7 -49 7q-55 0 -92 -36.5t-37 -100.5v-261h-111v489h111v-65q46 75 132 75zM-16 -218l83 150h134l-113 -150h-104z" />
    <glyph glyph-name="Rcaron" unicode="&#x158;" horiz-adv-x="623" 
d="M211 756l-94 150h99l57 -79l56 79h99l-94 -150h-123zM600 0h-142l-174 281h-103v-281h-117v700h263q88 0 151.5 -60.5t63.5 -147.5q0 -72 -35.5 -124.5t-97.5 -73.5zM181 587v-194h142q44 0 72.5 28t28.5 71q0 41 -28.5 68t-72.5 27h-142z" />
    <glyph glyph-name="rcaron" unicode="&#x159;" horiz-adv-x="369" 
d="M143 545l-94 150h99l57 -79l56 79h99l-94 -150h-123zM170 424q46 75 132 75q16 0 46 -6v-102q-28 7 -49 7q-55 0 -92 -36.5t-37 -100.5v-261h-111v489h111v-65z" />
    <glyph glyph-name="Sacute" unicode="&#x15a;" horiz-adv-x="595" 
d="M449 906l-114 -150h-103l83 150h134zM304 -10q-113 0 -186.5 66.5t-73.5 169.5h116q0 -56 40.5 -91t103.5 -35q60 0 97.5 27.5t37.5 71.5q0 43 -40 67.5t-96.5 37.5t-113 31t-96.5 62t-40 115q0 86 67 142t170 56q116 0 179.5 -63t63.5 -157h-120q-2 48 -36.5 78.5
t-90.5 30.5q-53 0 -85.5 -23.5t-32.5 -62.5q0 -29 21.5 -48.5t55.5 -30.5t75.5 -20.5t82.5 -23.5t75 -35.5t55.5 -61t21.5 -94.5q0 -91 -71.5 -150t-179.5 -59z" />
    <glyph glyph-name="sacute" unicode="&#x15b;" horiz-adv-x="468" 
d="M382 696l-114 -149h-104l84 149h134zM241 -10q-91 0 -149 44.5t-65 122.5h107q3 -32 31 -51.5t70 -19.5q40 0 63 15.5t23 41.5q0 24 -21 39t-52.5 20t-68 14t-68 20.5t-52.5 40t-21 72.5q0 65 50.5 107.5t134.5 42.5q79 0 135.5 -40.5t64.5 -112.5h-112q-4 26 -28.5 43
t-61.5 17q-33 0 -54 -13.5t-21 -36.5q0 -27 29.5 -40t71 -19.5t83 -17.5t71 -44.5t29.5 -90.5q0 -66 -54 -110t-135 -44z" />
    <glyph glyph-name="Scircumflex" unicode="&#x15c;" horiz-adv-x="595" 
d="M291 839l-57 -79h-99l94 150h123l94 -150h-99zM168 513q0 -29 21.5 -48.5t55.5 -30.5t75.5 -20.5t82.5 -23.5t75 -35.5t55.5 -61t21.5 -94.5q0 -91 -71.5 -150t-179.5 -59q-113 0 -186.5 66.5t-73.5 169.5h116q0 -56 40.5 -91t103.5 -35q60 0 97.5 27.5t37.5 71.5
q0 43 -40 67.5t-96.5 37.5t-113 31t-96.5 62t-40 115q0 86 67 142t170 56q116 0 179.5 -63t63.5 -157h-120q-2 48 -36.5 78.5t-90.5 30.5q-53 0 -85.5 -23.5t-32.5 -62.5z" />
    <glyph glyph-name="scircumflex" unicode="&#x15d;" horiz-adv-x="468" 
d="M223 631l-57 -80h-99l94 150h123l95 -150h-100zM146 356q0 -27 29.5 -40t71 -19.5t83 -17.5t71 -44.5t29.5 -90.5q0 -66 -54 -110t-135 -44q-91 0 -149 44.5t-65 122.5h107q3 -32 31 -51.5t70 -19.5q40 0 63 15.5t23 41.5q0 24 -21 39t-52.5 20t-68 14t-68 20.5t-52.5 40
t-21 72.5q0 65 50.5 107.5t134.5 42.5q79 0 135.5 -40.5t64.5 -112.5h-112q-4 26 -28.5 43t-61.5 17q-33 0 -54 -13.5t-21 -36.5z" />
    <glyph glyph-name="Scedilla" unicode="&#x15e;" horiz-adv-x="595" 
d="M555 199q0 -80 -56.5 -136.5t-146.5 -69.5q32 -40 37.5 -80t-12 -69t-56.5 -46.5t-91 -14.5l-26 80q80 2 97 41t-29 88q-100 10 -164 74.5t-64 159.5h116q0 -56 40.5 -91t103.5 -35q60 0 97.5 27.5t37.5 71.5q0 43 -40 67.5t-96.5 37.5t-113 31t-96.5 62t-40 115
q0 86 67 142t170 56q116 0 179.5 -63t63.5 -157h-120q-2 48 -36.5 78.5t-90.5 30.5q-53 0 -85.5 -23.5t-32.5 -62.5q0 -29 21.5 -48.5t55.5 -30.5t75.5 -20.5t82.5 -23.5t75 -35.5t55.5 -61t21.5 -94.5z" />
    <glyph glyph-name="scedilla" unicode="&#x15f;" horiz-adv-x="468" 
d="M430 144q0 -57 -41.5 -98.5t-108.5 -52.5q65 -82 25 -149t-147 -61l-26 80q54 1 80 20t21.5 48t-34.5 62q-74 10 -119.5 53t-52.5 111h107q3 -32 31 -51.5t70 -19.5q40 0 63 15.5t23 41.5q0 24 -21 39t-52.5 20t-68 14t-68 20.5t-52.5 40t-21 72.5q0 65 50.5 107.5
t134.5 42.5q79 0 135.5 -40.5t64.5 -112.5h-112q-4 26 -28.5 43t-61.5 17q-33 0 -54 -13.5t-21 -36.5q0 -27 29.5 -40t71 -19.5t83 -17.5t71 -44.5t29.5 -90.5z" />
    <glyph glyph-name="Scaron" unicode="&#x160;" horiz-adv-x="595" 
d="M229 756l-94 150h99l57 -79l56 79h99l-94 -150h-123zM168 513q0 -29 21.5 -48.5t55.5 -30.5t75.5 -20.5t82.5 -23.5t75 -35.5t55.5 -61t21.5 -94.5q0 -91 -71.5 -150t-179.5 -59q-113 0 -186.5 66.5t-73.5 169.5h116q0 -56 40.5 -91t103.5 -35q60 0 97.5 27.5t37.5 71.5
q0 43 -40 67.5t-96.5 37.5t-113 31t-96.5 62t-40 115q0 86 67 142t170 56q116 0 179.5 -63t63.5 -157h-120q-2 48 -36.5 78.5t-90.5 30.5q-53 0 -85.5 -23.5t-32.5 -62.5z" />
    <glyph glyph-name="scaron" unicode="&#x161;" horiz-adv-x="468" 
d="M161 547l-94 149h99l57 -79l56 79h100l-95 -149h-123zM146 356q0 -27 29.5 -40t71 -19.5t83 -17.5t71 -44.5t29.5 -90.5q0 -66 -54 -110t-135 -44q-91 0 -149 44.5t-65 122.5h107q3 -32 31 -51.5t70 -19.5q40 0 63 15.5t23 41.5q0 24 -21 39t-52.5 20t-68 14t-68 20.5
t-52.5 40t-21 72.5q0 65 50.5 107.5t134.5 42.5q79 0 135.5 -40.5t64.5 -112.5h-112q-4 26 -28.5 43t-61.5 17q-33 0 -54 -13.5t-21 -36.5z" />
    <glyph glyph-name="uni0162" unicode="&#x162;" horiz-adv-x="596" 
d="M572 588h-215v-576q41 -42 52 -85.5t-5.5 -76t-56.5 -51.5t-95 -16l-26 80q84 2 98.5 44t-38.5 93h-46v588h-215v112h547v-112z" />
    <glyph glyph-name="uni0163" unicode="&#x163;" horiz-adv-x="374" 
d="M345 383h-128v-197q0 -87 92 -87q21 0 36 4v-103q-21 -4 -52 -6q66 -82 26 -149.5t-147 -61.5l-26 80q61 1 85.5 24.5t12 58.5t-56.5 72q-82 47 -82 166v199h-93v106h93v131h112v-131h128v-106z" />
    <glyph glyph-name="Tcaron" unicode="&#x164;" horiz-adv-x="597" 
d="M236 756l-94 150h99l57 -79l56 79h99l-94 -150h-123zM572 700v-112h-215v-588h-117v588h-215v112h547z" />
    <glyph glyph-name="tcaron" unicode="&#x165;" horiz-adv-x="374" 
d="M285 755h117l-44 -210h-93zM217 620v-131h128v-106h-128v-197q0 -87 92 -87q21 0 36 4v-103q-25 -6 -60 -6q-83 0 -131.5 49.5t-48.5 140.5v199h-93v106h93v131h112z" />
    <glyph glyph-name="Tbar" unicode="&#x166;" horiz-adv-x="597" 
d="M572 588h-215v-200h100v-76h-100v-312h-117v312h-103v76h103v200h-215v112h547v-112z" />
    <glyph glyph-name="tbar" unicode="&#x167;" horiz-adv-x="374" 
d="M345 383h-128v-107h115v-65h-115v-25q0 -87 92 -87q21 0 36 4v-103q-25 -6 -60 -6q-83 0 -131.5 49.5t-48.5 140.5v27h-93v65h93v107h-93v106h93v131h112v-131h128v-106z" />
    <glyph glyph-name="Utilde" unicode="&#x168;" horiz-adv-x="674" 
d="M141 775q5 59 38.5 96t80.5 37q36 0 83 -27.5t59 -27.5q17 0 28 14t12 37l91 -15q-6 -58 -40 -95t-80 -37q-37 0 -84 27.5t-61 27.5q-17 0 -27 -14.5t-9 -37.5zM337 -9q-118 0 -195.5 78.5t-77.5 197.5v433h117v-433q0 -70 44.5 -116.5t111.5 -46.5t111.5 46.5
t44.5 116.5v433h117v-433q0 -119 -77.5 -197.5t-195.5 -78.5z" />
    <glyph glyph-name="utilde" unicode="&#x169;" horiz-adv-x="579" 
d="M220 601q-16 0 -26 -14.5t-9 -37.5l-92 15q5 59 39 96t80 37q36 0 83 -27.5t59 -27.5q17 0 28 14t12 37l91 -15q-6 -58 -40 -95t-80 -37q-37 0 -84 27.5t-61 27.5zM409 489h112v-489h-112v77q-49 -87 -147 -87q-94 0 -148.5 59t-54.5 162v278h111v-265q0 -58 32.5 -92.5
t86.5 -34.5t87 34.5t33 92.5v265z" />
    <glyph glyph-name="Umacron" unicode="&#x16a;" horiz-adv-x="674" 
d="M177 764v91h320v-91h-320zM337 -9q-118 0 -195.5 78.5t-77.5 197.5v433h117v-433q0 -70 44.5 -116.5t111.5 -46.5t111.5 46.5t44.5 116.5v433h117v-433q0 -119 -77.5 -197.5t-195.5 -78.5z" />
    <glyph glyph-name="umacron" unicode="&#x16b;" horiz-adv-x="579" 
d="M449 644v-91h-320v91h320zM409 489h112v-489h-112v77q-49 -87 -147 -87q-94 0 -148.5 59t-54.5 162v278h111v-265q0 -58 32.5 -92.5t86.5 -34.5t87 34.5t33 92.5v265z" />
    <glyph glyph-name="Ubreve" unicode="&#x16c;" horiz-adv-x="674" 
d="M495 905q-1 -70 -45.5 -113t-112.5 -43q-69 0 -113.5 43t-45.5 113h86q0 -36 20.5 -58.5t52.5 -22.5q31 0 51.5 22.5t20.5 58.5h86zM337 -9q-118 0 -195.5 78.5t-77.5 197.5v433h117v-433q0 -70 44.5 -116.5t111.5 -46.5t111.5 46.5t44.5 116.5v433h117v-433
q0 -119 -77.5 -197.5t-195.5 -78.5z" />
    <glyph glyph-name="ubreve" unicode="&#x16d;" horiz-adv-x="579" 
d="M289 538q-69 0 -113.5 43t-44.5 113h86q0 -36 20.5 -58.5t51.5 -22.5q32 0 52.5 22.5t20.5 58.5h86q-1 -70 -45.5 -113t-113.5 -43zM409 489h112v-489h-112v77q-49 -87 -147 -87q-94 0 -148.5 59t-54.5 162v278h111v-265q0 -58 32.5 -92.5t86.5 -34.5t87 34.5t33 92.5
v265z" />
    <glyph glyph-name="Uring" unicode="&#x16e;" horiz-adv-x="674" 
d="M337 752q-56 0 -94 36.5t-38 90.5q0 55 38 91.5t94 36.5q57 0 95.5 -36.5t38.5 -91.5q0 -54 -38.5 -90.5t-95.5 -36.5zM337 818q27 0 45.5 17.5t18.5 43.5t-18.5 43.5t-45.5 17.5t-44.5 -17.5t-17.5 -43.5t17.5 -43.5t44.5 -17.5zM337 -9q-118 0 -195.5 78.5t-77.5 197.5
v433h117v-433q0 -70 44.5 -116.5t111.5 -46.5t111.5 46.5t44.5 116.5v433h117v-433q0 -119 -77.5 -197.5t-195.5 -78.5z" />
    <glyph glyph-name="uring" unicode="&#x16f;" horiz-adv-x="579" 
d="M289 541q-56 0 -94 36.5t-38 90.5q0 55 38 91.5t94 36.5q57 0 95.5 -36.5t38.5 -91.5q0 -54 -38.5 -90.5t-95.5 -36.5zM289 729q-26 0 -44 -17.5t-18 -43.5t18 -43.5t44 -17.5q28 0 46 17.5t18 43.5t-18 43.5t-46 17.5zM409 489h112v-489h-112v77q-49 -87 -147 -87
q-94 0 -148.5 59t-54.5 162v278h111v-265q0 -58 32.5 -92.5t86.5 -34.5t87 34.5t33 92.5v265z" />
    <glyph glyph-name="Uhungarumlaut" unicode="&#x170;" horiz-adv-x="674" 
d="M294 756l63 154h-114l-64 -154h115zM484 756l64 154h-115l-64 -154h115zM337 -9q-118 0 -195.5 78.5t-77.5 197.5v433h117v-433q0 -70 44.5 -116.5t111.5 -46.5t111.5 46.5t44.5 116.5v433h117v-433q0 -119 -77.5 -197.5t-195.5 -78.5z" />
    <glyph glyph-name="uhungarumlaut" unicode="&#x171;" horiz-adv-x="579" 
d="M310 699l-64 -154h-115l64 154h115zM501 699l-64 -154h-115l64 154h115zM409 489h112v-489h-112v77q-49 -87 -147 -87q-94 0 -148.5 59t-54.5 162v278h111v-265q0 -58 32.5 -92.5t86.5 -34.5t87 34.5t33 92.5v265z" />
    <glyph glyph-name="Uogonek" unicode="&#x172;" horiz-adv-x="674" 
d="M493 700h117v-433q0 -99 -55 -171t-144 -96q-35 -9 -55.5 -28.5t-20.5 -43.5q0 -17 12.5 -27.5t33.5 -10.5t42 9l29 -71q-41 -23 -106 -23q-48 0 -78 28t-30 71q0 50 41 93q-96 19 -155.5 93t-59.5 177v433h117v-433q0 -70 44.5 -116.5t111.5 -46.5t111.5 46.5
t44.5 116.5v433z" />
    <glyph glyph-name="uogonek" unicode="&#x173;" horiz-adv-x="579" 
d="M532 -101l29 -71q-41 -23 -106 -23q-48 0 -78 28t-30 71q0 64 62 112v61q-49 -87 -147 -87q-94 0 -148.5 59t-54.5 162v278h111v-265q0 -58 32.5 -92.5t86.5 -34.5t87 34.5t33 92.5v265h112v-489h-1q-35 -9 -55.5 -28.5t-20.5 -43.5q0 -17 12.5 -27.5t33.5 -10.5t42 9z
" />
    <glyph glyph-name="Wcircumflex" unicode="&#x174;" horiz-adv-x="1016" 
d="M508 839l-57 -79h-99l94 150h123l94 -150h-99zM881 701h122l-233 -701h-96l-165 507l-165 -507h-97l-235 701h125l160 -508l165 508h97l162 -508z" />
    <glyph glyph-name="wcircumflex" unicode="&#x175;" horiz-adv-x="788" 
d="M395 628l-57 -79h-99l94 150h123l94 -150h-99zM655 489h120l-177 -489h-89l-116 317l-116 -317h-88l-177 489h120l102 -318l115 318h88l116 -318z" />
    <glyph glyph-name="Ycircumflex" unicode="&#x176;" horiz-adv-x="655" 
d="M329 839l-57 -79h-99l94 150h123l94 -150h-99zM505 700h137l-254 -396v-304h-117v304l-259 396h142l177 -278z" />
    <glyph glyph-name="ycircumflex" unicode="&#x177;" horiz-adv-x="526" 
d="M272 628l-57 -79h-99l94 150h123l94 -150h-99zM394 489h120l-276 -661h-120l88 198l-194 463h120l131 -333z" />
    <glyph glyph-name="Ydieresis" unicode="&#x178;" horiz-adv-x="655" 
d="M235 901q29 0 50 -21.5t21 -49.5q0 -30 -21 -51t-50 -21t-50.5 21t-21.5 51q0 29 21.5 50t50.5 21zM421 901q29 0 50.5 -21t21.5 -50q0 -30 -21.5 -51t-50.5 -21t-50 21t-21 51q0 29 21 50t50 21zM12 700h142l177 -278l174 278h137l-254 -396v-304h-117v304z" />
    <glyph glyph-name="Zacute" unicode="&#x179;" horiz-adv-x="590" 
d="M455 906l-114 -150h-103l83 150h134zM48 700h507v-80l-370 -508h373v-112h-531v81l372 507h-351v112z" />
    <glyph glyph-name="zacute" unicode="&#x17a;" horiz-adv-x="502" 
d="M404 695l-114 -150h-103l83 150h134zM462 489v-81l-278 -304l280 3v-107h-437v81l278 305l-259 -3v106h416z" />
    <glyph glyph-name="Zdotaccent" unicode="&#x17b;" horiz-adv-x="590" 
d="M296 901q29 0 50.5 -21t21.5 -50q0 -30 -21.5 -51t-50.5 -21t-50 21t-21 51q0 29 21 50t50 21zM48 700h507v-80l-370 -508h373v-112h-531v81l372 507h-351v112z" />
    <glyph glyph-name="zdotaccent" unicode="&#x17c;" horiz-adv-x="502" 
d="M245 716q29 0 50.5 -21t21.5 -50q0 -30 -21.5 -51t-50.5 -21t-50 21t-21 51q0 29 21 50t50 21zM462 489v-81l-278 -304l280 3v-107h-437v81l278 305l-259 -3v106h416z" />
    <glyph glyph-name="Zcaron" unicode="&#x17d;" horiz-adv-x="590" 
d="M234 756l-94 150h99l57 -79l56 79h99l-94 -150h-123zM185 112h373v-112h-531v81l372 507h-351v112h507v-80z" />
    <glyph glyph-name="zcaron" unicode="&#x17e;" horiz-adv-x="502" 
d="M184 545l-94 150h99l57 -79l56 79h99l-94 -150h-123zM184 104l280 3v-107h-437v81l278 305l-259 -3v106h416v-81z" />
    <glyph glyph-name="longs" unicode="&#x17f;" horiz-adv-x="340" 
d="M297 719q35 0 59 -6v-103q-13 4 -35 4q-92 0 -92 -87v-527h-112v383h-93v106h93v40q0 91 48.5 140.5t131.5 49.5z" />
    <glyph glyph-name="uni0180" unicode="&#x180;" horiz-adv-x="612" 
d="M344 499q97 0 165 -74t68 -180t-68 -180.5t-165 -74.5q-119 0 -174 98v-88h-111v567h-104v76h104v57h111v-57h105v-76h-105v-166q55 98 174 98zM320 96q62 0 105 43.5t43 105.5t-43 105t-105 43q-64 0 -107 -42.5t-43 -105.5q0 -64 43 -106.5t107 -42.5z" />
    <glyph glyph-name="florin" unicode="&#x192;" horiz-adv-x="375" 
d="M316 614q-92 0 -92 -87v-38h127v-106h-127v-375q0 -91 -48.5 -140.5t-131.5 -49.5q-34 0 -60 6v103q15 -4 35 -4q93 0 93 87v373h-93v106h93v40q0 91 48.5 140.5t131.5 49.5q35 0 59 -6v-103q-13 4 -35 4z" />
    <glyph glyph-name="uni01EA" unicode="&#x1ea;" horiz-adv-x="791" 
d="M457 -5q-60 -23 -60 -67q0 -17 12.5 -27.5t33.5 -10.5t42 9l29 -71q-41 -23 -106 -23q-48 0 -78 28t-30 71q0 49 38 90q-131 20 -214.5 119.5t-83.5 237.5q0 153 102 256t254 103q151 0 253 -103t102 -256q0 -137 -82.5 -236t-211.5 -120zM161 351q0 -105 67.5 -176
t167.5 -71t167.5 71t67.5 176q0 104 -67.5 174.5t-167.5 70.5t-167.5 -70.5t-67.5 -174.5z" />
    <glyph glyph-name="uni01EB" unicode="&#x1eb;" horiz-adv-x="575" 
d="M350 -3q-67 -21 -67 -69q0 -17 12.5 -27.5t33.5 -10.5t42 9l29 -71q-41 -23 -106 -23q-48 0 -78 28t-30 71q0 50 41 93q-86 20 -139.5 87.5t-53.5 159.5q0 109 73 182t180 73t180.5 -73.5t73.5 -181.5q0 -91 -53.5 -158.5t-137.5 -88.5zM144 244q0 -62 41 -104.5
t102 -42.5t102.5 42.5t41.5 104.5q0 63 -41.5 105.5t-102.5 42.5t-102 -42.5t-41 -105.5z" />
    <glyph glyph-name="Aringacute" unicode="&#x1fa;" horiz-adv-x="674" 
d="M338 752q-56 0 -94 36.5t-38 90.5q0 40 21 71.5t56 45.5l79 143h134l-107 -141q37 -14 60 -46t23 -73q0 -54 -38.5 -90.5t-95.5 -36.5zM338 940q-27 0 -44.5 -17.5t-17.5 -43.5t17.5 -43.5t44.5 -17.5t45.5 17.5t18.5 43.5t-18.5 43.5t-45.5 17.5zM538 0l-54 140h-296
l-55 -140h-124l279 700h98l279 -700h-127zM231 252h209l-104 268z" />
    <glyph glyph-name="aringacute" unicode="&#x1fb;" horiz-adv-x="612" 
d="M335 541q-57 0 -95 36.5t-38 90.5q0 40 21 71.5t56 45.5l80 143h134l-108 -141q37 -14 60 -46t23 -73q0 -54 -38.5 -90.5t-94.5 -36.5zM335 729q-27 0 -45 -17.5t-18 -43.5t18 -43.5t45 -17.5t45 17.5t18 43.5t-18 43.5t-45 17.5zM441 489h112v-489h-112v86
q-55 -96 -173 -96q-97 0 -165.5 74.5t-68.5 180.5t68.5 180t165.5 74q118 0 173 -96v86zM292 96q64 0 106.5 42.5t42.5 106.5q0 63 -42.5 105.5t-106.5 42.5q-62 0 -105 -43t-43 -105t43 -105.5t105 -43.5z" />
    <glyph glyph-name="AEacute" unicode="&#x1fc;" horiz-adv-x="933" 
d="M792 906l-114 -150h-103l83 150h134zM888 588h-293v-165h261v-112h-261v-199h293v-112h-409v164h-245l-92 -164h-133l407 700h472v-112zM293 269h186v330z" />
    <glyph glyph-name="aeacute" unicode="&#x1fd;" horiz-adv-x="997" 
d="M657 695l-114 -150h-103l83 150h134zM963 266q0 -21 -4 -41h-380q7 -65 49 -102.5t104 -37.5q42 0 77.5 17.5t51.5 46.5l88 -53q-25 -46 -83.5 -76t-124.5 -30q-128 0 -188 97v-87h-112v86q-55 -96 -173 -96q-97 0 -165.5 74.5t-68.5 180.5t68.5 180t165.5 74
q118 0 173 -96v86h112v-86q60 96 186 96q94 0 159 -67.5t65 -165.5zM582 295h270q-4 48 -42 80.5t-88 32.5q-55 0 -92 -30t-48 -83zM292 96q64 0 106.5 42.5t42.5 106.5q0 63 -42.5 105.5t-106.5 42.5q-62 0 -105 -43t-43 -105t43 -105.5t105 -43.5z" />
    <glyph glyph-name="uni0218" unicode="&#x218;" horiz-adv-x="595" 
d="M304 -10q-113 0 -186.5 66.5t-73.5 169.5h116q0 -56 40.5 -91t103.5 -35q60 0 97.5 27.5t37.5 71.5q0 43 -40 67.5t-96.5 37.5t-113 31t-96.5 62t-40 115q0 86 67 142t170 56q116 0 179.5 -63t63.5 -157h-120q-2 48 -36.5 78.5t-90.5 30.5q-53 0 -85.5 -23.5t-32.5 -62.5
q0 -29 21.5 -48.5t55.5 -30.5t75.5 -20.5t82.5 -23.5t75 -35.5t55.5 -61t21.5 -94.5q0 -91 -71.5 -150t-179.5 -59zM386 -68l-113 -150h-104l83 150h134z" />
    <glyph glyph-name="uni0219" unicode="&#x219;" horiz-adv-x="468" 
d="M241 -10q-91 0 -149 44.5t-65 122.5h107q3 -32 31 -51.5t70 -19.5q40 0 63 15.5t23 41.5q0 24 -21 39t-52.5 20t-68 14t-68 20.5t-52.5 40t-21 72.5q0 65 50.5 107.5t134.5 42.5q79 0 135.5 -40.5t64.5 -112.5h-112q-4 26 -28.5 43t-61.5 17q-33 0 -54 -13.5t-21 -36.5
q0 -27 29.5 -40t71 -19.5t83 -17.5t71 -44.5t29.5 -90.5q0 -66 -54 -110t-135 -44zM314 -68l-114 -150h-104l84 150h134z" />
    <glyph glyph-name="uni021A" unicode="&#x21a;" horiz-adv-x="597" 
d="M572 700v-112h-215v-588h-117v588h-215v112h547zM170 -218l83 150h134l-113 -150h-104z" />
    <glyph glyph-name="uni021B" unicode="&#x21b;" horiz-adv-x="374" 
d="M345 383h-128v-197q0 -87 92 -87q21 0 36 4v-103q-25 -6 -60 -6q-83 0 -131.5 49.5t-48.5 140.5v199h-93v106h93v131h112v-131h128v-106zM110 -218l83 150h134l-113 -150h-104z" />
    <glyph glyph-name="uni0237" unicode="&#x237;" horiz-adv-x="229" 
d="M-16 -93q2 0 7 -0.5t8 -0.5q60 0 60 79v504h111v-515q0 -81 -42.5 -125t-119.5 -44q-14 0 -24 1v101z" />
    <glyph glyph-name="uni0243" unicode="&#x243;" horiz-adv-x="590" 
d="M422 370q61 -10 100.5 -58.5t39.5 -114.5q0 -83 -62.5 -140t-150.5 -57h-285v171h-101v76h101v453h254q87 0 148.5 -53t61.5 -128q0 -52 -30.5 -94.5t-75.5 -54.5zM181 588v-178h134q40 0 67.5 26.5t27.5 64.5q0 37 -28 62t-67 25h-134zM341 112q43 0 72.5 29.5
t29.5 71.5q0 43 -29.5 72.5t-71.5 29.5h-161v-68h102v-76h-102v-59h160z" />
    <glyph glyph-name="circumflex" unicode="&#x2c6;" horiz-adv-x="412" 
d="M362 549h-100l-56 79l-56 -79h-100l94 150h123z" />
    <glyph glyph-name="caron" unicode="&#x2c7;" horiz-adv-x="412" 
d="M262 695h100l-95 -150h-123l-94 150h100l56 -79z" />
    <glyph glyph-name="breve" unicode="&#x2d8;" horiz-adv-x="417" 
d="M367 694q-1 -70 -45.5 -113t-113.5 -43t-113.5 43t-44.5 113h86q0 -36 20.5 -58.5t51.5 -22.5q32 0 52.5 22.5t20.5 58.5h86z" />
    <glyph glyph-name="dotaccent" unicode="&#x2d9;" horiz-adv-x="244" 
d="M122 716q29 0 50.5 -21t21.5 -50q0 -30 -21.5 -51t-50.5 -21t-50.5 21t-21.5 51q0 29 21.5 50t50.5 21z" />
    <glyph glyph-name="ring" unicode="&#x2da;" horiz-adv-x="366" 
d="M182 541q-56 0 -94 36.5t-38 90.5q0 55 38 91.5t94 36.5q57 0 95.5 -36.5t38.5 -91.5q0 -54 -38.5 -90.5t-95.5 -36.5zM182 607q28 0 46 17.5t18 43.5t-18 43.5t-46 17.5q-26 0 -44 -17.5t-18 -43.5t18 -43.5t44 -17.5z" />
    <glyph glyph-name="ogonek" unicode="&#x2db;" horiz-adv-x="314" 
d="M223 67v-67q-35 -9 -55.5 -28.5t-20.5 -43.5q0 -17 12.5 -27.5t33.5 -10.5t42 9l29 -71q-41 -23 -106 -23q-48 0 -78 28t-30 71q0 56 47.5 100t125.5 63z" />
    <glyph glyph-name="tilde" unicode="&#x2dc;" horiz-adv-x="491" 
d="M50 564q5 59 38.5 96t80.5 37q35 0 83 -27.5t59 -27.5q17 0 28 14t12 37l90 -15q-5 -58 -39 -95t-80 -37q-37 0 -84 27.5t-61 27.5q-17 0 -27 -14.5t-9 -37.5z" />
    <glyph glyph-name="hungarumlaut" unicode="&#x2dd;" horiz-adv-x="470" 
d="M165 545l64 154h-115l-64 -154h115zM356 545l64 154h-115l-64 -154h115z" />
    <glyph glyph-name="gravecomb" unicode="&#x300;" horiz-adv-x="0" 
d="M-422 695h134l83 -150h-104z" />
    <glyph glyph-name="acutecomb" unicode="&#x301;" horiz-adv-x="0" 
d="M-149 695l-114 -150h-103l83 150h134z" />
    <glyph glyph-name="uni0302" unicode="&#x302;" horiz-adv-x="0" 
d="M-49 549h-99l-56 79l-57 -79h-99l94 150h123z" />
    <glyph glyph-name="tildecomb" unicode="&#x303;" horiz-adv-x="0" 
d="M-500 564q5 59 38.5 96t80.5 37q35 0 82.5 -27.5t59.5 -27.5q17 0 28 14t12 37l91 -15q-6 -58 -40 -95t-80 -37q-37 0 -84 27.5t-61 27.5q-17 0 -27 -14.5t-9 -37.5z" />
    <glyph glyph-name="uni0304" unicode="&#x304;" horiz-adv-x="0" 
d="M-451 553v91h320v-91h-320z" />
    <glyph glyph-name="uni0306" unicode="&#x306;" horiz-adv-x="0" 
d="M-120 694q-1 -70 -45.5 -113t-112.5 -43q-69 0 -113.5 43t-45.5 113h86q0 -36 20.5 -58.5t52.5 -22.5q31 0 51.5 22.5t20.5 58.5h86z" />
    <glyph glyph-name="uni0307" unicode="&#x307;" horiz-adv-x="0" 
d="M-254 716q29 0 50.5 -21t21.5 -50q0 -30 -21.5 -51t-50.5 -21t-50 21t-21 51q0 29 21 50t50 21z" />
    <glyph glyph-name="uni0308" unicode="&#x308;" horiz-adv-x="0" 
d="M-371 716q29 0 50 -21t21 -50q0 -30 -21 -51t-50 -21t-50.5 21t-21.5 51q0 29 21.5 50t50.5 21zM-185 716q29 0 50.5 -21t21.5 -50q0 -30 -21.5 -51t-50.5 -21t-50 21t-21 51q0 29 21 50t50 21z" />
    <glyph glyph-name="uni030A" unicode="&#x30a;" horiz-adv-x="0" 
d="M-282 541q-56 0 -94 36.5t-38 90.5q0 55 38 91.5t94 36.5q57 0 95.5 -36.5t38.5 -91.5q0 -54 -38.5 -90.5t-95.5 -36.5zM-282 607q27 0 45.5 17.5t18.5 43.5t-18.5 43.5t-45.5 17.5t-44.5 -17.5t-17.5 -43.5t17.5 -43.5t44.5 -17.5z" />
    <glyph glyph-name="uni030B" unicode="&#x30b;" horiz-adv-x="0" 
d="M-339 545l63 154h-114l-64 -154h115zM-149 545l64 154h-115l-64 -154h115z" />
    <glyph glyph-name="uni030C" unicode="&#x30c;" horiz-adv-x="0" 
d="M-210 695h99l-94 -150h-123l-94 150h99l57 -79z" />
    <glyph glyph-name="uni0312" unicode="&#x312;" horiz-adv-x="0" 
d="M-205 551l114 149h105l-85 -149h-134z" />
    <glyph glyph-name="uni0326" unicode="&#x326;" horiz-adv-x="0" 
d="M-49 -68l-113 -150h-104l83 150h134z" />
    <glyph glyph-name="uni0327" unicode="&#x327;" horiz-adv-x="0" 
d="M-192 20h85q59 -57 63.5 -115t-40.5 -92t-120 -30l-26 80q61 1 86 25t11 59.5t-59 72.5z" />
    <glyph glyph-name="uni0328" unicode="&#x328;" horiz-adv-x="0" 
d="M-238 67v-67q-35 -9 -55.5 -28.5t-20.5 -43.5q0 -17 12.5 -27.5t33.5 -10.5t42 9l29 -71q-41 -23 -106 -23q-48 0 -78 28t-30 71q0 56 47.5 100t125.5 63z" />
    <glyph glyph-name="uni0394" unicode="&#x394;" horiz-adv-x="598" 
d="M9 0v112l241 588h97l242 -588v-112h-580zM132 112h331l-164 420z" />
    <glyph glyph-name="uni0394" unicode="&#x3b4;" horiz-adv-x="598" 
d="M9 0v112l241 588h97l242 -588v-112h-580zM132 112h331l-164 420z" />
    <glyph glyph-name="uni03A9" unicode="&#x3a9;" horiz-adv-x="777" 
d="M62 0v112h135q-71 40 -109 108t-38 153q0 147 96 242t242 95t242.5 -95t96.5 -242q0 -86 -37.5 -153.5t-108.5 -107.5h135v-112h-274v112q80 42 122.5 108.5t42.5 147.5q0 104 -60.5 166t-158.5 62q-96 0 -157 -62t-61 -166q0 -80 43 -147t123 -109v-112h-274z" />
    <glyph glyph-name="uni03A9" unicode="&#x3c9;" horiz-adv-x="777" 
d="M62 0v112h135q-71 40 -109 108t-38 153q0 147 96 242t242 95t242.5 -95t96.5 -242q0 -86 -37.5 -153.5t-108.5 -107.5h135v-112h-274v112q80 42 122.5 108.5t42.5 147.5q0 104 -60.5 166t-158.5 62q-96 0 -157 -62t-61 -166q0 -80 43 -147t123 -109v-112h-274z" />
    <glyph glyph-name="uni03BC" unicode="&#x3bc;" horiz-adv-x="579" 
d="M409 489h112v-489h-112v77q-49 -87 -147 -87q-52 0 -92 18v-180h-111v661h111v-265q0 -58 32.5 -92.5t86.5 -34.5t87 34.5t33 92.5v265z" />
    <glyph glyph-name="pi" unicode="&#x3c0;" horiz-adv-x="712" 
d="M681 383h-134v-197q0 -87 92 -87q22 0 35 4v-103q-24 -6 -59 -6q-83 0 -131.5 49.5t-48.5 140.5v199h-156v-383h-112v383h-133v106h647v-106z" />
    <glyph glyph-name="uni0E3F" unicode="&#xe3f;" horiz-adv-x="628" 
d="M438 370q61 -10 100.5 -58.5t39.5 -114.5q0 -83 -62.5 -140t-150.5 -57h-25v-120h-108v120h-152v700h152v120h108v-120q86 -2 145 -55t59 -126q0 -52 -30 -94.5t-76 -54.5zM197 588v-178h134q40 0 67.5 26.5t27.5 64.5q0 37 -27.5 62t-67.5 25h-134zM357 112
q44 0 73 29.5t29 71.5q0 43 -29.5 72.5t-71.5 29.5h-161v-203h160z" />
    <glyph glyph-name="Wgrave" unicode="&#x1e80;" horiz-adv-x="1016" 
d="M351 906h134l83 -150h-104zM881 701h122l-233 -701h-96l-165 507l-165 -507h-97l-235 701h125l160 -508l165 508h97l162 -508z" />
    <glyph glyph-name="wgrave" unicode="&#x1e81;" horiz-adv-x="788" 
d="M238 695h134l83 -150h-104zM189 0l-177 489h120l102 -318l115 318h88l116 -318l102 318h120l-177 -489h-89l-116 317l-116 -317h-88z" />
    <glyph glyph-name="Wacute" unicode="&#x1e82;" horiz-adv-x="1016" 
d="M666 906l-114 -150h-103l83 150h134zM881 701h122l-233 -701h-96l-165 507l-165 -507h-97l-235 701h125l160 -508l165 508h97l162 -508z" />
    <glyph glyph-name="wacute" unicode="&#x1e83;" horiz-adv-x="788" 
d="M553 695l-114 -150h-103l83 150h134zM189 0l-177 489h120l102 -318l115 318h88l116 -318l102 318h120l-177 -489h-89l-116 317l-116 -317h-88z" />
    <glyph glyph-name="Wdieresis" unicode="&#x1e84;" horiz-adv-x="1016" 
d="M415 901q29 0 50 -21.5t21 -49.5q0 -30 -21 -51t-50 -21t-50.5 21t-21.5 51q0 29 21.5 50t50.5 21zM601 901q29 0 50.5 -21t21.5 -50q0 -30 -21.5 -51t-50.5 -21t-50 21t-21 51q0 29 21 50t50 21zM881 701h122l-233 -701h-96l-165 507l-165 -507h-97l-235 701h125
l160 -508l165 508h97l162 -508z" />
    <glyph glyph-name="wdieresis" unicode="&#x1e85;" horiz-adv-x="788" 
d="M301 716q29 0 50 -21t21 -50q0 -30 -21 -51t-50 -21t-50.5 21t-21.5 51q0 29 21.5 50t50.5 21zM487 716q29 0 50.5 -21t21.5 -50q0 -30 -21.5 -51t-50.5 -21t-50 21t-21 51q0 29 21 50t50 21zM189 0l-177 489h120l102 -318l115 318h88l116 -318l102 318h120l-177 -489
h-89l-116 317l-116 -317h-88z" />
    <glyph glyph-name="uni1E9E" unicode="&#x1e9e;" horiz-adv-x="618" 
d="M309 710q101 0 171 -55.5t78 -137.5l-136 -128q76 -9 122 -58t46 -119q0 -87 -64.5 -149.5t-153.5 -62.5h-129v112h128q41 0 70 28.5t29 69.5q0 46 -27.5 72.5t-74.5 26.5h-87l-2 74l149 144q-10 30 -41.5 50t-71.5 20q-59 0 -96 -43.5t-37 -111.5v-442h-118v442
q0 120 67.5 194t177.5 74z" />
    <glyph glyph-name="Ygrave" unicode="&#x1ef2;" horiz-adv-x="655" 
d="M172 906h134l83 -150h-104zM12 700h142l177 -278l174 278h137l-254 -396v-304h-117v304z" />
    <glyph glyph-name="ygrave" unicode="&#x1ef3;" horiz-adv-x="526" 
d="M332 545h-104l-113 150h134zM394 489h120l-276 -661h-120l88 198l-194 463h120l131 -333z" />
    <glyph glyph-name="uni2009" unicode="&#x2009;" horiz-adv-x="170" 
 />
    <glyph glyph-name="endash" unicode="&#x2013;" horiz-adv-x="591" 
d="M50 207v104h491v-104h-491z" />
    <glyph glyph-name="emdash" unicode="&#x2014;" horiz-adv-x="1100" 
d="M50 207v104h1000v-104h-1000z" />
    <glyph glyph-name="quoteleft" unicode="&#x2018;" horiz-adv-x="252" 
d="M50 575q0 18 21 62l69 136h64l-51 -133q41 -18 41 -65q0 -31 -20.5 -51.5t-51.5 -20.5t-51.5 20.5t-20.5 51.5z" />
    <glyph glyph-name="quoteright" unicode="&#x2019;" horiz-adv-x="252" 
d="M202 701q0 -21 -21 -61l-69 -137h-63l50 133q-41 19 -41 65q0 31 21 51.5t51 20.5q31 0 51.5 -20.5t20.5 -51.5z" />
    <glyph glyph-name="quotesinglbase" unicode="&#x201a;" horiz-adv-x="252" 
d="M202 77q0 -21 -21 -62l-69 -137h-63l50 134q-41 17 -41 65q0 30 21 51t51 21q31 0 51.5 -21t20.5 -51z" />
    <glyph glyph-name="quotedblleft" unicode="&#x201c;" horiz-adv-x="442" 
d="M50 575q0 18 21 62l69 136h64l-51 -133q41 -18 41 -65q0 -31 -20.5 -51.5t-51.5 -20.5t-51.5 20.5t-20.5 51.5zM240 575q0 21 21 62l69 136h63l-51 -133q42 -18 42 -65q0 -31 -21 -51.5t-51 -20.5q-31 0 -51.5 20.5t-20.5 51.5z" />
    <glyph glyph-name="quotedblright" unicode="&#x201d;" horiz-adv-x="442" 
d="M202 701q0 -21 -21 -61l-69 -137h-63l50 133q-41 19 -41 65q0 31 21 51.5t51 20.5q31 0 51.5 -20.5t20.5 -51.5zM392 701q0 -17 -21 -61l-69 -137h-64l51 133q-41 18 -41 65q0 31 20.5 51.5t51.5 20.5t51.5 -20.5t20.5 -51.5z" />
    <glyph glyph-name="quotedblbase" unicode="&#x201e;" horiz-adv-x="442" 
d="M202 77q0 -21 -21 -62l-69 -137h-63l50 134q-41 17 -41 65q0 30 21 51t51 21q31 0 51.5 -21t20.5 -51zM392 77q0 -18 -21 -62l-69 -137h-64l51 134q-41 16 -41 65q0 30 20.5 51t51.5 21t51.5 -21t20.5 -51z" />
    <glyph glyph-name="dagger" unicode="&#x2020;" horiz-adv-x="460" 
d="M410 561v-96h-129v-271h-101v271h-130v96h130v159h101v-159h129z" />
    <glyph glyph-name="daggerdbl" unicode="&#x2021;" horiz-adv-x="468" 
d="M410 465h-129v-210h129v-96h-129v-159h-101v159h-130v96h130v210h-130v96h130v159h101v-159h129v-96z" />
    <glyph glyph-name="bullet" unicode="&#x2022;" horiz-adv-x="350" 
d="M175 116q-55 0 -92 37.5t-37 92.5q0 56 37 92.5t92 36.5t92 -37t37 -92t-37 -92.5t-92 -37.5z" />
    <glyph glyph-name="ellipsis" unicode="&#x2026;" horiz-adv-x="682" 
d="M131 -10q-32 0 -54.5 22t-22.5 54t22.5 54t54.5 22q33 0 55 -22t22 -54t-22 -54t-55 -22zM346 -10q-33 0 -55 22t-22 54t22 54t55 22t55 -22t22 -54t-22 -54t-55 -22zM551 -10q-32 0 -54.5 22t-22.5 54t22.5 54t54.5 22q33 0 55 -22t22 -54t-22 -54t-55 -22z" />
    <glyph glyph-name="perthousand" unicode="&#x2030;" horiz-adv-x="1055" 
d="M345 562q0 -65 -41 -107.5t-102 -42.5q-62 0 -102.5 42.5t-40.5 107.5q0 64 40.5 106t102.5 42t102.5 -42t40.5 -106zM554 700h90l-465 -700h-90zM270 562q0 34 -18.5 56t-49.5 22q-32 0 -50.5 -22t-18.5 -56q0 -35 18.5 -57t50.5 -22q31 0 49.5 22t18.5 57zM674 140
q0 -65 -41 -107.5t-103 -42.5t-102.5 42.5t-40.5 107.5q0 64 40.5 106t102.5 42t103 -42t41 -106zM996 140q0 -65 -40.5 -107.5t-102.5 -42.5t-102.5 42.5t-40.5 107.5q0 64 40.5 106t102.5 42t102.5 -42t40.5 -106zM599 140q0 34 -19 55.5t-50 21.5t-50 -21.5t-19 -55.5
q0 -35 19 -57t50 -22t50 22t19 57zM921 140q0 34 -18.5 55.5t-49.5 21.5q-32 0 -50.5 -21.5t-18.5 -55.5q0 -35 18.5 -57t50.5 -22q31 0 49.5 22t18.5 57z" />
    <glyph glyph-name="guilsinglleft" unicode="&#x2039;" horiz-adv-x="378" 
d="M328 38l-280 201v75l280 201v-115l-177 -124l177 -122v-116z" />
    <glyph glyph-name="guilsinglright" unicode="&#x203a;" horiz-adv-x="383" 
d="M55 38v116l177 122l-177 124v115l280 -201v-75z" />
    <glyph glyph-name="fraction" unicode="&#x2044;" horiz-adv-x="239" 
d="M308 700h90l-465 -700h-90z" />
    <glyph glyph-name="Euro" unicode="&#x20ac;" horiz-adv-x="851" 
d="M680 247h131q-21 -114 -112 -185.5t-215 -71.5q-137 0 -235 89t-114 225h-110v95h110q17 136 114.5 223.5t234.5 87.5q121 0 214.5 -70.5t110.5 -177.5h-130q-17 59 -71 96.5t-124 37.5q-86 0 -149.5 -55t-78.5 -142h300l-27 -95h-273q14 -88 77.5 -144t150.5 -56
q71 0 125.5 39.5t70.5 103.5z" />
    <glyph glyph-name="uni20BD" unicode="&#x20bd;" horiz-adv-x="655" 
d="M401 270h-151v-78h190v-96h-190v-96h-117v96h-108v96h108v78h-108v112h108v318h268q97 0 160.5 -61t63.5 -153q0 -94 -63.5 -155t-160.5 -61zM250 588v-206h151q46 0 76.5 30t30.5 74t-30.5 73t-76.5 29h-151z" />
    <glyph glyph-name="uni2116" unicode="&#x2116;" horiz-adv-x="1286" 
d="M966 709q107 0 180 -73.5t73 -181.5t-73 -181t-180 -73q-108 0 -180.5 73t-72.5 181t73 181.5t180 73.5zM64 700h102l331 -474v474h118v-700h-101l-333 474v-474h-117v700zM966 602q-61 0 -102.5 -42.5t-41.5 -105.5q0 -62 41.5 -104.5t102.5 -42.5t102.5 42.5
t41.5 104.5q0 63 -41.5 105.5t-102.5 42.5zM1199 104v-105h-468v105h468z" />
    <glyph glyph-name="uni2117" unicode="&#x2117;" horiz-adv-x="789" 
d="M399 710q149 0 255 -105.5t106 -254.5t-106 -254.5t-255 -105.5q-148 0 -253.5 106t-105.5 254t105.5 254t253.5 106zM400 37q128 0 219.5 92t91.5 221t-91.5 221t-219.5 92t-219 -92t-91 -221t91 -221t219 -92zM438 550q55 0 91.5 -35t36.5 -87q0 -53 -36.5 -88.5
t-91.5 -35.5h-83v-152h-70v398h153zM438 370q25 0 41.5 16.5t16.5 41.5q0 24 -16.5 40t-41.5 16h-83v-114h83z" />
    <glyph glyph-name="trademark" unicode="&#x2122;" horiz-adv-x="880" 
d="M344 700v-72h-127v-348h-75v348h-128v72h330zM767 700h77v-420h-76v272l-120 -272h-55l-118 272v-272h-76v420h91l136 -309z" />
    <glyph glyph-name="uni2126" unicode="&#x2126;" horiz-adv-x="777" 
d="M62 0v112h135q-71 40 -109 108t-38 153q0 147 96 242t242 95t242.5 -95t96.5 -242q0 -86 -37.5 -153.5t-108.5 -107.5h135v-112h-274v112q80 42 122.5 108.5t42.5 147.5q0 104 -60.5 166t-158.5 62q-96 0 -157 -62t-61 -166q0 -80 43 -147t123 -109v-112h-274z" />
    <glyph glyph-name="oneeighth" unicode="&#x215b;" horiz-adv-x="836" 
d="M193 700v-420h-75v317l-94 -76v91l117 88h52zM586 700h90l-465 -700h-90zM675 -5q-63 0 -104 35.5t-41 90.5q0 34 19.5 62.5t54.5 43.5q-26 11 -42 35t-16 51q0 49 36.5 80t92.5 31t92.5 -31t36.5 -80q0 -26 -16 -50t-42 -36q32 -13 52.5 -42.5t20.5 -63.5
q0 -55 -40.5 -90.5t-103.5 -35.5zM675 256q26 0 43 15t17 38t-17 37.5t-43 14.5t-43 -14.5t-17 -37.5t16.5 -38t43.5 -15zM675 61q31 0 52 18.5t21 46.5t-20.5 46.5t-52.5 18.5t-53 -18.5t-21 -46.5t21 -46.5t53 -18.5z" />
    <glyph glyph-name="threeeighths" unicode="&#x215c;" horiz-adv-x="887" 
d="M106 526l93 102h-178v72h285v-50l-109 -115q48 -1 80 -35t32 -84q0 -62 -43 -102t-108 -40q-61 0 -102.5 34.5t-45.5 89.5h75q5 -23 24 -37t49 -14q32 0 52.5 20t20.5 51q0 40 -37 57t-88 2v49zM637 700h90l-465 -700h-90zM725 -5q-62 0 -103 35.5t-41 90.5
q0 34 19.5 62.5t53.5 43.5q-26 11 -42 35t-16 51q0 49 36.5 80t92.5 31t92.5 -31t36.5 -80q0 -26 -15.5 -50t-42.5 -36q33 -13 53.5 -42t20.5 -64q0 -55 -40.5 -90.5t-104.5 -35.5zM725 256q27 0 43.5 15t16.5 38t-17 37.5t-43 14.5t-43 -15t-17 -37q0 -23 17 -38t43 -15z
M725 61q32 0 53 18.5t21 46.5t-21 46.5t-53 18.5t-52.5 -18.5t-20.5 -46.5t21 -46.5t52 -18.5z" />
    <glyph glyph-name="fiveeighths" unicode="&#x215d;" horiz-adv-x="885" 
d="M158 274q-59 0 -101.5 33.5t-46.5 90.5h75q6 -24 25.5 -37.5t47.5 -13.5q30 0 51 21t21 50q0 31 -21 52.5t-51 21.5q-43 0 -64 -26h-66l19 234h233v-71h-165l-10 -95q27 20 64 20q60 0 99 -37.5t39 -99.5q0 -60 -43.5 -101.5t-105.5 -41.5zM628 700h90l-465 -700h-90z
M723 -5q-63 0 -104 35.5t-41 90.5q0 33 20 62t54 44q-26 11 -42 35t-16 51q0 49 36.5 80t92.5 31t92.5 -31t36.5 -80q0 -26 -15.5 -50t-42.5 -36q33 -13 53.5 -42t20.5 -64q0 -55 -41 -90.5t-104 -35.5zM723 256q27 0 43.5 15t16.5 38t-17 37.5t-43 14.5t-43 -15t-17 -37
q0 -23 17 -38t43 -15zM723 61q32 0 53 18.5t21 46.5t-21 46.5t-53 18.5t-52.5 -18.5t-20.5 -46.5t21 -46.5t52 -18.5z" />
    <glyph glyph-name="seveneighths" unicode="&#x215e;" horiz-adv-x="795" 
d="M9 700h288v-51l-176 -369h-84l168 348h-196v72zM545 700h90l-465 -700h-90zM633 -5q-62 0 -103 35.5t-41 90.5q0 34 19.5 62.5t53.5 43.5q-26 11 -42 35t-16 51q0 49 36.5 80t92.5 31t92.5 -31t36.5 -80q0 -26 -15.5 -50t-42.5 -36q33 -13 53.5 -42t20.5 -64
q0 -55 -40.5 -90.5t-104.5 -35.5zM633 256q27 0 43.5 15t16.5 38t-17 37.5t-43 14.5t-43 -15t-17 -37q0 -23 17 -38t43 -15zM633 61q32 0 53 18.5t21 46.5t-21 46.5t-53 18.5t-52.5 -18.5t-20.5 -46.5t21 -46.5t52 -18.5z" />
    <glyph glyph-name="arrowleft" unicode="&#x2190;" horiz-adv-x="788" 
d="M738 364v-100h-499l201 -194l-72 -72l-318 316l318 317l72 -72l-201 -195h499z" />
    <glyph glyph-name="arrowup" unicode="&#x2191;" horiz-adv-x="732" 
d="M682 370l-71 -71l-195 201v-500h-99v500l-195 -201l-72 71l317 318z" />
    <glyph glyph-name="arrowright" unicode="&#x2192;" horiz-adv-x="788" 
d="M420 631l318 -317l-318 -316l-71 72l200 194h-499v100h500l-201 195z" />
    <glyph glyph-name="arrowdown" unicode="&#x2193;" horiz-adv-x="732" 
d="M611 378l71 -71l-316 -318l-316 318l72 71l194 -200v499h99v-501z" />
    <glyph glyph-name="uni2196" unicode="&#x2196;" horiz-adv-x="621" 
d="M572 106l-71 -71l-353 353l5 -279h-101l-2 448l449 -1v-101l-280 4z" />
    <glyph glyph-name="uni2197" unicode="&#x2197;" horiz-adv-x="621" 
d="M123 556l448 1l-1 -448h-102l5 279l-353 -353l-70 70l352 353l-279 -4v102z" />
    <glyph glyph-name="uni2198" unicode="&#x2198;" horiz-adv-x="621" 
d="M123 0v101l279 -4l-352 353l70 71l353 -353l-5 279h102l1 -448z" />
    <glyph glyph-name="uni2199" unicode="&#x2199;" horiz-adv-x="621" 
d="M572 450l-353 -353l280 4v-101l-449 -1l2 448h101l-5 -279l353 353z" />
    <glyph glyph-name="partialdiff" unicode="&#x2202;" horiz-adv-x="584" 
d="M475 401q56 -90 56 -172q0 -98 -72 -168.5t-172 -70.5q-101 0 -173 70.5t-72 168.5q0 99 64.5 165t160.5 66q21 0 45 -8l-157 248h134zM287 101q55 0 92.5 37.5t37.5 91.5q0 55 -37.5 93t-91.5 38q-55 0 -93.5 -38t-38.5 -93q0 -54 38 -91.5t93 -37.5z" />
    <glyph glyph-name="emptyset" unicode="&#x2205;" horiz-adv-x="789" 
d="M731 605l-96 -96q45 -72 45 -156q0 -118 -82.5 -201t-200.5 -83q-84 0 -157 46l-97 -97l-84 85l97 97q-46 70 -46 153q0 118 84 202t203 84q82 0 154 -45l95 95zM220 353q0 -39 17 -73l233 233q-35 16 -73 16q-73 0 -125 -51.5t-52 -124.5zM570 353q0 38 -16 75
l-233 -232q36 -17 76 -17q72 0 122.5 50.5t50.5 123.5z" />
    <glyph glyph-name="uni2206" unicode="&#x2206;" horiz-adv-x="598" 
d="M9 0v112l241 588h97l242 -588v-112h-580zM132 112h331l-164 420z" />
    <glyph glyph-name="product" unicode="&#x220f;" horiz-adv-x="673" 
d="M623 700v-700h-117v588h-339v-588h-117v700h573z" />
    <glyph glyph-name="summation" unicode="&#x2211;" horiz-adv-x="608" 
d="M558 700v-112h-350l172 -238l-172 -238h350v-112h-508v87l193 263l-193 264v86h508z" />
    <glyph glyph-name="minus" unicode="&#x2212;" horiz-adv-x="586" 
d="M527 373v-105h-468v105h468z" />
    <glyph glyph-name="radical" unicode="&#x221a;" horiz-adv-x="725" 
d="M554 700h121l-253 -700h-102l-135 377h-135v112h219l103 -302z" />
    <glyph glyph-name="infinity" unicode="&#x221e;" horiz-adv-x="982" 
d="M687 576q105 0 171 -72.5t66 -175.5t-66 -175.5t-171 -72.5q-65 0 -119 35.5t-77 84.5q-23 -49 -77 -85t-119 -36q-105 0 -170.5 72.5t-65.5 176.5q0 103 66 175.5t170 72.5q65 0 119 -35.5t77 -84.5q23 49 77.5 84.5t118.5 35.5zM301 187q52 0 92.5 38t52.5 103
q-12 65 -52.5 103t-92.5 38q-57 0 -93 -39.5t-36 -101.5q0 -63 35.5 -102t93.5 -39zM682 187q57 0 93 39t36 102q0 62 -36 101.5t-93 39.5q-49 0 -88 -38.5t-50 -102.5q11 -65 50 -103t88 -38z" />
    <glyph glyph-name="integral" unicode="&#x222b;" horiz-adv-x="375" 
d="M292 719q35 0 59 -6v-103q-13 4 -35 4q-92 0 -92 -87v-519q0 -91 -48.5 -140.5t-131.5 -49.5q-34 0 -60 6v103q15 -4 35 -4q93 0 93 87v519q0 91 48.5 140.5t131.5 49.5z" />
    <glyph glyph-name="approxequal" unicode="&#x2248;" horiz-adv-x="588" 
d="M154 320l-95 12q9 75 45.5 117t91.5 42q40 0 102.5 -31.5t81.5 -31.5q42 0 52 72l97 -11q-11 -75 -48 -117.5t-91 -42.5q-38 0 -99.5 31.5t-82.5 31.5q-44 0 -54 -72zM154 104l-95 12q9 75 45.5 117t91.5 42q40 0 102.5 -31.5t81.5 -31.5q42 0 52 72l97 -11
q-11 -75 -48 -117.5t-91 -42.5q-38 0 -99.5 31.5t-82.5 31.5q-44 0 -54 -72z" />
    <glyph glyph-name="notequal" unicode="&#x2260;" horiz-adv-x="586" 
d="M527 378h-157l-51 -109h208v-105h-257l-52 -111h-102l52 111h-109v105h158l51 109h-209v105h259l47 101h101l-47 -101h108v-105z" />
    <glyph glyph-name="lessequal" unicode="&#x2264;" horiz-adv-x="547" 
d="M489 183l-430 195v87l430 195v-113l-281 -125l281 -124v-115zM488 0h-429v105h429v-105z" />
    <glyph glyph-name="greaterequal" unicode="&#x2265;" horiz-adv-x="547" 
d="M59 183v115l281 124l-281 125v113l429 -195v-87zM59 0v105h430v-105h-430z" />
    <glyph glyph-name="lozenge" unicode="&#x25ca;" horiz-adv-x="572" 
d="M326 700l194 -350l-194 -350h-82l-193 350l193 350h82zM285 113l128 237l-128 237l-130 -237z" />
    <glyph glyph-name="circle" unicode="&#x25cb;" horiz-adv-x="801" 
d="M399 -10q-148 0 -253.5 106t-105.5 254t105.5 254t253.5 106q149 0 255 -105.5t106 -254.5t-106 -254.5t-255 -105.5zM400 37q128 0 219.5 92t91.5 221t-91.5 221t-219.5 92t-219 -92t-91 -221t91 -221t219 -92z" />
    <glyph glyph-name="uni25CF" unicode="&#x25cf;" horiz-adv-x="801" 
d="M400 -10q-148 0 -254 106t-106 254t106 254t254 106t254 -106t106 -254t-106 -254t-254 -106z" />
    <glyph glyph-name="P_sq" horiz-adv-x="616" 
d="M553 700v-430h-372v-270h-117v700h489zM435 382v206h-254v-206h254z" />
    <glyph glyph-name="P_sq_sinf" horiz-adv-x="368" 
d="M332 420v-262h-220v-158h-76v420h296zM256 231v116h-144v-116h144z" />
    <glyph glyph-name="Iacute_J.loclNLD" horiz-adv-x="567" 
d="M281 906l-114 -150h-103l83 150h134zM608 906l-114 -150h-103l83 150h134zM64 700h117v-700h-117v700zM271 103h22q98 0 98 116v481h117v-511q0 -92 -50 -144.5t-132 -52.5q-37 0 -55 4v107z" />
    <glyph glyph-name="O.ss10" horiz-adv-x="747" 
d="M566 700h118v-700h-620v700h117v-1h385v1zM181 112h385v475h-385v-475z" />
    <glyph glyph-name="Oacute.ss10" horiz-adv-x="747" 
d="M533 906l-114 -150h-103l83 150h134zM566 700h118v-700h-620v700h117v-1h385v1zM181 112h385v475h-385v-475z" />
    <glyph glyph-name="Obreve.ss10" horiz-adv-x="747" 
d="M375 749q-69 0 -113.5 43t-45.5 113h86q0 -36 20.5 -58.5t52.5 -22.5q31 0 51.5 22.5t20.5 58.5h86q-1 -70 -45.5 -113t-112.5 -43zM566 700h118v-700h-620v700h117v-1h385v1zM181 112h385v475h-385v-475z" />
    <glyph glyph-name="Ocircumflex.ss10" horiz-adv-x="747" 
d="M374 839l-57 -79h-99l94 150h123l94 -150h-99zM566 700h118v-700h-620v700h117v-1h385v1zM181 112h385v475h-385v-475z" />
    <glyph glyph-name="Odieresis.ss10" horiz-adv-x="747" 
d="M281 758q-29 0 -50.5 21t-21.5 51q0 29 21.5 50t50.5 21t50 -21.5t21 -49.5q0 -30 -21 -51t-50 -21zM467 758q-29 0 -50 21t-21 51q0 29 21 50t50 21t50.5 -21t21.5 -50q0 -30 -21.5 -51t-50.5 -21zM566 700h118v-700h-620v700h117v-1h385v1zM181 112h385v475h-385v-475z
" />
    <glyph glyph-name="Ograve.ss10" horiz-adv-x="747" 
d="M434 756h-104l-113 150h134zM566 700h118v-700h-620v700h117v-1h385v1zM181 112h385v475h-385v-475z" />
    <glyph glyph-name="Ohungarumlaut.ss10" horiz-adv-x="747" 
d="M394 910l-63 -154h-115l64 154h114zM585 910l-64 -154h-115l64 154h115zM566 700h118v-700h-620v700h117v-1h385v1zM181 112h385v475h-385v-475z" />
    <glyph glyph-name="Omacron.ss10" horiz-adv-x="747" 
d="M534 855v-91h-320v91h320zM566 700h118v-700h-620v700h117v-1h385v1zM181 112h385v475h-385v-475z" />
    <glyph glyph-name="uni01EA.ss10" horiz-adv-x="747" 
d="M566 700h118v-700h-220q-35 -9 -55.5 -28.5t-20.5 -43.5q0 -17 12.5 -27.5t33.5 -10.5t42 9l29 -71q-41 -23 -106 -23q-48 0 -78 28t-30 71q0 54 44 96h-271v700h117v-1h385v1zM181 112h385v475h-385v-475z" />
    <glyph glyph-name="S.ss12" horiz-adv-x="549" 
d="M258 700h204v-114h-225q-42 0 -67 -19t-25 -51t27 -54t68 -32.5t88 -27t88 -36.5t68 -62.5t27 -102.5q0 -88 -62 -144.5t-175 -56.5h-231v114h236q53 0 83 23t30 64q0 30 -20 50t-52 32t-71 22t-78 24.5t-71 35t-52 58t-20 88.5q0 84 63.5 136.5t166.5 52.5z" />
    <glyph glyph-name="Sacute.ss12" horiz-adv-x="549" 
d="M444 906l-114 -150h-103l83 150h134zM258 700h204v-114h-225q-42 0 -67 -19t-25 -51t27 -54t68 -32.5t88 -27t88 -36.5t68 -62.5t27 -102.5q0 -88 -62 -144.5t-175 -56.5h-231v114h236q53 0 83 23t30 64q0 30 -20 50t-52 32t-71 22t-78 24.5t-71 35t-52 58t-20 88.5
q0 84 63.5 136.5t166.5 52.5z" />
    <glyph glyph-name="Scaron.ss12" horiz-adv-x="549" 
d="M224 756l-94 150h99l57 -79l56 79h99l-94 -150h-123zM145 516q0 -32 27 -54t68 -32.5t88 -27t88 -36.5t68 -62.5t27 -102.5q0 -88 -62 -144.5t-175 -56.5h-231v114h236q53 0 83 23t30 64q0 30 -20 50t-52 32t-71 22t-78 24.5t-71 35t-52 58t-20 88.5q0 84 63.5 136.5
t166.5 52.5h204v-114h-225q-42 0 -67 -19t-25 -51z" />
    <glyph glyph-name="Scedilla.ss12" horiz-adv-x="549" 
d="M511 201q0 -82 -54.5 -137.5t-155.5 -62.5q46 -58 46 -108t-45 -82t-116 -28l-26 80q84 2 98.5 44t-38.5 93h-177v114h236q53 0 83 23t30 64q0 30 -20 50t-52 32t-71 22t-78 24.5t-71 35t-52 58t-20 88.5q0 84 63.5 136.5t166.5 52.5h204v-114h-225q-42 0 -67 -19
t-25 -51t27 -54t68 -32.5t88 -27t88 -36.5t68 -62.5t27 -102.5z" />
    <glyph glyph-name="Scircumflex.ss12" horiz-adv-x="549" 
d="M286 839l-57 -79h-99l94 150h123l94 -150h-99zM145 516q0 -32 27 -54t68 -32.5t88 -27t88 -36.5t68 -62.5t27 -102.5q0 -88 -62 -144.5t-175 -56.5h-231v114h236q53 0 83 23t30 64q0 30 -20 50t-52 32t-71 22t-78 24.5t-71 35t-52 58t-20 88.5q0 84 63.5 136.5
t166.5 52.5h204v-114h-225q-42 0 -67 -19t-25 -51z" />
    <glyph glyph-name="uni0218.ss12" horiz-adv-x="549" 
d="M258 700h204v-114h-225q-42 0 -67 -19t-25 -51t27 -54t68 -32.5t88 -27t88 -36.5t68 -62.5t27 -102.5q0 -88 -62 -144.5t-175 -56.5h-231v114h236q53 0 83 23t30 64q0 30 -20 50t-52 32t-71 22t-78 24.5t-71 35t-52 58t-20 88.5q0 84 63.5 136.5t166.5 52.5zM341 -68
l-113 -150h-104l83 150h134z" />
    <glyph glyph-name="D.ss16" horiz-adv-x="728" 
d="M338 700q150 0 250 -98.5t100 -248.5q0 -151 -100.5 -252t-249.5 -101h-314v106h84v594h230zM346 112q95 0 158.5 69t63.5 172q0 102 -63 168.5t-159 66.5h-121v-476h121z" />
    <glyph glyph-name="Eth.ss16" horiz-adv-x="728" 
d="M338 700q150 0 250 -98.5t100 -248.5q0 -151 -100.5 -252t-249.5 -101h-314v106h84v206h-84v76h84v312h230zM346 112q95 0 158.5 69t63.5 172q0 102 -63 168.5t-159 66.5h-121v-200h119v-76h-119v-200h121z" />
    <glyph glyph-name="Dcaron.ss16" horiz-adv-x="728" 
d="M281 756l-94 150h99l57 -79l56 79h99l-94 -150h-123zM338 700q150 0 250 -98.5t100 -248.5q0 -151 -100.5 -252t-249.5 -101h-314v106h84v594h230zM346 112q95 0 158.5 69t63.5 172q0 102 -63 168.5t-159 66.5h-121v-476h121z" />
    <glyph glyph-name="Dcroat.ss16" horiz-adv-x="728" 
d="M338 700q150 0 250 -98.5t100 -248.5q0 -151 -100.5 -252t-249.5 -101h-314v106h84v206h-84v76h84v312h230zM346 112q95 0 158.5 69t63.5 172q0 102 -63 168.5t-159 66.5h-121v-200h119v-76h-119v-200h121z" />
    <glyph glyph-name="J.ss17" horiz-adv-x="395" 
d="M331 700v-700h-305v112h188v588h117z" />
    <glyph glyph-name="Jcircumflex.ss17" horiz-adv-x="395" 
d="M273 839l-57 -79h-99l94 150h123l94 -150h-99zM214 112v588h117v-700h-305v112h188z" />
    <glyph glyph-name="L.ss18" horiz-adv-x="590" 
d="M225 112h335v-112h-536v106h84v594h117v-588z" />
    <glyph glyph-name="Lacute.ss18" horiz-adv-x="590" 
d="M322 906l-114 -150h-103l83 150h134zM225 112h335v-112h-536v106h84v594h117v-588z" />
    <glyph glyph-name="Lcaron.ss18" horiz-adv-x="590" 
d="M490 755l-44 -210h-93l20 210h117zM225 112h335v-112h-536v106h84v594h117v-588z" />
    <glyph glyph-name="uni013B.ss18" horiz-adv-x="590" 
d="M225 112h335v-112h-536v106h84v594h117v-588zM173 -218l83 150h134l-113 -150h-104z" />
    <glyph glyph-name="Ldot.ss18" horiz-adv-x="590" 
d="M225 112h335v-112h-536v106h84v594h117v-588zM436 311q-33 0 -55.5 22t-22.5 54t22.5 54t55.5 22q32 0 54.5 -22t22.5 -54t-22.5 -54t-54.5 -22z" />
    <glyph glyph-name="Lslash.ss18" horiz-adv-x="590" 
d="M225 112h335v-112h-536v106h84v179l-84 -39v101l84 39v314h117v-259l173 80v-101l-173 -80v-228z" />
    <glyph glyph-name="M.swsh" horiz-adv-x="1016" 
d="M881 -1l-160 508l-162 -508h-97l-165 508l-160 -508h-125l235 701h97l165 -507l165 507h96l233 -701h-122z" />
    <glyph glyph-name="G.titl" horiz-adv-x="814" 
d="M791 392v-113h-63q-15 -129 -107 -209t-227 -80q-151 0 -252.5 103.5t-101.5 257.5q0 153 102 256t253 103q117 0 211.5 -68t115.5 -162h-133q-19 51 -74.5 83.5t-119.5 32.5q-100 0 -167 -70.5t-67 -174.5q0 -106 68.5 -176.5t173.5 -70.5q84 0 141.5 52.5t63.5 122.5
h-213v113h396z" />
    <glyph glyph-name="Gbreve.titl" horiz-adv-x="814" 
d="M380 749q-69 0 -113.5 43t-45.5 113h86q0 -36 20.5 -58.5t52.5 -22.5q31 0 51.5 22.5t20.5 58.5h86q-1 -70 -45.5 -113t-112.5 -43zM791 392v-113h-63q-15 -129 -107 -209t-227 -80q-151 0 -252.5 103.5t-101.5 257.5q0 153 102 256t253 103q117 0 211.5 -68t115.5 -162
h-133q-19 51 -74.5 83.5t-119.5 32.5q-100 0 -167 -70.5t-67 -174.5q0 -106 68.5 -176.5t173.5 -70.5q84 0 141.5 52.5t63.5 122.5h-213v113h396z" />
    <glyph glyph-name="Gcircumflex.titl" horiz-adv-x="814" 
d="M380 839l-57 -79h-99l94 150h123l94 -150h-99zM791 392v-113h-63q-15 -129 -107 -209t-227 -80q-151 0 -252.5 103.5t-101.5 257.5q0 153 102 256t253 103q117 0 211.5 -68t115.5 -162h-133q-19 51 -74.5 83.5t-119.5 32.5q-100 0 -167 -70.5t-67 -174.5
q0 -106 68.5 -176.5t173.5 -70.5q84 0 141.5 52.5t63.5 122.5h-213v113h396z" />
    <glyph glyph-name="uni0122.titl" horiz-adv-x="814" 
d="M791 392v-113h-63q-15 -129 -107 -209t-227 -80q-151 0 -252.5 103.5t-101.5 257.5q0 153 102 256t253 103q117 0 211.5 -68t115.5 -162h-133q-19 51 -74.5 83.5t-119.5 32.5q-100 0 -167 -70.5t-67 -174.5q0 -106 68.5 -176.5t173.5 -70.5q84 0 141.5 52.5t63.5 122.5
h-213v113h396zM258 -218l83 150h134l-113 -150h-104z" />
    <glyph glyph-name="Gdotaccent.titl" horiz-adv-x="814" 
d="M379 758q-29 0 -50 21t-21 51q0 29 21 50t50 21t50.5 -21t21.5 -50q0 -30 -21.5 -51t-50.5 -21zM791 392v-113h-63q-15 -129 -107 -209t-227 -80q-151 0 -252.5 103.5t-101.5 257.5q0 153 102 256t253 103q117 0 211.5 -68t115.5 -162h-133q-19 51 -74.5 83.5
t-119.5 32.5q-100 0 -167 -70.5t-67 -174.5q0 -106 68.5 -176.5t173.5 -70.5q84 0 141.5 52.5t63.5 122.5h-213v113h396z" />
    <glyph glyph-name="I.titl" horiz-adv-x="353" 
d="M308 594h-73v-488h73v-106h-263v106h73v488h-73v106h263v-106z" />
    <glyph glyph-name="IJ.titl" horiz-adv-x="742" 
d="M308 700v-106h-73v-488h73v-106h-263v106h73v488h-73v106h263zM689 700v-106h-73v-405q0 -92 -50 -144.5t-132 -52.5q-38 0 -56 4v107h23q97 0 97 116v375h-72v106h263z" />
    <glyph glyph-name="Iacute.titl" horiz-adv-x="353" 
d="M335 906l-114 -150h-103l83 150h134zM308 700v-106h-73v-488h73v-106h-263v106h73v488h-73v106h263z" />
    <glyph glyph-name="Ibreve.titl" horiz-adv-x="353" 
d="M177 749q-69 0 -113.5 43t-45.5 113h86q0 -36 20.5 -58.5t52.5 -22.5q31 0 51.5 22.5t20.5 58.5h86q-1 -70 -45.5 -113t-112.5 -43zM308 700v-106h-73v-488h73v-106h-263v106h73v488h-73v106h263z" />
    <glyph glyph-name="Icircumflex.titl" horiz-adv-x="353" 
d="M177 839l-57 -79h-99l94 150h123l94 -150h-99zM308 700v-106h-73v-488h73v-106h-263v106h73v488h-73v106h263z" />
    <glyph glyph-name="Idieresis.titl" horiz-adv-x="353" 
d="M155 830q0 -30 -21 -51t-50 -21t-50.5 21t-21.5 51q0 29 21.5 50t50.5 21q28 0 49.5 -21.5t21.5 -49.5zM270 901q29 0 50.5 -21t21.5 -50q0 -30 -21.5 -51t-50.5 -21t-50 21t-21 51q0 29 21 50t50 21zM308 700v-106h-73v-488h73v-106h-263v106h73v488h-73v106h263z" />
    <glyph glyph-name="Idotaccent.titl" horiz-adv-x="353" 
d="M177 758q-29 0 -50 21t-21 51q0 29 21 50t50 21t50.5 -21t21.5 -50q0 -30 -21.5 -51t-50.5 -21zM308 594h-73v-488h73v-106h-263v106h73v488h-73v106h263v-106z" />
    <glyph glyph-name="Igrave.titl" horiz-adv-x="353" 
d="M237 756h-104l-113 150h134zM308 594h-73v-488h73v-106h-263v106h73v488h-73v106h263v-106z" />
    <glyph glyph-name="Imacron.titl" horiz-adv-x="353" 
d="M17 855h320v-91h-320v91zM308 700v-106h-73v-488h73v-106h-263v106h73v488h-73v106h263z" />
    <glyph glyph-name="Iogonek.titl" horiz-adv-x="353" 
d="M308 594h-73v-488h73v-106h-42q-35 -9 -55.5 -28.5t-20.5 -43.5q0 -17 12.5 -27.5t33.5 -10.5t42 9l29 -71q-41 -23 -106 -23q-48 0 -78 28t-30 71q0 54 44 96h-92v106h73v488h-73v106h263v-106z" />
    <glyph glyph-name="Itilde.titl" horiz-adv-x="353" 
d="M282 904l91 -15q-6 -58 -40 -95t-80 -37q-37 0 -84 27.5t-61 27.5q-17 0 -27 -14.5t-9 -37.5l-91 15q5 59 38.5 96t80.5 37q36 0 83 -27.5t59 -27.5q17 0 28 14t12 37zM308 700v-106h-73v-488h73v-106h-263v106h73v488h-73v106h263z" />
    <glyph glyph-name="J.titl" horiz-adv-x="389" 
d="M336 700v-106h-73v-405q0 -92 -50 -144.5t-132 -52.5q-37 0 -55 4v107h22q98 0 98 116v375h-73v106h263z" />
    <glyph glyph-name="Jcircumflex.titl" horiz-adv-x="389" 
d="M202 839l-57 -79h-99l94 150h123l94 -150h-99zM336 700v-106h-73v-405q0 -92 -50 -144.5t-132 -52.5q-37 0 -55 4v107h22q98 0 98 116v375h-73v106h263z" />
    <glyph glyph-name="T.titl" horiz-adv-x="597" 
d="M572 588h-215v-482h73v-106h-263v106h73v482h-215v112h547v-112z" />
    <glyph glyph-name="Tbar.titl" horiz-adv-x="597" 
d="M572 588h-215v-200h100v-76h-100v-206h73v-106h-263v106h73v206h-103v76h103v200h-215v112h547v-112z" />
    <glyph glyph-name="Tcaron.titl" horiz-adv-x="597" 
d="M236 756l-95 150h100l56 -80l57 80h99l-94 -150h-123zM572 588h-215v-482h73v-106h-263v106h73v482h-215v112h547v-112z" />
    <glyph glyph-name="uni0162.titl" horiz-adv-x="597" 
d="M572 588h-215v-482h73v-106h-85q71 -84 32.5 -153.5t-147.5 -63.5l-26 80q83 2 98 44t-38 93h-97v106h73v482h-215v112h547v-112z" />
    <glyph glyph-name="uni021A.titl" horiz-adv-x="597" 
d="M572 588h-215v-482h73v-106h-263v106h73v482h-215v112h547v-112zM168 -218l83 150h134l-114 -150h-103z" />
    <glyph glyph-name="Y.titl" horiz-adv-x="655" 
d="M388 304v-198h73v-106h-263v106h73v198l-259 396h142l177 -278l174 278h137z" />
    <glyph glyph-name="Yacute.titl" horiz-adv-x="655" 
d="M478 906l-113 -150h-104l83 150h134zM388 304v-198h73v-106h-263v106h73v198l-259 396h142l177 -278l174 278h137z" />
    <glyph glyph-name="Ycircumflex.titl" horiz-adv-x="655" 
d="M320 839l-57 -79h-99l94 150h123l95 -150h-100zM388 304v-198h73v-106h-263v106h73v198l-259 396h142l177 -278l174 278h137z" />
    <glyph glyph-name="Ydieresis.titl" horiz-adv-x="655" 
d="M226 758q-29 0 -50 21t-21 51q0 29 21 50t50 21t50.5 -21t21.5 -50q0 -30 -21.5 -51t-50.5 -21zM413 758q-29 0 -50 21t-21 51q0 29 21 50t50 21t50.5 -21t21.5 -50q0 -30 -21.5 -51t-50.5 -21zM388 304v-198h73v-106h-263v106h73v198l-259 396h142l177 -278l174 278h137
z" />
    <glyph glyph-name="Ygrave.titl" horiz-adv-x="655" 
d="M380 756h-103l-114 150h134zM388 304v-198h73v-106h-263v106h73v198l-259 396h142l177 -278l174 278h137z" />
    <glyph glyph-name="i.loclTRK" horiz-adv-x="229" 
d="M115 716q29 0 50.5 -21t21.5 -50q0 -30 -21.5 -51t-50.5 -21t-50 21t-21 51q0 29 21 50t50 21zM59 489h111v-489h-111v489z" />
    <glyph glyph-name="eth.alt" horiz-adv-x="588" 
d="M493 435q61 -101 61 -187q0 -107 -77.5 -183t-186.5 -76q-108 0 -185.5 76.5t-77.5 182.5q0 107 70 178.5t174 71.5q31 0 60 -12l-68 107l-119 -46l-27 63l108 42l-57 90h133l30 -48l137 54l27 -64l-127 -49zM290 101q63 0 106.5 43t43.5 105t-43 105.5t-105 43.5
q-64 0 -107.5 -43.5t-43.5 -105.5t43.5 -105t105.5 -43z" />
    <glyph glyph-name="germandbls.calt" horiz-adv-x="618" 
d="M309 710q101 0 171 -55.5t78 -137.5l-136 -128q76 -9 122 -58t46 -119q0 -87 -64.5 -149.5t-153.5 -62.5h-129v112h128q41 0 70 28.5t29 69.5q0 46 -27.5 72.5t-74.5 26.5h-87l-2 74l149 144q-10 30 -41.5 50t-71.5 20q-59 0 -96 -43.5t-37 -111.5v-442h-118v442
q0 120 67.5 194t177.5 74z" />
    <glyph glyph-name="iacute_j.loclNLD" horiz-adv-x="458" 
d="M273 695l-114 -150h-103l83 150h134zM502 695l-114 -150h-103l83 150h134zM59 489h111v-489h-111v489zM213 -93q2 0 7 -0.5t8 -0.5q60 0 60 79v504h111v-515q0 -81 -42.5 -125t-119.5 -44q-14 0 -24 1v101z" />
    <glyph glyph-name="a.ss01" horiz-adv-x="504" 
d="M246 499q100 0 154.5 -53t54.5 -143v-303h-105v61q-52 -71 -149 -71q-71 0 -115.5 41t-44.5 103q0 77 63.5 122t173.5 45h72v9q0 44 -28.5 71t-75.5 27q-41 0 -70 -23.5t-31 -60.5h-100q6 74 64 124.5t137 50.5zM220 78q56 0 93 36t37 83v21h-75q-136 0 -136 -75
q0 -29 22.5 -47t58.5 -18z" />
    <glyph glyph-name="aacute.ss01" horiz-adv-x="504" 
d="M413 695l-114 -150h-103l83 150h134zM246 499q100 0 154.5 -53t54.5 -143v-303h-105v61q-52 -71 -149 -71q-71 0 -115.5 41t-44.5 103q0 77 63.5 122t173.5 45h72v9q0 44 -28.5 71t-75.5 27q-41 0 -70 -23.5t-31 -60.5h-100q6 74 64 124.5t137 50.5zM220 78q56 0 93 36
t37 83v21h-75q-136 0 -136 -75q0 -29 22.5 -47t58.5 -18z" />
    <glyph glyph-name="abreve.ss01" horiz-adv-x="504" 
d="M255 538q-69 0 -113.5 43t-45.5 113h86q0 -36 20.5 -58.5t52.5 -22.5q31 0 51.5 22.5t20.5 58.5h86q-1 -70 -45.5 -113t-112.5 -43zM246 499q100 0 154.5 -53t54.5 -143v-303h-105v61q-52 -71 -149 -71q-71 0 -115.5 41t-44.5 103q0 77 63.5 122t173.5 45h72v9
q0 44 -28.5 71t-75.5 27q-41 0 -70 -23.5t-31 -60.5h-100q6 74 64 124.5t137 50.5zM220 78q56 0 93 36t37 83v21h-75q-136 0 -136 -75q0 -29 22.5 -47t58.5 -18z" />
    <glyph glyph-name="acircumflex.ss01" horiz-adv-x="504" 
d="M255 628l-57 -79h-99l94 150h123l94 -150h-99zM246 499q100 0 154.5 -53t54.5 -143v-303h-105v61q-52 -71 -149 -71q-71 0 -115.5 41t-44.5 103q0 77 63.5 122t173.5 45h72v9q0 44 -28.5 71t-75.5 27q-41 0 -70 -23.5t-31 -60.5h-100q6 74 64 124.5t137 50.5zM220 78
q56 0 93 36t37 83v21h-75q-136 0 -136 -75q0 -29 22.5 -47t58.5 -18z" />
    <glyph glyph-name="adieresis.ss01" horiz-adv-x="504" 
d="M161 573q-29 0 -50.5 21t-21.5 51q0 29 21.5 50t50.5 21t50 -21t21 -50q0 -30 -21 -51t-50 -21zM347 573q-29 0 -50 21t-21 51q0 29 21 50t50 21t50.5 -21t21.5 -50q0 -30 -21.5 -51t-50.5 -21zM246 499q100 0 154.5 -53t54.5 -143v-303h-105v61q-52 -71 -149 -71
q-71 0 -115.5 41t-44.5 103q0 77 63.5 122t173.5 45h72v9q0 44 -28.5 71t-75.5 27q-41 0 -70 -23.5t-31 -60.5h-100q6 74 64 124.5t137 50.5zM220 78q56 0 93 36t37 83v21h-75q-136 0 -136 -75q0 -29 22.5 -47t58.5 -18z" />
    <glyph glyph-name="agrave.ss01" horiz-adv-x="504" 
d="M315 545h-104l-113 150h134zM246 499q100 0 154.5 -53t54.5 -143v-303h-105v61q-52 -71 -149 -71q-71 0 -115.5 41t-44.5 103q0 77 63.5 122t173.5 45h72v9q0 44 -28.5 71t-75.5 27q-41 0 -70 -23.5t-31 -60.5h-100q6 74 64 124.5t137 50.5zM220 78q56 0 93 36t37 83v21
h-75q-136 0 -136 -75q0 -29 22.5 -47t58.5 -18z" />
    <glyph glyph-name="amacron.ss01" horiz-adv-x="504" 
d="M414 644v-91h-320v91h320zM246 499q100 0 154.5 -53t54.5 -143v-303h-105v61q-52 -71 -149 -71q-71 0 -115.5 41t-44.5 103q0 77 63.5 122t173.5 45h72v9q0 44 -28.5 71t-75.5 27q-41 0 -70 -23.5t-31 -60.5h-100q6 74 64 124.5t137 50.5zM220 78q56 0 93 36t37 83v21
h-75q-136 0 -136 -75q0 -29 22.5 -47t58.5 -18z" />
    <glyph glyph-name="aogonek.ss01" horiz-adv-x="504" 
d="M468 -101l29 -71q-41 -23 -106 -23q-48 0 -78 28t-30 71q0 67 67 116v41q-52 -71 -149 -71q-71 0 -115.5 41t-44.5 103q0 77 63.5 122t173.5 45h72v9q0 44 -28.5 71t-75.5 27q-41 0 -70 -23.5t-31 -60.5h-100q6 74 64 124.5t137 50.5q100 0 154.5 -53t54.5 -143v-236h1
v-67q-35 -9 -55.5 -28.5t-20.5 -43.5q0 -17 12.5 -27.5t33.5 -10.5t42 9zM220 78q56 0 93 36t37 83v21h-75q-136 0 -136 -75q0 -29 22.5 -47t58.5 -18z" />
    <glyph glyph-name="aring.ss01" horiz-adv-x="504" 
d="M254 541q-56 0 -94 36.5t-38 90.5q0 55 38 91.5t94 36.5q57 0 95.5 -36.5t38.5 -91.5q0 -54 -38.5 -90.5t-95.5 -36.5zM254 729q-27 0 -44.5 -17.5t-17.5 -43.5t17.5 -43.5t44.5 -17.5t45.5 17.5t18.5 43.5t-18.5 43.5t-45.5 17.5zM246 499q100 0 154.5 -53t54.5 -143
v-303h-105v61q-52 -71 -149 -71q-71 0 -115.5 41t-44.5 103q0 77 63.5 122t173.5 45h72v9q0 44 -28.5 71t-75.5 27q-41 0 -70 -23.5t-31 -60.5h-100q6 74 64 124.5t137 50.5zM220 78q56 0 93 36t37 83v21h-75q-136 0 -136 -75q0 -29 22.5 -47t58.5 -18z" />
    <glyph glyph-name="atilde.ss01" horiz-adv-x="504" 
d="M185 601q-17 0 -27 -14.5t-9 -37.5l-91 15q5 59 38.5 96t80.5 37q36 0 83.5 -27.5t58.5 -27.5q17 0 28 14t12 37l91 -15q-6 -58 -40 -95t-80 -37q-37 0 -84 27.5t-61 27.5zM246 499q100 0 154.5 -53t54.5 -143v-303h-105v61q-52 -71 -149 -71q-71 0 -115.5 41t-44.5 103
q0 77 63.5 122t173.5 45h72v9q0 44 -28.5 71t-75.5 27q-41 0 -70 -23.5t-31 -60.5h-100q6 74 64 124.5t137 50.5zM220 78q56 0 93 36t37 83v21h-75q-136 0 -136 -75q0 -29 22.5 -47t58.5 -18z" />
    <glyph glyph-name="ae.ss01" horiz-adv-x="913" 
d="M880 255q0 -33 -3 -47h-375q11 -55 48 -86t95 -31q44 0 77 19.5t40 50.5h111q-13 -77 -76.5 -124t-153.5 -47q-113 0 -188 81v-71h-105v61q-52 -71 -149 -71q-71 0 -115.5 41t-44.5 103q0 77 63.5 122t173.5 45h72v9q0 44 -28.5 71t-75.5 27q-41 0 -70 -23.5t-31 -60.5
h-100q6 74 64 124.5t137 50.5q142 0 190 -103q35 48 88.5 75.5t116.5 27.5q100 0 169.5 -69t69.5 -175zM505 303h253q-7 43 -40 69t-83 26t-84 -25t-46 -70zM220 78q56 0 93 36t37 83v21h-75q-136 0 -136 -75q0 -29 22.5 -47t58.5 -18z" />
    <glyph glyph-name="aeacute.ss01" horiz-adv-x="913" 
d="M615 695l-114 -150h-103l83 150h134zM880 255q0 -33 -3 -47h-375q11 -55 48 -86t95 -31q44 0 77 19.5t40 50.5h111q-13 -77 -76.5 -124t-153.5 -47q-113 0 -188 81v-71h-105v61q-52 -71 -149 -71q-71 0 -115.5 41t-44.5 103q0 77 63.5 122t173.5 45h72v9q0 44 -28.5 71
t-75.5 27q-41 0 -70 -23.5t-31 -60.5h-100q6 74 64 124.5t137 50.5q142 0 190 -103q35 48 88.5 75.5t116.5 27.5q100 0 169.5 -69t69.5 -175zM505 303h253q-7 43 -40 69t-83 26t-84 -25t-46 -70zM220 78q56 0 93 36t37 83v21h-75q-136 0 -136 -75q0 -29 22.5 -47t58.5 -18z
" />
    <glyph glyph-name="a.ss02" horiz-adv-x="512" 
d="M66 489h387v-489h-112v60q-53 -70 -148 -70q-71 0 -115.5 41t-44.5 103q0 77 63.5 122t173.5 45h71v93h-275v95zM212 78q55 0 92 36t37 83v21h-75q-135 0 -135 -75q0 -29 22 -47t59 -18z" />
    <glyph glyph-name="aacute.ss02" horiz-adv-x="512" 
d="M417 695l-114 -150h-103l83 150h134zM66 489h387v-489h-112v60q-53 -70 -148 -70q-71 0 -115.5 41t-44.5 103q0 77 63.5 122t173.5 45h71v93h-275v95zM212 78q55 0 92 36t37 83v21h-75q-135 0 -135 -75q0 -29 22 -47t59 -18z" />
    <glyph glyph-name="abreve.ss02" horiz-adv-x="512" 
d="M259 538q-69 0 -113.5 43t-45.5 113h86q0 -36 20.5 -58.5t52.5 -22.5q31 0 51.5 22.5t20.5 58.5h86q-1 -70 -45.5 -113t-112.5 -43zM66 489h387v-489h-112v60q-53 -70 -148 -70q-71 0 -115.5 41t-44.5 103q0 77 63.5 122t173.5 45h71v93h-275v95zM212 78q55 0 92 36
t37 83v21h-75q-135 0 -135 -75q0 -29 22 -47t59 -18z" />
    <glyph glyph-name="acircumflex.ss02" horiz-adv-x="512" 
d="M259 628l-57 -79h-99l94 150h123l94 -150h-99zM66 489h387v-489h-112v60q-53 -70 -148 -70q-71 0 -115.5 41t-44.5 103q0 77 63.5 122t173.5 45h71v93h-275v95zM212 78q55 0 92 36t37 83v21h-75q-135 0 -135 -75q0 -29 22 -47t59 -18z" />
    <glyph glyph-name="adieresis.ss02" horiz-adv-x="512" 
d="M165 573q-29 0 -50.5 21t-21.5 51q0 29 21.5 50t50.5 21t50 -21t21 -50q0 -30 -21 -51t-50 -21zM351 573q-29 0 -50 21t-21 51q0 29 21 50t50 21t50.5 -21t21.5 -50q0 -30 -21.5 -51t-50.5 -21zM66 489h387v-489h-112v60q-53 -70 -148 -70q-71 0 -115.5 41t-44.5 103
q0 77 63.5 122t173.5 45h71v93h-275v95zM212 78q55 0 92 36t37 83v21h-75q-135 0 -135 -75q0 -29 22 -47t59 -18z" />
    <glyph glyph-name="agrave.ss02" horiz-adv-x="506" 
d="M316 545h-103l-114 150h134zM66 489h387v-489h-112v60q-53 -70 -148 -70q-71 0 -115.5 41t-44.5 103q0 77 63.5 122t173.5 45h71v93h-275v95zM212 78q55 0 92 36t37 83v21h-75q-135 0 -135 -75q0 -29 22 -47t59 -18z" />
    <glyph glyph-name="amacron.ss02" horiz-adv-x="512" 
d="M419 644v-91h-320v91h320zM66 489h387v-489h-112v60q-53 -70 -148 -70q-71 0 -115.5 41t-44.5 103q0 77 63.5 122t173.5 45h71v93h-275v95zM212 78q55 0 92 36t37 83v21h-75q-135 0 -135 -75q0 -29 22 -47t59 -18z" />
    <glyph glyph-name="aogonek.ss02" horiz-adv-x="512" 
d="M465 -101l29 -71q-41 -23 -106 -23q-48 0 -78 28t-30 71q0 63 61 111v45q-53 -70 -148 -70q-71 0 -115.5 41t-44.5 103q0 77 63.5 122t173.5 45h71v93h-275v95h387v-489q-35 -9 -55.5 -28.5t-20.5 -43.5q0 -17 12.5 -27.5t33.5 -10.5t42 9zM212 78q55 0 92 36t37 83v21
h-75q-135 0 -135 -75q0 -29 22 -47t59 -18z" />
    <glyph glyph-name="aring.ss02" horiz-adv-x="512" 
d="M258 541q-56 0 -94 36.5t-38 90.5q0 55 38 91.5t94 36.5q57 0 95.5 -36.5t38.5 -91.5q0 -54 -38.5 -90.5t-95.5 -36.5zM258 729q-27 0 -44.5 -17.5t-17.5 -43.5t17.5 -43.5t44.5 -17.5t45.5 17.5t18.5 43.5t-18.5 43.5t-45.5 17.5zM66 489h387v-489h-112v60
q-53 -70 -148 -70q-71 0 -115.5 41t-44.5 103q0 77 63.5 122t173.5 45h71v93h-275v95zM212 78q55 0 92 36t37 83v21h-75q-135 0 -135 -75q0 -29 22 -47t59 -18z" />
    <glyph glyph-name="atilde.ss02" horiz-adv-x="512" 
d="M189 601q-17 0 -27 -14.5t-9 -37.5l-91 15q5 59 38.5 96t80.5 37q35 0 83 -27.5t59 -27.5q17 0 28 14t12 37l91 -15q-6 -58 -40 -95t-80 -37q-37 0 -84 27.5t-61 27.5zM66 394v95h387v-489h-112v60q-53 -70 -148 -70q-71 0 -115.5 41t-44.5 103q0 77 63.5 122t173.5 45
h71v93h-275zM212 78q55 0 92 36t37 83v21h-75q-135 0 -135 -75q0 -29 22 -47t59 -18z" />
    <glyph glyph-name="ae.ss02" horiz-adv-x="884" 
d="M849 262q0 -13 -2 -39h-385q4 -62 45.5 -101t102.5 -39q49 0 82.5 21t41.5 56h110q-13 -77 -77 -123.5t-154 -46.5q-116 0 -182 87v-77h-90v72q-48 -82 -154 -82q-67 0 -110.5 41t-43.5 103q0 77 63 118.5t179 41.5h66v100h-275v95h365v-76q67 86 181 86q99 0 168 -68.5
t69 -168.5zM468 296h265q-3 48 -39 80t-87 32q-52 0 -89 -29.5t-50 -82.5zM212 78q56 0 92.5 33t36.5 80v32h-69q-141 0 -141 -80q0 -29 22 -47t59 -18z" />
    <glyph glyph-name="aeacute.ss02" horiz-adv-x="884" 
d="M599 695l-114 -150h-103l83 150h134zM849 262q0 -13 -2 -39h-385q4 -62 45.5 -101t102.5 -39q49 0 82.5 21t41.5 56h110q-13 -77 -77 -123.5t-154 -46.5q-116 0 -182 87v-77h-90v72q-48 -82 -154 -82q-67 0 -110.5 41t-43.5 103q0 77 63 118.5t179 41.5h66v100h-275v95
h365v-76q67 86 181 86q99 0 168 -68.5t69 -168.5zM468 296h265q-3 48 -39 80t-87 32q-52 0 -89 -29.5t-50 -82.5zM212 78q56 0 92.5 33t36.5 80v32h-69q-141 0 -141 -80q0 -29 22 -47t59 -18z" />
    <glyph glyph-name="c.ss03" horiz-adv-x="471" 
d="M422 383h-252v-277h252v-106h-363v489h363v-106z" />
    <glyph glyph-name="cacute.ss03" horiz-adv-x="471" 
d="M403 695l-114 -150h-103l83 150h134zM422 383h-252v-277h252v-106h-363v489h363v-106z" />
    <glyph glyph-name="ccaron.ss03" horiz-adv-x="471" 
d="M182 545l-94 150h99l57 -79l56 79h99l-94 -150h-123zM422 383h-252v-277h252v-106h-363v489h363v-106z" />
    <glyph glyph-name="ccedilla.ss03" horiz-adv-x="471" 
d="M422 383h-252v-277h252v-106h-122q45 -58 44.5 -107.5t-45 -81.5t-115.5 -28l-26 80q84 2 98.5 44t-38.5 93h-159v489h363v-106z" />
    <glyph glyph-name="ccircumflex.ss03" horiz-adv-x="471" 
d="M244 628l-57 -79h-99l94 150h123l94 -150h-99zM422 383h-252v-277h252v-106h-363v489h363v-106z" />
    <glyph glyph-name="cdotaccent.ss03" horiz-adv-x="471" 
d="M244 716q29 0 50.5 -21t21.5 -50q0 -30 -21.5 -51t-50.5 -21t-50 21t-21 51q0 29 21 50t50 21zM422 383h-252v-277h252v-106h-363v489h363v-106z" />
    <glyph glyph-name="g.ss04" horiz-adv-x="612" 
d="M441 489h112v-661h-426v106h314v174q-55 -92 -173 -92q-97 0 -165.5 70.5t-68.5 171.5q0 100 68 170.5t166 70.5q118 0 173 -91v81zM292 117q64 0 106.5 40t42.5 101q0 60 -42.5 100t-106.5 40q-62 0 -105 -40.5t-43 -99.5t43 -100t105 -41z" />
    <glyph glyph-name="gbreve.ss04" horiz-adv-x="612" 
d="M320 538q-69 0 -113.5 43t-45.5 113h86q0 -36 20.5 -58.5t52.5 -22.5q31 0 51.5 22.5t20.5 58.5h86q-1 -70 -45.5 -113t-112.5 -43zM441 489h112v-661h-426v106h314v174q-55 -92 -173 -92q-97 0 -165.5 70.5t-68.5 171.5q0 100 68 170.5t166 70.5q118 0 173 -91v81z
M292 117q64 0 106.5 40t42.5 101q0 60 -42.5 100t-106.5 40q-62 0 -105 -40.5t-43 -99.5t43 -100t105 -41z" />
    <glyph glyph-name="gcircumflex.ss04" horiz-adv-x="612" 
d="M320 628l-57 -79h-99l94 150h123l94 -150h-99zM441 489h112v-661h-426v106h314v174q-55 -92 -173 -92q-97 0 -165.5 70.5t-68.5 171.5q0 100 68 170.5t166 70.5q118 0 173 -91v81zM292 117q64 0 106.5 40t42.5 101q0 60 -42.5 100t-106.5 40q-62 0 -105 -40.5t-43 -99.5
t43 -100t105 -41z" />
    <glyph glyph-name="uni0123.ss04" horiz-adv-x="612" 
d="M478 700l-84 -149h-134l114 149h104zM441 489h112v-661h-426v106h314v174q-55 -92 -173 -92q-97 0 -165.5 70.5t-68.5 171.5q0 100 68 170.5t166 70.5q118 0 173 -91v81zM292 117q64 0 106.5 40t42.5 101q0 60 -42.5 100t-106.5 40q-62 0 -105 -40.5t-43 -99.5t43 -100
t105 -41z" />
    <glyph glyph-name="gdotaccent.ss04" horiz-adv-x="612" 
d="M319 573q-29 0 -50 21t-21 51q0 29 21 50t50 21t50.5 -21t21.5 -50q0 -30 -21.5 -51t-50.5 -21zM441 489h112v-661h-426v106h314v174q-55 -92 -173 -92q-97 0 -165.5 70.5t-68.5 171.5q0 100 68 170.5t166 70.5q118 0 173 -91v81zM292 117q64 0 106.5 40t42.5 101
q0 60 -42.5 100t-106.5 40q-62 0 -105 -40.5t-43 -99.5t43 -100t105 -41z" />
    <glyph glyph-name="h.ss05" horiz-adv-x="561" 
d="M170 700v-211h332v-489h-112v383h-220v-383h-111v700h111z" />
    <glyph glyph-name="hbar.ss05" horiz-adv-x="561" 
d="M170 489h332v-489h-112v383h-220v-383h-111v558h-104v76h104v66h111v-66h105v-76h-105v-69z" />
    <glyph glyph-name="hcircumflex.ss05" horiz-adv-x="561" 
d="M171 760l-56 79l-57 -79h-100l95 150h123l94 -150h-99zM170 489h332v-489h-112v383h-220v-383h-111v700h111v-211z" />
    <glyph glyph-name="j.ss06" horiz-adv-x="229" 
d="M114 716q29 0 50.5 -21t21.5 -50q0 -30 -21.5 -51t-50.5 -21t-50 21t-21 51q0 29 21 50t50 21zM170 489v-661h-111v661h111z" />
    <glyph glyph-name="uni0237.ss06" horiz-adv-x="229" 
d="M170 489v-661h-111v661h111z" />
    <glyph glyph-name="jcircumflex.ss06" horiz-adv-x="229" 
d="M176 699l94 -150h-99l-56 79l-57 -79h-100l95 150h123zM59 -172v661h111v-661h-111z" />
    <glyph glyph-name="l.ss07" horiz-adv-x="273" 
d="M170 700v-594h77v-106h-188v700h111z" />
    <glyph glyph-name="lacute.ss07" horiz-adv-x="273" 
d="M276 906l-114 -150h-103l83 150h134zM170 700v-594h77v-106h-188v700h111z" />
    <glyph glyph-name="lcaron.ss07" horiz-adv-x="349" 
d="M208 545l19 210h118l-45 -210h-92zM170 700v-594h77v-106h-188v700h111z" />
    <glyph glyph-name="uni013C.ss07" horiz-adv-x="273" 
d="M170 700v-594h77v-106h-188v700h111zM242 -68l-113 -150h-104l83 150h134z" />
    <glyph glyph-name="ldot.ss07" horiz-adv-x="366" 
d="M170 700v-594h77v-106h-188v700h111zM294 291q-33 0 -55 22t-22 54t22 54t55 22q32 0 54.5 -22t22.5 -54t-22.5 -54t-54.5 -22z" />
    <glyph glyph-name="lslash.ss07" horiz-adv-x="273" 
d="M170 106h77v-106h-188v315l-66 -30v103l66 30v282h111v-230l66 30v-103l-66 -30v-261z" />
    <glyph glyph-name="m.ss08" horiz-adv-x="860" 
d="M802 489v-489h-112v383h-204v-383h-112v383h-204v-383h-111v489h743z" />
    <glyph glyph-name="n.ss09" horiz-adv-x="561" 
d="M502 489v-489h-112v383h-220v-383h-111v489h443z" />
    <glyph glyph-name="nacute.ss09" horiz-adv-x="561" 
d="M439 695l-114 -150h-103l83 150h134zM502 489v-489h-112v383h-220v-383h-111v489h443z" />
    <glyph glyph-name="ncaron.ss09" horiz-adv-x="561" 
d="M219 545l-94 150h99l57 -79l56 79h99l-94 -150h-123zM59 489h443v-489h-112v383h-220v-383h-111v489z" />
    <glyph glyph-name="uni0146.ss09" horiz-adv-x="561" 
d="M502 489v-489h-112v383h-220v-383h-111v489h443zM367 -68l-113 -150h-104l83 150h134z" />
    <glyph glyph-name="eng.ss09" horiz-adv-x="561" 
d="M59 489h443v-515q0 -81 -42.5 -125t-119.5 -44q-17 0 -41 3l15 100q10 -2 17 -2q59 0 59 79v398h-220v-383h-111v489z" />
    <glyph glyph-name="ntilde.ss09" horiz-adv-x="561" 
d="M84 564q5 59 38.5 96t80.5 37q35 0 83 -27.5t59 -27.5q17 0 28 14t12 37l91 -15q-6 -58 -40 -95t-80 -37q-37 0 -84 27.5t-61 27.5q-17 0 -27 -14.5t-9 -37.5zM502 489v-489h-112v383h-220v-383h-111v489h443z" />
    <glyph glyph-name="o.ss10" horiz-adv-x="560" 
d="M501 489v-489h-442v489h442zM390 383h-220v-277h220v277z" />
    <glyph glyph-name="oacute.ss10" horiz-adv-x="560" 
d="M439 695l-114 -150h-103l83 150h134zM501 489v-489h-442v489h442zM390 383h-220v-277h220v277z" />
    <glyph glyph-name="obreve.ss10" horiz-adv-x="560" 
d="M439 694q-1 -70 -45.5 -113t-112.5 -43q-69 0 -113.5 43t-45.5 113h86q0 -36 20.5 -58.5t52.5 -22.5q31 0 51.5 22.5t20.5 58.5h86zM501 489v-489h-442v489h442zM390 383h-220v-277h220v277z" />
    <glyph glyph-name="ocircumflex.ss10" horiz-adv-x="560" 
d="M281 628l-57 -79h-99l94 150h123l94 -150h-99zM59 489h442v-489h-442v489zM390 106v277h-220v-277h220z" />
    <glyph glyph-name="odieresis.ss10" horiz-adv-x="560" 
d="M187 716q29 0 50 -21t21 -50q0 -30 -21 -51t-50 -21t-50.5 21t-21.5 51q0 29 21.5 50t50.5 21zM373 716q29 0 50.5 -21t21.5 -50q0 -30 -21.5 -51t-50.5 -21t-50 21t-21 51q0 29 21 50t50 21zM501 489v-489h-442v489h442zM390 383h-220v-277h220v277z" />
    <glyph glyph-name="ograve.ss10" horiz-adv-x="560" 
d="M124 695h134l83 -150h-104zM501 489v-489h-442v489h442zM390 383h-220v-277h220v277z" />
    <glyph glyph-name="ohungarumlaut.ss10" horiz-adv-x="560" 
d="M237 545l63 154h-114l-64 -154h115zM427 545l64 154h-115l-64 -154h115zM501 489v-489h-442v489h442zM390 383h-220v-277h220v277z" />
    <glyph glyph-name="omacron.ss10" horiz-adv-x="560" 
d="M120 553v91h320v-91h-320zM501 489v-489h-442v489h442zM390 383h-220v-277h220v277z" />
    <glyph glyph-name="oslash.ss10" horiz-adv-x="560" 
d="M59 489h442v-489h-442v489zM358 383h-188v-216zM199 106h191v220z" />
    <glyph glyph-name="otilde.ss10" horiz-adv-x="560" 
d="M84 564q5 59 38.5 96t80.5 37q35 0 83 -27.5t59 -27.5q17 0 28 14t12 37l91 -15q-6 -58 -40 -95t-80 -37q-37 0 -84 27.5t-61 27.5q-17 0 -27 -14.5t-9 -37.5zM501 489v-489h-442v489h442zM390 383h-220v-277h220v277z" />
    <glyph glyph-name="oe.ss10" horiz-adv-x="956" 
d="M923 255q0 -33 -3 -47h-375q11 -55 48 -86t95 -31q44 0 77 19.5t40 50.5h111q-13 -77 -76.5 -124t-153.5 -47q-112 0 -185 78v-68h-442v489h442v-67q74 77 183 77q100 0 169.5 -69t69.5 -175zM548 303h253q-7 43 -40 69t-83 26t-84 -25t-46 -70zM390 106v277h-220v-277
h220z" />
    <glyph glyph-name="r.ss11" 
d="M339 489v-106h-169v-383h-111v489h280z" />
    <glyph glyph-name="racute.ss11" 
d="M350 695l-114 -150h-103l83 150h134zM339 489v-106h-169v-383h-111v489h280z" />
    <glyph glyph-name="rcaron.ss11" 
d="M130 545l-94 150h99l57 -79l56 79h99l-94 -150h-123zM59 0v489h280v-106h-169v-383h-111z" />
    <glyph glyph-name="uni0157.ss11" 
d="M339 489v-106h-169v-383h-111v489h280zM196 -68l-113 -150h-104l83 150h134z" />
    <glyph glyph-name="s.ss12" horiz-adv-x="442" 
d="M233 0h-185v91h189q33 0 52 13.5t19 37.5q0 23 -28.5 37t-69 22.5t-81.5 21t-69.5 43.5t-28.5 80q0 67 49.5 105t135.5 38h170v-91h-183q-28 0 -44 -12t-16 -32q0 -22 28 -36t67.5 -23.5t79.5 -23t68 -45.5t28 -81q0 -67 -47.5 -106t-133.5 -39z" />
    <glyph glyph-name="sacute.ss12" horiz-adv-x="442" 
d="M389 695l-114 -150h-103l83 150h134zM233 0h-185v91h189q33 0 52 13.5t19 37.5q0 23 -28.5 37t-69 22.5t-81.5 21t-69.5 43.5t-28.5 80q0 67 49.5 105t135.5 38h170v-91h-183q-28 0 -44 -12t-16 -32q0 -22 28 -36t67.5 -23.5t79.5 -23t68 -45.5t28 -81q0 -67 -47.5 -106
t-133.5 -39z" />
    <glyph glyph-name="scaron.ss12" horiz-adv-x="442" 
d="M169 545l-94 150h99l57 -79l56 79h99l-94 -150h-123zM143 354q0 -22 28 -36t67.5 -23.5t79.5 -23t68 -45.5t28 -81q0 -67 -47.5 -106t-133.5 -39h-185v91h189q33 0 52 13.5t19 37.5q0 23 -28.5 37t-69 22.5t-81.5 21t-69.5 43.5t-28.5 80q0 67 49.5 105t135.5 38h170v-91
h-183q-28 0 -44 -12t-16 -32z" />
    <glyph glyph-name="scedilla.ss12" horiz-adv-x="442" 
d="M414 145q0 -60 -38.5 -98t-108.5 -45q36 -41 43.5 -83t-9.5 -72.5t-56.5 -48.5t-92.5 -15l-26 80q84 2 98.5 44t-38.5 93h-138v91h189q33 0 52 13.5t19 37.5q0 23 -28.5 37t-69 22.5t-81.5 21t-69.5 43.5t-28.5 80q0 67 49.5 105t135.5 38h170v-91h-183q-28 0 -44 -12
t-16 -32q0 -22 28 -36t67.5 -23.5t79.5 -23t68 -45.5t28 -81z" />
    <glyph glyph-name="scircumflex.ss12" horiz-adv-x="442" 
d="M231 628l-57 -79h-99l94 150h123l94 -150h-99zM143 354q0 -22 28 -36t67.5 -23.5t79.5 -23t68 -45.5t28 -81q0 -67 -47.5 -106t-133.5 -39h-185v91h189q33 0 52 13.5t19 37.5q0 23 -28.5 37t-69 22.5t-81.5 21t-69.5 43.5t-28.5 80q0 67 49.5 105t135.5 38h170v-91h-183
q-28 0 -44 -12t-16 -32z" />
    <glyph glyph-name="uni0219.ss12" horiz-adv-x="442" 
d="M233 0h-185v91h189q33 0 52 13.5t19 37.5q0 23 -28.5 37t-69 22.5t-81.5 21t-69.5 43.5t-28.5 80q0 67 49.5 105t135.5 38h170v-91h-183q-28 0 -44 -12t-16 -32q0 -22 28 -36t67.5 -23.5t79.5 -23t68 -45.5t28 -81q0 -67 -47.5 -106t-133.5 -39zM307 -68l-113 -150h-104
l83 150h134z" />
    <glyph glyph-name="t.ss13" horiz-adv-x="365" 
d="M346 489v-106h-110v-383h-111v383h-110v106h110v130h111v-130h110z" />
    <glyph glyph-name="tbar.ss13" horiz-adv-x="365" 
d="M346 383h-110v-119h81v-65h-81v-199h-111v199h-82v65h82v119h-110v106h110v130h111v-130h110v-106z" />
    <glyph glyph-name="tcaron.ss13" horiz-adv-x="365" 
d="M304 755h117l-44 -210h-93zM236 619v-130h110v-106h-110v-383h-111v383h-110v106h110v130h111z" />
    <glyph glyph-name="uni0163.ss13" horiz-adv-x="365" 
d="M346 383h-110v-374q40 -42 49.5 -85t-7 -75t-56.5 -50.5t-94 -15.5l-26 80q56 1 82 21.5t19 51t-41 64.5h-37v383h-110v106h110v130h111v-130h110v-106z" />
    <glyph glyph-name="uni021B.ss13" horiz-adv-x="365" 
d="M236 489h110v-106h-110v-383h-111v383h-110v106h110v130h111v-130zM51 -218l83 150h134l-113 -150h-104z" />
    <glyph glyph-name="u.ss14" horiz-adv-x="579" 
d="M518 489v-263q0 -105 -63.5 -170.5t-164.5 -65.5t-165 65.5t-64 170.5v263h112v-263q0 -59 31.5 -94t85.5 -35q53 0 85 35t32 94v263h111z" />
    <glyph glyph-name="uacute.ss14" horiz-adv-x="579" 
d="M449 695l-114 -150h-103l83 150h134zM518 489v-263q0 -105 -63.5 -170.5t-164.5 -65.5t-165 65.5t-64 170.5v263h112v-263q0 -59 31.5 -94t85.5 -35q53 0 85 35t32 94v263h111z" />
    <glyph glyph-name="ucircumflex.ss14" horiz-adv-x="579" 
d="M291 628l-57 -79h-99l94 150h123l94 -150h-99zM407 489h111v-263q0 -105 -63.5 -170.5t-164.5 -65.5t-165 65.5t-64 170.5v263h112v-263q0 -59 31.5 -94t85.5 -35q53 0 85 35t32 94v263z" />
    <glyph glyph-name="udieresis.ss14" horiz-adv-x="579" 
d="M198 716q28 0 49.5 -21t21.5 -50q0 -30 -21 -51t-50 -21t-50.5 21t-21.5 51q0 29 21.5 50t50.5 21zM384 716q29 0 50.5 -21t21.5 -50q0 -30 -21.5 -51t-50.5 -21t-50 21t-21 51q0 29 21 50t50 21zM518 489v-263q0 -105 -63.5 -170.5t-164.5 -65.5t-165 65.5t-64 170.5
v263h112v-263q0 -59 31.5 -94t85.5 -35q53 0 85 35t32 94v263h111z" />
    <glyph glyph-name="ugrave.ss14" horiz-adv-x="579" 
d="M134 695h134l83 -150h-104zM518 489v-263q0 -105 -63.5 -170.5t-164.5 -65.5t-165 65.5t-64 170.5v263h112v-263q0 -59 31.5 -94t85.5 -35q53 0 85 35t32 94v263h111z" />
    <glyph glyph-name="uhungarumlaut.ss14" horiz-adv-x="579" 
d="M248 545l63 154h-114l-64 -154h115zM438 545l64 154h-115l-64 -154h115zM518 489v-263q0 -105 -63.5 -170.5t-164.5 -65.5t-165 65.5t-64 170.5v263h112v-263q0 -59 31.5 -94t85.5 -35q53 0 85 35t32 94v263h111z" />
    <glyph glyph-name="umacron.ss14" horiz-adv-x="579" 
d="M131 553v91h320v-91h-320zM518 489v-263q0 -105 -63.5 -170.5t-164.5 -65.5t-165 65.5t-64 170.5v263h112v-263q0 -59 31.5 -94t85.5 -35q53 0 85 35t32 94v263h111z" />
    <glyph glyph-name="uogonek.ss14" horiz-adv-x="579" 
d="M407 489h111v-263q0 -88 -45.5 -149t-121.5 -80q-31 -10 -48.5 -28t-17.5 -41q0 -17 12.5 -27.5t33.5 -10.5t42 9l29 -71q-41 -23 -106 -23q-48 0 -78 28t-30 71q0 50 41 93q-77 19 -122.5 80t-45.5 149v263h112v-263q0 -59 31.5 -94t85.5 -35q53 0 85 35t32 94v263z" />
    <glyph glyph-name="uring.ss14" horiz-adv-x="579" 
d="M291 541q-56 0 -94 36.5t-38 90.5q0 55 38 91.5t94 36.5q57 0 95.5 -36.5t38.5 -91.5q0 -54 -38.5 -90.5t-95.5 -36.5zM291 607q27 0 45.5 17.5t18.5 43.5t-18.5 43.5t-45.5 17.5t-44.5 -17.5t-17.5 -43.5t17.5 -43.5t44.5 -17.5zM518 489v-263q0 -105 -63.5 -170.5
t-164.5 -65.5t-165 65.5t-64 170.5v263h112v-263q0 -59 31.5 -94t85.5 -35q53 0 85 35t32 94v263h111z" />
    <glyph glyph-name="utilde.ss14" horiz-adv-x="579" 
d="M95 564q5 59 38.5 96t80.5 37q36 0 83 -27.5t59 -27.5q17 0 28 14t12 37l91 -15q-6 -58 -40 -95t-80 -37q-37 0 -84 27.5t-61 27.5q-17 0 -27 -14.5t-9 -37.5zM518 489v-263q0 -105 -63.5 -170.5t-164.5 -65.5t-165 65.5t-64 170.5v263h112v-263q0 -59 31.5 -94t85.5 -35
q53 0 85 35t32 94v263h111z" />
    <glyph glyph-name="u.ss15" horiz-adv-x="561" 
d="M502 0h-443v489h111v-383h220v383h112v-489z" />
    <glyph glyph-name="uacute.ss15" horiz-adv-x="561" 
d="M439 695l-114 -150h-103l83 150h134zM502 0h-443v489h111v-383h220v383h112v-489z" />
    <glyph glyph-name="ucircumflex.ss15" horiz-adv-x="561" 
d="M281 628l-57 -79h-99l94 150h123l94 -150h-99zM390 489h112v-489h-443v489h111v-383h220v383z" />
    <glyph glyph-name="udieresis.ss15" horiz-adv-x="561" 
d="M188 716q28 0 49.5 -21t21.5 -50q0 -30 -21 -51t-50 -21t-50.5 21t-21.5 51q0 29 21.5 50t50.5 21zM374 716q29 0 50.5 -21t21.5 -50q0 -30 -21.5 -51t-50.5 -21t-50 21t-21 51q0 29 21 50t50 21zM502 0h-443v489h111v-383h220v383h112v-489z" />
    <glyph glyph-name="ugrave.ss15" horiz-adv-x="561" 
d="M124 695h134l83 -150h-104zM502 0h-443v489h111v-383h220v383h112v-489z" />
    <glyph glyph-name="uhungarumlaut.ss15" horiz-adv-x="561" 
d="M238 545l63 154h-114l-64 -154h115zM428 545l64 154h-115l-64 -154h115zM502 0h-443v489h111v-383h220v383h112v-489z" />
    <glyph glyph-name="umacron.ss15" horiz-adv-x="561" 
d="M121 553v91h320v-91h-320zM502 0h-443v489h111v-383h220v383h112v-489z" />
    <glyph glyph-name="uogonek.ss15" horiz-adv-x="561" 
d="M375 0q-35 -9 -55.5 -28.5t-20.5 -43.5q0 -17 12.5 -27.5t33.5 -10.5t42 9l29 -71q-41 -23 -106 -23q-48 0 -78 28t-30 71q0 54 44 96h-187v489h111v-383h220v383h112v-489h-127z" />
    <glyph glyph-name="uring.ss15" horiz-adv-x="561" 
d="M281 541q-56 0 -94 36.5t-38 90.5q0 55 38 91.5t94 36.5q57 0 95.5 -36.5t38.5 -91.5q0 -54 -38.5 -90.5t-95.5 -36.5zM281 607q27 0 45.5 17.5t18.5 43.5t-18.5 43.5t-45.5 17.5t-44.5 -17.5t-17.5 -43.5t17.5 -43.5t44.5 -17.5zM502 0h-443v489h111v-383h220v383h112
v-489z" />
    <glyph glyph-name="utilde.ss15" horiz-adv-x="561" 
d="M85 564q5 59 38.5 96t80.5 37q36 0 83 -27.5t59 -27.5q17 0 28 14t12 37l91 -15q-6 -58 -40 -95t-80 -37q-37 0 -84 27.5t-61 27.5q-17 0 -27 -14.5t-9 -37.5zM502 0h-443v489h111v-383h220v383h112v-489z" />
    <glyph glyph-name="uni00CD00A40301" horiz-adv-x="567" 
d="M281 906l-114 -150h-103l83 150h134zM608 906l-114 -150h-103l83 150h134zM64 700h117v-700h-117v700zM271 103h22q98 0 98 116v481h117v-511q0 -92 -50 -144.5t-132 -52.5q-37 0 -55 4v107z" />
    <glyph glyph-name="T_h.dlig" horiz-adv-x="1115" 
d="M854 499q94 0 148.5 -59t54.5 -161v-279h-112v265q0 58 -32.5 92.5t-85.5 34.5q-55 0 -87.5 -34.5t-32.5 -92.5v-265h-112v588h-238v-588h-117v588h-215v112h682v-287q50 86 147 86z" />
    <glyph glyph-name="T_i.dlig" horiz-adv-x="730" 
d="M572 588h-215v-588h-117v588h-215v112h547v-112zM560 489h112v-489h-112v489z" />
    <glyph glyph-name="f_f.dlig" horiz-adv-x="704" 
d="M645 614q-93 0 -93 -87v-38h128v-106h-128v-383h-112v383h-211v-383h-112v383h-93v106h93v40q0 91 48.5 140.5t131.5 49.5q35 0 59 -6v-103q-13 4 -35 4q-92 0 -92 -87v-38h211v40q0 91 48.5 140.5t131.5 49.5q34 0 60 -6v-103q-15 4 -35 4z" />
    <glyph glyph-name="f_f_i.dlig" horiz-adv-x="922" 
d="M863 489v-489h-112v383h-199v-383h-112v383h-211v-383h-112v383h-93v106h93v40q0 91 48.5 140.5t131.5 49.5q35 0 59 -6v-103q-13 4 -35 4q-92 0 -92 -87v-38h211v40q0 91 48.5 140.5t131.5 49.5q34 0 60 -6v-103q-15 4 -35 4q-93 0 -93 -87v-38h311z" />
    <glyph glyph-name="f_f_t.dlig" horiz-adv-x="1023" 
d="M993 383h-128v-197q0 -87 93 -87q20 0 35 4v-103q-25 -6 -59 -6q-83 0 -131.5 49.5t-48.5 140.5v199h-202v-383h-112v383h-211v-383h-112v383h-93v106h93v40q0 91 48.5 140.5t131.5 49.5q35 0 59 -6v-103q-13 4 -35 4q-92 0 -92 -87v-38h211v40q0 91 48.5 140.5
t131.5 49.5q34 0 60 -6v-103q-15 4 -35 4q-93 0 -93 -87v-38h202v131h111v-131h128v-106z" />
    <glyph glyph-name="f_i.dlig" horiz-adv-x="598" 
d="M540 489v-489h-112v383h-199v-383h-112v383h-93v106h93v40q0 91 48.5 140.5t131.5 49.5q35 0 59 -6v-103q-13 4 -35 4q-92 0 -92 -87v-38h311z" />
    <glyph glyph-name="f_l.dlig" horiz-adv-x="598" 
d="M428 700h112v-700h-112v383h-199v-383h-112v383h-93v106h93v40q0 91 48.5 140.5t131.5 49.5q35 0 59 -6v-103q-13 4 -35 4q-92 0 -92 -87v-38h199v211z" />
    <glyph glyph-name="f_t.dlig" horiz-adv-x="699" 
d="M670 383h-128v-197q0 -87 92 -87q21 0 36 4v-103q-26 -6 -60 -6q-83 0 -131.5 49.5t-48.5 140.5v199h-201v-383h-112v383h-93v106h93v40q0 91 48.5 140.5t131.5 49.5q35 0 59 -6v-103q-13 4 -35 4q-92 0 -92 -87v-38h201v131h112v-131h128v-106z" />
    <glyph glyph-name="A.sinf" horiz-adv-x="407" 
d="M320 0l-31 81h-173l-31 -81h-80l167 420h62l168 -420h-82zM141 145h123l-61 159z" />
    <glyph glyph-name="B.sinf" horiz-adv-x="354" 
d="M36 0v420h155q52 0 89.5 -32.5t37.5 -77.5q0 -29 -18 -55t-45 -33q36 -6 59.5 -35t23.5 -68q0 -50 -38 -84.5t-92 -34.5h-172zM111 247h76q23 0 38.5 14.5t15.5 36.5q0 21 -15.5 35.5t-38.5 14.5h-76v-101zM111 72h91q25 0 42 17t17 41t-17 41t-41 17h-92v-116z" />
    <glyph glyph-name="C.sinf" horiz-adv-x="456" 
d="M235 -6q-90 0 -151 62t-61 154t61 154t151 62q73 0 129.5 -42.5t66.5 -107.5h-84q-9 34 -40.5 55.5t-71.5 21.5q-57 0 -96 -41t-39 -102q0 -60 39 -101.5t96 -41.5q41 0 72.5 23t40.5 60h84q-12 -69 -67.5 -112.5t-129.5 -43.5z" />
    <glyph glyph-name="D.sinf" horiz-adv-x="410" 
d="M176 420q90 0 150.5 -59.5t60.5 -148.5q0 -90 -60.5 -151t-150.5 -61h-140v420h140zM181 72q55 0 91.5 40t36.5 100q0 59 -36 97.5t-92 38.5h-69v-276h69z" />
    <glyph glyph-name="E.sinf" horiz-adv-x="313" 
d="M36 420h250v-72h-174v-93h156v-72h-156v-111h174v-72h-250v420z" />
    <glyph glyph-name="F.sinf" horiz-adv-x="305" 
d="M36 420h250v-72h-174v-103h156v-72h-156v-173h-76v420z" />
    <glyph glyph-name="G.sinf" horiz-adv-x="462" 
d="M437 231q2 -12 2 -35q0 -89 -57 -145.5t-146 -56.5q-91 0 -152 62t-61 154t61 154t152 62q71 0 128.5 -41t69.5 -99h-85q-11 30 -43.5 48.5t-69.5 18.5q-57 0 -96.5 -41t-39.5 -102t40.5 -102t101.5 -41q51 0 83.5 30t34.5 72v1h-125v61h202z" />
    <glyph glyph-name="H.sinf" horiz-adv-x="420" 
d="M308 420h76v-420h-76v181h-196v-181h-76v420h76v-167h196v167z" />
    <glyph glyph-name="I.sinf" horiz-adv-x="148" 
d="M36 420h76v-420h-76v420z" />
    <glyph glyph-name="J.sinf" horiz-adv-x="195" 
d="M15 66h14q57 0 57 67v287h76v-307q0 -54 -31 -86t-80 -32q-14 0 -36 2v69z" />
    <glyph glyph-name="K.sinf" horiz-adv-x="397" 
d="M384 0h-99l-174 205v-205h-75v420h75v-183l161 183h96l-177 -199z" />
    <glyph glyph-name="L.sinf" horiz-adv-x="328" 
d="M36 420h76v-348h199v-72h-275v420z" />
    <glyph glyph-name="M.sinf" horiz-adv-x="517" 
d="M36 0v420h91l136 -309l141 309h77v-420h-76v272l-120 -272h-55l-118 272v-272h-76z" />
    <glyph glyph-name="N.sinf" horiz-adv-x="405" 
d="M36 420h65l192 -274v274h76v-420h-65l-192 273v-273h-76v420z" />
    <glyph glyph-name="O.sinf" horiz-adv-x="474" 
d="M237 426q91 0 152.5 -62t61.5 -154t-61.5 -154t-152.5 -62t-152.5 62t-61.5 154t61.5 154t152.5 62zM237 353q-58 0 -97.5 -41t-39.5 -102q0 -60 39.5 -101.5t97.5 -41.5t97 41.5t39 101.5q0 61 -39 102t-97 41z" />
    <glyph glyph-name="P.sinf" horiz-adv-x="351" 
d="M197 420q59 0 98 -37t39 -93q0 -57 -39 -94.5t-98 -37.5h-85v-158h-76v420h161zM197 231q26 0 43.5 17t17.5 42t-17.5 41.5t-43.5 16.5h-85v-117h85z" />
    <glyph glyph-name="Q.sinf" horiz-adv-x="473" 
d="M456 0h-79l-24 27q-52 -33 -116 -33q-91 0 -152.5 62t-61.5 154t61.5 154t152.5 62t152.5 -62t61.5 -154q0 -84 -52 -144zM237 67q37 0 66 17l-95 110h79l60 -69q26 37 26 85q0 61 -39 102t-97 41t-97.5 -41t-39.5 -102q0 -60 39.5 -101.5t97.5 -41.5z" />
    <glyph glyph-name="R.sinf" horiz-adv-x="375" 
d="M362 0h-91l-102 167h-57v-167h-76v420h159q53 0 91.5 -37t38.5 -89q0 -42 -20 -73t-56 -45zM111 348l1 -117h76q26 0 43.5 17t17.5 42t-17.5 41.5t-43.5 16.5h-77z" />
    <glyph glyph-name="S.sinf" horiz-adv-x="357" 
d="M183 -6q-69 0 -113.5 40t-44.5 102h75q0 -31 23.5 -51t59.5 -20q33 0 54.5 15.5t21.5 40.5q0 24 -23.5 38t-57 22t-67 18.5t-57 37t-23.5 69.5q0 52 40.5 86t101.5 34q71 0 109.5 -38.5t38.5 -95.5h-78q-1 27 -20.5 45t-51.5 18q-30 0 -48 -13.5t-18 -35.5t23.5 -35
t57.5 -20.5t67.5 -18.5t57 -38.5t23.5 -72.5q0 -52 -42 -89.5t-109 -37.5z" />
    <glyph glyph-name="T.sinf" horiz-adv-x="359" 
d="M344 420v-72h-127v-348h-75v348h-128v72h330z" />
    <glyph glyph-name="U.sinf" horiz-adv-x="402" 
d="M201 -5q-71 0 -118 47t-47 119v259h76v-259q0 -40 25.5 -66.5t63.5 -26.5t63.5 26.5t25.5 66.5v259h76v-259q0 -72 -47 -119t-118 -47z" />
    <glyph glyph-name="V.sinf" horiz-adv-x="392" 
d="M7 420h80l109 -299l109 299h80l-158 -420h-62z" />
    <glyph glyph-name="W.sinf" horiz-adv-x="609" 
d="M523 421h80l-140 -421h-62l-96 273l-95 -273h-63l-140 421h80l92 -296l100 296h54l98 -296z" />
    <glyph glyph-name="X.sinf" horiz-adv-x="390" 
d="M384 0h-90l-99 150l-100 -150h-88l144 216l-136 204h90l91 -136l90 136h88l-134 -202z" />
    <glyph glyph-name="Y.sinf" horiz-adv-x="397" 
d="M7 420h91l103 -163l101 163h88l-152 -238v-182h-76v182z" />
    <glyph glyph-name="Z.sinf" horiz-adv-x="356" 
d="M28 420h307v-51l-217 -297h219v-72h-321v51l218 297h-206v72z" />
    <glyph glyph-name="a.sinf" horiz-adv-x="366" 
d="M260 294h72v-294h-72v49q-33 -55 -101 -55q-58 0 -98.5 45t-40.5 108q0 64 40.5 108.5t98.5 44.5q68 0 101 -55v49zM176 63q35 0 59.5 24t24.5 60t-24.5 60t-59.5 24q-36 0 -61 -24.5t-25 -59.5t25 -59.5t61 -24.5z" />
    <glyph glyph-name="b.sinf" horiz-adv-x="366" 
d="M207 300q58 0 98.5 -44.5t40.5 -108.5q0 -63 -40.5 -108t-98.5 -45q-68 0 -101 55v-49h-72v420h72v-175q33 55 101 55zM191 63q35 0 60 24.5t25 59.5t-25 59.5t-60 24.5q-36 0 -60.5 -24t-24.5 -60t24.5 -60t60.5 -24z" />
    <glyph glyph-name="c.sinf" horiz-adv-x="334" 
d="M172 -6q-65 0 -108.5 44t-43.5 109t44 109t108 44q54 0 94.5 -32.5t47.5 -80.5h-74q-5 19 -24.5 31.5t-43.5 12.5q-34 0 -58 -24.5t-24 -59.5q0 -36 23.5 -60t58.5 -24q24 0 44 13t25 34h73q-5 -50 -46 -83t-96 -33z" />
    <glyph glyph-name="d.sinf" horiz-adv-x="366" 
d="M260 420h72v-420h-72v49q-33 -55 -101 -55q-58 0 -98.5 45t-40.5 108q0 64 40.5 108.5t98.5 44.5q68 0 101 -55v175zM176 63q35 0 59.5 24t24.5 60t-24.5 60t-59.5 24q-36 0 -61 -24.5t-25 -59.5t25 -59.5t61 -24.5z" />
    <glyph glyph-name="e.sinf" horiz-adv-x="335" 
d="M315 157q0 -2 -0.5 -11t-0.5 -14h-228q3 -35 26.5 -56.5t58.5 -21.5q28 0 46.5 11.5t23.5 31.5h70q-7 -47 -45.5 -75t-93.5 -28q-64 0 -108 44.5t-44 110.5q0 63 44 107t107 44q60 0 102 -41.5t42 -101.5zM89 179h151q-1 27 -22 44.5t-50 17.5q-62 0 -79 -62z" />
    <glyph glyph-name="f.sinf" horiz-adv-x="231" 
d="M195 365q-54 0 -54 -50v-21h76v-69h-76v-225h-71v225h-56v69h56v22q0 55 30 86t80 31q20 0 37 -5v-66q-9 3 -22 3z" />
    <glyph glyph-name="g.sinf" horiz-adv-x="366" 
d="M260 294h72v-282q0 -61 -42.5 -97.5t-107.5 -36.5q-33 0 -63.5 8.5t-57 34t-28.5 64.5h72q1 -22 22.5 -34.5t52.5 -12.5q34 0 57 19.5t23 50.5v49q-33 -54 -101 -54q-58 0 -98.5 43.5t-40.5 105.5q0 61 40.5 104.5t98.5 43.5q68 0 101 -54v48zM176 69q36 0 60 23.5
t24 59.5q0 35 -24.5 59t-59.5 24t-60.5 -24.5t-25.5 -58.5q0 -35 25 -59t61 -24z" />
    <glyph glyph-name="h.sinf" horiz-adv-x="347" 
d="M191 300q57 0 89.5 -35.5t32.5 -97.5v-167h-72v158q0 33 -18.5 53t-48.5 20q-31 0 -49.5 -20t-18.5 -53v-158h-72v420h72v-170q30 50 85 50z" />
    <glyph glyph-name="i.sinf" horiz-adv-x="140" 
d="M70 432q18 0 32 -14t14 -31q0 -19 -14 -32.5t-32 -13.5t-31.5 13.5t-13.5 32.5q0 17 13.5 31t31.5 14zM34 294h72v-294h-72v294z" />
    <glyph glyph-name="j.sinf" horiz-adv-x="139" 
d="M70 432q18 0 31.5 -14t13.5 -31q0 -19 -13.5 -32.5t-31.5 -13.5q-19 0 -32.5 13.5t-13.5 32.5q0 17 14 31t32 14zM-11 -50q1 0 4.5 -0.5t5.5 -0.5q35 0 35 44v301h72v-308q0 -47 -27 -75t-74 -28q-2 0 -7.5 0.5t-8.5 0.5v66z" />
    <glyph glyph-name="k.sinf" horiz-adv-x="325" 
d="M318 0h-93l-119 136v-136h-72v420h72v-251l114 125h88l-131 -142z" />
    <glyph glyph-name="l.sinf" horiz-adv-x="139" 
d="M106 420v-420h-72v420h72z" />
    <glyph glyph-name="m.sinf" horiz-adv-x="528" 
d="M375 300q53 0 86.5 -33t33.5 -87v-180h-73v164q0 31 -16 49t-44 18q-26 0 -44 -17t-18 -50l-1 2v-166h-71v164q0 31 -16.5 49t-44.5 18q-25 0 -43 -17t-18 -50v-164h-72v294h72v-39q29 45 87 45q63 0 89 -50q13 23 38.5 36.5t54.5 13.5z" />
    <glyph glyph-name="n.sinf" horiz-adv-x="347" 
d="M191 300q57 0 89.5 -35.5t32.5 -97.5v-167h-72v158q0 33 -18.5 53t-48.5 20q-31 0 -49.5 -20t-18.5 -53v-158h-72v294h72v-44q30 50 85 50z" />
    <glyph glyph-name="o.sinf" horiz-adv-x="345" 
d="M172 300q64 0 108.5 -44t44.5 -109t-44 -109t-109 -44t-108.5 44t-43.5 109t44 109t108 44zM172 231q-34 0 -58 -24.5t-24 -59.5q0 -36 23.5 -60t58.5 -24t58.5 24t23.5 60t-23.5 60t-58.5 24z" />
    <glyph glyph-name="p.sinf" horiz-adv-x="366" 
d="M207 300q58 0 98.5 -45t40.5 -108q0 -64 -40.5 -108.5t-98.5 -44.5q-68 0 -101 55v-150h-72v395h72v-49q33 55 101 55zM191 63q35 0 60 24.5t25 59.5t-25 59.5t-60 24.5q-36 0 -60.5 -24t-24.5 -60t24.5 -60t60.5 -24z" />
    <glyph glyph-name="q.sinf" horiz-adv-x="366" 
d="M260 294h72v-395h-72v150q-33 -55 -101 -55q-58 0 -98.5 44.5t-40.5 108.5q0 63 40.5 108t98.5 45q68 0 101 -55v49zM176 63q35 0 59.5 24t24.5 60t-24.5 60t-59.5 24q-36 0 -61 -24.5t-25 -59.5t25 -59.5t61 -24.5z" />
    <glyph glyph-name="r.sinf" horiz-adv-x="224" 
d="M184 299q15 0 27 -3v-66q-10 5 -29 5q-33 0 -54.5 -21.5t-21.5 -59.5v-154h-72v294h72v-38q29 43 78 43z" />
    <glyph glyph-name="s.sinf" horiz-adv-x="283" 
d="M145 -6q-54 0 -89.5 27t-39.5 73h65q2 -18 19 -30t41 -12q23 0 37 10t14 25q0 17 -17.5 25.5t-42.5 12t-50 10t-42.5 24.5t-17.5 50q0 39 30.5 64.5t81.5 25.5q48 0 82 -24.5t39 -67.5h-69q-2 15 -17 25.5t-35 10.5q-21 0 -33.5 -8t-12.5 -22q0 -16 17.5 -23.5t43 -10.5
t50.5 -9.5t42.5 -26.5t17.5 -56q0 -40 -32.5 -66.5t-81.5 -26.5z" />
    <glyph glyph-name="a.ss01.sinf" horiz-adv-x="302" 
d="M148 300q60 0 93 -32t33 -86v-182h-68v42q-27 -48 -90 -48q-40 0 -66 25t-26 62q0 46 37.5 70t103.5 24h41v11q0 25 -16 40t-42 15q-24 0 -40.5 -13t-17.5 -34h-64q4 44 39.5 75t82.5 31zM132 50q32 0 53 19t21 46v15h-44q-76 0 -76 -43q0 -16 13 -26.5t33 -10.5z" />
    <glyph glyph-name="a.ss02.sinf" horiz-adv-x="306" 
d="M39 294h233v-294h-71v43q-28 -49 -91 -49q-39 0 -65.5 25.5t-26.5 61.5q0 46 38 70t103 24h42v58h-162v61zM127 50q32 0 53 19t21 46v15h-45q-75 0 -75 -43q0 -16 12.5 -26.5t33.5 -10.5z" />
    <glyph glyph-name="c.ss03.sinf" horiz-adv-x="301" 
d="M253 225h-147v-156h147v-69h-219v294h219v-69z" />
    <glyph glyph-name="g.ss04.sinf" horiz-adv-x="363" 
d="M257 294h72v-396h-261v60h189v107q-33 -54 -100 -54q-57 0 -97 42.5t-40 102.5q0 59 40 101t97 42q67 0 100 -54v49zM172 74q36 0 60 23.5t24 58.5t-24 58t-60 23q-35 0 -59.5 -23.5t-24.5 -57.5t24.5 -58t59.5 -24z" />
    <glyph glyph-name="h.ss05.sinf" horiz-adv-x="336" 
d="M106 420v-126h196v-294h-72v225h-124v-225h-72v420h72z" />
    <glyph glyph-name="j.ss06.sinf" horiz-adv-x="140" 
d="M70 432q18 0 31.5 -14t13.5 -31q0 -19 -13.5 -32.5t-31.5 -13.5q-19 0 -32.5 13.5t-13.5 32.5q0 17 14 31t32 14zM106 294v-396h-72v396h72z" />
    <glyph glyph-name="l.ss07.sinf" horiz-adv-x="166" 
d="M106 420v-351h45v-69h-117v420h72z" />
    <glyph glyph-name="m.ss08.sinf" horiz-adv-x="514" 
d="M480 294v-294h-71v225h-116v-225h-72v225h-115v-225h-72v294h446z" />
    <glyph glyph-name="n.ss09.sinf" horiz-adv-x="336" 
d="M302 294v-294h-72v225h-124v-225h-72v294h268z" />
    <glyph glyph-name="O.ss10.sinf" horiz-adv-x="446" 
d="M334 420h76v-420h-374v420h76v-1h222v1zM112 72h222v275h-222v-275z" />
    <glyph glyph-name="o.ss10.sinf" horiz-adv-x="335" 
d="M301 294v-294h-267v294h267zM230 225h-125v-156h125v156z" />
    <glyph glyph-name="r.ss11.sinf" horiz-adv-x="218" 
d="M205 294v-69h-100v-225h-71v294h171z" />
    <glyph glyph-name="S.ss12.sinf" horiz-adv-x="330" 
d="M155 420h123v-73h-137q-22 0 -36 -11t-14 -28q0 -21 22.5 -34t54.5 -21.5t63.5 -20.5t54 -40t22.5 -71q0 -52 -37.5 -86.5t-105.5 -34.5h-140v73h143q30 0 46.5 13t16.5 35q0 23 -22 36.5t-53.5 22t-63.5 19.5t-54 37.5t-22 68.5q0 51 38.5 83t100.5 32z" />
    <glyph glyph-name="s.ss12.sinf" horiz-adv-x="265" 
d="M140 0h-112v55h113q40 0 40 30q0 16 -25.5 25.5t-56.5 15t-56.5 26t-25.5 54.5q0 41 30 64.5t83 23.5h103v-55h-110q-34 0 -34 -25q0 -17 25 -27.5t55 -16t55 -26.5t25 -56q0 -40 -28.5 -64t-80.5 -24z" />
    <glyph glyph-name="t.ss13.sinf" horiz-adv-x="221" 
d="M210 294v-69h-65v-225h-71v225h-65v69h65v77h71v-77h65z" />
    <glyph glyph-name="u.ss14.sinf" horiz-adv-x="347" 
d="M311 294v-158q0 -63 -38.5 -102.5t-99.5 -39.5t-99 39.5t-38 102.5v158h71v-158q0 -33 18 -53t48 -20t48.5 20t18.5 53v158h71z" />
    <glyph glyph-name="u.ss15.sinf" horiz-adv-x="336" 
d="M302 0h-268v294h72v-225h124v225h72v-294z" />
    <glyph glyph-name="D.ss16.sinf" horiz-adv-x="438" 
d="M204 420q90 0 150 -59.5t60 -148.5q0 -91 -60 -151.5t-150 -60.5h-190v69h50v351h140zM209 72q55 0 92 40t37 100q0 59 -36.5 97.5t-92.5 38.5h-69v-276h69z" />
    <glyph glyph-name="J.ss17.sinf" horiz-adv-x="238" 
d="M202 420v-420h-187v72h112v348h75z" />
    <glyph glyph-name="L.ss18.sinf" horiz-adv-x="356" 
d="M140 72h198v-72h-324v69h50v351h76v-348z" />
    <glyph glyph-name="t.sinf" horiz-adv-x="227" 
d="M210 225h-76v-111q0 -50 54 -50q16 0 22 2v-66q-15 -4 -37 -4q-50 0 -80 31t-30 86v112h-56v69h56v78h71v-78h76v-69z" />
    <glyph glyph-name="G.titl.sinf" horiz-adv-x="488" 
d="M475 231v-61h-38q-8 -77 -64 -126.5t-137 -49.5q-91 0 -152 62t-61 154t61 154t152 62q71 0 128.5 -41t69.5 -99h-85q-11 30 -43.5 48.5t-69.5 18.5q-57 0 -96.5 -41t-39.5 -102t40.5 -102t101.5 -41q50 0 84 32t34 71h-125v61h240z" />
    <glyph glyph-name="I.titl.sinf" horiz-adv-x="213" 
d="M187 352h-43v-283h43v-69h-161v69h43v283h-43v68h161v-68z" />
    <glyph glyph-name="J.titl.sinf" horiz-adv-x="235" 
d="M201 420v-68h-39v-239q0 -54 -31 -86t-80 -32q-14 0 -36 2v69h14q57 0 57 67v219h-46v68h161z" />
    <glyph glyph-name="T.titl.sinf" horiz-adv-x="359" 
d="M344 348h-127v-279h43v-69h-161v69h43v279h-128v72h330v-72z" />
    <glyph glyph-name="Y.titl.sinf" horiz-adv-x="397" 
d="M238 182v-113h42v-69h-161v69h43v113l-155 238h91l103 -163l101 163h88z" />
    <glyph glyph-name="u.sinf" horiz-adv-x="347" 
d="M241 294h72v-294h-72v43q-30 -49 -85 -49q-56 0 -89 36t-33 97v167h72v-158q0 -33 18 -53t49 -20t49.5 20t18.5 53v158z" />
    <glyph glyph-name="v.sinf" horiz-adv-x="320" 
d="M314 294l-123 -294h-62l-122 294h77l76 -198l75 198h79z" />
    <glyph glyph-name="w.sinf" horiz-adv-x="473" 
d="M113 0l-106 294h76l59 -183l65 183h57l67 -183l58 183h77l-106 -294h-57l-67 183l-67 -183h-56z" />
    <glyph glyph-name="x.sinf" horiz-adv-x="318" 
d="M309 0h-86l-64 91l-65 -91h-85l107 152l-101 142h87l57 -81l57 81h86l-100 -142z" />
    <glyph glyph-name="y.sinf" horiz-adv-x="318" 
d="M234 294h77l-165 -396h-77l53 120l-115 276h77l74 -192z" />
    <glyph glyph-name="z.sinf" horiz-adv-x="302" 
d="M278 294v-52l-159 -173h161v-69h-264v51l159 174h-148v69h251z" />
    <glyph glyph-name="zero.cv01" horiz-adv-x="586" 
d="M298 709q119 0 184.5 -78t65.5 -222v-118q0 -144 -65.5 -222t-184.5 -78h-10q-120 0 -185 78t-65 222v118q0 144 65 222t185 78h10zM288 596q-132 0 -132 -182v-128q0 -182 132 -182h10q132 0 132 182v128q0 182 -132 182h-10z" />
    <glyph glyph-name="two.cv01" horiz-adv-x="529" 
d="M25 0v63q0 97 53.5 159.5t172.5 133.5q68 41 95 71t27 70q0 44 -30 72.5t-79 28.5q-60 0 -93.5 -38.5t-30.5 -103.5h-119q-3 114 66 184t179 70q98 0 161 -59.5t63 -150.5q0 -69 -44 -120.5t-142 -107.5q-88 -55 -119 -86t-31 -72h335v-114h-464z" />
    <glyph glyph-name="three.cv01" horiz-adv-x="530" 
d="M363 373q55 -10 96.5 -59t41.5 -110q0 -94 -67 -153.5t-173 -59.5t-172 60.5t-65 159.5h108q2 -48 39 -79.5t90 -31.5q54 0 89 32.5t35 80.5t-36.5 78t-95.5 30h-31v92h26q49 0 80.5 26.5t31.5 68.5q0 39 -29 65t-74 26q-49 0 -79 -29t-32 -77h-104q-5 93 60 154t160 61
q88 0 151 -57t63 -138q0 -49 -32 -89t-81 -51z" />
    <glyph glyph-name="four.cv01" horiz-adv-x="619" 
d="M595 242v-111h-83v-131h-117v131h-375v83l337 486h155v-458h83zM165 242h230v329z" />
    <glyph glyph-name="seven.cv01" horiz-adv-x="558" 
d="M536 700v-80l-300 -620h-130l286 587h-252v-105h-117v218h513z" />
    <glyph glyph-name="zero.tf" horiz-adv-x="609" 
d="M304 -9q-124 0 -194 97t-70 263q0 165 70.5 262.5t193.5 97.5q124 0 194.5 -97.5t70.5 -262.5q0 -166 -70.5 -263t-194.5 -97zM304 104q69 0 107 62.5t38 184.5q0 121 -38 183.5t-107 62.5t-106.5 -62.5t-37.5 -183.5q0 -122 37.5 -184.5t106.5 -62.5z" />
    <glyph glyph-name="one.tf" horiz-adv-x="609" 
d="M371 106h174v-106h-476v106h185v433l-158 -128v141l195 148h80v-594z" />
    <glyph glyph-name="two.tf" horiz-adv-x="609" 
d="M89 0v85l244 241q59 59 83 93.5t24 73.5q0 45 -32.5 74t-81.5 29q-59 0 -93 -38t-32 -102h-118q-4 113 65.5 183.5t179.5 70.5q101 0 166.5 -60t65.5 -154q0 -61 -36.5 -119t-107.5 -125l-138 -138h287v-114h-476z" />
    <glyph glyph-name="three.tf" horiz-adv-x="609" 
d="M221 409l164 179h-304v112h469v-78l-187 -199q82 1 137.5 -56t55.5 -142q0 -103 -70.5 -169t-178.5 -66q-101 0 -169.5 56.5t-76.5 146.5h117q9 -39 43 -64t86 -25q56 0 92 34.5t36 89.5q0 70 -63.5 99t-150.5 5v77z" />
    <glyph glyph-name="four.tf" horiz-adv-x="609" 
d="M582 256v-106h-83v-150h-117v150h-348v80l249 470h133l-236 -444h202v197h117v-197h83z" />
    <glyph glyph-name="five.tf" horiz-adv-x="609" 
d="M308 -10q-99 0 -168 55t-76 148h117q9 -40 43.5 -64.5t83.5 -24.5q53 0 89.5 36t36.5 88q0 55 -36 91.5t-90 36.5q-74 0 -111 -43h-102l32 387h382v-110h-277l-17 -171q42 35 109 35q100 0 165 -62.5t65 -165.5q0 -99 -71.5 -167.5t-174.5 -68.5z" />
    <glyph glyph-name="six.tf" horiz-adv-x="609" 
d="M328 460q96 0 160 -65.5t64 -165.5q0 -98 -72 -168.5t-172 -70.5t-172 70.5t-72 168.5q0 82 56 172l186 299h134l-157 -247q26 7 45 7zM308 101q55 0 93 37.5t38 91.5q0 55 -38.5 93t-93.5 38q-54 0 -91.5 -38t-37.5 -93q0 -54 37.5 -91.5t92.5 -37.5z" />
    <glyph glyph-name="seven.tf" horiz-adv-x="609" 
d="M67 700h476v-80l-295 -620h-131l283 587h-333v113z" />
    <glyph glyph-name="eight.tf" horiz-adv-x="609" 
d="M305 -8q-105 0 -172.5 58.5t-67.5 149.5q0 58 34.5 106.5t91.5 70.5q-44 19 -71.5 60t-27.5 86q0 81 59.5 132.5t153.5 51.5q93 0 152.5 -51.5t59.5 -132.5q0 -46 -27.5 -86.5t-71.5 -59.5q57 -21 91.5 -69t34.5 -108q0 -91 -67.5 -149.5t-171.5 -58.5zM305 432
q43 0 71 24t28 61q0 38 -28 62t-71 24t-71 -24t-28 -62q0 -37 28 -61t71 -24zM305 100q54 0 89 30.5t35 76.5q0 47 -35 77t-89 30t-89 -30t-35 -77q0 -46 35 -76.5t89 -30.5z" />
    <glyph glyph-name="nine.tf" horiz-adv-x="609" 
d="M315 710q101 0 173 -70.5t72 -168.5q0 -81 -57 -172l-186 -299h-133l157 248q-24 -8 -46 -8q-96 0 -160 66t-64 165q0 98 72 168.5t172 70.5zM316 339q55 0 92 38t37 93q0 54 -37.5 91.5t-92.5 37.5t-93 -37.5t-38 -91.5q0 -55 38.5 -93t93.5 -38z" />
    <glyph glyph-name="zero.tf.cv01" horiz-adv-x="609" 
d="M310 709q119 0 184.5 -78t65.5 -222v-118q0 -144 -65.5 -222t-184.5 -78h-10q-120 0 -185 78t-65 222v118q0 144 65 222t185 78h10zM300 596q-132 0 -132 -182v-128q0 -182 132 -182h10q132 0 132 182v128q0 182 -132 182h-10z" />
    <glyph glyph-name="two.tf.cv01" horiz-adv-x="609" 
d="M83 0v63q0 97 53.5 159.5t172.5 133.5q67 41 94 71t27 70q0 44 -29.5 72.5t-79.5 28.5q-59 0 -92.5 -38.5t-31.5 -103.5h-118q-4 113 65.5 183.5t179.5 70.5q98 0 161 -59.5t63 -150.5q0 -69 -44 -120.5t-142 -107.5q-88 -55 -119 -86t-31 -72h335v-114h-464z" />
    <glyph glyph-name="three.tf.cv01" horiz-adv-x="609" 
d="M413 373q55 -10 97 -59t42 -110q0 -94 -67.5 -153.5t-172.5 -59.5q-107 0 -172.5 60.5t-65.5 159.5h109q1 -48 38 -79.5t91 -31.5q53 0 88 32.5t35 80.5t-36.5 78t-95.5 30h-31v92h26q49 0 80.5 26.5t31.5 68.5q0 39 -28.5 65t-73.5 26q-50 0 -80 -29t-32 -77h-104
q-5 93 60 154t160 61q88 0 151 -57t63 -138q0 -49 -32 -89t-81 -51z" />
    <glyph glyph-name="four.tf.cv01" horiz-adv-x="609" 
d="M634 242v-111h-83v-131h-117v131h-375v83l337 486h155v-458h83zM204 242h230v329z" />
    <glyph glyph-name="seven.tf.cv01" horiz-adv-x="609" 
d="M566 700v-80l-300 -620h-130l286 587h-252v-105h-117v218h513z" />
    <glyph glyph-name="zero.tf.zero" horiz-adv-x="609" 
d="M304 710q124 0 194.5 -97.5t70.5 -262.5t-70.5 -262.5t-194.5 -97.5q-123 0 -193.5 97.5t-70.5 262.5t70.5 262.5t193.5 97.5zM304 596q-69 0 -106.5 -62.5t-37.5 -183.5q0 -52 8 -98l240 287q-38 57 -104 57zM304 104q69 0 107 62.5t38 183.5q0 52 -8 97l-240 -286
q37 -57 103 -57z" />
    <glyph glyph-name="zero.zero" horiz-adv-x="605" 
d="M302 710q124 0 194.5 -97.5t70.5 -262.5t-70.5 -262.5t-194.5 -97.5q-123 0 -193.5 97.5t-70.5 262.5t70.5 262.5t193.5 97.5zM302 596q-69 0 -106.5 -62.5t-37.5 -183.5q0 -52 8 -98l240 287q-38 57 -104 57zM302 104q69 0 107 62.5t38 183.5q0 51 -8 97l-240 -286
q38 -57 103 -57z" />
    <glyph glyph-name="three.sinf" horiz-adv-x="329" 
d="M106 246l93 102h-178v72h285v-50l-109 -115q48 -1 80 -35t32 -84q0 -62 -43 -102t-108 -40q-61 0 -102.5 34.5t-45.5 89.5h75q5 -23 24 -37t49 -14q32 0 52.5 20t20.5 51q0 40 -37 57t-88 2v49z" />
    <glyph glyph-name="four.sinf" horiz-adv-x="358" 
d="M344 159v-70h-49v-89h-75v89h-208v48l149 283h85l-138 -261h112v112h75v-112h49z" />
    <glyph glyph-name="five.sinf" horiz-adv-x="324" 
d="M158 -6q-59 0 -101.5 33.5t-46.5 90.5h75q6 -24 25.5 -37.5t47.5 -13.5q30 0 51 21t21 50q0 31 -21 52.5t-51 21.5q-43 0 -64 -26h-66l19 234h233v-71h-165l-10 -95q27 20 64 20q60 0 99 -37.5t39 -99.5q0 -60 -43.5 -101.5t-105.5 -41.5z" />
    <glyph glyph-name="six.sinf" horiz-adv-x="325" 
d="M176 277q57 0 96 -39.5t39 -98.5t-43.5 -102t-104.5 -43t-104.5 43t-43.5 102q0 48 34 102l111 179h86l-93 -146q12 3 23 3zM163 66q32 0 53.5 21t21.5 52t-22 52.5t-54 21.5q-30 0 -51.5 -21.5t-21.5 -52.5t21.5 -52t52.5 -21z" />
    <glyph glyph-name="seven.sinf" horiz-adv-x="310" 
d="M9 420h288v-51l-176 -369h-84l168 348h-196v72z" />
    <glyph glyph-name="eight.sinf" horiz-adv-x="323" 
d="M161 -5q-62 0 -103 35.5t-41 90.5q0 34 19.5 62.5t53.5 43.5q-26 11 -42 35t-16 51q0 49 36.5 80t92.5 31t92.5 -31t36.5 -80q0 -26 -15.5 -50t-42.5 -36q33 -13 53.5 -42t20.5 -64q0 -55 -40.5 -90.5t-104.5 -35.5zM161 256q27 0 43.5 15t16.5 38t-17 37.5t-43 14.5
t-43 -15t-17 -37q0 -23 17 -38t43 -15zM161 61q32 0 53 18.5t21 46.5t-21 46.5t-53 18.5t-52.5 -18.5t-20.5 -46.5t21 -46.5t52 -18.5z" />
    <glyph glyph-name="nine.sinf" horiz-adv-x="325" 
d="M161 426q61 0 104.5 -43t43.5 -102q0 -48 -33 -102l-111 -179h-87l94 146q-12 -3 -24 -3q-57 0 -95.5 39.5t-38.5 98.5t43.5 102t103.5 43zM162 207q31 0 52 21.5t21 52.5t-21.5 52t-52.5 21t-53 -21t-22 -52t22 -52.5t54 -21.5z" />
    <glyph glyph-name="zero.dnom" horiz-adv-x="364" 
d="M182 -6q-75 0 -117.5 58.5t-42.5 157.5t42.5 157.5t117.5 58.5q74 0 117 -58.5t43 -157.5q0 -98 -43 -157t-117 -59zM182 67q83 0 83 143t-83 143q-40 0 -61.5 -36.5t-21.5 -106.5t21.5 -106.5t61.5 -36.5z" />
    <glyph glyph-name="zero.sinf" horiz-adv-x="364" 
d="M182 -6q-75 0 -117.5 58.5t-42.5 157.5t42.5 157.5t117.5 58.5q74 0 117 -58.5t43 -157.5q0 -98 -43 -157t-117 -59zM182 67q83 0 83 143t-83 143q-40 0 -61.5 -36.5t-21.5 -106.5t21.5 -106.5t61.5 -36.5z" />
    <glyph glyph-name="one.sinf" horiz-adv-x="229" 
d="M193 420v-420h-75v317l-94 -76v91l117 88h52z" />
    <glyph glyph-name="two.sinf" horiz-adv-x="337" 
d="M26 0v54l144 142q37 36 50.5 55.5t13.5 42.5q0 25 -18.5 42t-46.5 17q-35 0 -54 -22.5t-17 -59.5h-76q-2 69 40 112t108 43q61 0 101 -36.5t40 -93.5q0 -68 -88 -148l-75 -75h166v-73h-288z" />
    <glyph glyph-name="one.dnom" horiz-adv-x="216" 
d="M193 420v-420h-75v317l-94 -76v91l117 88h52z" />
    <glyph glyph-name="two.dnom" horiz-adv-x="310" 
d="M26 0v54l144 142q37 36 50.5 55.5t13.5 42.5q0 25 -18.5 42t-46.5 17q-35 0 -54 -22.5t-17 -59.5h-76q-2 69 40 112t108 43q61 0 101 -36.5t40 -93.5q0 -68 -88 -148l-75 -75h166v-73h-288z" />
    <glyph glyph-name="three.dnom" horiz-adv-x="329" 
d="M106 246l93 102h-178v72h285v-50l-109 -115q48 -1 80 -35t32 -84q0 -62 -43 -102t-108 -40q-61 0 -102.5 34.5t-45.5 89.5h75q5 -23 24 -37t49 -14q32 0 52.5 20t20.5 51q0 40 -37 57t-88 2v49z" />
    <glyph glyph-name="four.dnom" horiz-adv-x="358" 
d="M344 159v-70h-49v-89h-75v89h-208v48l149 283h85l-138 -261h112v112h75v-112h49z" />
    <glyph glyph-name="five.dnom" horiz-adv-x="321" 
d="M158 -6q-59 0 -101.5 33.5t-46.5 90.5h75q6 -24 25.5 -37.5t47.5 -13.5q30 0 51 21t21 50q0 31 -21 52.5t-51 21.5q-43 0 -64 -26h-66l19 234h233v-71h-165l-10 -95q27 20 64 20q60 0 99 -37.5t39 -99.5q0 -60 -43.5 -101.5t-105.5 -41.5z" />
    <glyph glyph-name="six.dnom" horiz-adv-x="323" 
d="M176 277q57 0 96 -39.5t39 -98.5t-43.5 -102t-104.5 -43t-104.5 43t-43.5 102q0 48 34 102l111 179h86l-93 -146q12 3 23 3zM163 66q32 0 53.5 21t21.5 52t-22 52.5t-54 21.5q-30 0 -51.5 -21.5t-21.5 -52.5t21.5 -52t52.5 -21z" />
    <glyph glyph-name="seven.dnom" horiz-adv-x="310" 
d="M9 420h288v-51l-176 -369h-84l168 348h-196v72z" />
    <glyph glyph-name="eight.dnom" horiz-adv-x="323" 
d="M161 -5q-62 0 -103 35.5t-41 90.5q0 34 19.5 62.5t53.5 43.5q-26 11 -42 35t-16 51q0 49 36.5 80t92.5 31t92.5 -31t36.5 -80q0 -26 -15.5 -50t-42.5 -36q33 -13 53.5 -42t20.5 -64q0 -55 -40.5 -90.5t-104.5 -35.5zM161 256q27 0 43.5 15t16.5 38t-17 37.5t-43 14.5
t-43 -15t-17 -37q0 -23 17 -38t43 -15zM161 61q32 0 53 18.5t21 46.5t-21 46.5t-53 18.5t-52.5 -18.5t-20.5 -46.5t21 -46.5t52 -18.5z" />
    <glyph glyph-name="nine.dnom" horiz-adv-x="325" 
d="M161 426q61 0 104.5 -43t43.5 -102q0 -48 -33 -102l-111 -179h-87l94 146q-12 -3 -24 -3q-57 0 -95.5 39.5t-38.5 98.5t43.5 102t103.5 43zM162 207q31 0 52 21.5t21 52.5t-21.5 52t-52.5 21t-53 -21t-22 -52t22 -52.5t54 -21.5z" />
    <glyph glyph-name="zero.numr" horiz-adv-x="364" 
d="M182 163q-75 0 -117.5 58.5t-42.5 157.5t42.5 157.5t117.5 58.5q74 0 117 -58.5t43 -157.5q0 -98 -43 -157t-117 -59zM182 236q83 0 83 143t-83 143q-40 0 -61.5 -36.5t-21.5 -106.5t21.5 -106.5t61.5 -36.5z" />
    <glyph glyph-name="one.numr" horiz-adv-x="237" 
d="M193 700v-420h-75v317l-94 -76v91l117 88h52z" />
    <glyph glyph-name="two.numr" horiz-adv-x="310" 
d="M26 280v54l144 142q37 36 50.5 55.5t13.5 42.5q0 25 -18.5 42t-46.5 17q-35 0 -54 -22.5t-17 -59.5h-76q-2 69 40 112t108 43q61 0 101 -36.5t40 -93.5q0 -68 -88 -148l-75 -75h166v-73h-288z" />
    <glyph glyph-name="three.numr" horiz-adv-x="329" 
d="M106 526l93 102h-178v72h285v-50l-109 -115q48 -1 80 -35t32 -84q0 -62 -43 -102t-108 -40q-61 0 -102.5 34.5t-45.5 89.5h75q5 -23 24 -37t49 -14q32 0 52.5 20t20.5 51q0 40 -37 57t-88 2v49z" />
    <glyph glyph-name="four.numr" horiz-adv-x="358" 
d="M344 439v-70h-49v-89h-75v89h-208v48l149 283h85l-138 -261h112v112h75v-112h49z" />
    <glyph glyph-name="five.numr" horiz-adv-x="321" 
d="M158 274q-59 0 -101.5 33.5t-46.5 90.5h75q6 -24 25.5 -37.5t47.5 -13.5q30 0 51 21t21 50q0 31 -21 52.5t-51 21.5q-43 0 -64 -26h-66l19 234h233v-71h-165l-10 -95q27 20 64 20q60 0 99 -37.5t39 -99.5q0 -60 -43.5 -101.5t-105.5 -41.5z" />
    <glyph glyph-name="six.numr" horiz-adv-x="323" 
d="M176 557q57 0 96 -39.5t39 -98.5t-43.5 -102t-104.5 -43t-104.5 43t-43.5 102q0 48 34 102l111 179h86l-93 -146q12 3 23 3zM163 346q32 0 53.5 21t21.5 52t-22 52.5t-54 21.5q-30 0 -51.5 -21.5t-21.5 -52.5t21.5 -52t52.5 -21z" />
    <glyph glyph-name="seven.numr" horiz-adv-x="310" 
d="M9 700h288v-51l-176 -369h-84l168 348h-196v72z" />
    <glyph glyph-name="eight.numr" horiz-adv-x="323" 
d="M161 275q-62 0 -103 35.5t-41 90.5q0 34 19.5 62.5t53.5 43.5q-26 11 -42 35t-16 51q0 49 36.5 80t92.5 31t92.5 -31t36.5 -80q0 -26 -15.5 -50t-42.5 -36q33 -13 53.5 -42t20.5 -64q0 -55 -40.5 -90.5t-104.5 -35.5zM161 536q27 0 43.5 15t16.5 38t-17 37.5t-43 14.5
t-43 -15t-17 -37q0 -23 17 -38t43 -15zM161 341q32 0 53 18.5t21 46.5t-21 46.5t-53 18.5t-52.5 -18.5t-20.5 -46.5t21 -46.5t52 -18.5z" />
    <glyph glyph-name="nine.numr" horiz-adv-x="325" 
d="M161 706q61 0 104.5 -43t43.5 -102q0 -48 -33 -102l-111 -179h-87l94 146q-12 -3 -24 -3q-57 0 -95.5 39.5t-38.5 98.5t43.5 102t103.5 43zM162 487q31 0 52 21.5t21 52.5t-21.5 52t-52.5 21t-53 -21t-22 -52t22 -52.5t54 -21.5z" />
    <glyph glyph-name="zero.sups" horiz-adv-x="364" 
d="M182 279q-75 0 -117.5 58.5t-42.5 157.5t42.5 157.5t117.5 58.5q74 0 117 -58.5t43 -157.5q0 -98 -43 -157t-117 -59zM182 352q83 0 83 143t-83 143q-40 0 -61.5 -36.5t-21.5 -106.5t21.5 -106.5t61.5 -36.5z" />
    <glyph glyph-name="one.sups" horiz-adv-x="229" 
d="M193 705v-420h-75v317l-94 -76v91l117 88h52z" />
    <glyph glyph-name="two.sups" horiz-adv-x="337" 
d="M26 285v54l144 142q37 36 50.5 55.5t13.5 42.5q0 25 -18.5 42t-46.5 17q-35 0 -54 -22.5t-17 -59.5h-76q-2 69 40 112t108 43q61 0 101 -36.5t40 -93.5q0 -68 -88 -148l-75 -75h166v-73h-288z" />
    <glyph glyph-name="three.sups" horiz-adv-x="329" 
d="M106 531l93 102h-178v72h285v-50l-109 -115q48 -1 80 -35t32 -84q0 -62 -43 -102t-108 -40q-61 0 -102.5 34.5t-45.5 89.5h75q5 -23 24 -37t49 -14q32 0 52.5 20t20.5 51q0 40 -37 57t-88 2v49z" />
    <glyph glyph-name="four.sups" horiz-adv-x="358" 
d="M344 444v-70h-49v-89h-75v89h-208v48l149 283h85l-138 -261h112v112h75v-112h49z" />
    <glyph glyph-name="five.sups" horiz-adv-x="324" 
d="M158 279q-59 0 -101.5 33.5t-46.5 90.5h75q6 -24 25.5 -37.5t47.5 -13.5q30 0 51 21t21 50q0 31 -21 52.5t-51 21.5q-43 0 -64 -26h-66l19 234h233v-71h-165l-10 -95q27 20 64 20q60 0 99 -37.5t39 -99.5q0 -60 -43.5 -101.5t-105.5 -41.5z" />
    <glyph glyph-name="six.sups" horiz-adv-x="325" 
d="M176 562q57 0 96 -39.5t39 -98.5t-43.5 -102t-104.5 -43t-104.5 43t-43.5 102q0 48 34 102l111 179h86l-93 -146q12 3 23 3zM163 351q32 0 53.5 21t21.5 52t-22 52.5t-54 21.5q-30 0 -51.5 -21.5t-21.5 -52.5t21.5 -52t52.5 -21z" />
    <glyph glyph-name="seven.sups" horiz-adv-x="310" 
d="M9 705h288v-51l-176 -369h-84l168 348h-196v72z" />
    <glyph glyph-name="eight.sups" horiz-adv-x="323" 
d="M161 280q-62 0 -103 35.5t-41 90.5q0 34 19.5 62.5t53.5 43.5q-26 11 -42 35t-16 51q0 49 36.5 80t92.5 31t92.5 -31t36.5 -80q0 -26 -15.5 -50t-42.5 -36q33 -13 53.5 -42t20.5 -64q0 -55 -40.5 -90.5t-104.5 -35.5zM161 541q27 0 43.5 15t16.5 38t-17 37.5t-43 14.5
t-43 -15t-17 -37q0 -23 17 -38t43 -15zM161 346q32 0 53 18.5t21 46.5t-21 46.5t-53 18.5t-52.5 -18.5t-20.5 -46.5t21 -46.5t52 -18.5z" />
    <glyph glyph-name="nine.sups" horiz-adv-x="325" 
d="M161 711q61 0 104.5 -43t43.5 -102q0 -48 -33 -102l-111 -179h-87l94 146q-12 -3 -24 -3q-57 0 -95.5 39.5t-38.5 98.5t43.5 102t103.5 43zM162 492q31 0 52 21.5t21 52.5t-21.5 52t-52.5 21t-53 -21t-22 -52t22 -52.5t54 -21.5z" />
    <glyph glyph-name="three.sinf.cv01" horiz-adv-x="331" 
d="M222 223q32 -6 56 -35t24 -65q0 -57 -40 -92.5t-105 -35.5t-104.5 37t-38.5 98h70q0 -27 20.5 -46t52.5 -19q30 0 50 18.5t20 45.5t-21 44t-54 17h-18v59h15q28 0 45.5 15t17.5 38q0 22 -16 37t-41 15q-29 0 -46 -17t-18 -44h-67q-4 56 36 94t98 38q53 0 91 -34.5
t38 -83.5q0 -28 -19 -52.5t-46 -31.5z" />
    <glyph glyph-name="four.sinf.cv01" horiz-adv-x="393" 
d="M369 150v-70h-48v-80h-76v80h-225v51l200 289h101v-270h48zM113 150h132v189z" />
    <glyph glyph-name="seven.sinf.cv01" horiz-adv-x="338" 
d="M325 420v-51l-178 -369h-84l169 348h-143v-63h-76v135h312z" />
    <glyph glyph-name="zero.dnom.cv01" horiz-adv-x="351" 
d="M179 425q72 0 111 -47t39 -133v-70q0 -86 -39 -133t-111 -47h-6q-73 0 -112 47t-39 133v70q0 86 39 133t112 47h6zM173 352q-76 0 -76 -104v-76q0 -104 76 -104h6q75 0 75 104v76q0 104 -75 104h-6z" />
    <glyph glyph-name="zero.sinf.cv01" horiz-adv-x="351" 
d="M179 425q72 0 111 -47t39 -133v-70q0 -86 -39 -133t-111 -47h-6q-73 0 -112 47t-39 133v70q0 86 39 133t112 47h6zM173 352q-76 0 -76 -104v-76q0 -104 76 -104h6q75 0 75 104v76q0 104 -75 104h-6z" />
    <glyph glyph-name="two.sinf.cv01" horiz-adv-x="319" 
d="M15 0v40q0 56 31.5 94.5t103.5 81.5q40 23 55.5 40.5t15.5 40.5q0 25 -17 41t-45 16q-34 0 -53.5 -23t-17.5 -60h-76q-2 69 40 112t109 43q59 0 97.5 -36t38.5 -91q0 -42 -27 -73t-87 -65q-48 -31 -66.5 -48.5t-18.5 -39.5h198v-73h-281z" />
    <glyph glyph-name="two.dnom.cv01" horiz-adv-x="319" 
d="M15 0v40q0 56 31.5 94.5t103.5 81.5q40 23 55.5 40.5t15.5 40.5q0 25 -17 41t-45 16q-34 0 -53.5 -23t-17.5 -60h-76q-2 69 40 112t109 43q59 0 97.5 -36t38.5 -91q0 -42 -27 -73t-87 -65q-48 -31 -66.5 -48.5t-18.5 -39.5h198v-73h-281z" />
    <glyph glyph-name="three.dnom.cv01" horiz-adv-x="331" 
d="M222 223q32 -6 56 -35t24 -65q0 -57 -40 -92.5t-105 -35.5t-104.5 37t-38.5 98h70q0 -27 20.5 -46t52.5 -19q30 0 50 18.5t20 45.5t-21 44t-54 17h-18v59h15q28 0 45.5 15t17.5 38q0 22 -16 37t-41 15q-29 0 -46 -17t-18 -44h-67q-4 56 36 94t98 38q53 0 91 -34.5
t38 -83.5q0 -28 -19 -52.5t-46 -31.5z" />
    <glyph glyph-name="four.dnom.cv01" horiz-adv-x="393" 
d="M369 150v-70h-48v-80h-76v80h-225v51l200 289h101v-270h48zM113 150h132v189z" />
    <glyph glyph-name="seven.dnom.cv01" horiz-adv-x="338" 
d="M325 420v-51l-178 -369h-84l169 348h-143v-63h-76v135h312z" />
    <glyph glyph-name="zero.numr.cv01" horiz-adv-x="351" 
d="M179 705q72 0 111 -47t39 -133v-70q0 -86 -39 -133t-111 -47h-6q-73 0 -112 47t-39 133v70q0 86 39 133t112 47h6zM173 632q-76 0 -76 -104v-76q0 -104 76 -104h6q75 0 75 104v76q0 104 -75 104h-6z" />
    <glyph glyph-name="two.numr.cv01" 
d="M47 280v40q0 56 31.5 94t103.5 82q40 23 55.5 40.5t15.5 40.5q0 25 -17 41t-45 16q-34 0 -53.5 -23t-17.5 -60h-75q-3 69 39.5 112t108.5 43q60 0 98 -36t38 -91q0 -42 -26.5 -73t-86.5 -65q-49 -31 -67.5 -48.5t-18.5 -39.5h198v-73h-281z" />
    <glyph glyph-name="three.numr.cv01" horiz-adv-x="331" 
d="M222 503q32 -6 56 -35t24 -65q0 -57 -40 -92.5t-105 -35.5t-104.5 37t-38.5 98h70q0 -27 20.5 -46t52.5 -19q30 0 50 18.5t20 45.5t-21 44t-54 17h-18v59h15q28 0 45.5 15t17.5 38q0 22 -16 37t-41 15q-29 0 -46 -17t-18 -44h-67q-4 56 36 94t98 38q53 0 91 -34.5
t38 -83.5q0 -28 -19 -52.5t-46 -31.5z" />
    <glyph glyph-name="four.numr.cv01" horiz-adv-x="393" 
d="M369 430v-70h-48v-80h-76v80h-225v51l200 289h101v-270h48zM113 430h132v189z" />
    <glyph glyph-name="seven.numr.cv01" horiz-adv-x="338" 
d="M325 700v-51l-178 -369h-84l169 348h-143v-63h-76v135h312z" />
    <glyph glyph-name="zero.sups.cv01" horiz-adv-x="351" 
d="M179 710q72 0 111 -47t39 -133v-70q0 -86 -39 -133t-111 -47h-6q-73 0 -112 47t-39 133v70q0 86 39 133t112 47h6zM173 637q-76 0 -76 -104v-76q0 -104 76 -104h6q75 0 75 104v76q0 104 -75 104h-6z" />
    <glyph glyph-name="two.sups.cv01" horiz-adv-x="319" 
d="M15 285v40q0 56 31.5 94.5t103.5 81.5q40 23 55.5 40.5t15.5 40.5q0 25 -17 41t-45 16q-34 0 -53.5 -23t-17.5 -60h-76q-2 69 40 112t109 43q59 0 97.5 -36t38.5 -91q0 -42 -27 -73t-87 -65q-48 -31 -66.5 -48.5t-18.5 -39.5h198v-73h-281z" />
    <glyph glyph-name="three.sups.cv01" horiz-adv-x="331" 
d="M222 508q32 -6 56 -35t24 -65q0 -57 -40 -92.5t-105 -35.5t-104.5 37t-38.5 98h70q0 -27 20.5 -46t52.5 -19q30 0 50 18.5t20 45.5t-21 44t-54 17h-18v59h15q28 0 45.5 15t17.5 38q0 22 -16 37t-41 15q-29 0 -46 -17t-18 -44h-67q-4 56 36 94t98 38q53 0 91 -34.5
t38 -83.5q0 -28 -19 -52.5t-46 -31.5z" />
    <glyph glyph-name="four.sups.cv01" horiz-adv-x="393" 
d="M369 435v-70h-48v-80h-76v80h-225v51l200 289h101v-270h48zM113 435h132v189z" />
    <glyph glyph-name="seven.sups.cv01" horiz-adv-x="338" 
d="M325 705v-51l-178 -369h-84l169 348h-143v-63h-76v135h312z" />
    <glyph glyph-name="three.sinf.tf" 
d="M128 246l94 102h-178v72h284v-50l-109 -115q48 -1 80 -35t32 -84q0 -62 -42.5 -102t-107.5 -40q-61 0 -102.5 34.5t-46.5 89.5h75q5 -22 24.5 -36.5t49.5 -14.5q31 0 51.5 20t20.5 51q0 40 -37 57t-88 2v49z" />
    <glyph glyph-name="four.sinf.tf" 
d="M352 159v-70h-49v-89h-75v89h-208v48l149 283h85l-138 -261h112v112h75v-112h49z" />
    <glyph glyph-name="five.sinf.tf" 
d="M188 -6q-59 0 -101.5 33.5t-46.5 90.5h75q6 -23 25.5 -37t47.5 -14q30 0 51 21t21 50q0 31 -21 52.5t-51 21.5q-43 0 -64 -26h-66l19 234h233v-71h-165l-10 -95q27 20 64 20q60 0 99 -37.5t39 -99.5q0 -60 -43.5 -101.5t-105.5 -41.5z" />
    <glyph glyph-name="six.sinf.tf" 
d="M196 277q58 0 96.5 -39.5t38.5 -98.5t-43.5 -102t-104.5 -43t-104 43t-43 102q0 47 33 102l111 179h86l-93 -146q12 3 23 3zM183 66q32 0 53.5 21t21.5 52t-21.5 52.5t-53.5 21.5q-31 0 -52.5 -21.5t-21.5 -52.5t21.5 -52t52.5 -21z" />
    <glyph glyph-name="seven.sinf.tf" 
d="M41 420h287v-51l-175 -369h-84l167 348h-195v72z" />
    <glyph glyph-name="eight.sinf.tf" 
d="M184 -5q-63 0 -104 35.5t-41 90.5q0 33 20 62t54 44q-26 11 -42 35t-16 51q0 49 36.5 80t92.5 31t92.5 -31t36.5 -80q0 -26 -16 -50t-42 -36q33 -13 53.5 -42t20.5 -64q0 -55 -41 -90.5t-104 -35.5zM184 256q26 0 43 15t17 38t-17 37.5t-43 14.5t-43 -14.5t-17 -37.5
t17 -38t43 -15zM184 61q31 0 52 18.5t21 46.5t-20.5 46.5t-52.5 18.5t-53 -18.5t-21 -46.5t21 -46.5t53 -18.5z" />
    <glyph glyph-name="nine.sinf.tf" 
d="M179 426q61 0 104.5 -43t43.5 -102q0 -49 -34 -102l-111 -179h-86l93 146q-12 -3 -23 -3q-58 0 -96.5 39.5t-38.5 98.5t43.5 102t104.5 43zM180 207q30 0 51.5 21.5t21.5 52.5t-21.5 52t-52.5 21q-32 0 -53.5 -21t-21.5 -52t22 -52.5t54 -21.5z" />
    <glyph glyph-name="zero.sinf.tf" 
d="M180 -6q-75 0 -117.5 58.5t-42.5 157.5t42.5 157.5t117.5 58.5q74 0 117 -58.5t43 -157.5q0 -98 -43 -157t-117 -59zM180 67q83 0 83 143t-83 143q-40 0 -61.5 -36.5t-21.5 -106.5t21.5 -106.5t61.5 -36.5z" />
    <glyph glyph-name="one.sinf.tf" horiz-adv-x="366" 
d="M226 69h95v-69h-277v69h107v248l-94 -76v91l118 88h51v-351z" />
    <glyph glyph-name="two.sinf.tf" 
d="M59 0v54l143 142q37 36 50.5 55.5t13.5 42.5q0 25 -18.5 42t-46.5 17q-34 0 -53 -22.5t-18 -59.5h-76q-2 69 40 112t108 43q62 0 102 -36.5t40 -93.5q0 -67 -89 -148l-75 -75h166v-73h-287z" />
    <glyph glyph-name="zero.sups.tf" 
d="M188 274q-75 0 -117.5 58.5t-42.5 157.5t42.5 157.5t117.5 58.5q74 0 117 -58.5t43 -157.5q0 -98 -43 -157t-117 -59zM188 347q83 0 83 143t-83 143q-40 0 -61.5 -36.5t-21.5 -106.5t21.5 -106.5t61.5 -36.5z" />
    <glyph glyph-name="one.sups.tf" 
d="M226 354h95v-69h-277v69h107v248l-94 -76v91l118 88h51v-351z" />
    <glyph glyph-name="two.sups.tf" 
d="M59 280v54l143 142q37 36 50.5 55.5t13.5 42.5q0 25 -18.5 42t-46.5 17q-34 0 -53 -22.5t-18 -59.5h-76q-2 69 40 112t108 43q62 0 102 -36.5t40 -93.5q0 -67 -89 -148l-75 -75h166v-73h-287z" />
    <glyph glyph-name="three.sups.tf" 
d="M128 526l94 102h-178v72h284v-50l-109 -115q48 -1 80 -35t32 -84q0 -62 -42.5 -102t-107.5 -40q-61 0 -102.5 34.5t-46.5 89.5h75q5 -22 24.5 -36.5t49.5 -14.5q31 0 51.5 20t20.5 51q0 40 -37 57t-88 2v49z" />
    <glyph glyph-name="four.sups.tf" 
d="M352 439v-70h-49v-89h-75v89h-208v48l149 283h85l-138 -261h112v112h75v-112h49z" />
    <glyph glyph-name="five.sups.tf" 
d="M188 274q-59 0 -101.5 33.5t-46.5 90.5h75q6 -23 25.5 -37t47.5 -14q30 0 51 21t21 50q0 31 -21 52.5t-51 21.5q-43 0 -64 -26h-66l19 234h233v-71h-165l-10 -95q27 20 64 20q60 0 99 -37.5t39 -99.5q0 -60 -43.5 -101.5t-105.5 -41.5z" />
    <glyph glyph-name="six.sups.tf" 
d="M196 557q58 0 96.5 -39.5t38.5 -98.5t-43.5 -102t-104.5 -43t-104 43t-43 102q0 47 33 102l111 179h86l-93 -146q12 3 23 3zM183 346q32 0 53.5 21t21.5 52t-21.5 52.5t-53.5 21.5q-31 0 -52.5 -21.5t-21.5 -52.5t21.5 -52t52.5 -21z" />
    <glyph glyph-name="seven.sups.tf" 
d="M41 700h287v-51l-175 -369h-84l167 348h-195v72z" />
    <glyph glyph-name="eight.sups.tf" 
d="M184 275q-63 0 -104 35.5t-41 90.5q0 33 20 62t54 44q-26 11 -42 35t-16 51q0 49 36.5 80t92.5 31t92.5 -31t36.5 -80q0 -26 -16 -50t-42 -36q33 -13 53.5 -42t20.5 -64q0 -55 -41 -90.5t-104 -35.5zM184 536q26 0 43 15t17 38t-17 37.5t-43 14.5t-43 -14.5t-17 -37.5
t17 -38t43 -15zM184 341q31 0 52 18.5t21 46.5t-20.5 46.5t-52.5 18.5t-53 -18.5t-21 -46.5t21 -46.5t53 -18.5z" />
    <glyph glyph-name="nine.sups.tf" 
d="M179 706q61 0 104.5 -43t43.5 -102q0 -49 -34 -102l-111 -179h-86l93 146q-12 -3 -23 -3q-58 0 -96.5 39.5t-38.5 98.5t43.5 102t104.5 43zM180 487q30 0 51.5 21.5t21.5 52.5t-21.5 52t-52.5 21q-32 0 -53.5 -21t-21.5 -52t22 -52.5t54 -21.5z" />
    <glyph glyph-name="three.sinf.tf.cv01" 
d="M244 223q32 -6 56 -35t24 -65q0 -57 -40 -92.5t-105 -35.5t-104.5 37t-38.5 98h70q0 -27 20.5 -46t52.5 -19q30 0 50 18.5t20 45.5t-21 44t-54 17h-18v59h15q28 0 46 15t18 38q0 22 -16.5 37t-41.5 15q-29 0 -45.5 -17t-18.5 -44h-67q-4 56 36 94t98 38q53 0 91.5 -34.5
t38.5 -83.5q0 -28 -19 -52.5t-47 -31.5z" />
    <glyph glyph-name="four.sinf.tf.cv01" 
d="M352 150v-70h-48v-80h-76v80h-225v51l200 289h101v-270h48zM97 150h131v187z" />
    <glyph glyph-name="seven.sinf.tf.cv01" 
d="M339 420v-51l-179 -369h-84l170 348h-144v-63h-75v135h312z" />
    <glyph glyph-name="zero.sinf.tf.cv01" 
d="M179 425q72 0 111 -47t39 -133v-70q0 -86 -39 -133t-111 -47h-6q-73 0 -112 47t-39 133v70q0 86 39 133t112 47h6zM173 352q-76 0 -76 -104v-76q0 -104 76 -104h6q75 0 75 104v76q0 104 -75 104h-6z" />
    <glyph glyph-name="two.sinf.tf.cv01" 
d="M47 0v40q0 56 31.5 94t103.5 82q40 23 55.5 40.5t15.5 40.5q0 25 -17 41t-45 16q-34 0 -53.5 -23t-17.5 -60h-75q-3 69 39.5 112t108.5 43q60 0 98 -36t38 -91q0 -42 -26.5 -73t-86.5 -65q-49 -31 -67.5 -48.5t-18.5 -39.5h198v-73h-281z" />
    <glyph glyph-name="zero.sups.tf.cv01" 
d="M179 705q72 0 111 -47t39 -133v-70q0 -86 -39 -133t-111 -47h-6q-73 0 -112 47t-39 133v70q0 86 39 133t112 47h6zM173 632q-76 0 -76 -104v-76q0 -104 76 -104h6q75 0 75 104v76q0 104 -75 104h-6z" />
    <glyph glyph-name="two.sups.tf.cv01" 
d="M47 280v40q0 56 31.5 94t103.5 82q40 23 55.5 40.5t15.5 40.5q0 25 -17 41t-45 16q-34 0 -53.5 -23t-17.5 -60h-75q-3 69 39.5 112t108.5 43q60 0 98 -36t38 -91q0 -42 -26.5 -73t-86.5 -65q-49 -31 -67.5 -48.5t-18.5 -39.5h198v-73h-281z" />
    <glyph glyph-name="three.sups.tf.cv01" 
d="M244 503q32 -6 56 -35t24 -65q0 -57 -40 -92.5t-105 -35.5t-104.5 37t-38.5 98h70q0 -27 20.5 -46t52.5 -19q30 0 50 18.5t20 45.5t-21 44t-54 17h-18v59h15q28 0 46 15t18 38q0 22 -16.5 37t-41.5 15q-29 0 -45.5 -17t-18.5 -44h-67q-4 56 36 94t98 38q53 0 91.5 -34.5
t38.5 -83.5q0 -28 -19 -52.5t-47 -31.5z" />
    <glyph glyph-name="four.sups.tf.cv01" 
d="M369 430v-70h-48v-80h-76v80h-225v51l200 289h101v-270h48zM113 430h132v189z" />
    <glyph glyph-name="seven.sups.tf.cv01" 
d="M325 700v-51l-178 -369h-84l169 348h-143v-63h-76v135h312z" />
    <glyph glyph-name="zero.sinf.tf.zero" 
d="M180 426q74 0 117 -58.5t43 -157.5q0 -98 -43 -157t-117 -59q-75 0 -117.5 58.5t-42.5 157.5t42.5 157.5t117.5 58.5zM180 353q-40 0 -61.5 -36.5t-21.5 -106.5q0 -32 4 -53l137 165q-21 31 -58 31zM180 67q83 0 83 143q0 32 -4 52l-137 -164q21 -31 58 -31z" />
    <glyph glyph-name="zero.sups.tf.zero" 
d="M180 706q74 0 117 -58.5t43 -157.5q0 -98 -43 -157t-117 -59q-75 0 -117.5 58.5t-42.5 157.5t42.5 157.5t117.5 58.5zM180 633q-40 0 -61.5 -36.5t-21.5 -106.5q0 -32 4 -53l137 165q-21 31 -58 31zM180 347q83 0 83 143q0 32 -4 52l-137 -164q21 -31 58 -31z" />
    <glyph glyph-name="zero.dnom.zero" horiz-adv-x="364" 
d="M182 426q74 0 117 -58.5t43 -157.5q0 -98 -43 -157t-117 -59q-75 0 -117.5 58.5t-42.5 157.5t42.5 157.5t117.5 58.5zM182 353q-40 0 -61.5 -36.5t-21.5 -106.5q0 -32 4 -53l137 165q-21 31 -58 31zM182 67q83 0 83 143q0 32 -4 52l-137 -164q21 -31 58 -31z" />
    <glyph glyph-name="zero.sinf.zero" horiz-adv-x="364" 
d="M182 426q74 0 117 -58.5t43 -157.5q0 -98 -43 -157t-117 -59q-75 0 -117.5 58.5t-42.5 157.5t42.5 157.5t117.5 58.5zM182 353q-40 0 -61.5 -36.5t-21.5 -106.5q0 -32 4 -53l137 165q-21 31 -58 31zM182 67q83 0 83 143q0 32 -4 52l-137 -164q21 -31 58 -31z" />
    <glyph glyph-name="zero.numr.zero" horiz-adv-x="364" 
d="M182 706q74 0 117 -58.5t43 -157.5q0 -98 -43 -157t-117 -59q-75 0 -117.5 58.5t-42.5 157.5t42.5 157.5t117.5 58.5zM182 633q-40 0 -61.5 -36.5t-21.5 -106.5q0 -32 4 -53l137 165q-21 31 -58 31zM182 347q83 0 83 143q0 32 -4 52l-137 -164q21 -31 58 -31z" />
    <glyph glyph-name="zero.sups.zero" horiz-adv-x="364" 
d="M182 706q74 0 117 -58.5t43 -157.5q0 -98 -43 -157t-117 -59q-75 0 -117.5 58.5t-42.5 157.5t42.5 157.5t117.5 58.5zM182 633q-40 0 -61.5 -36.5t-21.5 -106.5q0 -32 4 -53l137 165q-21 31 -58 31zM182 347q83 0 83 143q0 32 -4 52l-137 -164q21 -31 58 -31z" />
    <glyph glyph-name="colon.case" horiz-adv-x="262" 
d="M131 430q-32 0 -54.5 22t-22.5 54t22.5 54t54.5 22q33 0 55 -22t22 -54t-22 -54t-55 -22zM131 102q-32 0 -54.5 22t-22.5 54t22.5 54t54.5 22q33 0 55 -22t22 -54t-22 -54t-55 -22z" />
    <glyph glyph-name="bullet.case" horiz-adv-x="350" 
d="M175 217q-55 0 -92 37t-37 93q0 55 37 92t92 37t92 -37t37 -92t-37 -92.5t-92 -37.5z" />
    <glyph glyph-name="parenleft.case" horiz-adv-x="328" 
d="M70 334q0 154 59.5 292t158.5 220l65 -75q-80 -67 -128.5 -185.5t-48.5 -251.5q0 -134 48.5 -252.5t128.5 -185.5l-65 -75q-99 82 -158.5 220.5t-59.5 292.5z" />
    <glyph glyph-name="parenright.case" horiz-adv-x="329" 
d="M258 334q0 -154 -59.5 -292.5t-157.5 -220.5l-66 75q81 67 129 185.5t48 252.5t-48 252t-129 185l66 75q98 -82 157.5 -220t59.5 -292z" />
    <glyph glyph-name="braceleft.case" horiz-adv-x="409" 
d="M317 -156q-91 0 -144.5 55t-53.5 151v149q0 34 -27 62t-72 40v72q45 12 72 40t27 62v149q0 96 53.5 151t144.5 55h68v-91h-68q-45 0 -73.5 -32t-28.5 -83v-141q0 -94 -80 -146q80 -53 80 -146v-141q0 -51 28.5 -83t73.5 -32h68v-91h-68z" />
    <glyph glyph-name="braceright.case" horiz-adv-x="410" 
d="M92 -156h-68v91h68q45 0 73.5 32t28.5 83v141q0 92 80 146q-80 53 -80 146v141q0 51 -28.5 83t-73.5 32h-68v91h68q91 0 145 -55t54 -151v-149q0 -34 26.5 -62t71.5 -40v-72q-45 -12 -71.5 -40t-26.5 -62v-149q0 -96 -54 -151t-145 -55z" />
    <glyph glyph-name="bracketleft.case" horiz-adv-x="338" 
d="M161 739v-804h147v-91h-249v986h249v-91h-147z" />
    <glyph glyph-name="bracketright.case" horiz-adv-x="338" 
d="M177 739h-147v91h249v-986h-249v91h147v804z" />
    <glyph glyph-name="hyphen.case" horiz-adv-x="348" 
d="M25 297v104h298v-104h-298z" />
    <glyph glyph-name="endash.case" horiz-adv-x="592" 
d="M50 297v104h491v-104h-491z" />
    <glyph glyph-name="emdash.case" horiz-adv-x="1100" 
d="M50 297v104h1000v-104h-1000z" />
    <glyph glyph-name="guillemotleft.case" horiz-adv-x="680" 
d="M48 396l283 204v-117l-177 -123l177 -122v-117l-283 203v72zM347 396l283 204v-117l-176 -123l176 -122v-117l-283 203v72z" />
    <glyph glyph-name="guillemotright.case" horiz-adv-x="680" 
d="M333 396v-72l-283 -203v117l176 122l-176 123v117zM632 396v-72l-282 -203v117l176 122l-176 123v117z" />
    <glyph glyph-name="guilsinglleft.case" horiz-adv-x="383" 
d="M50 396l283 204v-117l-176 -123l176 -122v-117l-283 203v72z" />
    <glyph glyph-name="guilsinglright.case" horiz-adv-x="383" 
d="M333 396v-72l-283 -203v117l177 122l-177 123v117z" />
    <glyph glyph-name="at.case" horiz-adv-x="917" 
d="M571 513h90v-237q0 -48 12.5 -67.5t43.5 -19.5q35 0 56.5 44t21.5 116q0 130 -89 204.5t-244 74.5q-139 0 -231 -91.5t-92 -230.5q0 -135 89.5 -224t223.5 -89q51 0 95 15t60 38h122q-33 -62 -109 -99t-168 -37q-171 0 -286.5 113t-115.5 283q0 173 118.5 288.5
t293.5 115.5q197 0 309.5 -96t112.5 -265q0 -113 -47 -178t-125 -65q-93 0 -124 67q-50 -72 -144 -72q-81 0 -137.5 61.5t-56.5 149.5t56.5 148.5t137.5 60.5q82 0 127 -65v57zM456 190q51 0 83 33.5t32 88.5q0 54 -32 87t-83 33q-49 0 -83 -34.5t-34 -85.5t34 -86.5
t83 -35.5z" />
    <glyph glyph-name="caroncomb.alt" horiz-adv-x="0" 
d="M-185 545l20 210h117l-44 -210h-93z" />
    <glyph glyph-name="uni0328.alt" horiz-adv-x="0" 
d="M-116 85l7 -44q-88 -63 -88 -113q0 -17 12.5 -27.5t33.5 -10.5t42 9l29 -71q-41 -23 -106 -23q-48 0 -78 28t-30 71q0 54 47.5 101t130.5 80z" />
    <glyph glyph-name="uni0308.case" horiz-adv-x="0" 
d="M-371 901q29 0 50 -21.5t21 -49.5q0 -30 -21 -51t-50 -21t-50.5 21t-21.5 51q0 29 21.5 50t50.5 21zM-185 901q29 0 50.5 -21t21.5 -50q0 -30 -21.5 -51t-50.5 -21t-50 21t-21 51q0 29 21 50t50 21z" />
    <glyph glyph-name="uni0307.case" horiz-adv-x="0" 
d="M-254 901q29 0 50.5 -21t21.5 -50q0 -30 -21.5 -51t-50.5 -21t-50 21t-21 51q0 29 21 50t50 21z" />
    </font>
</defs>
</svg>
