<?xml version="1.0" standalone="no"?>
<!DOCTYPE svg PUBLIC "-//W3C//DTD SVG 1.1//EN" "http://www.w3.org/Graphics/SVG/1.1/DTD/svg11.dtd" >
<svg>
<metadata>
Created by FontForge 20090622 at Wed Oct  7 07:23:58 2020
 By deploy user
Copyright &#194;&#169; 2017 by Martin V&#195;&#161;cha. All rights reserved.
</metadata>
<defs>
<font id="Gellix-Regular" horiz-adv-x="360" >
  <font-face 
    font-family="Gellix"
    font-weight="400"
    font-stretch="normal"
    units-per-em="1000"
    panose-1="0 0 5 0 0 0 0 0 0 0"
    ascent="816"
    descent="-184"
    x-height="486"
    cap-height="700"
    bbox="-468 -214.06 1240 1115"
    underline-thickness="50"
    underline-position="-50"
    unicode-range="U+0020-U+25CF"
  />
<missing-glyph horiz-adv-x="720" 
d="M360 710q150 0 255 -105t105 -254t-105 -255t-255 -106q-148 0 -254 106t-106 255t105.5 254t254.5 105zM249 306q21 0 37 35.5t16 84.5q0 50 -16 85t-37 35q-23 0 -39.5 -35t-16.5 -85q0 -49 16.5 -84.5t39.5 -35.5zM472 306q23 0 39 35t16 85t-16 85t-39 35
q-22 0 -37.5 -35t-15.5 -85q0 -49 15.5 -84.5t37.5 -35.5zM360 96q31 0 53 21.5t22 51.5q0 31 -21.5 52.5t-53.5 21.5q-31 0 -52 -21t-21 -53q0 -30 21 -51.5t52 -21.5z" />
    <glyph glyph-name=".notdef" horiz-adv-x="720" 
d="M360 710q150 0 255 -105t105 -254t-105 -255t-255 -106q-148 0 -254 106t-106 255t105.5 254t254.5 105zM249 306q21 0 37 35.5t16 84.5q0 50 -16 85t-37 35q-23 0 -39.5 -35t-16.5 -85q0 -49 16.5 -84.5t39.5 -35.5zM472 306q23 0 39 35t16 85t-16 85t-39 35
q-22 0 -37.5 -35t-15.5 -85q0 -49 15.5 -84.5t37.5 -35.5zM360 96q31 0 53 21.5t22 51.5q0 31 -21.5 52.5t-53.5 21.5q-31 0 -52 -21t-21 -53q0 -30 21 -51.5t52 -21.5z" />
    <glyph glyph-name=".null" horiz-adv-x="0" 
 />
    <glyph glyph-name="nonmarkingreturn" horiz-adv-x="333" 
 />
    <glyph glyph-name="space" unicode=" " horiz-adv-x="241" 
 />
    <glyph glyph-name="exclam" unicode="!" horiz-adv-x="233" 
d="M76 700h80l-3 -514h-73zM116 -10q-25 0 -41.5 16.5t-16.5 41.5q0 24 16.5 41t41.5 17t42 -17t17 -41q0 -25 -17 -41.5t-42 -16.5z" />
    <glyph glyph-name="quotedbl" unicode="&#x22;" horiz-adv-x="308" 
d="M57 478l-7 222h74l-6 -222h-61zM191 478l-7 222h74l-6 -222h-61z" />
    <glyph glyph-name="numbersign" unicode="#" horiz-adv-x="654" 
d="M626 430h-140l-44 -160h144v-63h-162l-58 -207h-65l58 207h-143l-58 -207h-66l58 207h-122v63h140l45 160h-145v63h163l58 207h65l-58 -207h143l58 207h65l-58 -207h122v-63zM377 270l44 160h-143l-44 -160h143z" />
    <glyph glyph-name="dollar" unicode="$" horiz-adv-x="595" 
d="M548 189q0 -79 -59.5 -134t-152.5 -63v-112h-70v112q-95 11 -154.5 73.5t-59.5 151.5h74q0 -69 50 -112.5t128 -43.5q73 0 121 36t48 92q0 47 -30.5 77t-76 42.5l-98.5 27.5t-98.5 31.5t-76 56.5t-30.5 100q0 75 56.5 126t146.5 59v111h70v-113q89 -12 139.5 -67
t50.5 -133h-77q-2 58 -46 94.5t-112 36.5t-111 -31.5t-43 -82.5q0 -33 17.5 -56t46.5 -35t66 -23t75.5 -19t75.5 -23.5t66 -35.5t46.5 -57t17.5 -86z" />
    <glyph glyph-name="percent" unicode="%" horiz-adv-x="725" 
d="M337 568q0 -62 -37.5 -102.5t-95.5 -40.5t-96 40.5t-38 102.5t38 102t96 40t95.5 -40t37.5 -102zM565 700h61l-465 -700h-61zM285 568q0 41 -22.5 67t-58.5 26q-37 0 -59.5 -26t-22.5 -67t22.5 -67t59.5 -26q36 0 58.5 26t22.5 67zM655 133q0 -62 -37.5 -102.5
t-95.5 -40.5t-96 40.5t-38 102.5t38 102t96 40t95.5 -40t37.5 -102zM603 133q0 41 -22.5 67t-58.5 26q-37 0 -59.5 -26t-22.5 -67q0 -42 22.5 -68t59.5 -26q36 0 58.5 26t22.5 68z" />
    <glyph glyph-name="ampersand" unicode="&#x26;" horiz-adv-x="699" 
d="M647 0h-96l-98 103q-56 -58 -106.5 -85.5t-113.5 -27.5q-82 0 -137 54.5t-55 134.5q0 74 40 119t111 79q-82 86 -82 164q0 72 51 120.5t127 48.5q73 0 122.5 -48.5t49.5 -120.5q0 -68 -39.5 -108.5t-111.5 -74.5l145 -154l92 91h98l-141 -142zM179 543q0 -23 13 -48
t27.5 -42t40.5 -45q64 29 97 58.5t33 76.5q0 42 -29.5 71t-72.5 29q-46 0 -77.5 -29t-31.5 -71zM394 145l10 10l-163 171q-60 -30 -91.5 -61t-31.5 -81q0 -52 34 -86.5t87 -34.5q74 0 155 82z" />
    <glyph glyph-name="quotesingle" unicode="'" horiz-adv-x="174" 
d="M57 478l-7 222h74l-6 -222h-61z" />
    <glyph glyph-name="parenleft" unicode="(" horiz-adv-x="307" 
d="M79 286q0 150 57.5 285t148.5 211l43 -49q-80 -67 -130 -189t-50 -258t50 -257.5t130 -188.5l-43 -49q-91 75 -148.5 210t-57.5 285z" />
    <glyph glyph-name="parenright" unicode=")" horiz-adv-x="308" 
d="M228 286q0 -150 -57.5 -285t-148.5 -210l-43 49q80 67 130 188.5t50 257.5t-50 258t-130 189l43 49q91 -76 148.5 -211t57.5 -285z" />
    <glyph glyph-name="asterisk" unicode="*" horiz-adv-x="485" 
d="M440 553l-157 -44l102 -144l-39 -32l-104 145l-104 -146l-40 33l104 144l-159 44l16 49l157 -43v161h52v-161l157 43z" />
    <glyph glyph-name="plus" unicode="+" horiz-adv-x="576" 
d="M505 346v-68h-184v-184h-68v184h-183v68h183v183h68v-183h184z" />
    <glyph glyph-name="comma" unicode="," horiz-adv-x="241" 
d="M183 97l-67 -203h-58l43 203h82z" />
    <glyph glyph-name="hyphen" unicode="-" horiz-adv-x="315" 
d="M25 224v67h265v-67h-265z" />
    <glyph glyph-name="period" unicode="." horiz-adv-x="233" 
d="M116 -10q-25 0 -41.5 16.5t-16.5 41.5q0 24 16.5 41t41.5 17t42 -17t17 -41q0 -25 -17 -41.5t-42 -16.5z" />
    <glyph glyph-name="slash" unicode="/" horiz-adv-x="404" 
d="M9 0l308 700h78l-308 -700h-78z" />
    <glyph glyph-name="zero" unicode="0" horiz-adv-x="597" 
d="M299 -10q-119 0 -186 96.5t-67 263.5t67 263.5t186 96.5q118 0 185 -96.5t67 -263.5t-67 -263.5t-185 -96.5zM299 63q83 0 129 74.5t46 212.5t-46 212.5t-129 74.5q-84 0 -129.5 -74.5t-45.5 -212.5t45.5 -212.5t129.5 -74.5z" />
    <glyph glyph-name="one" unicode="1" horiz-adv-x="362" 
d="M284 700v-700h-76v596l-161 -138v93l182 149h55z" />
    <glyph glyph-name="two" unicode="2" horiz-adv-x="549" 
d="M44 0v56l269 269q106 108 106 181q0 57 -40 94t-101 37q-71 0 -114.5 -43t-42.5 -115h-75q-3 104 63.5 167.5t169.5 63.5q94 0 155.5 -57t61.5 -145q0 -105 -129 -229l-205 -206h343v-73h-461z" />
    <glyph glyph-name="three" unicode="3" horiz-adv-x="536" 
d="M180 402l203 226h-342v72h448v-53l-216 -236q91 12 156.5 -44.5t65.5 -148.5q0 -100 -67 -164t-171 -64q-94 0 -159 51.5t-75 133.5h75q10 -50 52.5 -81t106.5 -31q70 0 115 44t45 113q0 81 -70 118t-167 11v53z" />
    <glyph glyph-name="four" unicode="4" horiz-adv-x="573" 
d="M545 226v-69h-95v-157h-75v157h-355v55l258 488h85l-250 -474h262v240h75v-240h95z" />
    <glyph glyph-name="five" unicode="5" horiz-adv-x="526" 
d="M254 -10q-92 0 -157.5 51t-73.5 134h75q11 -50 53.5 -81t102.5 -31q67 0 112.5 44.5t45.5 109.5q0 68 -45.5 114t-112.5 46q-87 0 -131 -50h-65l33 373h355v-71h-288l-23 -231q46 43 128 43q97 0 161.5 -63t64.5 -162q0 -94 -68.5 -160t-166.5 -66z" />
    <glyph glyph-name="six" unicode="6" horiz-adv-x="532" 
d="M279 451q95 0 160 -66t65 -163q0 -96 -69 -164t-167 -68q-97 0 -166 68t-69 164q0 82 58 175l189 303h86l-173 -272q41 23 86 23zM268 62q69 0 116 46.5t47 114.5t-47.5 115.5t-116.5 47.5q-67 0 -114 -47.5t-47 -115.5t47 -114.5t115 -46.5z" />
    <glyph glyph-name="seven" unicode="7" horiz-adv-x="498" 
d="M15 700h459v-54l-307 -646h-84l301 628h-369v72z" />
    <glyph glyph-name="eight" unicode="8" horiz-adv-x="532" 
d="M266 -9q-100 0 -165.5 57.5t-65.5 146.5q0 63 39.5 113.5t101.5 68.5q-50 17 -81.5 59.5t-31.5 92.5q0 78 57.5 128.5t145.5 50.5t145.5 -50.5t57.5 -128.5q0 -50 -31.5 -92.5t-81.5 -59.5q62 -18 101.5 -68.5t39.5 -113.5q0 -89 -65.5 -146.5t-165.5 -57.5zM266 412
q57 0 93.5 32t36.5 82t-36.5 82t-93.5 32t-93.5 -32t-36.5 -82t36.5 -82t93.5 -32zM266 61q68 0 112.5 39.5t44.5 99.5q0 59 -44.5 98t-112.5 39t-112.5 -39t-44.5 -98q0 -60 44.5 -99.5t112.5 -39.5z" />
    <glyph glyph-name="nine" unicode="9" horiz-adv-x="532" 
d="M264 710q98 0 167 -68t69 -164q0 -80 -59 -175l-189 -303h-86l175 274q-41 -25 -88 -25q-95 0 -160 66t-65 163q0 96 69 164t167 68zM265 314q67 0 114 47.5t47 115.5t-47 114.5t-115 46.5q-69 0 -116 -46.5t-47 -114.5t47.5 -115.5t116.5 -47.5z" />
    <glyph glyph-name="colon" unicode=":" horiz-adv-x="233" 
d="M116 329q-25 0 -41.5 16.5t-16.5 40.5q0 25 16.5 42t41.5 17t42 -17t17 -42q0 -24 -17 -40.5t-42 -16.5zM116 -10q-25 0 -41.5 16.5t-16.5 41.5q0 24 16.5 41t41.5 17t42 -17t17 -41q0 -25 -17 -41.5t-42 -16.5z" />
    <glyph glyph-name="semicolon" unicode=";" horiz-adv-x="264" 
d="M148 291q-25 0 -41.5 17t-16.5 41q0 25 16.5 41.5t41.5 16.5t41.5 -16.5t16.5 -41.5q0 -24 -16.5 -41t-41.5 -17zM183 99l-67 -202h-58l43 202h82z" />
    <glyph glyph-name="less" unicode="&#x3c;" horiz-adv-x="562" 
d="M491 129l-421 194v57l421 194v-75l-327 -147l327 -148v-75z" />
    <glyph glyph-name="equal" unicode="=" horiz-adv-x="576" 
d="M505 441v-68h-435v68h435zM505 257v-68h-435v68h435z" />
    <glyph glyph-name="greater" unicode="&#x3e;" horiz-adv-x="562" 
d="M70 129v75l327 148l-327 147v75l421 -194v-57z" />
    <glyph glyph-name="question" unicode="?" horiz-adv-x="492" 
d="M247 710q93 0 154.5 -56.5t61.5 -141.5q0 -50 -20 -89.5t-49 -65l-58 -49.5t-49.5 -55t-21.5 -68h-73q0 51 20 90.5t48 63.5l56.5 46.5t48.5 52.5t20 68q0 59 -39 95t-100 36q-68 0 -109.5 -42.5t-41.5 -109.5h-76q-1 97 64 161t164 64zM232 -10q-25 0 -42 16.5t-17 41.5
q0 24 17 41t42 17t41.5 -17t16.5 -41q0 -25 -16.5 -41.5t-41.5 -16.5z" />
    <glyph glyph-name="at" unicode="@" horiz-adv-x="927" 
d="M458 641q193 0 306 -97.5t113 -264.5q0 -115 -41.5 -178.5t-112.5 -63.5q-93 0 -117 81q-53 -88 -159 -88q-85 0 -143.5 62t-58.5 151q0 90 58.5 151.5t143.5 61.5q102 0 151 -88v80h61v-261q0 -49 16 -71.5t50 -22.5q42 0 67 49t25 137q0 141 -97 223.5t-262 82.5
q-150 0 -249 -98.5t-99 -248.5q0 -146 96 -242t241 -96q59 0 110 18t72 46h80q-32 -54 -104 -86.5t-158 -32.5q-170 0 -283.5 112t-113.5 281q0 174 116.5 288.5t291.5 114.5zM453 89q65 0 105 42.5t40 111.5q0 70 -40 112t-105 42q-62 0 -105.5 -44.5t-43.5 -109.5
q0 -64 43.5 -109t105.5 -45z" />
    <glyph glyph-name="A" unicode="A" horiz-adv-x="655" 
d="M560 0l-68 171h-331l-68 -171h-80l280 700h68l281 -700h-82zM190 243h274l-137 346z" />
    <glyph glyph-name="B" unicode="B" horiz-adv-x="591" 
d="M79 0v700h243q82 0 140 -51.5t58 -123.5q0 -56 -34 -100.5t-85 -54.5q66 -7 111 -57.5t45 -119.5q0 -81 -59.5 -137t-145.5 -56h-273zM154 395h166q52 0 88 35t36 85q0 47 -36.5 80t-87.5 33h-166v-233zM154 72h194q57 0 94.5 37.5t37.5 92.5t-38 92.5t-93 37.5h-195
v-260z" />
    <glyph glyph-name="C" unicode="C" horiz-adv-x="763" 
d="M397 -10q-147 0 -247.5 104.5t-100.5 257.5q0 151 100.5 254.5t247.5 103.5q116 0 205.5 -66.5t109.5 -170.5h-83q-20 73 -84.5 118.5t-147.5 45.5q-114 0 -192 -82t-78 -203q0 -122 78 -205.5t192 -83.5q85 0 149.5 48t83.5 125h84q-22 -109 -110.5 -177.5t-206.5 -68.5
z" />
    <glyph glyph-name="D" unicode="D" horiz-adv-x="689" 
d="M296 700q146 0 245 -98.5t99 -248.5t-99 -251.5t-245 -101.5h-217v700h217zM300 72q113 0 187.5 80t74.5 201q0 120 -74 197.5t-188 77.5h-146v-556h146z" />
    <glyph glyph-name="E" unicode="E" horiz-adv-x="526" 
d="M79 700h391v-72h-316v-218h282v-72h-282v-266h316v-72h-391v700z" />
    <glyph glyph-name="F" unicode="F" horiz-adv-x="508" 
d="M79 700h391v-72h-316v-226h282v-72h-282v-330h-75v700z" />
    <glyph glyph-name="G" unicode="G" horiz-adv-x="780" 
d="M728 372q3 -19 3 -48q0 -144 -95.5 -239t-236.5 -95q-148 0 -249 104.5t-101 257.5q0 151 101 254.5t249 103.5q107 0 198.5 -63t117.5 -152h-85q-23 61 -89.5 101.5t-141.5 40.5q-115 0 -193.5 -82t-78.5 -203q0 -122 79 -205.5t197 -83.5q102 0 173.5 66.5t79.5 168.5
h-241v74h313z" />
    <glyph glyph-name="H" unicode="H" horiz-adv-x="702" 
d="M548 700h76v-700h-76v328h-394v-328h-75v700h75v-300h394v300z" />
    <glyph glyph-name="I" unicode="I" horiz-adv-x="233" 
d="M79 700h75v-700h-75v700z" />
    <glyph glyph-name="J" unicode="J" horiz-adv-x="302" 
d="M23 63q5 -1 18 -1q112 0 112 144v494h76v-511q0 -95 -44.5 -146.5t-124.5 -51.5q-25 0 -37 2v70z" />
    <glyph glyph-name="K" unicode="K" horiz-adv-x="612" 
d="M592 0h-101l-337 351v-351h-75v700h75v-318l310 318h98l-328 -333z" />
    <glyph glyph-name="L" unicode="L" horiz-adv-x="545" 
d="M79 700h75v-628h354v-72h-429v700z" />
    <glyph glyph-name="M" unicode="M" horiz-adv-x="861" 
d="M79 0v700h89l266 -589l271 589h77v-700h-76v548l-248 -548h-57l-247 548v-548h-75z" />
    <glyph glyph-name="N" unicode="N" horiz-adv-x="697" 
d="M79 700h71l392 -562v562h76v-700h-70l-394 561v-561h-75v700z" />
    <glyph glyph-name="O" unicode="O" horiz-adv-x="804" 
d="M402 710q149 0 251 -103.5t102 -254.5q0 -153 -102 -257.5t-251 -104.5t-251 104.5t-102 257.5q0 151 102 254.5t251 103.5zM402 637q-116 0 -195.5 -82t-79.5 -203q0 -122 79.5 -205.5t195.5 -83.5t195.5 83.5t79.5 205.5q0 121 -79.5 203t-195.5 82z" />
    <glyph glyph-name="P" unicode="P" horiz-adv-x="591" 
d="M348 700q88 0 147.5 -57.5t59.5 -143.5t-59.5 -144t-147.5 -58h-194v-297h-75v700h269zM348 369q55 0 93 37.5t38 92.5t-37.5 92t-93.5 37h-194v-259h194z" />
    <glyph glyph-name="Q" unicode="Q" horiz-adv-x="811" 
d="M755 352q0 -149 -96 -251l82 -101h-88l-45 56q-91 -66 -206 -66q-149 0 -251 104.5t-102 257.5q0 151 102 254.5t251 103.5t251 -103.5t102 -254.5zM402 63q87 0 159 51l-171 210h87l133 -163q67 80 67 191q0 121 -79.5 203t-195.5 82t-195.5 -82t-79.5 -203
q0 -122 79.5 -205.5t195.5 -83.5z" />
    <glyph glyph-name="R" unicode="R" horiz-adv-x="610" 
d="M579 0h-91l-196 300h-138v-300h-75v700h253q87 0 147 -57t60 -141q0 -79 -44.5 -132.5t-119.5 -66.5zM154 628v-256h176q58 0 95.5 37t37.5 93q0 55 -37.5 90.5t-95.5 35.5h-176z" />
    <glyph glyph-name="S" unicode="S" horiz-adv-x="595" 
d="M304 -10q-109 0 -180.5 64.5t-71.5 162.5h74q0 -69 50 -112.5t128 -43.5q73 0 121 36t48 92q0 47 -30.5 77t-76 42.5l-98.5 27.5t-98.5 31.5t-76 56.5t-30.5 100q0 81 65 133.5t165 52.5q107 0 170 -57.5t63 -145.5h-77q-2 58 -46 94.5t-112 36.5t-111 -31.5t-43 -82.5
q0 -33 17.5 -56t46.5 -35t66 -23t75.5 -19t75.5 -23.5t66 -35.5t46.5 -57t17.5 -86q0 -86 -69.5 -142.5t-174.5 -56.5z" />
    <glyph glyph-name="T" unicode="T" horiz-adv-x="593" 
d="M564 700v-72h-230v-628h-75v628h-230v72h535z" />
    <glyph glyph-name="U" unicode="U" horiz-adv-x="691" 
d="M345 -10q-115 0 -190.5 77.5t-75.5 194.5v438h75v-438q0 -86 54.5 -142.5t136.5 -56.5t136.5 56.5t54.5 142.5v438h76v-438q0 -117 -76 -194.5t-191 -77.5z" />
    <glyph glyph-name="V" unicode="V" horiz-adv-x="632" 
d="M17 700h81l218 -585l218 585h80l-265 -700h-66z" />
    <glyph glyph-name="W" unicode="W" horiz-adv-x="1017" 
d="M920 700h80l-235 -700h-66l-189 582l-190 -582h-66l-237 700h81l190 -582l190 582h67l187 -583z" />
    <glyph glyph-name="X" unicode="X" horiz-adv-x="606" 
d="M588 0h-89l-197 296l-197 -296h-88l241 362l-225 338h90l180 -271l180 271h88l-224 -337z" />
    <glyph glyph-name="Y" unicode="Y" horiz-adv-x="620" 
d="M17 700h92l204 -310l201 310h89l-253 -386v-314h-76v314z" />
    <glyph glyph-name="Z" unicode="Z" horiz-adv-x="581" 
d="M52 700h491v-54l-415 -574h419v-72h-518v55l417 573h-394v72z" />
    <glyph glyph-name="bracketleft" unicode="[" horiz-adv-x="314" 
d="M138 714v-833h146v-60h-214v954h214v-61h-146z" />
    <glyph glyph-name="backslash" unicode="\" horiz-adv-x="396" 
d="M383 0h-78l-308 700h78z" />
    <glyph glyph-name="bracketright" unicode="]" horiz-adv-x="317" 
d="M179 714h-147v61h214v-954h-214v60h147v833z" />
    <glyph glyph-name="asciicircum" unicode="^" horiz-adv-x="545" 
d="M495 289h-75l-148 327l-147 -327h-75l194 421h57z" />
    <glyph glyph-name="underscore" unicode="_" horiz-adv-x="515" 
d="M20 -78v68h475v-68h-475z" />
    <glyph glyph-name="grave" unicode="`" horiz-adv-x="272" 
d="M50 686h90l82 -141h-69z" />
    <glyph glyph-name="a" unicode="a" horiz-adv-x="623" 
d="M480 486h73v-486h-73v113q-27 -58 -78 -90.5t-120 -32.5q-100 0 -170.5 74t-70.5 180t70 179t171 73q69 0 120.5 -32t77.5 -90v112zM296 59q80 0 132 52.5t52 132.5t-52 132t-132 52q-77 0 -130 -53.5t-53 -130.5q0 -78 53 -131.5t130 -53.5z" />
    <glyph glyph-name="b" unicode="b" horiz-adv-x="623" 
d="M341 496q101 0 171 -73t70 -179t-70.5 -180t-170.5 -74q-69 0 -120 32.5t-78 90.5v-113h-73v700h73v-326q26 58 77.5 90t120.5 32zM327 59q77 0 130 53.5t53 131.5q0 77 -53 130.5t-130 53.5q-79 0 -131.5 -52t-52.5 -132t52 -132.5t132 -52.5z" />
    <glyph glyph-name="c" unicode="c" horiz-adv-x="559" 
d="M292 -10q-106 0 -178.5 73t-72.5 180t72.5 180t178.5 73q83 0 147.5 -48t77.5 -121h-74q-12 44 -54.5 72t-96.5 28q-76 0 -127.5 -53t-51.5 -131q0 -77 51.5 -130.5t127.5 -53.5q54 0 97.5 29.5t53.5 75.5h74q-11 -76 -75.5 -125t-149.5 -49z" />
    <glyph glyph-name="d" unicode="d" horiz-adv-x="623" 
d="M480 700h73v-700h-73v113q-27 -58 -78 -90.5t-120 -32.5q-100 0 -170.5 74t-70.5 180t70 179t171 73q69 0 120.5 -32t77.5 -90v326zM296 59q80 0 132 52.5t52 132.5t-52 132t-132 52q-77 0 -130 -53.5t-53 -130.5q0 -78 53 -131.5t130 -53.5z" />
    <glyph glyph-name="e" unicode="e" horiz-adv-x="563" 
d="M521 258q0 -22 -1 -28h-407q5 -78 53.5 -126t124.5 -48q58 0 100.5 26.5t52.5 71.5h73q-14 -74 -77.5 -119t-150.5 -45q-106 0 -177 73.5t-71 182.5q0 105 71.5 177.5t175.5 72.5q99 0 166 -67.5t67 -170.5zM116 292h327q-5 60 -49 99t-109 39q-64 0 -110 -37.5
t-59 -100.5z" />
    <glyph glyph-name="f" unicode="f" horiz-adv-x="352" 
d="M294 644q-102 0 -102 -100v-58h137v-68h-137v-418h-73v418h-96v68h96v59q0 83 43 125t119 42q25 0 48 -5v-67q-15 4 -35 4z" />
    <glyph glyph-name="g" unicode="g" horiz-adv-x="623" 
d="M480 487h73v-472q0 -100 -68 -161t-174 -61q-90 0 -160 44.5t-73 127.5h71q1 -50 47 -80t113 -30q74 0 122.5 43.5t48.5 113.5v107q-27 -58 -78 -89.5t-120 -31.5q-100 0 -170.5 73t-70.5 177q0 103 70 175.5t171 72.5q69 0 120 -31.5t78 -88.5v111zM296 66
q80 0 132 51.5t52 130.5q0 78 -52.5 129.5t-131.5 51.5q-77 0 -130 -52.5t-53 -128.5q0 -77 53 -129.5t130 -52.5z" />
    <glyph glyph-name="h" unicode="h" horiz-adv-x="584" 
d="M309 496q95 0 150 -58t55 -158v-280h-73v273q0 70 -40 112t-107 42q-68 0 -109.5 -42t-41.5 -112v-273h-73v700h73v-309q23 50 66 77.5t100 27.5z" />
    <glyph glyph-name="i" unicode="i" horiz-adv-x="213" 
d="M107 698q21 0 37 -15.5t16 -36.5q0 -22 -16 -37.5t-37 -15.5q-22 0 -37 15.5t-15 37.5q0 21 15 36.5t37 15.5zM70 486h73v-486h-73v486z" />
    <glyph glyph-name="j" unicode="j" horiz-adv-x="213" 
d="M106 698q21 0 37 -15.5t16 -36.5q0 -22 -16 -37.5t-37 -15.5q-22 0 -37 15.5t-15 37.5q0 21 15 36.5t37 15.5zM-8 -134q1 0 5 -0.5t7 -0.5q66 0 66 100v521h73v-527q0 -161 -132 -161q-12 0 -19 1v67z" />
    <glyph glyph-name="k" unicode="k" horiz-adv-x="503" 
d="M486 0h-97l-246 238v-238h-73v700h73v-431l235 217h92l-253 -232z" />
    <glyph glyph-name="l" unicode="l" horiz-adv-x="213" 
d="M143 700v-700h-73v700h73z" />
    <glyph glyph-name="m" unicode="m" horiz-adv-x="905" 
d="M637 496q91 0 144.5 -55t53.5 -150v-291h-73v278q0 70 -36 109.5t-100 39.5q-56 0 -96.5 -37t-40.5 -112v-278h-73v278q0 70 -36 109.5t-100 39.5q-55 0 -96 -36.5t-41 -112.5v-278h-73v486h73v-84q24 48 67 71t92 23q125 0 167 -105q20 50 66 77.5t102 27.5z" />
    <glyph glyph-name="n" unicode="n" horiz-adv-x="584" 
d="M309 496q95 0 150 -58t55 -158v-280h-73v273q0 70 -40 112t-107 42q-68 0 -109.5 -42t-41.5 -112v-273h-73v486h73v-95q23 50 66 77.5t100 27.5z" />
    <glyph glyph-name="o" unicode="o" horiz-adv-x="585" 
d="M292 496q106 0 179 -73t73 -180t-73 -180t-179 -73t-178.5 73t-72.5 180t72.5 180t178.5 73zM292 427q-76 0 -127.5 -53t-51.5 -131q0 -77 51.5 -130.5t127.5 -53.5t128 53.5t52 130.5q0 78 -52 131t-128 53z" />
    <glyph glyph-name="p" unicode="p" horiz-adv-x="623" 
d="M341 496q101 0 171 -73.5t70 -179.5t-70 -179.5t-171 -73.5q-69 0 -120 32.5t-78 90.5v-296h-73v669h73v-112q26 58 77.5 90t120.5 32zM327 59q77 0 130 53.5t53 130.5t-53 131t-130 54q-80 0 -132 -52.5t-52 -132.5q0 -79 52.5 -131.5t131.5 -52.5z" />
    <glyph glyph-name="q" unicode="q" horiz-adv-x="623" 
d="M480 486h73v-669h-73v296q-27 -58 -78 -90.5t-120 -32.5q-101 0 -171 73.5t-70 179.5t70 179.5t171 73.5q69 0 120.5 -32t77.5 -90v112zM296 59q80 0 132 52.5t52 131.5q0 80 -52 132.5t-132 52.5q-77 0 -130 -54t-53 -131t53 -130.5t130 -53.5z" />
    <glyph glyph-name="r" unicode="r" horiz-adv-x="350" 
d="M280 496q19 0 45 -6v-68q-22 8 -47 8q-57 0 -96 -40t-39 -102v-288h-73v486h73v-78q22 41 57.5 64.5t79.5 23.5z" />
    <glyph glyph-name="s" unicode="s" horiz-adv-x="454" 
d="M230 -10q-82 0 -136 41.5t-61 112.5h70q5 -41 39 -66t85 -25t82 23t31 60t-30.5 57t-74 27.5t-86.5 18t-73.5 40t-30.5 81.5q0 60 47.5 98t125.5 38q72 0 124 -37.5t60 -101.5h-74q-5 34 -36 56t-76 22q-44 0 -72 -19.5t-28 -50.5q0 -36 30.5 -54t74 -25.5t86.5 -18
t73.5 -42t30.5 -87.5q0 -64 -51.5 -106t-129.5 -42z" />
    <glyph glyph-name="t" unicode="t" horiz-adv-x="352" 
d="M320 418h-136v-254q0 -101 102 -101q21 0 34 4v-67q-22 -5 -47 -5q-76 0 -119 42.5t-43 125.5v255h-96v68h96v134h73v-134h136v-68z" />
    <glyph glyph-name="u" unicode="u" horiz-adv-x="584" 
d="M441 486h73v-486h-73v94q-50 -104 -166 -104q-94 0 -149.5 58.5t-55.5 157.5v280h73v-272q0 -70 40 -112.5t107 -42.5q69 0 110 42t41 113v272z" />
    <glyph glyph-name="v" unicode="v" horiz-adv-x="513" 
d="M496 486l-207 -486h-64l-208 486h79l161 -394l159 394h80z" />
    <glyph glyph-name="w" unicode="w" horiz-adv-x="786" 
d="M195 0l-178 486h78l130 -382l137 382h60l138 -382l130 382h78l-178 -486h-60l-138 382l-138 -382h-59z" />
    <glyph glyph-name="x" unicode="x" horiz-adv-x="495" 
d="M473 0h-87l-139 191l-139 -191h-86l182 251l-171 235h87l128 -176l127 176h86l-170 -235z" />
    <glyph glyph-name="y" unicode="y" horiz-adv-x="511" 
d="M415 486h78l-281 -670h-78l84 193l-201 477h79l159 -392z" />
    <glyph glyph-name="z" unicode="z" horiz-adv-x="500" 
d="M456 486v-54l-324 -364l325 1v-69h-425v55l325 364l-304 -1v68h403z" />
    <glyph glyph-name="braceleft" unicode="{" horiz-adv-x="376" 
d="M284 -179q-75 0 -120.5 46.5t-45.5 126.5v171q0 36 -27 66.5t-71 42.5v47q44 12 71 43t27 67v170q0 79 45.5 126t120.5 48h64v-61h-64q-44 0 -72.5 -30.5t-28.5 -82.5v-165q0 -44 -23 -81.5t-60 -56.5q37 -21 60 -58t23 -80v-166q0 -51 28.5 -82t72.5 -31h64v-60h-64z
" />
    <glyph glyph-name="bar" unicode="|" horiz-adv-x="216" 
d="M70 800h76v-984h-76v984z" />
    <glyph glyph-name="braceright" unicode="}" horiz-adv-x="376" 
d="M92 -179h-64v60h64q44 0 72.5 31t28.5 82v166q0 43 22.5 80t59.5 58q-37 19 -59.5 56.5t-22.5 81.5v165q0 52 -28.5 82.5t-72.5 30.5h-64v61h64q75 -1 120.5 -48t45.5 -126v-170q0 -36 27 -67t71 -43v-47q-44 -12 -71 -42.5t-27 -66.5v-171q0 -80 -45.5 -126.5
t-120.5 -46.5z" />
    <glyph glyph-name="asciitilde" unicode="~" horiz-adv-x="571" 
d="M133 247l-63 8q7 61 39 96.5t78 35.5q37 0 102.5 -35t88.5 -35q49 0 59 76l64 -8q-8 -61 -40 -97t-78 -36q-35 0 -100 35t-90 35q-50 0 -60 -75z" />
    <glyph glyph-name="uni00A0" unicode="&#xa0;" horiz-adv-x="241" 
 />
    <glyph glyph-name="exclamdown" unicode="&#xa1;" horiz-adv-x="233" 
d="M116 710q25 0 42 -16.5t17 -41.5q0 -24 -17 -41t-42 -17t-41.5 17t-16.5 41q0 25 16.5 41.5t41.5 16.5zM76 0l4 514h73l3 -514h-80z" />
    <glyph glyph-name="cent" unicode="&#xa2;" horiz-adv-x="559" 
d="M292 59q54 0 97.5 29.5t53.5 75.5h74q-10 -69 -64.5 -116t-129.5 -56v-112h-73v113q-91 15 -150 85t-59 165t59 165t150 85v114h73v-113q73 -9 127.5 -55.5t66.5 -111.5h-74q-12 44 -54.5 72t-96.5 28q-76 0 -127.5 -53t-51.5 -131q0 -77 51.5 -130.5t127.5 -53.5z" />
    <glyph glyph-name="sterling" unicode="&#xa3;" horiz-adv-x="598" 
d="M166 72h391v-72h-478v72q88 58 88 168v83h-82v63h82v118q0 91 54.5 148.5t141.5 57.5q77 0 130.5 -42.5t60.5 -111.5h-77q-4 35 -35.5 58t-77.5 23q-55 0 -88 -40t-33 -104v-107h197v-63h-197v-82q0 -110 -77 -169z" />
    <glyph glyph-name="currency" unicode="&#xa4;" horiz-adv-x="767" 
d="M649 350q0 -89 -54 -156l102 -102l-54 -53l-102 101q-69 -54 -155 -54q-89 0 -160 55l-102 -102l-54 53l103 103q-54 68 -54 155q0 90 55 158l-104 103l54 53l103 -103q68 55 159 55q88 0 155 -54l102 102l54 -53l-102 -102q54 -68 54 -159zM386 156q80 0 136.5 56.5
t56.5 137.5q0 82 -56.5 139t-136.5 57q-81 0 -139 -57.5t-58 -138.5q0 -80 58 -137t139 -57z" />
    <glyph glyph-name="yen" unicode="&#xa5;" horiz-adv-x="620" 
d="M603 700l-219 -334h155v-63h-189v-303h-76v303h-192v63h157l-222 334h92l204 -310l201 310h89z" />
    <glyph glyph-name="brokenbar" unicode="&#xa6;" horiz-adv-x="216" 
d="M70 436v364h76v-364h-76zM70 -184v364h76v-364h-76z" />
    <glyph glyph-name="section" unicode="&#xa7;" horiz-adv-x="635" 
d="M557 217q0 -60 -41 -109q41 -44 41 -115q0 -79 -66.5 -133.5t-168.5 -54.5q-106 0 -174.5 60.5t-68.5 154.5h64q0 -68 50.5 -110.5t128.5 -42.5q73 0 121 35.5t48 90.5q0 40 -22 67t-57.5 41t-78.5 24.5t-85.5 22.5t-78 29.5t-57.5 52t-22 83.5q0 64 47 111
q-47 42 -47 113q0 76 62.5 125.5t158.5 49.5q102 0 163.5 -54t61.5 -136h-67q-2 57 -46 92.5t-113 35.5q-68 0 -111.5 -31.5t-43.5 -80.5q0 -36 22 -60.5t57.5 -37t78.5 -22t86 -22.5t78.5 -32t57.5 -56.5t22 -90.5zM155 313q0 -43 32.5 -69.5t74.5 -36.5l103 -25.5
t97 -33.5q29 29 29 69q0 37 -18.5 63t-52 40.5t-68 23.5l-81 21t-75.5 24q-41 -28 -41 -76z" />
    <glyph glyph-name="dieresis" unicode="&#xa8;" horiz-adv-x="361" 
d="M103 698q21 0 37 -15.5t16 -36.5q0 -22 -16 -37.5t-37 -15.5q-22 0 -37.5 15.5t-15.5 37.5q0 21 15.5 36.5t37.5 15.5zM258 698q21 0 37 -15.5t16 -36.5q0 -22 -16 -37.5t-37 -15.5q-22 0 -37.5 15.5t-15.5 37.5q0 21 15.5 36.5t37.5 15.5z" />
    <glyph glyph-name="copyright" unicode="&#xa9;" horiz-adv-x="818" 
d="M408 -10q-148 0 -253.5 106t-105.5 254t105.5 254t253.5 106q149 0 255 -105.5t106 -254.5t-106 -254.5t-255 -105.5zM409 26q133 0 227.5 95t94.5 229t-94.5 229t-227.5 95t-227.5 -95t-94.5 -229t94.5 -229t227.5 -95zM412 141q-86 0 -144.5 61t-58.5 150
q0 88 58.5 148t144.5 60q68 0 120 -39t64 -99h-53q-11 41 -47.5 67t-83.5 26q-65 0 -110 -47.5t-45 -115.5q0 -70 45 -117.5t110 -47.5q47 0 84.5 27.5t47.5 70.5h53q-13 -64 -64.5 -104t-120.5 -40z" />
    <glyph glyph-name="ordfeminine" unicode="&#xaa;" horiz-adv-x="372" 
d="M283 703h49v-292h-49v64q-33 -70 -115 -70q-60 0 -102 44.5t-42 107.5q0 64 42 108t102 44q82 0 115 -70v64zM178 452q45 0 75 30t30 75q0 46 -30 76t-75 30t-76 -31t-31 -75t31 -74.5t76 -30.5z" />
    <glyph glyph-name="guillemotleft" unicode="&#xab;" horiz-adv-x="643" 
d="M320 35l-273 207v51l273 207v-77l-206 -156l206 -154v-78zM586 35l-274 207v51l274 207v-77l-207 -156l207 -154v-78z" />
    <glyph glyph-name="logicalnot" unicode="&#xac;" horiz-adv-x="582" 
d="M512 348v-275h-70v207h-372v68h442z" />
    <glyph glyph-name="uni00AD" unicode="&#xad;" horiz-adv-x="315" 
d="M25 224v67h265v-67h-265z" />
    <glyph glyph-name="registered" unicode="&#xae;" horiz-adv-x="796" 
d="M408 710q149 0 255 -105.5t106 -254.5t-106 -254.5t-255 -105.5q-148 0 -253.5 106t-105.5 254t105.5 254t253.5 106zM409 26q133 0 227.5 95t94.5 229t-94.5 229t-227.5 95t-227.5 -95t-94.5 -229t94.5 -229t227.5 -95zM550 438q0 -45 -25.5 -76t-68.5 -39l118 -176h-57
l-113 174h-76v-174h-48v408h148q51 0 86.5 -34t35.5 -83zM327 509l1 -147h96q34 0 56 21t22 53t-22 52.5t-56 20.5h-97z" />
    <glyph glyph-name="macron" unicode="&#xaf;" horiz-adv-x="420" 
d="M50 558v60h320v-60h-320z" />
    <glyph glyph-name="degree" unicode="&#xb0;" horiz-adv-x="399" 
d="M340 569q0 -59 -42 -101.5t-100 -42.5t-100 42.5t-42 101.5q0 58 42 99.5t100 41.5t100 -41.5t42 -99.5zM291 569q0 38 -27.5 65t-65.5 27t-66 -27t-28 -65q0 -39 28 -66.5t66 -27.5t65.5 27.5t27.5 66.5z" />
    <glyph glyph-name="plusminus" unicode="&#xb1;" horiz-adv-x="576" 
d="M321 398h184v-68h-184v-184h-68v184h-183v68h183v183h68v-183zM70 0v68h435v-68h-435z" />
    <glyph glyph-name="uni00B2" unicode="&#xb2;" horiz-adv-x="331" 
d="M27 280v38l158 157q63 65 63 107q0 32 -23 53.5t-58 21.5q-41 0 -66 -25t-24 -68h-51q-1 64 39 103t103 39q57 0 94.5 -34.5t37.5 -88.5q0 -65 -79 -139l-114 -115h198v-49h-278z" />
    <glyph glyph-name="uni00B3" unicode="&#xb3;" horiz-adv-x="323" 
d="M107 522l117 130h-200v48h272v-35l-126 -137q54 6 91.5 -28.5t37.5 -87.5q0 -60 -40.5 -99t-103.5 -39q-58 0 -97.5 31.5t-44.5 81.5h51q5 -28 30 -46t61 -18q40 0 65.5 25.5t25.5 64.5q0 47 -41 68t-98 6v35z" />
    <glyph glyph-name="acute" unicode="&#xb4;" horiz-adv-x="272" 
d="M222 686l-103 -141h-69l81 141h91z" />
    <glyph glyph-name="uni00B5" unicode="&#xb5;" horiz-adv-x="584" 
d="M441 486h73v-486h-73v94q-50 -104 -166 -104q-80 0 -132 43v-217h-73v670h73v-272q0 -70 40 -112.5t107 -42.5q69 0 110 42t41 113v272z" />
    <glyph glyph-name="paragraph" unicode="&#xb6;" horiz-adv-x="673" 
d="M644 700v-72h-81v-812h-73v812h-97v-812h-73v481h-75q-88 0 -148 58.5t-60 144.5q0 84 59.5 142t147.5 58h400zM320 369v259h-78q-54 0 -91.5 -37.5t-37.5 -90.5q0 -55 37.5 -93t91.5 -38h78z" />
    <glyph glyph-name="periodcentered" unicode="&#xb7;" horiz-adv-x="233" 
d="M116 211q-25 0 -41.5 16.5t-16.5 41.5q0 24 16.5 41t41.5 17t42 -17t17 -41q0 -25 -17 -41.5t-42 -16.5z" />
    <glyph glyph-name="cedilla" unicode="&#xb8;" horiz-adv-x="258" 
d="M82 16h58q60 -53 67 -108.5t-32.5 -89t-106.5 -32.5l-18 54q89 7 98 59.5t-66 116.5z" />
    <glyph glyph-name="uni00B9" unicode="&#xb9;" horiz-adv-x="219" 
d="M174 700v-420h-50v350l-97 -81v62l111 89h36z" />
    <glyph glyph-name="ordmasculine" unicode="&#xba;" horiz-adv-x="350" 
d="M175 709q63 0 107 -44t44 -108t-44 -108t-107 -44q-64 0 -107.5 44t-43.5 108t43.5 108t107.5 44zM175 663q-43 0 -73 -31t-30 -75t30 -74.5t73 -30.5t73 30.5t30 74.5q0 45 -30 75.5t-73 30.5z" />
    <glyph glyph-name="guillemotright" unicode="&#xbb;" horiz-adv-x="643" 
d="M57 35v78l207 154l-207 156v77l274 -207v-51zM323 35v78l206 154l-206 156v77l273 -207v-51z" />
    <glyph glyph-name="onequarter" unicode="&#xbc;" horiz-adv-x="794" 
d="M124 280v350l-97 -81v62l111 89h36v-420h-50zM580 700h61l-465 -700h-61zM777 141v-48h-56v-93h-50v93h-212v35l154 292h57l-148 -279h149v137h50v-137h56z" />
    <glyph glyph-name="onehalf" unicode="&#xbd;" horiz-adv-x="794" 
d="M174 700v-420h-50v350l-97 -81v62l111 89h36zM580 700h61l-465 -700h-61zM522 0v38l158 157q63 65 63 107q0 32 -23 53.5t-58 21.5q-41 0 -66 -25.5t-24 -67.5h-50q-2 64 38 103t103 39q57 0 94.5 -34.5t37.5 -88.5q0 -65 -79 -139l-114 -115h198v-49h-278z" />
    <glyph glyph-name="threequarters" unicode="&#xbe;" horiz-adv-x="857" 
d="M299 412q0 -60 -40.5 -99t-103.5 -39q-58 0 -97.5 31.5t-44.5 81.5h51q5 -28 30 -46t61 -18q40 0 65.5 25.5t25.5 64.5q0 47 -41 68t-98 6v35l117 130h-200v48h272v-35l-126 -137q54 6 91.5 -28.5t37.5 -87.5zM644 700h60l-465 -700h-60zM841 141v-48h-56v-93h-51v93
h-212v35l154 292h57l-147 -279h148v137h51v-137h56z" />
    <glyph glyph-name="questiondown" unicode="&#xbf;" horiz-adv-x="489" 
d="M258 710q25 0 41.5 -16.5t16.5 -41.5q0 -24 -16.5 -41t-41.5 -17t-42 17t-17 41q0 25 17 41.5t42 16.5zM242 -10q-92 0 -153.5 56.5t-61.5 141.5q0 50 20 89.5t49 65l57.5 49.5t49 55t21.5 68h74q0 -51 -20 -90t-48.5 -63.5l-57 -47t-48.5 -52.5t-20 -68q0 -59 39 -95
t100 -36q68 0 109.5 42.5t42.5 109.5h75q1 -97 -64 -161t-164 -64z" />
    <glyph glyph-name="Agrave" unicode="&#xc0;" horiz-adv-x="655" 
d="M369 759h-69l-103 141h91zM560 0l-68 171h-331l-68 -171h-80l280 700h68l281 -700h-82zM190 243h274l-137 346z" />
    <glyph glyph-name="Aacute" unicode="&#xc1;" horiz-adv-x="655" 
d="M457 900l-103 -141h-68l81 141h90zM560 0l-68 171h-331l-68 -171h-80l280 700h68l281 -700h-82zM190 243h274l-137 346z" />
    <glyph glyph-name="Acircumflex" unicode="&#xc2;" horiz-adv-x="655" 
d="M328 858l-66 -92h-65l90 141h82l90 -141h-65zM560 0l-68 171h-331l-68 -171h-80l280 700h68l281 -700h-82zM190 243h274l-137 346z" />
    <glyph glyph-name="Atilde" unicode="&#xc3;" horiz-adv-x="655" 
d="M259 824q-19 0 -31 -16t-11 -41l-61 10q4 49 32 79.5t67 30.5q32 0 78.5 -29t61.5 -29q20 0 32.5 15.5t12.5 40.5l60 -9q-4 -49 -32 -79.5t-67 -30.5q-33 0 -79 29t-63 29zM560 0l-68 171h-331l-68 -171h-80l280 700h68l281 -700h-82zM190 243h274l-137 346z" />
    <glyph glyph-name="Adieresis" unicode="&#xc4;" horiz-adv-x="655" 
d="M250 770q-21 0 -36.5 15t-15.5 37q0 21 15.5 36.5t36.5 15.5t37 -15.5t16 -36.5t-16 -36.5t-37 -15.5zM406 770q-22 0 -37.5 15t-15.5 37q0 21 15.5 36.5t37.5 15.5q20 0 36 -15.5t16 -36.5t-15.5 -36.5t-36.5 -15.5zM560 0l-68 171h-331l-68 -171h-80l280 700h68
l281 -700h-82zM190 243h274l-137 346z" />
    <glyph glyph-name="Aring" unicode="&#xc5;" horiz-adv-x="655" 
d="M329 757q-52 0 -86 32.5t-34 81.5q0 50 34 82.5t86 32.5q51 0 85.5 -33t34.5 -82t-34.5 -81.5t-85.5 -32.5zM329 940q-31 0 -51 -20t-20 -49t20 -48.5t51 -19.5t51 19.5t20 48.5t-20 49t-51 20zM560 0l-68 171h-331l-68 -171h-80l280 700h68l281 -700h-82zM190 243h274
l-137 346z" />
    <glyph glyph-name="AE" unicode="&#xc6;" horiz-adv-x="922" 
d="M866 628h-313v-218h279v-72h-279v-266h313v-72h-389v184h-267l-111 -184h-86l428 700h425v-72zM251 252h226v377z" />
    <glyph glyph-name="Ccedilla" unicode="&#xc7;" horiz-adv-x="763" 
d="M714 236q-21 -101 -99 -168t-185 -77q66 -77 32.5 -142t-129.5 -63l-18 54q80 6 96 50t-38 101q-139 9 -231.5 112t-92.5 249q0 151 100.5 254.5t247.5 103.5q116 0 205.5 -66.5t109.5 -170.5h-83q-20 73 -84.5 118.5t-147.5 45.5q-114 0 -192 -82t-78 -203
q0 -122 78 -205.5t192 -83.5q85 0 149.5 48t83.5 125h84z" />
    <glyph glyph-name="Egrave" unicode="&#xc8;" horiz-adv-x="526" 
d="M145 900h91l81 -141h-69zM79 700h391v-72h-316v-218h282v-72h-282v-266h316v-72h-391v700z" />
    <glyph glyph-name="Eacute" unicode="&#xc9;" horiz-adv-x="526" 
d="M405 900l-103 -141h-68l81 141h90zM79 700h391v-72h-316v-218h282v-72h-282v-266h316v-72h-391v700z" />
    <glyph glyph-name="Ecircumflex" unicode="&#xca;" horiz-adv-x="526" 
d="M276 858l-66 -92h-65l90 141h82l90 -141h-65zM470 628h-316v-218h282v-72h-282v-266h316v-72h-391v700h391v-72z" />
    <glyph glyph-name="Edieresis" unicode="&#xcb;" horiz-adv-x="526" 
d="M198 874q21 0 37 -15.5t16 -36.5t-16 -36.5t-37 -15.5t-36.5 15t-15.5 37q0 21 15.5 36.5t36.5 15.5zM354 874q20 0 36 -15.5t16 -36.5t-15.5 -36.5t-36.5 -15.5q-22 0 -37.5 15t-15.5 37q0 21 15.5 36.5t37.5 15.5zM79 700h391v-72h-316v-218h282v-72h-282v-266h316v-72
h-391v700z" />
    <glyph glyph-name="Igrave" unicode="&#xcc;" horiz-adv-x="233" 
d="M-15 900h91l81 -141h-69zM79 700h75v-700h-75v700z" />
    <glyph glyph-name="Iacute" unicode="&#xcd;" horiz-adv-x="233" 
d="M245 900l-103 -141h-68l81 141h90zM79 700h75v-700h-75v700z" />
    <glyph glyph-name="Icircumflex" unicode="&#xce;" horiz-adv-x="233" 
d="M157 907l90 -141h-65l-66 92l-66 -92h-66l91 141h82zM79 0v700h75v-700h-75z" />
    <glyph glyph-name="Idieresis" unicode="&#xcf;" horiz-adv-x="233" 
d="M38 874q21 0 37 -15.5t16 -36.5t-16 -36.5t-37 -15.5t-36.5 15t-15.5 37q0 21 15.5 36.5t36.5 15.5zM194 874q20 0 36 -15.5t16 -36.5t-15.5 -36.5t-36.5 -15.5q-22 0 -37.5 15t-15.5 37q0 21 15.5 36.5t37.5 15.5zM79 700h75v-700h-75v700z" />
    <glyph glyph-name="Eth" unicode="&#xd0;" horiz-adv-x="689" 
d="M296 700q146 0 245 -98.5t99 -248.5t-99 -251.5t-245 -101.5h-217v327h-109v52h109v321h217zM300 72q113 0 187.5 80t74.5 201q0 120 -74 197.5t-188 77.5h-146v-249h117v-52h-117v-255h146z" />
    <glyph glyph-name="Ntilde" unicode="&#xd1;" horiz-adv-x="697" 
d="M178 777q4 49 32 79.5t67 30.5q32 0 78.5 -29t61.5 -29q20 0 32.5 15.5t12.5 40.5l60 -9q-4 -49 -32 -79.5t-67 -30.5q-33 0 -79 29t-63 29q-19 0 -31 -16t-11 -41zM79 700h71l392 -562v562h76v-700h-70l-394 561v-561h-75v700z" />
    <glyph glyph-name="Ograve" unicode="&#xd2;" horiz-adv-x="804" 
d="M270 900h91l81 -141h-69zM402 710q149 0 251 -103.5t102 -254.5q0 -153 -102 -257.5t-251 -104.5t-251 104.5t-102 257.5q0 151 102 254.5t251 103.5zM402 637q-116 0 -195.5 -82t-79.5 -203q0 -122 79.5 -205.5t195.5 -83.5t195.5 83.5t79.5 205.5q0 121 -79.5 203
t-195.5 82z" />
    <glyph glyph-name="Oacute" unicode="&#xd3;" horiz-adv-x="804" 
d="M530 900l-103 -141h-68l81 141h90zM402 710q149 0 251 -103.5t102 -254.5q0 -153 -102 -257.5t-251 -104.5t-251 104.5t-102 257.5q0 151 102 254.5t251 103.5zM402 637q-116 0 -195.5 -82t-79.5 -203q0 -122 79.5 -205.5t195.5 -83.5t195.5 83.5t79.5 205.5
q0 121 -79.5 203t-195.5 82z" />
    <glyph glyph-name="Ocircumflex" unicode="&#xd4;" horiz-adv-x="804" 
d="M401 858l-66 -92h-65l90 141h82l90 -141h-65zM402 710q149 0 251 -103.5t102 -254.5q0 -153 -102 -257.5t-251 -104.5t-251 104.5t-102 257.5q0 151 102 254.5t251 103.5zM402 63q116 0 195.5 83.5t79.5 205.5q0 121 -79.5 203t-195.5 82t-195.5 -82t-79.5 -203
q0 -122 79.5 -205.5t195.5 -83.5z" />
    <glyph glyph-name="Otilde" unicode="&#xd5;" horiz-adv-x="804" 
d="M229 777q4 49 32 79.5t67 30.5q32 0 78.5 -29t61.5 -29q20 0 32.5 15.5t12.5 40.5l60 -9q-4 -49 -32 -79.5t-67 -30.5q-32 0 -78 29t-64 29q-19 0 -31 -16t-11 -41zM402 710q149 0 251 -103.5t102 -254.5q0 -153 -102 -257.5t-251 -104.5t-251 104.5t-102 257.5
q0 151 102 254.5t251 103.5zM402 637q-116 0 -195.5 -82t-79.5 -203q0 -122 79.5 -205.5t195.5 -83.5t195.5 83.5t79.5 205.5q0 121 -79.5 203t-195.5 82z" />
    <glyph glyph-name="Odieresis" unicode="&#xd6;" horiz-adv-x="804" 
d="M324 874q21 0 37 -15.5t16 -36.5t-16 -36.5t-37 -15.5t-36.5 15t-15.5 37q0 21 15.5 36.5t36.5 15.5zM480 874q20 0 36 -15.5t16 -36.5t-15.5 -36.5t-36.5 -15.5q-22 0 -37.5 15t-15.5 37q0 21 15.5 36.5t37.5 15.5zM402 710q149 0 251 -103.5t102 -254.5
q0 -153 -102 -257.5t-251 -104.5t-251 104.5t-102 257.5q0 151 102 254.5t251 103.5zM402 637q-116 0 -195.5 -82t-79.5 -203q0 -122 79.5 -205.5t195.5 -83.5t195.5 83.5t79.5 205.5q0 121 -79.5 203t-195.5 82z" />
    <glyph glyph-name="multiply" unicode="&#xd7;" horiz-adv-x="524" 
d="M453 461l-143 -143l143 -142l-48 -49l-143 143l-143 -143l-49 49l143 143l-142 142l48 48l142 -142l143 143z" />
    <glyph glyph-name="Oslash" unicode="&#xd8;" horiz-adv-x="804" 
d="M402 710q149 0 251 -103.5t102 -254.5q0 -153 -102 -257.5t-251 -104.5t-251 104.5t-102 257.5q0 151 102 254.5t251 103.5zM127 352q0 -115 71 -197l358 435q-67 47 -154 47q-116 0 -195.5 -82t-79.5 -203zM402 63q116 0 195.5 83.5t79.5 205.5q0 113 -71 194l-359 -435
q70 -48 155 -48z" />
    <glyph glyph-name="Ugrave" unicode="&#xd9;" horiz-adv-x="691" 
d="M214 900h91l81 -141h-69zM345 -10q-115 0 -190.5 77.5t-75.5 194.5v438h75v-438q0 -86 54.5 -142.5t136.5 -56.5t136.5 56.5t54.5 142.5v438h76v-438q0 -117 -76 -194.5t-191 -77.5z" />
    <glyph glyph-name="Uacute" unicode="&#xda;" horiz-adv-x="691" 
d="M474 900l-103 -141h-68l81 141h90zM345 -10q-115 0 -190.5 77.5t-75.5 194.5v438h75v-438q0 -86 54.5 -142.5t136.5 -56.5t136.5 56.5t54.5 142.5v438h76v-438q0 -117 -76 -194.5t-191 -77.5z" />
    <glyph glyph-name="Ucircumflex" unicode="&#xdb;" horiz-adv-x="691" 
d="M345 858l-66 -92h-65l90 141h82l90 -141h-65zM536 700h76v-438q0 -117 -76 -194.5t-191 -77.5t-190.5 77.5t-75.5 194.5v438h75v-438q0 -86 54.5 -142.5t136.5 -56.5t136.5 56.5t54.5 142.5v438z" />
    <glyph glyph-name="Udieresis" unicode="&#xdc;" horiz-adv-x="691" 
d="M267 874q21 0 37 -15.5t16 -36.5t-16 -36.5t-37 -15.5t-36.5 15t-15.5 37q0 21 15.5 36.5t36.5 15.5zM423 874q20 0 36 -15.5t16 -36.5t-15.5 -36.5t-36.5 -15.5q-22 0 -37.5 15t-15.5 37q0 21 15.5 36.5t37.5 15.5zM345 -10q-115 0 -190.5 77.5t-75.5 194.5v438h75v-438
q0 -86 54.5 -142.5t136.5 -56.5t136.5 56.5t54.5 142.5v438h76v-438q0 -117 -76 -194.5t-191 -77.5z" />
    <glyph glyph-name="Yacute" unicode="&#xdd;" horiz-adv-x="620" 
d="M439 900l-103 -141h-68l81 141h90zM17 700h92l204 -310l201 310h89l-253 -386v-314h-76v314z" />
    <glyph glyph-name="Thorn" unicode="&#xde;" horiz-adv-x="588" 
d="M348 553q88 0 147.5 -57.5t59.5 -143.5q0 -87 -59 -144.5t-148 -57.5h-194v-150h-75v700h75v-147h194zM348 222q55 0 93 37.5t38 92.5t-37.5 92t-93.5 37h-194v-259h194z" />
    <glyph glyph-name="germandbls" unicode="&#xdf;" horiz-adv-x="588" 
d="M69 0v484q0 104 64 165t169 61q87 0 148.5 -56t61.5 -135q0 -56 -32 -96.5t-81 -49.5q65 -11 107 -58t42 -113q0 -84 -59 -143t-142 -59h-131v72h127q54 0 91.5 37.5t37.5 90.5q0 57 -41.5 94t-111.5 37h-103v68h97q52 0 88 34t36 83q0 50 -39.5 86.5t-97.5 36.5
q-67 0 -111 -43.5t-44 -111.5v-484h-76z" />
    <glyph glyph-name="agrave" unicode="&#xe0;" horiz-adv-x="623" 
d="M379 545h-69l-103 141h91zM480 486h73v-486h-73v113q-27 -58 -78 -90.5t-120 -32.5q-100 0 -170.5 74t-70.5 180t70 179t171 73q69 0 120.5 -32t77.5 -90v112zM296 59q80 0 132 52.5t52 132.5t-52 132t-132 52q-77 0 -130 -53.5t-53 -130.5q0 -78 53 -131.5t130 -53.5z
" />
    <glyph glyph-name="aacute" unicode="&#xe1;" horiz-adv-x="623" 
d="M467 686l-103 -141h-69l81 141h91zM480 486h73v-486h-73v113q-27 -58 -78 -90.5t-120 -32.5q-100 0 -170.5 74t-70.5 180t70 179t171 73q69 0 120.5 -32t77.5 -90v112zM296 59q80 0 132 52.5t52 132.5t-52 132t-132 52q-77 0 -130 -53.5t-53 -130.5q0 -78 53 -131.5
t130 -53.5z" />
    <glyph glyph-name="acircumflex" unicode="&#xe2;" horiz-adv-x="623" 
d="M338 645l-66 -93h-65l90 141h82l90 -141h-65zM480 486h73v-486h-73v113q-27 -58 -78 -90.5t-120 -32.5q-100 0 -170.5 74t-70.5 180t70 179t171 73q69 0 120.5 -32t77.5 -90v112zM296 59q80 0 132 52.5t52 132.5t-52 132t-132 52q-77 0 -130 -53.5t-53 -130.5
q0 -78 53 -131.5t130 -53.5z" />
    <glyph glyph-name="atilde" unicode="&#xe3;" horiz-adv-x="623" 
d="M269 610q-19 0 -31 -16t-11 -41l-61 10q4 49 32 79.5t67 30.5q32 0 78.5 -29t61.5 -29q20 0 32.5 15.5t12.5 40.5l60 -9q-4 -49 -32 -79.5t-67 -30.5q-33 0 -79 29t-63 29zM480 486h73v-486h-73v113q-27 -58 -78 -90.5t-120 -32.5q-100 0 -170.5 74t-70.5 180t70 179
t171 73q69 0 120.5 -32t77.5 -90v112zM296 59q80 0 132 52.5t52 132.5t-52 132t-132 52q-77 0 -130 -53.5t-53 -130.5q0 -78 53 -131.5t130 -53.5z" />
    <glyph glyph-name="adieresis" unicode="&#xe4;" horiz-adv-x="623" 
d="M261 593q-22 0 -37.5 15.5t-15.5 37.5q0 21 15.5 36.5t37.5 15.5q21 0 37 -15.5t16 -36.5q0 -22 -16 -37.5t-37 -15.5zM416 593q-21 0 -36.5 15.5t-15.5 37.5q0 21 15.5 36.5t36.5 15.5t37 -15.5t16 -36.5q0 -22 -16 -37.5t-37 -15.5zM480 486h73v-486h-73v113
q-27 -58 -78 -90.5t-120 -32.5q-100 0 -170.5 74t-70.5 180t70 179t171 73q69 0 120.5 -32t77.5 -90v112zM296 59q80 0 132 52.5t52 132.5t-52 132t-132 52q-77 0 -130 -53.5t-53 -130.5q0 -78 53 -131.5t130 -53.5z" />
    <glyph glyph-name="aring" unicode="&#xe5;" horiz-adv-x="623" 
d="M338 543q-51 0 -85 32.5t-34 81.5t34 82t85 33q52 0 86 -32.5t34 -82.5q0 -49 -34 -81.5t-86 -32.5zM338 726q-30 0 -50 -20t-20 -49t20 -48.5t50 -19.5q31 0 51.5 19.5t20.5 48.5t-20.5 49t-51.5 20zM480 486h73v-486h-73v113q-27 -58 -78 -90.5t-120 -32.5
q-100 0 -170.5 74t-70.5 180t70 179t171 73q69 0 120.5 -32t77.5 -90v112zM296 59q80 0 132 52.5t52 132.5t-52 132t-132 52q-77 0 -130 -53.5t-53 -130.5q0 -78 53 -131.5t130 -53.5z" />
    <glyph glyph-name="ae" unicode="&#xe6;" horiz-adv-x="1019" 
d="M978 265q0 -8 -2 -26h-410q3 -84 54.5 -135t128.5 -51q53 0 96 21.5t63 59.5l57 -35q-26 -49 -84.5 -79t-127.5 -30q-66 0 -118.5 32.5t-81.5 91.5v-114h-73v113q-27 -58 -78 -90.5t-120 -32.5q-100 0 -170.5 74t-70.5 180t70 179t171 73q69 0 120.5 -32t77.5 -90v112h73
v-110q29 57 81 88.5t118 31.5q95 0 160.5 -67t65.5 -164zM570 288h336q-5 63 -51.5 105.5t-111.5 42.5q-67 0 -114.5 -41t-58.5 -107zM296 59q80 0 132 52.5t52 132.5t-52 132t-132 52q-77 0 -130 -53.5t-53 -130.5q0 -78 53 -131.5t130 -53.5z" />
    <glyph glyph-name="ccedilla" unicode="&#xe7;" horiz-adv-x="559" 
d="M292 59q54 0 97.5 29.5t53.5 75.5h74q-10 -72 -69 -120t-139 -53q65 -78 32 -142.5t-129 -62.5l-18 54q81 6 96 51t-40 102q-91 15 -150 85t-59 165q0 107 72.5 180t178.5 73q83 0 147.5 -48t77.5 -121h-74q-12 44 -54.5 72t-96.5 28q-76 0 -127.5 -53t-51.5 -131
q0 -77 51.5 -130.5t127.5 -53.5z" />
    <glyph glyph-name="egrave" unicode="&#xe8;" horiz-adv-x="563" 
d="M325 545h-69l-103 141h91zM521 258q0 -22 -1 -28h-407q5 -78 53.5 -126t124.5 -48q58 0 100.5 26.5t52.5 71.5h73q-14 -74 -77.5 -119t-150.5 -45q-106 0 -177 73.5t-71 182.5q0 105 71.5 177.5t175.5 72.5q99 0 166 -67.5t67 -170.5zM116 292h327q-5 60 -49 99t-109 39
q-64 0 -110 -37.5t-59 -100.5z" />
    <glyph glyph-name="eacute" unicode="&#xe9;" horiz-adv-x="563" 
d="M412 686l-103 -141h-68l81 141h90zM521 258q0 -22 -1 -28h-407q5 -78 53.5 -126t124.5 -48q58 0 100.5 26.5t52.5 71.5h73q-14 -74 -77.5 -119t-150.5 -45q-106 0 -177 73.5t-71 182.5q0 105 71.5 177.5t175.5 72.5q99 0 166 -67.5t67 -170.5zM116 292h327q-5 60 -49 99
t-109 39q-64 0 -110 -37.5t-59 -100.5z" />
    <glyph glyph-name="ecircumflex" unicode="&#xea;" horiz-adv-x="563" 
d="M284 644l-66 -92h-65l90 141h82l90 -141h-65zM521 258q0 -22 -1 -28h-407q5 -78 53.5 -126t124.5 -48q58 0 100.5 26.5t52.5 71.5h73q-14 -74 -77.5 -119t-150.5 -45q-106 0 -177 73.5t-71 182.5q0 105 71.5 177.5t175.5 72.5q99 0 166 -67.5t67 -170.5zM116 292h327
q-5 60 -49 99t-109 39q-64 0 -110 -37.5t-59 -100.5z" />
    <glyph glyph-name="edieresis" unicode="&#xeb;" horiz-adv-x="563" 
d="M206 593q-21 0 -36.5 15.5t-15.5 37.5q0 21 15.5 36.5t36.5 15.5t37 -15.5t16 -36.5q0 -22 -16 -37.5t-37 -15.5zM362 593q-22 0 -37.5 15.5t-15.5 37.5q0 21 15.5 36.5t37.5 15.5q20 0 36 -15.5t16 -36.5q0 -22 -16 -37.5t-36 -15.5zM521 258q0 -22 -1 -28h-407
q5 -78 53.5 -126t124.5 -48q58 0 100.5 26.5t52.5 71.5h73q-14 -74 -77.5 -119t-150.5 -45q-106 0 -177 73.5t-71 182.5q0 105 71.5 177.5t175.5 72.5q99 0 166 -67.5t67 -170.5zM116 292h327q-5 60 -49 99t-109 39q-64 0 -110 -37.5t-59 -100.5z" />
    <glyph glyph-name="igrave" unicode="&#xec;" horiz-adv-x="213" 
d="M-24 686h91l81 -141h-69zM70 486h73v-486h-73v486z" />
    <glyph glyph-name="iacute" unicode="&#xed;" horiz-adv-x="213" 
d="M236 686l-103 -141h-68l81 141h90zM70 486h73v-486h-73v486z" />
    <glyph glyph-name="icircumflex" unicode="&#xee;" horiz-adv-x="213" 
d="M148 693l90 -141h-65l-66 92l-66 -92h-66l91 141h82zM70 0v486h73v-486h-73z" />
    <glyph glyph-name="idieresis" unicode="&#xef;" horiz-adv-x="213" 
d="M30 698q21 0 37 -15.5t16 -36.5q0 -22 -16 -37.5t-37 -15.5t-36.5 15.5t-15.5 37.5q0 21 15.5 36.5t36.5 15.5zM186 698q20 0 36 -15.5t16 -36.5q0 -22 -16 -37.5t-36 -15.5q-22 0 -37.5 15.5t-15.5 37.5q0 21 15.5 36.5t37.5 15.5zM70 486h73v-486h-73v486z" />
    <glyph glyph-name="eth" unicode="&#xf0;" horiz-adv-x="632" 
d="M682 635v-52h-129v-319q0 -123 -73 -198.5t-184 -75.5q-110 0 -182.5 73.5t-72.5 180.5q0 106 70 179t171 73q71 0 123 -34t75 -95v216h-129v52h129v65h73v-65h129zM296 59q80 0 132 52.5t52 132.5t-52 132t-132 52q-77 0 -131 -53.5t-54 -130.5q0 -78 54 -131.5
t131 -53.5z" />
    <glyph glyph-name="ntilde" unicode="&#xf1;" horiz-adv-x="584" 
d="M217 610q-20 0 -32 -16t-11 -41l-60 10q3 49 30.5 79.5t67.5 30.5q32 0 78.5 -29t62.5 -29q20 0 32.5 15.5t12.5 40.5l60 -9q-4 -49 -32 -79.5t-67 -30.5q-33 0 -79 29t-63 29zM309 496q95 0 150 -58t55 -158v-280h-73v273q0 70 -40 112t-107 42q-68 0 -109.5 -42
t-41.5 -112v-273h-73v486h73v-95q23 50 66 77.5t100 27.5z" />
    <glyph glyph-name="ograve" unicode="&#xf2;" horiz-adv-x="585" 
d="M161 686h91l81 -141h-69zM292 496q106 0 179 -73t73 -180t-73 -180t-179 -73t-178.5 73t-72.5 180t72.5 180t178.5 73zM292 427q-76 0 -127.5 -53t-51.5 -131q0 -77 51.5 -130.5t127.5 -53.5t128 53.5t52 130.5q0 78 -52 131t-128 53z" />
    <glyph glyph-name="oacute" unicode="&#xf3;" horiz-adv-x="585" 
d="M421 686l-103 -141h-68l81 141h90zM292 496q106 0 179 -73t73 -180t-73 -180t-179 -73t-178.5 73t-72.5 180t72.5 180t178.5 73zM292 427q-76 0 -127.5 -53t-51.5 -131q0 -77 51.5 -130.5t127.5 -53.5t128 53.5t52 130.5q0 78 -52 131t-128 53z" />
    <glyph glyph-name="ocircumflex" unicode="&#xf4;" horiz-adv-x="585" 
d="M293 644l-66 -92h-65l90 141h82l90 -141h-65zM292 496q106 0 179 -73t73 -180t-73 -180t-179 -73t-178.5 73t-72.5 180t72.5 180t178.5 73zM292 59q76 0 128 53.5t52 130.5q0 78 -52 131t-128 53t-127.5 -53t-51.5 -131q0 -77 51.5 -130.5t127.5 -53.5z" />
    <glyph glyph-name="otilde" unicode="&#xf5;" horiz-adv-x="585" 
d="M120 563q4 49 32 79.5t67 30.5q32 0 78.5 -29t61.5 -29q20 0 32.5 15.5t12.5 40.5l60 -9q-4 -49 -32 -79.5t-67 -30.5q-33 0 -79 29t-63 29q-19 0 -31 -16t-11 -41zM292 496q106 0 179 -73t73 -180t-73 -180t-179 -73t-178.5 73t-72.5 180t72.5 180t178.5 73zM292 427
q-76 0 -127.5 -53t-51.5 -131q0 -77 51.5 -130.5t127.5 -53.5t128 53.5t52 130.5q0 78 -52 131t-128 53z" />
    <glyph glyph-name="odieresis" unicode="&#xf6;" horiz-adv-x="585" 
d="M215 698q21 0 37 -15.5t16 -36.5q0 -22 -16 -37.5t-37 -15.5t-36.5 15.5t-15.5 37.5q0 21 15.5 36.5t36.5 15.5zM371 698q20 0 36 -15.5t16 -36.5q0 -22 -15.5 -37.5t-36.5 -15.5q-22 0 -37.5 15.5t-15.5 37.5q0 21 15.5 36.5t37.5 15.5zM292 496q106 0 179 -73t73 -180
t-73 -180t-179 -73t-178.5 73t-72.5 180t72.5 180t178.5 73zM292 427q-76 0 -127.5 -53t-51.5 -131q0 -77 51.5 -130.5t127.5 -53.5t128 53.5t52 130.5q0 78 -52 131t-128 53z" />
    <glyph glyph-name="divide" unicode="&#xf7;" horiz-adv-x="576" 
d="M288 428q-25 0 -41.5 16.5t-16.5 41.5q0 24 16.5 41t41.5 17t42 -17t17 -41q0 -25 -17 -41.5t-42 -16.5zM505 349v-68h-435v68h435zM288 86q-25 0 -41.5 16.5t-16.5 40.5q0 25 16.5 42t41.5 17t42 -17t17 -42q0 -24 -17 -40.5t-42 -16.5z" />
    <glyph glyph-name="oslash" unicode="&#xf8;" horiz-adv-x="585" 
d="M292 496q106 0 179 -73t73 -180t-73 -180t-179 -73t-178.5 73t-72.5 180t72.5 180t178.5 73zM113 243q0 -49 22.5 -90.5t60.5 -65.5l130 337q-16 3 -34 3q-76 0 -127.5 -53t-51.5 -131zM292 59q76 0 128 53.5t52 130.5q0 49 -22.5 90.5t-61.5 65.5l-129 -337q17 -3 33 -3
z" />
    <glyph glyph-name="ugrave" unicode="&#xf9;" horiz-adv-x="584" 
d="M334 545h-68l-103 141h90zM441 486h73v-486h-73v94q-50 -104 -166 -104q-94 0 -149.5 58.5t-55.5 157.5v280h73v-272q0 -70 40 -112.5t107 -42.5q69 0 110 42t41 113v272z" />
    <glyph glyph-name="uacute" unicode="&#xfa;" horiz-adv-x="584" 
d="M423 686l-103 -141h-69l81 141h91zM441 486h73v-486h-73v94q-50 -104 -166 -104q-94 0 -149.5 58.5t-55.5 157.5v280h73v-272q0 -70 40 -112.5t107 -42.5q69 0 110 42t41 113v272z" />
    <glyph glyph-name="ucircumflex" unicode="&#xfb;" horiz-adv-x="584" 
d="M294 645l-66 -93h-66l91 141h82l90 -141h-65zM441 486h73v-486h-73v94q-50 -104 -166 -104q-94 0 -149.5 58.5t-55.5 157.5v280h73v-272q0 -70 40 -112.5t107 -42.5q69 0 110 42t41 113v272z" />
    <glyph glyph-name="udieresis" unicode="&#xfc;" horiz-adv-x="584" 
d="M217 593q-22 0 -37.5 15.5t-15.5 37.5q0 21 15.5 36.5t37.5 15.5q21 0 37 -15.5t16 -36.5q0 -22 -16 -37.5t-37 -15.5zM372 593q-22 0 -37.5 15.5t-15.5 37.5q0 21 15.5 36.5t37.5 15.5q21 0 37 -15.5t16 -36.5q0 -22 -16 -37.5t-37 -15.5zM441 486h73v-486h-73v94
q-50 -104 -166 -104q-94 0 -149.5 58.5t-55.5 157.5v280h73v-272q0 -70 40 -112.5t107 -42.5q69 0 110 42t41 113v272z" />
    <glyph glyph-name="yacute" unicode="&#xfd;" horiz-adv-x="511" 
d="M391 686l-103 -141h-68l81 141h90zM415 486h78l-281 -670h-78l84 193l-201 477h79l159 -392z" />
    <glyph glyph-name="thorn" unicode="&#xfe;" horiz-adv-x="623" 
d="M340 496q101 0 171 -73.5t70 -179.5t-70 -179.5t-171 -73.5q-68 0 -119 32.5t-78 90.5v-297h-73v884h73v-326q26 58 77 90t120 32zM327 59q77 0 130 53.5t53 130.5t-53 131t-130 54q-80 0 -132 -52.5t-52 -132.5q0 -79 52.5 -131.5t131.5 -52.5z" />
    <glyph glyph-name="ydieresis" unicode="&#xff;" horiz-adv-x="511" 
d="M185 593q-21 0 -36.5 15.5t-15.5 37.5q0 21 15.5 36.5t36.5 15.5t37 -15.5t16 -36.5q0 -22 -16 -37.5t-37 -15.5zM341 593q-22 0 -37.5 15.5t-15.5 37.5q0 21 15.5 36.5t37.5 15.5q20 0 36 -15.5t16 -36.5q0 -22 -15.5 -37.5t-36.5 -15.5zM415 486h78l-281 -670h-78
l84 193l-201 477h79l159 -392z" />
    <glyph glyph-name="Amacron" unicode="&#x100;" horiz-adv-x="655" 
d="M488 832v-60h-320v60h320zM560 0l-68 171h-331l-68 -171h-80l280 700h68l281 -700h-82zM190 243h274l-137 346z" />
    <glyph glyph-name="amacron" unicode="&#x101;" horiz-adv-x="583" 
d="M457 618v-60h-320v60h320zM480 486h73v-486h-73v113q-27 -58 -78 -90.5t-120 -32.5q-100 0 -170.5 74t-70.5 180t70 179t171 73q69 0 120.5 -32t77.5 -90v112zM296 59q80 0 132 52.5t52 132.5t-52 132t-132 52q-77 0 -130 -53.5t-53 -130.5q0 -78 53 -131.5t130 -53.5z
" />
    <glyph glyph-name="Abreve" unicode="&#x102;" horiz-adv-x="655" 
d="M329 755q-63 0 -105 41.5t-43 108.5h58q1 -43 26.5 -71t63.5 -28t63.5 28t25.5 71h58q-1 -67 -42 -108.5t-105 -41.5zM560 0l-68 171h-331l-68 -171h-80l280 700h68l281 -700h-82zM190 243h274l-137 346z" />
    <glyph glyph-name="abreve" unicode="&#x103;" horiz-adv-x="583" 
d="M285 541q-64 0 -105 41.5t-42 108.5h57q1 -43 26.5 -71t63.5 -28t63.5 28t26.5 71h57q-1 -67 -42 -108.5t-105 -41.5zM480 486h73v-486h-73v113q-27 -58 -78 -90.5t-120 -32.5q-100 0 -170.5 74t-70.5 180t70 179t171 73q69 0 120.5 -32t77.5 -90v112zM296 59
q80 0 132 52.5t52 132.5t-52 132t-132 52q-77 0 -130 -53.5t-53 -130.5q0 -78 53 -131.5t130 -53.5z" />
    <glyph glyph-name="Aogonek" unicode="&#x104;" horiz-adv-x="655" 
d="M634 -128l19 -49q-38 -20 -90 -20q-44 0 -70.5 25.5t-26.5 64.5q0 76 87 126l-61 152h-331l-68 -171h-80l280 700h68l281 -700h-24q-41 -13 -64.5 -38t-23.5 -56q0 -21 14 -34t38 -13q29 0 52 13zM190 243h274l-137 346z" />
    <glyph glyph-name="aogonek" unicode="&#x105;" horiz-adv-x="623" 
d="M568 -128l20 -49q-38 -20 -91 -20q-44 0 -70.5 25.5t-26.5 64.5q0 72 80 122v98q-27 -58 -78 -90.5t-120 -32.5q-100 0 -170.5 74t-70.5 180t70 179t171 73q69 0 120.5 -32t77.5 -90v112h73v-486q-41 -13 -65 -38t-24 -56q0 -21 14 -34t38 -13q30 0 52 13zM296 59
q80 0 132 52.5t52 132.5t-52 132t-132 52q-77 0 -130 -53.5t-53 -130.5q0 -78 53 -131.5t130 -53.5z" />
    <glyph glyph-name="Cacute" unicode="&#x106;" horiz-adv-x="763" 
d="M528 900l-103 -141h-68l81 141h90zM397 -10q-147 0 -247.5 104.5t-100.5 257.5q0 151 100.5 254.5t247.5 103.5q116 0 205.5 -66.5t109.5 -170.5h-83q-20 73 -84.5 118.5t-147.5 45.5q-114 0 -192 -82t-78 -203q0 -122 78 -205.5t192 -83.5q85 0 149.5 48t83.5 125h84
q-22 -109 -110.5 -177.5t-206.5 -68.5z" />
    <glyph glyph-name="cacute" unicode="&#x107;" horiz-adv-x="559" 
d="M420 686l-103 -141h-68l81 141h90zM292 -10q-106 0 -178.5 73t-72.5 180t72.5 180t178.5 73q83 0 147.5 -48t77.5 -121h-74q-12 44 -54.5 72t-96.5 28q-76 0 -127.5 -53t-51.5 -131q0 -77 51.5 -130.5t127.5 -53.5q54 0 97.5 29.5t53.5 75.5h74q-11 -76 -75.5 -125
t-149.5 -49z" />
    <glyph glyph-name="Ccircumflex" unicode="&#x108;" horiz-adv-x="763" 
d="M400 858l-66 -92h-65l90 141h82l90 -141h-65zM630 236h84q-22 -109 -110.5 -177.5t-206.5 -68.5q-147 0 -247.5 104.5t-100.5 257.5q0 151 100.5 254.5t247.5 103.5q116 0 205.5 -66.5t109.5 -170.5h-83q-20 73 -84.5 118.5t-147.5 45.5q-114 0 -192 -82t-78 -203
q0 -122 78 -205.5t192 -83.5q85 0 149.5 48t83.5 125z" />
    <glyph glyph-name="ccircumflex" unicode="&#x109;" horiz-adv-x="559" 
d="M291 644l-66 -92h-65l90 141h82l90 -141h-65zM292 59q54 0 97.5 29.5t53.5 75.5h74q-11 -76 -75.5 -125t-149.5 -49q-106 0 -178.5 73t-72.5 180t72.5 180t178.5 73q83 0 147.5 -48t77.5 -121h-74q-12 44 -54.5 72t-96.5 28q-76 0 -127.5 -53t-51.5 -131
q0 -77 51.5 -130.5t127.5 -53.5z" />
    <glyph glyph-name="Cdotaccent" unicode="&#x10a;" horiz-adv-x="763" 
d="M399 874q21 0 37 -15.5t16 -36.5t-16 -36.5t-37 -15.5q-22 0 -37 15t-15 37q0 21 15 36.5t37 15.5zM397 -10q-147 0 -247.5 104.5t-100.5 257.5q0 151 100.5 254.5t247.5 103.5q116 0 205.5 -66.5t109.5 -170.5h-83q-20 73 -84.5 118.5t-147.5 45.5q-114 0 -192 -82
t-78 -203q0 -122 78 -205.5t192 -83.5q85 0 149.5 48t83.5 125h84q-22 -109 -110.5 -177.5t-206.5 -68.5z" />
    <glyph glyph-name="cdotaccent" unicode="&#x10b;" horiz-adv-x="559" 
d="M291 698q21 0 37 -15.5t16 -36.5q0 -22 -16 -37.5t-37 -15.5q-22 0 -37 15.5t-15 37.5q0 21 15 36.5t37 15.5zM292 -10q-106 0 -178.5 73t-72.5 180t72.5 180t178.5 73q83 0 147.5 -48t77.5 -121h-74q-12 44 -54.5 72t-96.5 28q-76 0 -127.5 -53t-51.5 -131
q0 -77 51.5 -130.5t127.5 -53.5q54 0 97.5 29.5t53.5 75.5h74q-11 -76 -75.5 -125t-149.5 -49z" />
    <glyph glyph-name="Ccaron" unicode="&#x10c;" horiz-adv-x="763" 
d="M359 759l-90 141h65l66 -92l66 92h65l-90 -141h-82zM630 236h84q-22 -109 -110.5 -177.5t-206.5 -68.5q-147 0 -247.5 104.5t-100.5 257.5q0 151 100.5 254.5t247.5 103.5q116 0 205.5 -66.5t109.5 -170.5h-83q-20 73 -84.5 118.5t-147.5 45.5q-114 0 -192 -82t-78 -203
q0 -122 78 -205.5t192 -83.5q85 0 149.5 48t83.5 125z" />
    <glyph glyph-name="ccaron" unicode="&#x10d;" horiz-adv-x="559" 
d="M250 545l-90 141h65l66 -92l66 92h65l-90 -141h-82zM292 59q54 0 97.5 29.5t53.5 75.5h74q-11 -76 -75.5 -125t-149.5 -49q-106 0 -178.5 73t-72.5 180t72.5 180t178.5 73q83 0 147.5 -48t77.5 -121h-74q-12 44 -54.5 72t-96.5 28q-76 0 -127.5 -53t-51.5 -131
q0 -77 51.5 -130.5t127.5 -53.5z" />
    <glyph glyph-name="Dcaron" unicode="&#x10e;" horiz-adv-x="689" 
d="M267 759l-90 141h65l66 -92l66 92h65l-90 -141h-82zM296 700q146 0 245 -98.5t99 -248.5t-99 -251.5t-245 -101.5h-217v700h217zM300 72q113 0 187.5 80t74.5 201q0 120 -74 197.5t-188 77.5h-146v-556h146z" />
    <glyph glyph-name="dcaron" unicode="&#x10f;" horiz-adv-x="681" 
d="M619 750h78l-38 -205h-60zM480 374v326h73v-700h-73v113q-27 -58 -78 -90.5t-120 -32.5q-100 0 -170.5 74t-70.5 180t70 179t171 73q69 0 120.5 -32t77.5 -90zM296 59q80 0 132 52.5t52 132.5t-52 132t-132 52q-77 0 -130 -53.5t-53 -130.5q0 -78 53 -131.5t130 -53.5z
" />
    <glyph glyph-name="Dcroat" unicode="&#x110;" horiz-adv-x="689" 
d="M296 700q146 0 245 -98.5t99 -248.5t-99 -251.5t-245 -101.5h-217v327h-109v52h109v321h217zM300 72q113 0 187.5 80t74.5 201q0 120 -74 197.5t-188 77.5h-146v-249h117v-52h-117v-255h146z" />
    <glyph glyph-name="dcroat" unicode="&#x111;" horiz-adv-x="623" 
d="M673 634v-50h-120v-584h-73v113q-27 -58 -78 -90.5t-120 -32.5q-100 0 -170.5 74t-70.5 180t70 179t171 73q69 0 120.5 -32t77.5 -90v210h-108v50h108v66h73v-66h120zM296 59q80 0 132 52.5t52 132.5t-52 132t-132 52q-77 0 -130 -53.5t-53 -130.5q0 -78 53 -131.5
t130 -53.5z" />
    <glyph glyph-name="Emacron" unicode="&#x112;" horiz-adv-x="526" 
d="M116 772v60h320v-60h-320zM79 700h391v-72h-316v-218h282v-72h-282v-266h316v-72h-391v700z" />
    <glyph glyph-name="emacron" unicode="&#x113;" horiz-adv-x="563" 
d="M444 618v-60h-320v60h320zM521 258q0 -22 -1 -28h-407q5 -78 53.5 -126t124.5 -48q58 0 100.5 26.5t52.5 71.5h73q-14 -74 -77.5 -119t-150.5 -45q-106 0 -177 73.5t-71 182.5q0 105 71.5 177.5t175.5 72.5q99 0 166 -67.5t67 -170.5zM116 292h327q-5 60 -49 99t-109 39
q-64 0 -110 -37.5t-59 -100.5z" />
    <glyph glyph-name="Ebreve" unicode="&#x114;" horiz-adv-x="526" 
d="M424 905q-1 -67 -42 -108.5t-105 -41.5q-63 0 -105 41.5t-43 108.5h58q1 -43 26.5 -71t63.5 -28t63.5 28t25.5 71h58zM79 700h391v-72h-316v-218h282v-72h-282v-266h316v-72h-391v700z" />
    <glyph glyph-name="ebreve" unicode="&#x115;" horiz-adv-x="563" 
d="M284 541q-64 0 -105.5 41.5t-42.5 108.5h58q1 -43 26.5 -71t63.5 -28t63.5 28t25.5 71h58q-1 -67 -42 -108.5t-105 -41.5zM521 258q0 -22 -1 -28h-407q5 -78 53.5 -126t124.5 -48q58 0 100.5 26.5t52.5 71.5h73q-14 -74 -77.5 -119t-150.5 -45q-106 0 -177 73.5
t-71 182.5q0 105 71.5 177.5t175.5 72.5q99 0 166 -67.5t67 -170.5zM116 292h327q-5 60 -49 99t-109 39q-64 0 -110 -37.5t-59 -100.5z" />
    <glyph glyph-name="Edotaccent" unicode="&#x116;" horiz-adv-x="526" 
d="M276 874q21 0 37 -15.5t16 -36.5t-16 -36.5t-37 -15.5q-22 0 -37 15t-15 37q0 21 15 36.5t37 15.5zM79 700h391v-72h-316v-218h282v-72h-282v-266h316v-72h-391v700z" />
    <glyph glyph-name="edotaccent" unicode="&#x117;" horiz-adv-x="563" 
d="M284 593q-22 0 -37 15.5t-15 37.5q0 21 15 36.5t37 15.5q21 0 37 -15.5t16 -36.5q0 -22 -16 -37.5t-37 -15.5zM521 258q0 -22 -1 -28h-407q5 -78 53.5 -126t124.5 -48q58 0 100.5 26.5t52.5 71.5h73q-14 -74 -77.5 -119t-150.5 -45q-106 0 -177 73.5t-71 182.5
q0 105 71.5 177.5t175.5 72.5q99 0 166 -67.5t67 -170.5zM116 292h327q-5 60 -49 99t-109 39q-64 0 -110 -37.5t-59 -100.5z" />
    <glyph glyph-name="Eogonek" unicode="&#x118;" horiz-adv-x="526" 
d="M470 628h-316v-218h282v-72h-282v-266h316v-72h-79q-41 -13 -64.5 -38t-23.5 -56q0 -21 14 -34t38 -13q29 0 52 13l19 -49q-38 -20 -90 -20q-44 0 -70.5 25.5t-26.5 64.5q0 60 58 107h-218v700h391v-72z" />
    <glyph glyph-name="eogonek" unicode="&#x119;" horiz-adv-x="563" 
d="M521 258q0 -22 -1 -28h-407q5 -78 53.5 -126t124.5 -48q58 0 100.5 26.5t52.5 71.5h73q-12 -61 -61 -106l1 -6q-53 -42 -77 -73t-24 -63q0 -21 14 -34t38 -13q29 0 52 13l19 -49q-38 -20 -90 -20q-44 0 -70.5 25.5t-26.5 64.5q0 54 49 101q-34 -4 -52 -4
q-106 0 -177 73.5t-71 182.5q0 105 71.5 177.5t175.5 72.5q99 0 166 -67.5t67 -170.5zM116 292h327q-5 60 -49 99t-109 39q-64 0 -110 -37.5t-59 -100.5z" />
    <glyph glyph-name="Ecaron" unicode="&#x11a;" horiz-adv-x="526" 
d="M235 759l-90 141h65l66 -92l66 92h65l-90 -141h-82zM470 628h-316v-218h282v-72h-282v-266h316v-72h-391v700h391v-72z" />
    <glyph glyph-name="ecaron" unicode="&#x11b;" horiz-adv-x="563" 
d="M243 545l-90 141h65l66 -92l66 92h65l-90 -141h-82zM521 258q0 -22 -1 -28h-407q5 -78 53.5 -126t124.5 -48q58 0 100.5 26.5t52.5 71.5h73q-14 -74 -77.5 -119t-150.5 -45q-106 0 -177 73.5t-71 182.5q0 105 71.5 177.5t175.5 72.5q99 0 166 -67.5t67 -170.5zM116 292
h327q-5 60 -49 99t-109 39q-64 0 -110 -37.5t-59 -100.5z" />
    <glyph glyph-name="Gcircumflex" unicode="&#x11c;" horiz-adv-x="780" 
d="M397 858l-66 -92h-65l90 141h82l90 -141h-65zM728 372q3 -19 3 -48q0 -144 -95.5 -239t-236.5 -95q-148 0 -249 104.5t-101 257.5q0 151 101 254.5t249 103.5q107 0 198.5 -63t117.5 -152h-85q-23 61 -89.5 101.5t-141.5 40.5q-115 0 -193.5 -82t-78.5 -203
q0 -122 79 -205.5t197 -83.5q102 0 173.5 66.5t79.5 168.5h-241v74h313z" />
    <glyph glyph-name="gcircumflex" unicode="&#x11d;" horiz-adv-x="623" 
d="M346 644l-66 -92h-65l90 141h82l90 -141h-65zM480 487h73v-472q0 -100 -68 -161t-174 -61q-90 0 -160 44.5t-73 127.5h71q1 -50 47 -80t113 -30q74 0 122.5 43.5t48.5 113.5v107q-27 -58 -78 -89.5t-120 -31.5q-100 0 -170.5 73t-70.5 177q0 103 70 175.5t171 72.5
q69 0 120 -31.5t78 -88.5v111zM296 66q80 0 132 51.5t52 130.5q0 78 -52.5 129.5t-131.5 51.5q-77 0 -130 -52.5t-53 -128.5q0 -77 53 -129.5t130 -52.5z" />
    <glyph glyph-name="Gbreve" unicode="&#x11e;" horiz-adv-x="780" 
d="M398 755q-64 0 -105.5 41.5t-42.5 108.5h58q1 -43 26.5 -71t63.5 -28t63.5 28t25.5 71h58q-1 -67 -42 -108.5t-105 -41.5zM728 372q3 -19 3 -48q0 -144 -95.5 -239t-236.5 -95q-148 0 -249 104.5t-101 257.5q0 151 101 254.5t249 103.5q107 0 198.5 -63t117.5 -152h-85
q-23 61 -89.5 101.5t-141.5 40.5q-115 0 -193.5 -82t-78.5 -203q0 -122 79 -205.5t197 -83.5q102 0 173.5 66.5t79.5 168.5h-241v74h313z" />
    <glyph glyph-name="gbreve" unicode="&#x11f;" horiz-adv-x="623" 
d="M346 541q-64 0 -105.5 41.5t-42.5 108.5h58q1 -43 26.5 -71t63.5 -28t63.5 28t25.5 71h58q-1 -67 -42 -108.5t-105 -41.5zM480 487h73v-472q0 -100 -68 -161t-174 -61q-90 0 -160 44.5t-73 127.5h71q1 -50 47 -80t113 -30q74 0 122.5 43.5t48.5 113.5v107
q-27 -58 -78 -89.5t-120 -31.5q-100 0 -170.5 73t-70.5 177q0 103 70 175.5t171 72.5q69 0 120 -31.5t78 -88.5v111zM296 66q80 0 132 51.5t52 130.5q0 78 -52.5 129.5t-131.5 51.5q-77 0 -130 -52.5t-53 -128.5q0 -77 53 -129.5t130 -52.5z" />
    <glyph glyph-name="Gdotaccent" unicode="&#x120;" horiz-adv-x="780" 
d="M397 770q-22 0 -37 15t-15 37q0 21 15 36.5t37 15.5q21 0 37 -15.5t16 -36.5t-16 -36.5t-37 -15.5zM728 372q3 -19 3 -48q0 -144 -95.5 -239t-236.5 -95q-148 0 -249 104.5t-101 257.5q0 151 101 254.5t249 103.5q107 0 198.5 -63t117.5 -152h-85q-23 61 -89.5 101.5
t-141.5 40.5q-115 0 -193.5 -82t-78.5 -203q0 -122 79 -205.5t197 -83.5q102 0 173.5 66.5t79.5 168.5h-241v74h313z" />
    <glyph glyph-name="gdotaccent" unicode="&#x121;" horiz-adv-x="623" 
d="M345 593q-22 0 -37 15.5t-15 37.5q0 21 15 36.5t37 15.5q21 0 37 -15.5t16 -36.5q0 -22 -16 -37.5t-37 -15.5zM480 487h73v-472q0 -100 -68 -161t-174 -61q-90 0 -160 44.5t-73 127.5h71q1 -50 47 -80t113 -30q74 0 122.5 43.5t48.5 113.5v107q-27 -58 -78 -89.5
t-120 -31.5q-100 0 -170.5 73t-70.5 177q0 103 70 175.5t171 72.5q69 0 120 -31.5t78 -88.5v111zM296 66q80 0 132 51.5t52 130.5q0 78 -52.5 129.5t-131.5 51.5q-77 0 -130 -52.5t-53 -128.5q0 -77 53 -129.5t130 -52.5z" />
    <glyph glyph-name="uni0122" unicode="&#x122;" horiz-adv-x="780" 
d="M728 372q3 -19 3 -48q0 -144 -95.5 -239t-236.5 -95q-148 0 -249 104.5t-101 257.5q0 151 101 254.5t249 103.5q107 0 198.5 -63t117.5 -152h-85q-23 61 -89.5 101.5t-141.5 40.5q-115 0 -193.5 -82t-78.5 -203q0 -122 79 -205.5t197 -83.5q102 0 173.5 66.5t79.5 168.5
h-241v74h313zM278 -214l81 141h90l-103 -141h-68z" />
    <glyph glyph-name="uni0123" unicode="&#x123;" horiz-adv-x="623" 
d="M473 689l-82 -141h-90l103 141h69zM480 487h73v-472q0 -100 -68 -161t-174 -61q-90 0 -160 44.5t-73 127.5h71q1 -50 47 -80t113 -30q74 0 122.5 43.5t48.5 113.5v107q-27 -58 -78 -89.5t-120 -31.5q-100 0 -170.5 73t-70.5 177q0 103 70 175.5t171 72.5q69 0 120 -31.5
t78 -88.5v111zM296 66q80 0 132 51.5t52 130.5q0 78 -52.5 129.5t-131.5 51.5q-77 0 -130 -52.5t-53 -128.5q0 -77 53 -129.5t130 -52.5z" />
    <glyph glyph-name="Hcircumflex" unicode="&#x124;" horiz-adv-x="702" 
d="M351 858l-66 -92h-65l90 141h82l90 -141h-65zM548 700h76v-700h-76v328h-394v-328h-75v700h75v-300h394v300z" />
    <glyph glyph-name="hcircumflex" unicode="&#x125;" horiz-adv-x="584" 
d="M172 765l-65 92l-66 -92h-66l91 141h82l90 -141h-66zM309 496q95 0 150 -58t55 -158v-280h-73v273q0 70 -40 112t-107 42q-68 0 -109.5 -42t-41.5 -112v-273h-73v700h73v-309q23 50 66 77.5t100 27.5z" />
    <glyph glyph-name="Hbar" unicode="&#x126;" horiz-adv-x="702" 
d="M691 589v-63h-67v-526h-76v328h-394v-328h-75v526h-69v63h69v111h75v-111h394v111h76v-111h67zM548 400v126h-394v-126h394z" />
    <glyph glyph-name="hbar" unicode="&#x127;" horiz-adv-x="584" 
d="M309 496q95 0 150 -58t55 -158v-280h-73v273q0 70 -40 112t-107 42q-68 0 -109.5 -42t-41.5 -112v-273h-73v584h-114v50h114v66h73v-66h114v-50h-114v-193q23 50 66 77.5t100 27.5z" />
    <glyph glyph-name="Itilde" unicode="&#x128;" horiz-adv-x="233" 
d="M-56 777q4 49 32 79.5t67 30.5q32 0 78.5 -29t61.5 -29q20 0 32.5 15.5t12.5 40.5l60 -9q-4 -49 -32 -79.5t-67 -30.5q-33 0 -78.5 29t-63.5 29q-19 0 -31 -16t-11 -41zM79 700h75v-700h-75v700z" />
    <glyph glyph-name="itilde" unicode="&#x129;" horiz-adv-x="213" 
d="M-65 563q4 49 32 79.5t67 30.5q32 0 78.5 -29t61.5 -29q20 0 32.5 15.5t12.5 40.5l60 -9q-4 -49 -32 -79.5t-67 -30.5q-32 0 -78 29t-64 29q-19 0 -31 -16t-11 -41zM70 486h73v-486h-73v486z" />
    <glyph glyph-name="Imacron" unicode="&#x12a;" horiz-adv-x="233" 
d="M-44 772v60h320v-60h-320zM79 700h75v-700h-75v700z" />
    <glyph glyph-name="imacron" unicode="&#x12b;" horiz-adv-x="213" 
d="M-53 558v60h320v-60h-320zM70 486h73v-486h-73v486z" />
    <glyph glyph-name="Ibreve" unicode="&#x12c;" horiz-adv-x="233" 
d="M264 905q-1 -67 -42 -108.5t-105 -41.5t-105.5 41.5t-42.5 108.5h58q1 -43 26.5 -71t63.5 -28t63.5 28t25.5 71h58zM79 700h75v-700h-75v700z" />
    <glyph glyph-name="ibreve" unicode="&#x12d;" horiz-adv-x="213" 
d="M255 691q-1 -67 -42 -108.5t-105 -41.5t-105.5 41.5t-42.5 108.5h58q1 -43 26.5 -71t63.5 -28t63.5 28t25.5 71h58zM70 486h73v-486h-73v486z" />
    <glyph glyph-name="Iogonek" unicode="&#x12e;" horiz-adv-x="233" 
d="M170 -128l19 -49q-38 -20 -90 -20q-44 0 -70.5 25.5t-26.5 64.5q0 72 77 120v687h75v-700q-41 -13 -64.5 -38t-23.5 -56q0 -21 14 -34t38 -13q29 0 52 13z" />
    <glyph glyph-name="iogonek" unicode="&#x12f;" horiz-adv-x="213" 
d="M107 593q-22 0 -37 15.5t-15 37.5q0 21 15 36.5t37 15.5q21 0 37 -15.5t16 -36.5q0 -22 -16 -37.5t-37 -15.5zM159 -128l19 -49q-38 -20 -90 -20q-44 0 -70.5 25.5t-26.5 64.5q0 73 79 121v472h73v-486q-41 -13 -64.5 -38t-23.5 -56q0 -21 14 -34t38 -13q29 0 52 13z" />
    <glyph glyph-name="Idotaccent" unicode="&#x130;" horiz-adv-x="233" 
d="M116 874q21 0 37 -15.5t16 -36.5t-16 -36.5t-37 -15.5q-22 0 -37 15t-15 37q0 21 15 36.5t37 15.5zM79 700h75v-700h-75v700z" />
    <glyph glyph-name="dotlessi" unicode="&#x131;" horiz-adv-x="213" 
d="M70 486h73v-486h-73v486z" />
    <glyph glyph-name="IJ" unicode="&#x132;" horiz-adv-x="535" 
d="M79 700h75v-700h-75v700zM256 63q5 -1 18 -1q112 0 112 144v494h76v-511q0 -95 -44.5 -146.5t-124.5 -51.5q-25 0 -37 2v70z" />
    <glyph glyph-name="ij" unicode="&#x133;" horiz-adv-x="426" 
d="M107 698q21 0 37 -15.5t16 -36.5q0 -22 -16 -37.5t-37 -15.5q-22 0 -37 15.5t-15 37.5q0 21 15 36.5t37 15.5zM320 698q20 0 36 -15.5t16 -36.5q0 -22 -16 -37.5t-36 -15.5q-22 0 -37.5 15.5t-15.5 37.5q0 21 15.5 36.5t37.5 15.5zM70 486h73v-486h-73v486zM205 -134
q1 0 5.5 -0.5t6.5 -0.5q66 0 66 100v521h73v-527q0 -161 -132 -161q-12 0 -19 1v67z" />
    <glyph glyph-name="Jcircumflex" unicode="&#x134;" horiz-adv-x="302" 
d="M233 907l90 -141h-65l-66 92l-66 -92h-65l90 141h82zM153 206v494h76v-511q0 -95 -44.5 -146.5t-124.5 -51.5q-25 0 -37 2v70q5 -1 18 -1q112 0 112 144z" />
    <glyph glyph-name="jcircumflex" unicode="&#x135;" horiz-adv-x="213" 
d="M148 693l90 -141h-65l-66 92l-66 -92h-66l91 141h82zM70 -35v521h73v-527q0 -161 -132 -161q-12 0 -19 1v67q1 0 5 -0.5t7 -0.5q66 0 66 100z" />
    <glyph glyph-name="uni0136" unicode="&#x136;" horiz-adv-x="612" 
d="M234 367l358 -367h-101l-337 351v-351h-75v700h75v-318l310 318h98zM195 -214l81 141h90l-103 -141h-68z" />
    <glyph glyph-name="uni0137" unicode="&#x137;" horiz-adv-x="503" 
d="M217 254l269 -254h-97l-246 238v-238h-73v700h73v-431l235 217h92zM147 -214l81 141h90l-103 -141h-68z" />
    <glyph glyph-name="kgreenlandic" unicode="&#x138;" horiz-adv-x="505" 
d="M487 0h-96l-248 243v-243h-73v486h73v-222l236 222h93l-250 -232z" />
    <glyph glyph-name="Lacute" unicode="&#x139;" horiz-adv-x="545" 
d="M245 900l-103 -141h-68l81 141h90zM79 700h75v-628h354v-72h-429v700z" />
    <glyph glyph-name="lacute" unicode="&#x13a;" horiz-adv-x="213" 
d="M239 900l-103 -141h-68l81 141h90zM143 700v-700h-73v700h73z" />
    <glyph glyph-name="uni013B" unicode="&#x13b;" horiz-adv-x="545" 
d="M79 700h75v-628h354v-72h-429v700zM345 -73l-103 -141h-68l81 141h90z" />
    <glyph glyph-name="uni013C" unicode="&#x13c;" horiz-adv-x="213" 
d="M143 700v-700h-73v700h73zM174 -73l-103 -141h-68l81 141h90z" />
    <glyph glyph-name="Lcaron" unicode="&#x13d;" horiz-adv-x="545" 
d="M264 545l20 205h78l-38 -205h-60zM79 700h75v-628h354v-72h-429v700z" />
    <glyph glyph-name="lcaron" unicode="&#x13e;" horiz-adv-x="274" 
d="M192 545l21 205h77l-38 -205h-60zM143 700v-700h-73v700h73z" />
    <glyph glyph-name="Ldot" unicode="&#x13f;" horiz-adv-x="545" 
d="M79 700h75v-628h354v-72h-429v700zM365 316q-25 0 -41.5 16.5t-16.5 41.5q0 24 16.5 41t41.5 17t42 -17t17 -41q0 -25 -17 -41.5t-42 -16.5z" />
    <glyph glyph-name="ldot" unicode="&#x140;" horiz-adv-x="304" 
d="M140 700v-700h-73v700h73zM254 296q-25 0 -41.5 16.5t-16.5 41.5q0 24 16.5 41t41.5 17t42 -17t17 -41q0 -25 -17 -41.5t-42 -16.5z" />
    <glyph glyph-name="Lslash" unicode="&#x141;" horiz-adv-x="545" 
d="M154 72h354v-72h-429v286l-71 -33v66l71 33v348h75v-313l207 97v-66l-207 -97v-249z" />
    <glyph glyph-name="lslash" unicode="&#x142;" horiz-adv-x="213" 
d="M216 490v-67l-73 -33v-390h-73v356l-72 -33v67l72 33v277h73v-243z" />
    <glyph glyph-name="Nacute" unicode="&#x143;" horiz-adv-x="697" 
d="M479 900l-103 -141h-68l81 141h90zM79 700h71l392 -562v562h76v-700h-70l-394 561v-561h-75v700z" />
    <glyph glyph-name="nacute" unicode="&#x144;" horiz-adv-x="584" 
d="M414 686l-102 -141h-69l81 141h90zM309 496q95 0 150 -58t55 -158v-280h-73v273q0 70 -40 112t-107 42q-68 0 -109.5 -42t-41.5 -112v-273h-73v486h73v-95q23 50 66 77.5t100 27.5z" />
    <glyph glyph-name="uni0145" unicode="&#x145;" horiz-adv-x="697" 
d="M79 700h71l392 -562v562h76v-700h-70l-394 561v-561h-75v700zM415 -73l-103 -141h-68l81 141h90z" />
    <glyph glyph-name="uni0146" unicode="&#x146;" horiz-adv-x="584" 
d="M309 496q95 0 150 -58t55 -158v-280h-73v273q0 70 -40 112t-107 42q-68 0 -109.5 -42t-41.5 -112v-273h-73v486h73v-95q23 50 66 77.5t100 27.5zM181 -214l81 141h91l-103 -141h-69z" />
    <glyph glyph-name="Ncaron" unicode="&#x147;" horiz-adv-x="697" 
d="M310 759l-90 141h65l66 -92l66 92h65l-90 -141h-82zM542 700h76v-700h-70l-394 561v-561h-75v700h71l392 -562v562z" />
    <glyph glyph-name="ncaron" unicode="&#x148;" horiz-adv-x="584" 
d="M245 545l-91 141h66l66 -92l65 92h66l-90 -141h-82zM309 496q95 0 150 -58t55 -158v-280h-73v273q0 70 -40 112t-107 42q-68 0 -109.5 -42t-41.5 -112v-273h-73v486h73v-95q23 50 66 77.5t100 27.5z" />
    <glyph glyph-name="napostrophe" unicode="&#x149;" horiz-adv-x="576" 
d="M112 616q-36 13 -36 53q0 24 16 40t40 16q23 0 39.5 -16t16.5 -40q0 -17 -15 -45l-43 -79h-47zM309 496q95 0 150 -58t55 -158v-280h-73v273q0 70 -40 112t-107 42q-68 0 -109.5 -42t-41.5 -112v-273h-73v486h73v-95q23 50 66 77.5t100 27.5z" />
    <glyph glyph-name="Eng" unicode="&#x14a;" horiz-adv-x="697" 
d="M542 700h76v-697q0 -95 -44.5 -146.5t-124.5 -51.5q-25 0 -37 2v70q5 -1 19 -1q107 0 111 132l-388 553v-561h-75v700h71l392 -562v562z" />
    <glyph glyph-name="eng" unicode="&#x14b;" horiz-adv-x="583" 
d="M514 280v-280h-1v-41q0 -161 -132 -161q-12 0 -19 1v67q1 0 5.5 -0.5t6.5 -0.5q66 0 66 100v184h1v124q0 70 -40 112t-107 42q-68 0 -109.5 -42t-41.5 -112v-273h-73v486h73v-95q23 50 66 77.5t100 27.5q95 0 150 -58t55 -158z" />
    <glyph glyph-name="Omacron" unicode="&#x14c;" horiz-adv-x="804" 
d="M242 772v60h320v-60h-320zM402 710q149 0 251 -103.5t102 -254.5q0 -153 -102 -257.5t-251 -104.5t-251 104.5t-102 257.5q0 151 102 254.5t251 103.5zM402 637q-116 0 -195.5 -82t-79.5 -203q0 -122 79.5 -205.5t195.5 -83.5t195.5 83.5t79.5 205.5q0 121 -79.5 203
t-195.5 82z" />
    <glyph glyph-name="omacron" unicode="&#x14d;" horiz-adv-x="585" 
d="M133 558v60h320v-60h-320zM292 496q106 0 179 -73t73 -180t-73 -180t-179 -73t-178.5 73t-72.5 180t72.5 180t178.5 73zM292 427q-76 0 -127.5 -53t-51.5 -131q0 -77 51.5 -130.5t127.5 -53.5t128 53.5t52 130.5q0 78 -52 131t-128 53z" />
    <glyph glyph-name="Obreve" unicode="&#x14e;" horiz-adv-x="804" 
d="M549 905q-1 -67 -42 -108.5t-105 -41.5t-105.5 41.5t-42.5 108.5h58q1 -43 26.5 -71t63.5 -28t63.5 28t25.5 71h58zM402 710q149 0 251 -103.5t102 -254.5q0 -153 -102 -257.5t-251 -104.5t-251 104.5t-102 257.5q0 151 102 254.5t251 103.5zM402 637q-116 0 -195.5 -82
t-79.5 -203q0 -122 79.5 -205.5t195.5 -83.5t195.5 83.5t79.5 205.5q0 121 -79.5 203t-195.5 82z" />
    <glyph glyph-name="obreve" unicode="&#x14f;" horiz-adv-x="585" 
d="M440 691q-1 -67 -42 -108.5t-105 -41.5q-63 0 -105 41.5t-43 108.5h58q1 -43 26.5 -71t63.5 -28t63.5 28t25.5 71h58zM292 496q106 0 179 -73t73 -180t-73 -180t-179 -73t-178.5 73t-72.5 180t72.5 180t178.5 73zM292 427q-76 0 -127.5 -53t-51.5 -131q0 -77 51.5 -130.5
t127.5 -53.5t128 53.5t52 130.5q0 78 -52 131t-128 53z" />
    <glyph glyph-name="Ohungarumlaut" unicode="&#x150;" horiz-adv-x="804" 
d="M354 759l68 148h-75l-69 -148h76zM510 759l68 148h-76l-68 -148h76zM402 710q149 0 251 -103.5t102 -254.5q0 -153 -102 -257.5t-251 -104.5t-251 104.5t-102 257.5q0 151 102 254.5t251 103.5zM402 637q-116 0 -195.5 -82t-79.5 -203q0 -122 79.5 -205.5t195.5 -83.5
t195.5 83.5t79.5 205.5q0 121 -79.5 203t-195.5 82z" />
    <glyph glyph-name="ohungarumlaut" unicode="&#x151;" horiz-adv-x="585" 
d="M246 545l68 148h-75l-69 -148h76zM402 545l68 148h-76l-68 -148h76zM292 496q106 0 179 -73t73 -180t-73 -180t-179 -73t-178.5 73t-72.5 180t72.5 180t178.5 73zM292 427q-76 0 -127.5 -53t-51.5 -131q0 -77 51.5 -130.5t127.5 -53.5t128 53.5t52 130.5q0 78 -52 131
t-128 53z" />
    <glyph glyph-name="OE" unicode="&#x152;" horiz-adv-x="981" 
d="M926 628h-316v-218h282v-72h-282v-266h316v-72h-533q-146 0 -245 101.5t-99 251.5t99 248.5t245 98.5h533v-72zM534 72v556h-145q-114 0 -188 -77.5t-74 -197.5q0 -121 74.5 -201t187.5 -80h145z" />
    <glyph glyph-name="oe" unicode="&#x153;" horiz-adv-x="994" 
d="M954 258q0 -16 -2 -28h-406q5 -78 53 -126t124 -48q58 0 100.5 26.5t52.5 71.5h73q-14 -74 -77 -119t-150 -45q-69 0 -125 33t-88 89q-33 -56 -90.5 -89t-126.5 -33q-106 0 -178.5 73t-72.5 180t72.5 180t178.5 73q69 0 126 -32.5t90 -88.5q33 56 89.5 88.5t123.5 32.5
q98 0 165.5 -67.5t67.5 -170.5zM549 292h327q-6 60 -50 99t-109 39q-64 0 -109.5 -37.5t-58.5 -100.5zM292 59q76 0 128 53.5t52 130.5q0 78 -52 131t-128 53t-127.5 -53t-51.5 -131q0 -77 51.5 -130.5t127.5 -53.5z" />
    <glyph glyph-name="Racute" unicode="&#x154;" horiz-adv-x="610" 
d="M406 900l-103 -141h-68l81 141h90zM579 0h-91l-196 300h-138v-300h-75v700h253q87 0 147 -57t60 -141q0 -79 -44.5 -132.5t-119.5 -66.5zM154 628v-256h176q58 0 95.5 37t37.5 93q0 55 -37.5 90.5t-95.5 35.5h-176z" />
    <glyph glyph-name="racute" unicode="&#x155;" horiz-adv-x="350" 
d="M324 686l-103 -141h-68l81 141h90zM280 496q19 0 45 -6v-68q-22 8 -47 8q-57 0 -96 -40t-39 -102v-288h-73v486h73v-78q22 41 57.5 64.5t79.5 23.5z" />
    <glyph glyph-name="uni0156" unicode="&#x156;" horiz-adv-x="610" 
d="M375 303l204 -303h-91l-196 300h-138v-300h-75v700h253q87 0 147 -57t60 -141q0 -79 -44.5 -132.5t-119.5 -66.5zM154 628v-256h176q58 0 95.5 37t37.5 93q0 55 -37.5 90.5t-95.5 35.5h-176zM198 -214l81 141h90l-103 -141h-68z" />
    <glyph glyph-name="uni0157" unicode="&#x157;" horiz-adv-x="350" 
d="M280 496q19 0 45 -6v-68q-22 8 -47 8q-57 0 -96 -40t-39 -102v-288h-73v486h73v-78q22 41 57.5 64.5t79.5 23.5zM1 -214l81 141h90l-103 -141h-68z" />
    <glyph glyph-name="Rcaron" unicode="&#x158;" horiz-adv-x="610" 
d="M237 759l-90 141h65l66 -92l66 92h65l-90 -141h-82zM579 0h-91l-196 300h-138v-300h-75v700h253q87 0 147 -57t60 -141q0 -79 -44.5 -132.5t-119.5 -66.5zM154 628v-256h176q58 0 95.5 37t37.5 93q0 55 -37.5 90.5t-95.5 35.5h-176z" />
    <glyph glyph-name="rcaron" unicode="&#x159;" horiz-adv-x="350" 
d="M154 545l-90 141h65l66 -92l66 92h65l-90 -141h-82zM143 408q22 41 57.5 64.5t79.5 23.5q19 0 45 -6v-68q-22 8 -47 8q-57 0 -96 -40t-39 -102v-288h-73v486h73v-78z" />
    <glyph glyph-name="Sacute" unicode="&#x15a;" horiz-adv-x="595" 
d="M422 900l-103 -141h-68l81 141h90zM304 -10q-109 0 -180.5 64.5t-71.5 162.5h74q0 -69 50 -112.5t128 -43.5q73 0 121 36t48 92q0 47 -30.5 77t-76 42.5l-98.5 27.5t-98.5 31.5t-76 56.5t-30.5 100q0 81 65 133.5t165 52.5q107 0 170 -57.5t63 -145.5h-77q-2 58 -46 94.5
t-112 36.5t-111 -31.5t-43 -82.5q0 -33 17.5 -56t46.5 -35t66 -23t75.5 -19t75.5 -23.5t66 -35.5t46.5 -57t17.5 -86q0 -86 -69.5 -142.5t-174.5 -56.5z" />
    <glyph glyph-name="sacute" unicode="&#x15b;" horiz-adv-x="457" 
d="M348 689l-103 -141h-69l81 141h91zM230 -10q-82 0 -136 41.5t-61 112.5h70q5 -41 39 -66t85 -25t82 23t31 60t-30.5 57t-74 27.5t-86.5 18t-73.5 40t-30.5 81.5q0 60 47.5 98t125.5 38q72 0 124 -37.5t60 -101.5h-74q-5 34 -36 56t-76 22q-44 0 -72 -19.5t-28 -50.5
q0 -36 30.5 -54t74 -25.5t86.5 -18t73.5 -42t30.5 -87.5q0 -64 -51.5 -106t-129.5 -42z" />
    <glyph glyph-name="Scircumflex" unicode="&#x15c;" horiz-adv-x="595" 
d="M293 858l-66 -92h-65l90 141h82l90 -141h-65zM137 524q0 -33 17.5 -56t46.5 -35t66 -23t75.5 -19t75.5 -23.5t66 -35.5t46.5 -57t17.5 -86q0 -86 -69.5 -142.5t-174.5 -56.5q-109 0 -180.5 64.5t-71.5 162.5h74q0 -69 50 -112.5t128 -43.5q73 0 121 36t48 92
q0 47 -30.5 77t-76 42.5l-98.5 27.5t-98.5 31.5t-76 56.5t-30.5 100q0 81 65 133.5t165 52.5q107 0 170 -57.5t63 -145.5h-77q-2 58 -46 94.5t-112 36.5t-111 -31.5t-43 -82.5z" />
    <glyph glyph-name="scircumflex" unicode="&#x15d;" horiz-adv-x="457" 
d="M219 647l-66 -92h-66l91 141h82l90 -141h-66zM116 365q0 -36 30.5 -54t74 -25.5t86.5 -18t73.5 -42t30.5 -87.5q0 -64 -51.5 -106t-129.5 -42q-82 0 -136 41.5t-61 112.5h70q5 -41 39 -66t85 -25t82 23t31 60t-30.5 57t-74 27.5t-86.5 18t-73.5 40t-30.5 81.5
q0 60 47.5 98t125.5 38q72 0 124 -37.5t60 -101.5h-74q-5 34 -36 56t-76 22q-44 0 -72 -19.5t-28 -50.5z" />
    <glyph glyph-name="Scedilla" unicode="&#x15e;" horiz-adv-x="595" 
d="M548 189q0 -78 -57 -132t-148 -65q67 -78 33.5 -143t-129.5 -63l-18 54q80 6 96 50t-37 100q-104 5 -170 69t-66 158h74q0 -69 50 -112.5t128 -43.5q73 0 121 36t48 92q0 47 -30.5 77t-76 42.5l-98.5 27.5t-98.5 31.5t-76 56.5t-30.5 100q0 81 65 133.5t165 52.5
q107 0 170 -57.5t63 -145.5h-77q-2 58 -46 94.5t-112 36.5t-111 -31.5t-43 -82.5q0 -33 17.5 -56t46.5 -35t66 -23t75.5 -19t75.5 -23.5t66 -35.5t46.5 -57t17.5 -86z" />
    <glyph glyph-name="scedilla" unicode="&#x15f;" horiz-adv-x="457" 
d="M411 138q0 -57 -42 -97.5t-108 -48.5q67 -78 33.5 -143t-129.5 -63l-18 54q80 6 96 50.5t-38 100.5q-73 6 -119 47t-53 106h70q5 -41 39 -66t85 -25t82 23t31 60t-30.5 57t-74 27.5t-86.5 18t-73.5 40t-30.5 81.5q0 60 47.5 98t125.5 38q72 0 124 -37.5t60 -101.5h-74
q-5 34 -36 56t-76 22q-44 0 -72 -19.5t-28 -50.5q0 -36 30.5 -54t74 -25.5t86.5 -18t73.5 -42t30.5 -87.5z" />
    <glyph glyph-name="Scaron" unicode="&#x160;" horiz-adv-x="595" 
d="M252 759l-90 141h65l66 -92l66 92h65l-90 -141h-82zM137 524q0 -33 17.5 -56t46.5 -35t66 -23t75.5 -19t75.5 -23.5t66 -35.5t46.5 -57t17.5 -86q0 -86 -69.5 -142.5t-174.5 -56.5q-109 0 -180.5 64.5t-71.5 162.5h74q0 -69 50 -112.5t128 -43.5q73 0 121 36t48 92
q0 47 -30.5 77t-76 42.5l-98.5 27.5t-98.5 31.5t-76 56.5t-30.5 100q0 81 65 133.5t165 52.5q107 0 170 -57.5t63 -145.5h-77q-2 58 -46 94.5t-112 36.5t-111 -31.5t-43 -82.5z" />
    <glyph glyph-name="scaron" unicode="&#x161;" horiz-adv-x="457" 
d="M178 548l-91 141h66l66 -92l65 92h66l-90 -141h-82zM116 365q0 -36 30.5 -54t74 -25.5t86.5 -18t73.5 -42t30.5 -87.5q0 -64 -51.5 -106t-129.5 -42q-82 0 -136 41.5t-61 112.5h70q5 -41 39 -66t85 -25t82 23t31 60t-30.5 57t-74 27.5t-86.5 18t-73.5 40t-30.5 81.5
q0 60 47.5 98t125.5 38q72 0 124 -37.5t60 -101.5h-74q-5 34 -36 56t-76 22q-44 0 -72 -19.5t-28 -50.5z" />
    <glyph glyph-name="uni0162" unicode="&#x162;" horiz-adv-x="592" 
d="M564 628h-230v-617q57 -52 63 -106t-34 -87t-106 -32l-17 54q83 6 96.5 53.5t-47.5 106.5h-30v628h-230v72h535v-72z" />
    <glyph glyph-name="uni0163" unicode="&#x163;" horiz-adv-x="352" 
d="M320 418h-136v-254q0 -101 102 -101q21 0 34 4v-67q-22 -5 -47 -5h-10q46 -51 47 -100.5t-38 -79.5t-102 -29l-18 54q58 4 83 29.5t12 64t-60 79.5q-76 38 -76 150v255h-96v68h96v134h73v-134h136v-68z" />
    <glyph glyph-name="Tcaron" unicode="&#x164;" horiz-adv-x="593" 
d="M254 759l-90 141h65l66 -92l66 92h65l-90 -141h-82zM564 700v-72h-230v-628h-75v628h-230v72h535z" />
    <glyph glyph-name="tcaron" unicode="&#x165;" horiz-adv-x="352" 
d="M344 750l-38 -205h-60l20 205h78zM184 620v-134h136v-68h-136v-254q0 -101 102 -101q21 0 34 4v-67q-22 -5 -47 -5q-76 0 -119 42.5t-43 125.5v255h-96v68h96v134h73z" />
    <glyph glyph-name="Tbar" unicode="&#x166;" horiz-adv-x="593" 
d="M564 628h-230v-252h112v-52h-112v-324h-75v324h-114v52h114v252h-230v72h535v-72z" />
    <glyph glyph-name="tbar" unicode="&#x167;" horiz-adv-x="352" 
d="M320 418h-136v-151h132v-48h-132v-55q0 -101 102 -101q21 0 34 4v-67q-22 -5 -47 -5q-76 0 -119 42.5t-43 125.5v56h-96v48h96v151h-96v68h96v134h73v-134h136v-68z" />
    <glyph glyph-name="Utilde" unicode="&#x168;" horiz-adv-x="691" 
d="M173 777q4 49 32 79.5t67 30.5q32 0 78.5 -29t61.5 -29q20 0 32.5 15.5t12.5 40.5l60 -9q-4 -49 -32 -79.5t-67 -30.5q-32 0 -78 29t-64 29q-19 0 -31 -16t-11 -41zM345 -10q-115 0 -190.5 77.5t-75.5 194.5v438h75v-438q0 -86 54.5 -142.5t136.5 -56.5t136.5 56.5
t54.5 142.5v438h76v-438q0 -117 -76 -194.5t-191 -77.5z" />
    <glyph glyph-name="utilde" unicode="&#x169;" horiz-adv-x="584" 
d="M225 610q-20 0 -32 -16t-11 -41l-60 10q3 49 30.5 79.5t67.5 30.5q32 0 78.5 -29t62.5 -29q20 0 32.5 15.5t12.5 40.5l60 -9q-4 -49 -32 -79.5t-67 -30.5q-33 0 -79 29t-63 29zM441 486h73v-486h-73v94q-50 -104 -166 -104q-94 0 -149.5 58.5t-55.5 157.5v280h73v-272
q0 -70 40 -112.5t107 -42.5q69 0 110 42t41 113v272z" />
    <glyph glyph-name="Umacron" unicode="&#x16a;" horiz-adv-x="691" 
d="M185 772v60h320v-60h-320zM345 -10q-115 0 -190.5 77.5t-75.5 194.5v438h75v-438q0 -86 54.5 -142.5t136.5 -56.5t136.5 56.5t54.5 142.5v438h76v-438q0 -117 -76 -194.5t-191 -77.5z" />
    <glyph glyph-name="umacron" unicode="&#x16b;" horiz-adv-x="584" 
d="M454 618v-60h-320v60h320zM441 486h73v-486h-73v94q-50 -104 -166 -104q-94 0 -149.5 58.5t-55.5 157.5v280h73v-272q0 -70 40 -112.5t107 -42.5q69 0 110 42t41 113v272z" />
    <glyph glyph-name="Ubreve" unicode="&#x16c;" horiz-adv-x="691" 
d="M493 905q-1 -67 -42 -108.5t-105 -41.5t-105.5 41.5t-42.5 108.5h58q1 -43 26.5 -71t63.5 -28t63.5 28t25.5 71h58zM345 -10q-115 0 -190.5 77.5t-75.5 194.5v438h75v-438q0 -86 54.5 -142.5t136.5 -56.5t136.5 56.5t54.5 142.5v438h76v-438q0 -117 -76 -194.5
t-191 -77.5z" />
    <glyph glyph-name="ubreve" unicode="&#x16d;" horiz-adv-x="584" 
d="M294 541q-64 0 -105 41.5t-42 108.5h57q1 -43 26.5 -71t63.5 -28t63.5 28t26.5 71h57q-1 -67 -42 -108.5t-105 -41.5zM441 486h73v-486h-73v94q-50 -104 -166 -104q-94 0 -149.5 58.5t-55.5 157.5v280h73v-272q0 -70 40 -112.5t107 -42.5q69 0 110 42t41 113v272z" />
    <glyph glyph-name="Uring" unicode="&#x16e;" horiz-adv-x="691" 
d="M346 757q-52 0 -86 32.5t-34 81.5q0 50 34 82.5t86 32.5q51 0 85.5 -33t34.5 -82t-34.5 -81.5t-85.5 -32.5zM346 803q31 0 51 19.5t20 48.5t-20 49t-51 20t-51 -20t-20 -49t20 -48.5t51 -19.5zM345 -10q-115 0 -190.5 77.5t-75.5 194.5v438h75v-438q0 -86 54.5 -142.5
t136.5 -56.5t136.5 56.5t54.5 142.5v438h76v-438q0 -117 -76 -194.5t-191 -77.5z" />
    <glyph glyph-name="uring" unicode="&#x16f;" horiz-adv-x="584" 
d="M294 543q-51 0 -85 32.5t-34 81.5t34 82t85 33q52 0 86 -32.5t34 -82.5q0 -49 -34 -81.5t-86 -32.5zM294 726q-31 0 -51 -20t-20 -49t20 -48.5t51 -19.5t51 19.5t20 48.5t-20 49t-51 20zM441 486h73v-486h-73v94q-50 -104 -166 -104q-94 0 -149.5 58.5t-55.5 157.5v280
h73v-272q0 -70 40 -112.5t107 -42.5q69 0 110 42t41 113v272z" />
    <glyph glyph-name="Uhungarumlaut" unicode="&#x170;" horiz-adv-x="691" 
d="M298 759l68 148h-75l-69 -148h76zM454 759l68 148h-76l-68 -148h76zM345 -10q-115 0 -190.5 77.5t-75.5 194.5v438h75v-438q0 -86 54.5 -142.5t136.5 -56.5t136.5 56.5t54.5 142.5v438h76v-438q0 -117 -76 -194.5t-191 -77.5z" />
    <glyph glyph-name="uhungarumlaut" unicode="&#x171;" horiz-adv-x="584" 
d="M315 693l-69 -148h-75l68 148h76zM471 693l-68 -148h-76l68 148h76zM441 486h73v-486h-73v94q-50 -104 -166 -104q-94 0 -149.5 58.5t-55.5 157.5v280h73v-272q0 -70 40 -112.5t107 -42.5q69 0 110 42t41 113v272z" />
    <glyph glyph-name="Uogonek" unicode="&#x172;" horiz-adv-x="691" 
d="M536 700h76v-438q0 -98 -54 -169t-142 -94q-39 -14 -61.5 -38.5t-22.5 -54.5q0 -21 14 -34t38 -13q29 0 52 13l19 -49q-38 -20 -90 -20q-44 0 -70.5 25.5t-26.5 64.5q0 55 48 98q-104 11 -170.5 86.5t-66.5 184.5v438h75v-438q0 -86 54.5 -142.5t136.5 -56.5t136.5 56.5
t54.5 142.5v438z" />
    <glyph glyph-name="uogonek" unicode="&#x173;" horiz-adv-x="584" 
d="M529 -128l19 -49q-38 -20 -90 -20q-44 0 -70.5 25.5t-26.5 64.5q0 72 80 122v79q-50 -104 -166 -104q-94 0 -149.5 58.5t-55.5 157.5v280h73v-272q0 -70 40 -112.5t107 -42.5q69 0 110 42t41 113v272h73v-486h-1q-41 -13 -64.5 -38t-23.5 -56q0 -21 14 -34t38 -13
q29 0 52 13z" />
    <glyph glyph-name="Wcircumflex" unicode="&#x174;" horiz-adv-x="1017" 
d="M509 858l-66 -92h-65l90 141h82l90 -141h-65zM920 700h80l-235 -700h-66l-189 582l-190 -582h-66l-237 700h81l190 -582l190 582h67l187 -583z" />
    <glyph glyph-name="wcircumflex" unicode="&#x175;" horiz-adv-x="786" 
d="M393 644l-66 -92h-65l90 141h82l90 -141h-65zM690 486h78l-178 -486h-60l-138 382l-138 -382h-59l-178 486h78l130 -382l137 382h60l138 -382z" />
    <glyph glyph-name="Ycircumflex" unicode="&#x176;" horiz-adv-x="620" 
d="M311 858l-66 -92h-65l90 141h82l90 -141h-65zM514 700h89l-253 -386v-314h-76v314l-257 386h92l204 -310z" />
    <glyph glyph-name="ycircumflex" unicode="&#x177;" horiz-adv-x="511" 
d="M263 644l-66 -92h-65l90 141h82l90 -141h-65zM415 486h78l-281 -670h-78l84 193l-201 477h79l159 -392z" />
    <glyph glyph-name="Ydieresis" unicode="&#x178;" horiz-adv-x="620" 
d="M233 874q21 0 37 -15.5t16 -36.5t-16 -36.5t-37 -15.5t-36.5 15t-15.5 37q0 21 15.5 36.5t36.5 15.5zM389 874q20 0 36 -15.5t16 -36.5t-15.5 -36.5t-36.5 -15.5q-22 0 -37.5 15t-15.5 37q0 21 15.5 36.5t37.5 15.5zM17 700h92l204 -310l201 310h89l-253 -386v-314h-76
v314z" />
    <glyph glyph-name="Zacute" unicode="&#x179;" horiz-adv-x="581" 
d="M422 900l-103 -141h-68l81 141h90zM52 700h491v-54l-415 -574h419v-72h-518v55l417 573h-394v72z" />
    <glyph glyph-name="zacute" unicode="&#x17a;" horiz-adv-x="500" 
d="M373 686l-103 -141h-68l81 141h90zM456 486v-54l-324 -364l325 1v-69h-425v55l325 364l-304 -1v68h403z" />
    <glyph glyph-name="Zdotaccent" unicode="&#x17b;" horiz-adv-x="581" 
d="M294 874q21 0 37 -15.5t16 -36.5t-16 -36.5t-37 -15.5q-22 0 -37 15t-15 37q0 21 15 36.5t37 15.5zM52 700h491v-54l-415 -574h419v-72h-518v55l417 573h-394v72z" />
    <glyph glyph-name="zdotaccent" unicode="&#x17c;" horiz-adv-x="500" 
d="M245 698q21 0 37 -15.5t16 -36.5q0 -22 -16 -37.5t-37 -15.5q-22 0 -37 15.5t-15 37.5q0 21 15 36.5t37 15.5zM456 486v-54l-324 -364l325 1v-69h-425v55l325 364l-304 -1v68h403z" />
    <glyph glyph-name="Zcaron" unicode="&#x17d;" horiz-adv-x="581" 
d="M253 759l-90 141h65l66 -92l66 92h65l-90 -141h-82zM128 72h419v-72h-518v55l417 573h-394v72h491v-54z" />
    <glyph glyph-name="zcaron" unicode="&#x17e;" horiz-adv-x="500" 
d="M204 545l-90 141h65l66 -92l66 92h65l-90 -141h-82zM132 68l325 1v-69h-425v55l325 364l-304 -1v68h403v-54z" />
    <glyph glyph-name="longs" unicode="&#x17f;" horiz-adv-x="312" 
d="M281 712q25 0 48 -5v-67q-15 4 -35 4q-102 0 -102 -100v-544h-73v418h-96v68h96v59q0 83 43 125t119 42z" />
    <glyph glyph-name="uni0180" unicode="&#x180;" horiz-adv-x="623" 
d="M341 496q101 0 171 -73t70 -179t-70.5 -180t-170.5 -74q-69 0 -120 32.5t-78 90.5v-113h-73v588h-112v52h112v60h73v-60h115v-52h-115v-214q26 58 77.5 90t120.5 32zM327 59q77 0 130 53.5t53 131.5q0 77 -53 130.5t-130 53.5q-79 0 -131.5 -52t-52.5 -132t52 -132.5
t132 -52.5z" />
    <glyph glyph-name="florin" unicode="&#x192;" horiz-adv-x="361" 
d="M201 544v-58h137v-68h-137v-445q0 -83 -43 -125t-119 -42q-30 0 -47 4v67q13 -4 34 -4q102 0 102 101v444h-96v68h96v59q0 83 43 125t119 42q25 0 48 -5v-67q-13 4 -34 4q-103 0 -103 -100z" />
    <glyph glyph-name="uni01EA" unicode="&#x1ea;" horiz-adv-x="804" 
d="M467 -4q-36 -14 -56 -37.5t-20 -52.5q0 -21 14 -34t38 -13q29 0 52 13l19 -49q-38 -20 -90 -20q-44 0 -70.5 25.5t-26.5 64.5q0 55 48 98q-140 11 -233 113t-93 248q0 151 102 254.5t251 103.5t251 -103.5t102 -254.5q0 -135 -81 -234t-207 -122zM127 352
q0 -122 79.5 -205.5t195.5 -83.5t195.5 83.5t79.5 205.5q0 121 -79.5 203t-195.5 82t-195.5 -82t-79.5 -203z" />
    <glyph glyph-name="uni01EB" unicode="&#x1eb;" horiz-adv-x="585" 
d="M358 -2q-39 -13 -61 -37.5t-22 -54.5q0 -21 14 -34t38 -13q29 0 52 13l19 -49q-38 -20 -90 -20q-44 0 -70.5 25.5t-26.5 64.5q0 55 49 99q-94 11 -156.5 82t-62.5 169q0 107 72.5 180t178.5 73t179 -73t73 -180q0 -89 -52 -156t-134 -89zM113 243q0 -77 51.5 -130.5
t127.5 -53.5t128 53.5t52 130.5q0 78 -52 131t-128 53t-127.5 -53t-51.5 -131z" />
    <glyph glyph-name="Aringacute" unicode="&#x1fa;" horiz-adv-x="655" 
d="M329 757q-52 0 -86 32.5t-34 81.5q0 39 22 68.5t59 40.5l77 135h90l-97 -133q39 -9 64 -39.5t25 -71.5q0 -49 -34.5 -81.5t-85.5 -32.5zM329 940q-31 0 -51 -20t-20 -49t20 -48.5t51 -19.5t51 19.5t20 48.5t-20 49t-51 20zM560 0l-68 171h-331l-68 -171h-80l280 700h68
l281 -700h-82zM190 243h274l-137 346z" />
    <glyph glyph-name="aringacute" unicode="&#x1fb;" horiz-adv-x="623" 
d="M338 543q-51 0 -85 32.5t-34 81.5q0 39 21.5 68.5t57.5 40.5l78 135h91l-97 -133q39 -9 63.5 -39.5t24.5 -71.5q0 -49 -34 -81.5t-86 -32.5zM338 726q-30 0 -50 -20t-20 -49t20 -48.5t50 -19.5q31 0 51.5 19.5t20.5 48.5t-20.5 49t-51.5 20zM480 486h73v-486h-73v113
q-27 -58 -78 -90.5t-120 -32.5q-100 0 -170.5 74t-70.5 180t70 179t171 73q69 0 120.5 -32t77.5 -90v112zM296 59q80 0 132 52.5t52 132.5t-52 132t-132 52q-77 0 -130 -53.5t-53 -130.5q0 -78 53 -131.5t130 -53.5z" />
    <glyph glyph-name="AEacute" unicode="&#x1fc;" horiz-adv-x="922" 
d="M772 900l-103 -141h-68l81 141h90zM866 628h-313v-218h279v-72h-279v-266h313v-72h-389v184h-267l-111 -184h-86l428 700h425v-72zM251 252h226v377z" />
    <glyph glyph-name="aeacute" unicode="&#x1fd;" horiz-adv-x="1019" 
d="M638 686l-103 -141h-68l81 141h90zM978 265q0 -8 -2 -26h-410q3 -84 54.5 -135t128.5 -51q53 0 96 21.5t63 59.5l57 -35q-26 -49 -84.5 -79t-127.5 -30q-66 0 -118.5 32.5t-81.5 91.5v-114h-73v113q-27 -58 -78 -90.5t-120 -32.5q-100 0 -170.5 74t-70.5 180t70 179
t171 73q69 0 120.5 -32t77.5 -90v112h73v-110q29 57 81 88.5t118 31.5q95 0 160.5 -67t65.5 -164zM570 288h336q-5 63 -51.5 105.5t-111.5 42.5q-67 0 -114.5 -41t-58.5 -107zM296 59q80 0 132 52.5t52 132.5t-52 132t-132 52q-77 0 -130 -53.5t-53 -130.5q0 -78 53 -131.5
t130 -53.5z" />
    <glyph glyph-name="uni0218" unicode="&#x218;" horiz-adv-x="595" 
d="M304 -10q-109 0 -180.5 64.5t-71.5 162.5h74q0 -69 50 -112.5t128 -43.5q73 0 121 36t48 92q0 47 -30.5 77t-76 42.5l-98.5 27.5t-98.5 31.5t-76 56.5t-30.5 100q0 81 65 133.5t165 52.5q107 0 170 -57.5t63 -145.5h-77q-2 58 -46 94.5t-112 36.5t-111 -31.5t-43 -82.5
q0 -33 17.5 -56t46.5 -35t66 -23t75.5 -19t75.5 -23.5t66 -35.5t46.5 -57t17.5 -86q0 -86 -69.5 -142.5t-174.5 -56.5zM365 -73l-103 -141h-68l81 141h90z" />
    <glyph glyph-name="uni0219" unicode="&#x219;" horiz-adv-x="457" 
d="M230 -10q-82 0 -136 41.5t-61 112.5h70q5 -41 39 -66t85 -25t82 23t31 60t-30.5 57t-74 27.5t-86.5 18t-73.5 40t-30.5 81.5q0 60 47.5 98t125.5 38q72 0 124 -37.5t60 -101.5h-74q-5 34 -36 56t-76 22q-44 0 -72 -19.5t-28 -50.5q0 -36 30.5 -54t74 -25.5t86.5 -18
t73.5 -42t30.5 -87.5q0 -64 -51.5 -106t-129.5 -42zM282 -73l-102 -141h-69l81 141h90z" />
    <glyph glyph-name="uni021A" unicode="&#x21a;" horiz-adv-x="593" 
d="M564 700v-72h-230v-628h-75v628h-230v72h535zM192 -214l81 141h90l-103 -141h-68z" />
    <glyph glyph-name="uni021B" unicode="&#x21b;" horiz-adv-x="352" 
d="M320 418h-136v-254q0 -101 102 -101q21 0 34 4v-67q-22 -5 -47 -5q-76 0 -119 42.5t-43 125.5v255h-96v68h96v134h73v-134h136v-68zM116 -214l81 141h90l-103 -141h-68z" />
    <glyph glyph-name="uni0237" unicode="&#x237;" horiz-adv-x="213" 
d="M-8 -134q1 0 5 -0.5t7 -0.5q66 0 66 100v521h73v-527q0 -161 -132 -161q-12 0 -19 1v67z" />
    <glyph glyph-name="uni0243" unicode="&#x243;" horiz-adv-x="591" 
d="M401 370q66 -7 111 -57.5t45 -119.5q0 -81 -59.5 -137t-145.5 -56h-273v171h-113v52h113v477h243q82 0 140 -51.5t58 -123.5q0 -56 -34 -100.5t-85 -54.5zM154 628v-233h166q52 0 88 35t36 85q0 47 -36.5 80t-87.5 33h-166zM348 72q57 0 94.5 37.5t37.5 92.5t-38 92.5
t-93 37.5h-195v-109h113v-52h-113v-99h194z" />
    <glyph glyph-name="circumflex" unicode="&#x2c6;" horiz-adv-x="363" 
d="M313 552h-66l-65 92l-66 -92h-66l91 141h81z" />
    <glyph glyph-name="caron" unicode="&#x2c7;" horiz-adv-x="363" 
d="M247 686h66l-91 -141h-81l-91 141h66l66 -92z" />
    <glyph glyph-name="breve" unicode="&#x2d8;" horiz-adv-x="394" 
d="M344 691q-1 -67 -42 -108.5t-105 -41.5t-105 41.5t-42 108.5h57q1 -43 26.5 -71t63.5 -28t63.5 28t26.5 71h57z" />
    <glyph glyph-name="dotaccent" unicode="&#x2d9;" horiz-adv-x="206" 
d="M103 698q21 0 37 -15.5t16 -36.5q0 -22 -16 -37.5t-37 -15.5q-22 0 -37.5 15.5t-15.5 37.5q0 21 15.5 36.5t37.5 15.5z" />
    <glyph glyph-name="ring" unicode="&#x2da;" horiz-adv-x="339" 
d="M169 543q-51 0 -85 32.5t-34 81.5t34 82t85 33q52 0 86 -32.5t34 -82.5q0 -49 -34 -81.5t-86 -32.5zM169 589q31 0 51.5 19.5t20.5 48.5t-20.5 49t-51.5 20q-30 0 -50 -20t-20 -49t20 -48.5t50 -19.5z" />
    <glyph glyph-name="ogonek" unicode="&#x2db;" horiz-adv-x="288" 
d="M202 47v-47q-40 -13 -64 -38t-24 -56q0 -21 14 -34t38 -13q29 0 52 13l20 -49q-38 -20 -91 -20q-44 0 -70.5 25.5t-26.5 64.5q0 51 41.5 92t110.5 62z" />
    <glyph glyph-name="tilde" unicode="&#x2dc;" horiz-adv-x="444" 
d="M50 563q4 49 31.5 79.5t66.5 30.5q32 0 79 -29t62 -29q20 0 32.5 15.5t12.5 40.5l60 -9q-4 -49 -32 -79.5t-67 -30.5q-33 0 -79 29t-63 29q-20 0 -32 -16t-11 -41z" />
    <glyph glyph-name="hungarumlaut" unicode="&#x2dd;" horiz-adv-x="400" 
d="M125 545l69 148h-76l-68 -148h75zM282 545l68 148h-76l-68 -148h76z" />
    <glyph glyph-name="gravecomb" unicode="&#x300;" horiz-adv-x="0" 
d="M-446 686h91l81 -141h-69z" />
    <glyph glyph-name="acutecomb" unicode="&#x301;" horiz-adv-x="0" 
d="M-178 686l-103 -141h-68l81 141h90z" />
    <glyph glyph-name="uni0302" unicode="&#x302;" horiz-adv-x="0" 
d="M-51 552h-65l-66 92l-66 -92h-65l90 141h82z" />
    <glyph glyph-name="tildecomb" unicode="&#x303;" horiz-adv-x="0" 
d="M-468 563q4 49 32 79.5t67 30.5q32 0 78.5 -29t61.5 -29q20 0 32.5 15.5t12.5 40.5l60 -9q-4 -49 -32 -79.5t-67 -30.5q-33 0 -79 29t-63 29q-19 0 -31 -16t-11 -41z" />
    <glyph glyph-name="uni0304" unicode="&#x304;" horiz-adv-x="0" 
d="M-467 558v60h320v-60h-320z" />
    <glyph glyph-name="uni0306" unicode="&#x306;" horiz-adv-x="0" 
d="M-145 691q-1 -67 -42 -108.5t-105 -41.5t-105.5 41.5t-42.5 108.5h58q1 -43 26.5 -71t63.5 -28t63.5 28t25.5 71h58z" />
    <glyph glyph-name="uni0307" unicode="&#x307;" horiz-adv-x="0" 
d="M-269 698q21 0 37 -15.5t16 -36.5q0 -22 -16 -37.5t-37 -15.5q-22 0 -37 15.5t-15 37.5q0 21 15 36.5t37 15.5z" />
    <glyph glyph-name="uni0308" unicode="&#x308;" horiz-adv-x="0" 
d="M-363 698q21 0 37 -15.5t16 -36.5q0 -22 -16 -37.5t-37 -15.5t-36.5 15.5t-15.5 37.5q0 21 15.5 36.5t36.5 15.5zM-207 698q20 0 36 -15.5t16 -36.5q0 -22 -15.5 -37.5t-36.5 -15.5q-22 0 -37.5 15.5t-15.5 37.5q0 21 15.5 36.5t37.5 15.5z" />
    <glyph glyph-name="uni030A" unicode="&#x30a;" horiz-adv-x="0" 
d="M-285 543q-52 0 -86 32.5t-34 81.5q0 50 34 82.5t86 32.5q51 0 85.5 -33t34.5 -82t-34.5 -81.5t-85.5 -32.5zM-285 589q31 0 51 19.5t20 48.5t-20 49t-51 20t-51 -20t-20 -49t20 -48.5t51 -19.5z" />
    <glyph glyph-name="uni030B" unicode="&#x30b;" horiz-adv-x="0" 
d="M-350 545l68 148h-75l-69 -148h76zM-194 545l68 148h-76l-68 -148h76z" />
    <glyph glyph-name="uni030C" unicode="&#x30c;" horiz-adv-x="0" 
d="M-202 686h65l-90 -141h-82l-90 141h65l66 -92z" />
    <glyph glyph-name="uni0312" unicode="&#x312;" horiz-adv-x="0" 
d="M-170 548l103 141h70l-83 -141h-90z" />
    <glyph glyph-name="uni0326" unicode="&#x326;" horiz-adv-x="0" 
d="M-54 -73l-103 -141h-68l81 141h90z" />
    <glyph glyph-name="uni0327" unicode="&#x327;" horiz-adv-x="0" 
d="M-157 16h58q60 -53 67 -108.5t-32.5 -89t-106.5 -32.5l-18 54q89 7 98 59.5t-66 116.5z" />
    <glyph glyph-name="uni0328" unicode="&#x328;" horiz-adv-x="0" 
d="M-244 47v-47q-41 -13 -64.5 -38t-23.5 -56q0 -21 14 -34t38 -13q29 0 52 13l19 -49q-38 -20 -90 -20q-44 0 -70.5 25.5t-26.5 64.5q0 51 41 92t111 62z" />
    <glyph glyph-name="uni0394" unicode="&#x394;" horiz-adv-x="601" 
d="M13 0v72l254 629h67l254 -629v-72h-575zM93 72h415l-207 524z" />
    <glyph glyph-name="uni0394" unicode="&#x3b4;" horiz-adv-x="601" 
d="M13 0v72l254 629h67l254 -629v-72h-575zM93 72h415l-207 524z" />
    <glyph glyph-name="uni03A9" unicode="&#x3a9;" horiz-adv-x="778" 
d="M74 0v72h152q-177 100 -177 296q0 150 97 246t243 96t242.5 -96t96.5 -246q0 -197 -176 -296h151v-72h-245v72q193 104 193 293q0 122 -74 197t-188 75t-188 -75t-74 -197q0 -187 193 -293v-72h-246z" />
    <glyph glyph-name="uni03A9" unicode="&#x3c9;" horiz-adv-x="778" 
d="M74 0v72h152q-177 100 -177 296q0 150 97 246t243 96t242.5 -96t96.5 -246q0 -197 -176 -296h151v-72h-245v72q193 104 193 293q0 122 -74 197t-188 75t-188 -75t-74 -197q0 -187 193 -293v-72h-246z" />
    <glyph glyph-name="uni03BC" unicode="&#x3bc;" horiz-adv-x="584" 
d="M441 486h73v-486h-73v94q-50 -104 -166 -104q-80 0 -132 43v-217h-73v670h73v-272q0 -70 40 -112.5t107 -42.5q69 0 110 42t41 113v272z" />
    <glyph glyph-name="pi" unicode="&#x3c0;" horiz-adv-x="689" 
d="M656 418h-139v-254q0 -101 102 -101q21 0 34 4v-67q-22 -5 -47 -5q-76 0 -119 42.5t-43 125.5v255h-192v-418h-72v418h-139v68h615v-68z" />
    <glyph glyph-name="uni0E3F" unicode="&#xe3f;" horiz-adv-x="587" 
d="M382 370q66 -7 111 -57.5t45 -119.5q0 -81 -59.5 -137t-145.5 -56h-38v-120h-70v120h-165v700h165v120h70v-120h8q83 0 140.5 -51.5t57.5 -123.5q0 -56 -34 -100.5t-85 -54.5zM135 628v-233h166q52 0 88 35t36 85q0 47 -36 80t-88 33h-166zM329 72q57 0 94.5 37.5
t37.5 92.5t-38 92.5t-93 37.5h-195v-260h194z" />
    <glyph glyph-name="Wgrave" unicode="&#x1e80;" horiz-adv-x="1017" 
d="M377 900h91l81 -141h-69zM920 700h80l-235 -700h-66l-189 582l-190 -582h-66l-237 700h81l190 -582l190 582h67l187 -583z" />
    <glyph glyph-name="wgrave" unicode="&#x1e81;" horiz-adv-x="786" 
d="M262 686h91l81 -141h-69zM195 0l-178 486h78l130 -382l137 382h60l138 -382l130 382h78l-178 -486h-60l-138 382l-138 -382h-59z" />
    <glyph glyph-name="Wacute" unicode="&#x1e82;" horiz-adv-x="1017" 
d="M637 900l-103 -141h-68l81 141h90zM920 700h80l-235 -700h-66l-189 582l-190 -582h-66l-237 700h81l190 -582l190 582h67l187 -583z" />
    <glyph glyph-name="wacute" unicode="&#x1e83;" horiz-adv-x="786" 
d="M522 686l-103 -141h-68l81 141h90zM195 0l-178 486h78l130 -382l137 382h60l138 -382l130 382h78l-178 -486h-60l-138 382l-138 -382h-59z" />
    <glyph glyph-name="Wdieresis" unicode="&#x1e84;" horiz-adv-x="1017" 
d="M431 874q21 0 37 -15.5t16 -36.5t-16 -36.5t-37 -15.5t-36.5 15t-15.5 37q0 21 15.5 36.5t36.5 15.5zM587 874q20 0 36 -15.5t16 -36.5t-15.5 -36.5t-36.5 -15.5q-22 0 -37.5 15t-15.5 37q0 21 15.5 36.5t37.5 15.5zM920 700h80l-235 -700h-66l-189 582l-190 -582h-66
l-237 700h81l190 -582l190 582h67l187 -583z" />
    <glyph glyph-name="wdieresis" unicode="&#x1e85;" horiz-adv-x="786" 
d="M316 698q21 0 37 -15.5t16 -36.5q0 -22 -16 -37.5t-37 -15.5t-36.5 15.5t-15.5 37.5q0 21 15.5 36.5t36.5 15.5zM472 698q20 0 36 -15.5t16 -36.5q0 -22 -16 -37.5t-36 -15.5q-22 0 -37.5 15.5t-15.5 37.5q0 21 15.5 36.5t37.5 15.5zM195 0l-178 486h78l130 -382l137 382
h60l138 -382l130 382h78l-178 -486h-60l-138 382l-138 -382h-59z" />
    <glyph glyph-name="uni1E9E" unicode="&#x1e9e;" horiz-adv-x="603" 
d="M306 710q89 0 154 -51t75 -127l-163 -152q90 0 143.5 -49t53.5 -130q0 -82 -60.5 -141.5t-143.5 -59.5h-141v72h140q53 0 90.5 37t37.5 90q0 59 -35.5 94t-96.5 35h-76l-4 50l171 162q-11 42 -51 70t-91 28q-67 0 -110.5 -46.5t-43.5 -118.5v-473h-76v473q0 105 63 171
t164 66z" />
    <glyph glyph-name="Ygrave" unicode="&#x1ef2;" horiz-adv-x="620" 
d="M180 900h91l81 -141h-69zM17 700h92l204 -310l201 310h89l-253 -386v-314h-76v314z" />
    <glyph glyph-name="ygrave" unicode="&#x1ef3;" horiz-adv-x="511" 
d="M304 545h-69l-103 141h91zM415 486h78l-281 -670h-78l84 193l-201 477h79l159 -392z" />
    <glyph glyph-name="uni2009" unicode="&#x2009;" horiz-adv-x="191" 
 />
    <glyph glyph-name="endash" unicode="&#x2013;" horiz-adv-x="562" 
d="M50 224v67h462v-67h-462z" />
    <glyph glyph-name="emdash" unicode="&#x2014;" horiz-adv-x="1100" 
d="M50 224v67h1000v-67h-1000z" />
    <glyph glyph-name="quoteleft" unicode="&#x2018;" horiz-adv-x="217" 
d="M50 579q0 13 15 45l62 126h43l-44 -118q36 -13 36 -53q0 -24 -16 -40t-40 -16t-40 16t-16 40z" />
    <glyph glyph-name="quoteright" unicode="&#x2019;" horiz-adv-x="217" 
d="M167 694q0 -15 -14 -45l-63 -126h-42l44 118q-37 13 -37 53q0 24 16.5 40t39.5 16q24 0 40 -16t16 -40z" />
    <glyph glyph-name="quotesinglbase" unicode="&#x201a;" horiz-adv-x="217" 
d="M167 66q0 -15 -14 -45l-63 -126h-42l44 118q-37 13 -37 53q0 24 16.5 40t39.5 16q24 0 40 -16t16 -40z" />
    <glyph glyph-name="quotedblleft" unicode="&#x201c;" horiz-adv-x="374" 
d="M50 579q0 13 15 45l62 126h43l-44 -118q36 -13 36 -53q0 -24 -16 -40t-40 -16t-40 16t-16 40zM207 579q0 17 15 45l62 126h42l-43 -118q36 -14 36 -53q0 -24 -16 -40t-40 -16t-40 16t-16 40z" />
    <glyph glyph-name="quotedblright" unicode="&#x201d;" horiz-adv-x="374" 
d="M167 694q0 -15 -14 -45l-63 -126h-42l44 118q-37 13 -37 53q0 24 16.5 40t39.5 16q24 0 40 -16t16 -40zM324 694q0 -15 -14 -45l-63 -126h-42l44 118q-37 13 -37 53q0 24 16 40t40 16t40 -16t16 -40z" />
    <glyph glyph-name="quotedblbase" unicode="&#x201e;" horiz-adv-x="374" 
d="M167 66q0 -15 -14 -45l-63 -126h-42l44 118q-37 13 -37 53q0 24 16.5 40t39.5 16q24 0 40 -16t16 -40zM324 66q0 -15 -14 -45l-63 -126h-42l44 118q-37 13 -37 53q0 24 16 40t40 16t40 -16t16 -40z" />
    <glyph glyph-name="dagger" unicode="&#x2020;" horiz-adv-x="451" 
d="M401 553v-63h-142v-282h-67v282h-142v63h142v167h67v-167h142z" />
    <glyph glyph-name="daggerdbl" unicode="&#x2021;" horiz-adv-x="456" 
d="M401 490h-142v-260h142v-63h-142v-167h-67v167h-142v63h142v260h-142v63h142v167h67v-167h142v-63z" />
    <glyph glyph-name="bullet" unicode="&#x2022;" horiz-adv-x="309" 
d="M154 131q-48 0 -80 32.5t-32 81.5q0 48 32 80t80 32t81 -32t33 -80q0 -49 -33 -81.5t-81 -32.5z" />
    <glyph glyph-name="ellipsis" unicode="&#x2026;" horiz-adv-x="597" 
d="M116 -10q-25 0 -41.5 16.5t-16.5 41.5q0 24 16.5 41t41.5 17t42 -17t17 -41q0 -25 -17 -41.5t-42 -16.5zM304 -10q-25 0 -42 16.5t-17 41.5q0 24 17 41t42 17t41.5 -17t16.5 -41q0 -25 -16.5 -41.5t-41.5 -16.5zM480 -10q-25 0 -41.5 16.5t-16.5 41.5q0 24 16.5 41
t41.5 17t42 -17t17 -41q0 -25 -17 -41.5t-42 -16.5z" />
    <glyph glyph-name="perthousand" unicode="&#x2030;" horiz-adv-x="1032" 
d="M337 568q0 -62 -37.5 -102.5t-95.5 -40.5t-96 40.5t-38 102.5t38 102t96 40t95.5 -40t37.5 -102zM565 700h61l-465 -700h-61zM285 568q0 41 -22.5 67t-58.5 26q-37 0 -59.5 -26t-22.5 -67t22.5 -67t59.5 -26q36 0 58.5 26t22.5 67zM655 133q0 -62 -37.5 -102.5
t-95.5 -40.5t-96 40.5t-38 102.5t38 102t96 40t95.5 -40t37.5 -102zM962 133q0 -62 -38 -102.5t-96 -40.5t-95.5 40.5t-37.5 102.5t37.5 102t95.5 40t96 -40t38 -102zM603 133q0 41 -22.5 67t-58.5 26q-37 0 -59.5 -26t-22.5 -67q0 -42 22.5 -68t59.5 -26q36 0 58.5 26
t22.5 68zM910 133q0 41 -22.5 67t-59.5 26q-36 0 -58.5 -26t-22.5 -67q0 -42 22.5 -68t58.5 -26q37 0 59.5 26t22.5 68z" />
    <glyph glyph-name="guilsinglleft" unicode="&#x2039;" horiz-adv-x="370" 
d="M320 35l-273 207v51l273 207v-77l-206 -156l206 -154v-78z" />
    <glyph glyph-name="guilsinglright" unicode="&#x203a;" horiz-adv-x="378" 
d="M58 35v78l206 154l-206 156v77l273 -207v-51z" />
    <glyph glyph-name="fraction" unicode="&#x2044;" horiz-adv-x="236" 
d="M321 700h60l-465 -700h-60z" />
    <glyph glyph-name="Euro" unicode="&#x20ac;" horiz-adv-x="843" 
d="M711 236h83q-22 -109 -110 -177.5t-207 -68.5q-139 0 -237 94.5t-109 236.5h-102v63h102q11 140 109 233t237 93q117 0 206 -66.5t109 -170.5h-83q-20 73 -84.5 118.5t-147.5 45.5q-106 0 -181.5 -72t-86.5 -181h337l-22 -63h-316q11 -111 87 -184.5t182 -73.5
q85 0 150 48t84 125z" />
    <glyph glyph-name="uni20BD" unicode="&#x20bd;" horiz-adv-x="648" 
d="M405 297h-194v-110h208v-62h-208v-125h-76v125h-106v62h106v110h-106v72h106v331h270q88 0 147 -57.5t59 -143.5t-59 -144t-147 -58zM211 628v-259h194q55 0 92.5 37.5t37.5 92.5t-37.5 92t-92.5 37h-194z" />
    <glyph glyph-name="uni2116" unicode="&#x2116;" horiz-adv-x="1320" 
d="M989 709q105 0 178 -73t73 -180t-73 -180t-178 -73q-106 0 -178.5 73t-72.5 180t72.5 180t178.5 73zM79 700h71l392 -562v562h76v-700h-70l-394 561v-561h-75v700zM989 640q-76 0 -128 -53t-52 -131q0 -77 52 -130.5t128 -53.5q75 0 127.5 53.5t52.5 130.5
q0 78 -52.5 131t-127.5 53zM1206 67v-68h-435v68h435z" />
    <glyph glyph-name="uni2117" unicode="&#x2117;" horiz-adv-x="796" 
d="M408 710q149 0 255 -105.5t106 -254.5t-106 -254.5t-255 -105.5q-148 0 -253.5 106t-105.5 254t105.5 254t253.5 106zM409 26q133 0 227.5 95t94.5 229t-94.5 229t-227.5 95t-227.5 -95t-94.5 -229t94.5 -229t227.5 -95zM455 555q52 0 87 -34t35 -84q0 -51 -35 -85
t-87 -34h-109v-171h-48v408h157zM455 363q31 0 52.5 21.5t21.5 52.5t-21.5 52t-52.5 21h-109v-147h109z" />
    <glyph glyph-name="trademark" unicode="&#x2122;" horiz-adv-x="880" 
d="M339 700v-48h-135v-372h-51v372h-136v48h322zM782 700h53v-420h-52v318l-144 -318h-38l-142 318v-318h-51v420h60l156 -345z" />
    <glyph glyph-name="uni2126" unicode="&#x2126;" horiz-adv-x="778" 
d="M74 0v72h152q-177 100 -177 296q0 150 97 246t243 96t242.5 -96t96.5 -246q0 -197 -176 -296h151v-72h-245v72q193 104 193 293q0 122 -74 197t-188 75t-188 -75t-74 -197q0 -187 193 -293v-72h-246z" />
    <glyph glyph-name="oneeighth" unicode="&#x215b;" horiz-adv-x="808" 
d="M174 700v-420h-50v350l-97 -81v62l111 89h36zM580 700h61l-465 -700h-61zM648 -5q-60 0 -99.5 35t-39.5 88q0 36 22 66t60 42q-29 11 -47.5 36t-18.5 55q0 47 35 77.5t88 30.5q54 0 88.5 -30.5t34.5 -77.5q0 -29 -18 -54.5t-48 -36.5q37 -10 60 -40.5t23 -67.5
q0 -53 -39.5 -88t-100.5 -35zM648 247q34 0 55.5 19t21.5 48t-21.5 48t-55.5 19q-33 0 -54.5 -19t-21.5 -48t21.5 -48t54.5 -19zM648 40q40 0 66 23t26 58q0 36 -26 58.5t-66 22.5t-65.5 -22.5t-25.5 -58.5q0 -35 25.5 -58t65.5 -23z" />
    <glyph glyph-name="threeeighths" unicode="&#x215c;" horiz-adv-x="871" 
d="M107 522l117 130h-200v48h272v-35l-126 -137q54 6 91.5 -28.5t37.5 -87.5q0 -60 -40.5 -99t-103.5 -39q-58 0 -97.5 31.5t-44.5 81.5h51q5 -28 30 -46t61 -18q40 0 65.5 25.5t25.5 64.5q0 47 -41 68t-98 6v35zM644 700h60l-465 -700h-60zM711 -5q-60 0 -100 35t-40 88
q0 36 22.5 66t60.5 42q-29 11 -47.5 36t-18.5 55q0 47 35 77.5t88 30.5q54 0 88.5 -30.5t34.5 -77.5q0 -29 -18 -54.5t-48 -36.5q37 -10 60 -40.5t23 -67.5q0 -53 -39.5 -88t-100.5 -35zM711 247q34 0 55 19t21 48t-21 48t-55 19q-33 0 -54.5 -19t-21.5 -48t21 -48t55 -19z
M711 40q40 0 65.5 23t25.5 58q0 36 -25.5 58.5t-65.5 22.5t-66 -22.5t-26 -58.5q0 -35 26 -58t66 -23z" />
    <glyph glyph-name="fiveeighths" unicode="&#x215d;" horiz-adv-x="871" 
d="M154 274q-56 0 -96.5 31t-44.5 82h51q6 -29 30.5 -46.5t59.5 -17.5q37 0 63.5 26t26.5 62q0 39 -26 65.5t-64 26.5q-51 0 -77 -29h-44l20 226h217v-48h-172l-13 -130q29 24 75 24q58 0 97 -37.5t39 -97.5q0 -57 -41.5 -97t-100.5 -40zM633 700h60l-465 -700h-60zM710 -5
q-60 0 -99.5 35t-39.5 88q0 36 22 66t60 42q-29 11 -47.5 36t-18.5 55q0 47 35 77.5t88 30.5q54 0 88.5 -30.5t34.5 -77.5q0 -29 -18 -54.5t-48 -36.5q37 -10 60 -40.5t23 -67.5q0 -53 -39.5 -88t-100.5 -35zM710 247q34 0 55.5 19t21.5 48t-21.5 48t-55.5 19
q-33 0 -54.5 -19t-21.5 -48t21.5 -48t54.5 -19zM710 40q40 0 66 23t26 58q0 36 -26 58.5t-66 22.5t-65.5 -22.5t-25.5 -58.5q0 -35 25.5 -58t65.5 -23z" />
    <glyph glyph-name="seveneighths" unicode="&#x215e;" horiz-adv-x="769" 
d="M9 700h278v-36l-183 -384h-57l179 371h-217v49zM541 700h60l-465 -700h-60zM609 -5q-60 0 -100 35t-40 88q0 36 22.5 66t60.5 42q-29 11 -47.5 36t-18.5 55q0 47 35 77.5t88 30.5q54 0 88.5 -30.5t34.5 -77.5q0 -29 -18 -54.5t-48 -36.5q37 -10 60 -40.5t23 -67.5
q0 -53 -39.5 -88t-100.5 -35zM609 247q34 0 55 19t21 48t-21 48t-55 19q-33 0 -54.5 -19t-21.5 -48t21 -48t55 -19zM609 40q40 0 65.5 23t25.5 58q0 36 -25.5 58.5t-65.5 22.5t-66 -22.5t-26 -58.5q0 -35 26 -58t66 -23z" />
    <glyph glyph-name="arrowleft" unicode="&#x2190;" horiz-adv-x="752" 
d="M702 347v-66h-528l216 -211l-48 -47l-292 291l292 292l48 -47l-216 -212h528z" />
    <glyph glyph-name="arrowup" unicode="&#x2191;" horiz-adv-x="684" 
d="M634 360l-48 -47l-211 215v-528h-65v529l-213 -216l-47 47l292 292z" />
    <glyph glyph-name="arrowright" unicode="&#x2192;" horiz-adv-x="752" 
d="M410 606l292 -292l-292 -291l-47 47l215 211h-528v66h528l-215 212z" />
    <glyph glyph-name="arrowdown" unicode="&#x2193;" horiz-adv-x="684" 
d="M586 329l48 -47l-293 -293l-291 293l47 47l212 -217v529h65v-528z" />
    <glyph glyph-name="uni2196" unicode="&#x2196;" horiz-adv-x="584" 
d="M534 86l-46 -46l-373 373l3 -301h-67l-1 412h413v-66l-304 3z" />
    <glyph glyph-name="uni2197" unicode="&#x2197;" horiz-adv-x="584" 
d="M120 524h414l-1 -413h-67l3 302l-373 -373l-46 46l373 374l-303 -3v67z" />
    <glyph glyph-name="uni2198" unicode="&#x2198;" horiz-adv-x="584" 
d="M120 0v66l304 -3l-374 375l46 46l373 -373l-3 301h67l1 -412h-414z" />
    <glyph glyph-name="uni2199" unicode="&#x2199;" horiz-adv-x="584" 
d="M534 438l-375 -375l304 3v-66h-413l1 412h67l-3 -301l373 373z" />
    <glyph glyph-name="partialdiff" unicode="&#x2202;" horiz-adv-x="569" 
d="M456 397q58 -93 58 -175q0 -96 -69 -164t-167 -68q-97 0 -166 68t-69 164q0 98 64.5 163.5t160.5 65.5q45 0 86 -23l-173 272h86zM278 62q69 0 116 46.5t47 114.5t-47 115.5t-115 47.5t-116 -47.5t-48 -115.5t47.5 -114.5t115.5 -46.5z" />
    <glyph glyph-name="emptyset" unicode="&#x2205;" horiz-adv-x="767" 
d="M697 611l-101 -101q53 -71 53 -160q0 -110 -77 -187t-186 -77q-90 0 -161 54l-101 -101l-54 53l102 101q-53 72 -53 157q0 110 78.5 188t188.5 78q88 0 157 -52l100 100zM189 350q0 -59 33 -106l271 270q-50 32 -107 32q-81 0 -139 -57.5t-58 -138.5zM579 350
q0 61 -33 110l-271 -270q52 -34 111 -34q80 0 136.5 56.5t56.5 137.5z" />
    <glyph glyph-name="uni2206" unicode="&#x2206;" horiz-adv-x="601" 
d="M13 0v72l254 629h67l254 -629v-72h-575zM93 72h415l-207 524z" />
    <glyph glyph-name="product" unicode="&#x220f;" horiz-adv-x="646" 
d="M596 700v-700h-76v628h-394v-628h-76v700h546z" />
    <glyph glyph-name="summation" unicode="&#x2211;" horiz-adv-x="592" 
d="M542 700v-72h-395l202 -278l-202 -278h395v-72h-492v61l210 289l-210 290v60h492z" />
    <glyph glyph-name="minus" unicode="&#x2212;" horiz-adv-x="576" 
d="M505 349v-68h-435v68h435z" />
    <glyph glyph-name="radical" unicode="&#x221a;" horiz-adv-x="688" 
d="M561 700h77l-245 -700h-74l-140 414h-129v72h185l122 -380z" />
    <glyph glyph-name="infinity" unicode="&#x221e;" horiz-adv-x="975" 
d="M684 561q97 0 159 -68t62 -167q0 -100 -62 -168t-159 -68q-67 0 -123 42t-74 97q-18 -56 -73.5 -97.5t-122.5 -41.5q-97 0 -159 68t-62 168q0 99 62 167t159 68q66 0 122 -41.5t74 -96.5q19 56 74.5 97t122.5 41zM294 159q62 0 109 46.5t54 120.5q-7 73 -54 119.5
t-109 46.5q-67 0 -109 -46.5t-42 -119.5t42 -120t109 -47zM682 159q67 0 109 47t42 120q0 72 -42.5 119t-108.5 47q-61 0 -107 -46.5t-53 -119.5q7 -74 53 -120.5t107 -46.5z" />
    <glyph glyph-name="integral" unicode="&#x222b;" horiz-adv-x="361" 
d="M290 712q25 0 48 -5v-67q-13 4 -34 4q-103 0 -103 -100v-571q0 -83 -43 -125t-119 -42q-30 0 -47 4v67q13 -4 34 -4q102 0 102 101v571q0 83 43 125t119 42z" />
    <glyph glyph-name="approxequal" unicode="&#x2248;" horiz-adv-x="571" 
d="M133 313l-63 8q7 61 39 96.5t78 35.5q37 0 102.5 -35t88.5 -35q49 0 59 76l64 -8q-8 -61 -40 -97t-78 -36q-35 0 -100 35.5t-90 35.5q-50 0 -60 -76zM133 123l-63 8q7 61 39 96.5t78 35.5q37 0 102.5 -35t88.5 -35q49 0 59 76l64 -8q-8 -61 -40 -96.5t-78 -35.5
q-35 0 -100 35t-90 35q-50 0 -60 -76z" />
    <glyph glyph-name="notequal" unicode="&#x2260;" horiz-adv-x="576" 
d="M505 373h-152l-56 -116h208v-68h-241l-51 -106h-68l51 106h-126v68h159l56 116h-215v68h248l44 90h68l-44 -90h119v-68z" />
    <glyph glyph-name="lessequal" unicode="&#x2264;" horiz-adv-x="562" 
d="M492 170l-421 193v58l421 194v-75l-327 -147l327 -148v-75zM491 0h-421v68h421v-68z" />
    <glyph glyph-name="greaterequal" unicode="&#x2265;" horiz-adv-x="562" 
d="M70 170v75l327 148l-327 147v75l421 -194v-58zM71 0v68h421v-68h-421z" />
    <glyph glyph-name="lozenge" unicode="&#x25ca;" horiz-adv-x="539" 
d="M297 700l190 -350l-190 -350h-57l-189 350l189 350h57zM268 74l148 276l-148 276l-147 -276z" />
    <glyph glyph-name="circle" unicode="&#x25cb;" horiz-adv-x="818" 
d="M408 -10q-148 0 -253.5 106t-105.5 254t105.5 254t253.5 106q149 0 255 -105.5t106 -254.5t-106 -254.5t-255 -105.5zM409 26q133 0 227.5 95t94.5 229t-94.5 229t-227.5 95t-227.5 -95t-94.5 -229t94.5 -229t227.5 -95z" />
    <glyph glyph-name="uni25CF" unicode="&#x25cf;" horiz-adv-x="818" 
d="M409 -10q-149 0 -254.5 106t-105.5 254t105.5 254t254.5 106t254.5 -106t105.5 -254t-105.5 -254t-254.5 -106z" />
    <glyph glyph-name="P_sq" horiz-adv-x="625" 
d="M547 700v-403h-393v-297h-75v700h468zM471 369v259h-317v-259h317z" />
    <glyph glyph-name="P_sq_sinf" horiz-adv-x="373" 
d="M328 420v-247h-231v-173h-53v420h284zM276 223v147h-179v-147h179z" />
    <glyph glyph-name="Iacute_J.loclNLD" horiz-adv-x="535" 
d="M245 900l-103 -141h-68l81 141h90zM554 900l-103 -141h-68l81 141h90zM79 700h75v-700h-75v700zM256 63q5 -1 18 -1q112 0 112 144v494h76v-511q0 -95 -44.5 -146.5t-124.5 -51.5q-25 0 -37 2v70z" />
    <glyph glyph-name="O.ss10" horiz-adv-x="764" 
d="M609 700h76v-700h-606v700h75v-2h455v2zM154 72h455v554h-455v-554z" />
    <glyph glyph-name="Oacute.ss10" horiz-adv-x="764" 
d="M511 900l-103 -141h-68l81 141h90zM609 700h76v-700h-606v700h75v-2h455v2zM154 72h455v554h-455v-554z" />
    <glyph glyph-name="Obreve.ss10" horiz-adv-x="764" 
d="M383 755q-63 0 -105 41.5t-43 108.5h58q1 -43 26.5 -71t63.5 -28t63.5 28t25.5 71h58q-1 -67 -42 -108.5t-105 -41.5zM609 700h76v-700h-606v700h75v-2h455v2zM154 72h455v554h-455v-554z" />
    <glyph glyph-name="Ocircumflex.ss10" horiz-adv-x="764" 
d="M382 858l-66 -92h-65l90 141h82l90 -141h-65zM609 700h76v-700h-606v700h75v-2h455v2zM154 72h455v554h-455v-554z" />
    <glyph glyph-name="Odieresis.ss10" horiz-adv-x="764" 
d="M304 770q-21 0 -36.5 15t-15.5 37q0 21 15.5 36.5t36.5 15.5t37 -15.5t16 -36.5t-16 -36.5t-37 -15.5zM460 770q-22 0 -37.5 15t-15.5 37q0 21 15.5 36.5t37.5 15.5q20 0 36 -15.5t16 -36.5t-15.5 -36.5t-36.5 -15.5zM609 700h76v-700h-606v700h75v-2h455v2zM154 72h455
v554h-455v-554z" />
    <glyph glyph-name="Ograve.ss10" horiz-adv-x="764" 
d="M423 759h-69l-103 141h91zM609 700h76v-700h-606v700h75v-2h455v2zM154 72h455v554h-455v-554z" />
    <glyph glyph-name="Ohungarumlaut.ss10" horiz-adv-x="764" 
d="M403 907l-68 -148h-76l69 148h75zM559 907l-68 -148h-76l68 148h76zM609 700h76v-700h-606v700h75v-2h455v2zM154 72h455v554h-455v-554z" />
    <glyph glyph-name="Omacron.ss10" horiz-adv-x="764" 
d="M542 832v-60h-320v60h320zM609 700h76v-700h-606v700h75v-2h455v2zM154 72h455v554h-455v-554z" />
    <glyph glyph-name="uni01EA.ss10" horiz-adv-x="764" 
d="M609 700h76v-700h-216q-41 -13 -64.5 -38t-23.5 -56q0 -21 14 -34t38 -13q29 0 52 13l19 -49q-38 -20 -90 -20q-44 0 -70.5 25.5t-26.5 64.5q0 60 58 107h-296v700h75v-2h455v2zM154 72h455v554h-455v-554z" />
    <glyph glyph-name="S.ss12" horiz-adv-x="548" 
d="M253 700h204v-73h-215q-60 0 -95.5 -27t-35.5 -72q0 -37 21.5 -62t56 -39.5t76 -26.5t83 -26.5t76 -35t56 -57.5t21.5 -89q0 -87 -60.5 -139.5t-169.5 -52.5h-227v73h230q71 0 111 31.5t40 87.5q0 37 -21.5 62.5t-56 39.5t-75.5 25.5t-82.5 26t-76 34.5t-56 57t-21.5 89
q0 78 60 126t157 48z" />
    <glyph glyph-name="Sacute.ss12" horiz-adv-x="548" 
d="M411 900l-103 -141h-68l81 141h90zM253 700h204v-73h-215q-60 0 -95.5 -27t-35.5 -72q0 -37 21.5 -62t56 -39.5t76 -26.5t83 -26.5t76 -35t56 -57.5t21.5 -89q0 -87 -60.5 -139.5t-169.5 -52.5h-227v73h230q71 0 111 31.5t40 87.5q0 37 -21.5 62.5t-56 39.5t-75.5 25.5
t-82.5 26t-76 34.5t-56 57t-21.5 89q0 78 60 126t157 48z" />
    <glyph glyph-name="Scaron.ss12" horiz-adv-x="548" 
d="M241 759l-90 141h65l66 -92l66 92h65l-90 -141h-82zM111 528q0 -37 21.5 -62t56 -39.5t76 -26.5t83 -26.5t76 -35t56 -57.5t21.5 -89q0 -87 -60.5 -139.5t-169.5 -52.5h-227v73h230q71 0 111 31.5t40 87.5q0 37 -21.5 62.5t-56 39.5t-75.5 25.5t-82.5 26t-76 34.5t-56 57
t-21.5 89q0 78 60 126t157 48h204v-73h-215q-60 0 -95.5 -27t-35.5 -72z" />
    <glyph glyph-name="Scedilla.ss12" horiz-adv-x="548" 
d="M501 192q0 -83 -54.5 -134.5t-154.5 -56.5q75 -80 43 -148.5t-131 -66.5l-18 54q83 6 96.5 53.5t-47.5 106.5h-191v73h230q71 0 111 31.5t40 87.5q0 37 -21.5 62.5t-56 39.5t-75.5 25.5t-82.5 26t-76 34.5t-56 57t-21.5 89q0 78 60 126t157 48h204v-73h-215
q-60 0 -95.5 -27t-35.5 -72q0 -37 21.5 -62t56 -39.5t76 -26.5t83 -26.5t76 -35t56 -57.5t21.5 -89z" />
    <glyph glyph-name="Scircumflex.ss12" horiz-adv-x="548" 
d="M282 858l-66 -92h-65l90 141h82l90 -141h-65zM111 528q0 -37 21.5 -62t56 -39.5t76 -26.5t83 -26.5t76 -35t56 -57.5t21.5 -89q0 -87 -60.5 -139.5t-169.5 -52.5h-227v73h230q71 0 111 31.5t40 87.5q0 37 -21.5 62.5t-56 39.5t-75.5 25.5t-82.5 26t-76 34.5t-56 57
t-21.5 89q0 78 60 126t157 48h204v-73h-215q-60 0 -95.5 -27t-35.5 -72z" />
    <glyph glyph-name="uni0218.ss12" horiz-adv-x="548" 
d="M253 700h204v-73h-215q-60 0 -95.5 -27t-35.5 -72q0 -37 21.5 -62t56 -39.5t76 -26.5t83 -26.5t76 -35t56 -57.5t21.5 -89q0 -87 -60.5 -139.5t-169.5 -52.5h-227v73h230q71 0 111 31.5t40 87.5q0 37 -21.5 62.5t-56 39.5t-75.5 25.5t-82.5 26t-76 34.5t-56 57t-21.5 89
q0 78 60 126t157 48zM322 -73l-103 -141h-68l81 141h90z" />
    <glyph glyph-name="D.ss16" horiz-adv-x="721" 
d="M328 700q147 0 245.5 -98.5t98.5 -248.5q0 -151 -99 -252t-245 -101h-300v69h83v631h217zM333 72q112 0 187 80t75 201q0 120 -74.5 197.5t-187.5 77.5h-146v-556h146z" />
    <glyph glyph-name="Eth.ss16" horiz-adv-x="721" 
d="M328 700q147 0 245.5 -98.5t98.5 -248.5q0 -151 -99 -252t-245 -101h-300v69h83v255h-82v52h82v324h217zM333 72q112 0 187 80t75 201q0 120 -74.5 197.5t-187.5 77.5h-146v-252h143v-52h-143v-252h146z" />
    <glyph glyph-name="Dcaron.ss16" horiz-adv-x="721" 
d="M299 759l-90 141h65l66 -92l66 92h65l-90 -141h-82zM328 700q147 0 245.5 -98.5t98.5 -248.5q0 -151 -99 -252t-245 -101h-300v69h83v631h217zM333 72q112 0 187 80t75 201q0 120 -74.5 197.5t-187.5 77.5h-146v-556h146z" />
    <glyph glyph-name="Dcroat.ss16" horiz-adv-x="721" 
d="M328 700q147 0 245.5 -98.5t98.5 -248.5q0 -151 -99 -252t-245 -101h-300v69h83v255h-82v52h82v324h217zM333 72q112 0 187 80t75 201q0 120 -74.5 197.5t-187.5 77.5h-146v-252h143v-52h-143v-252h146z" />
    <glyph glyph-name="J.ss17" horiz-adv-x="379" 
d="M300 700v-700h-277v72h202v628h75z" />
    <glyph glyph-name="Jcircumflex.ss17" horiz-adv-x="379" 
d="M304 907l90 -141h-65l-66 92l-66 -92h-65l90 141h82zM225 72v628h75v-700h-277v72h202z" />
    <glyph glyph-name="L.ss18" horiz-adv-x="578" 
d="M187 72h354v-72h-513v69h83v631h76v-628z" />
    <glyph glyph-name="Lacute.ss18" horiz-adv-x="578" 
d="M276 900l-103 -141h-68l81 141h90zM187 72h354v-72h-513v69h83v631h76v-628z" />
    <glyph glyph-name="Lcaron.ss18" horiz-adv-x="578" 
d="M439 750l-38 -205h-60l20 205h78zM187 72h354v-72h-513v69h83v631h76v-628z" />
    <glyph glyph-name="uni013B.ss18" horiz-adv-x="578" 
d="M187 72h354v-72h-513v69h83v631h76v-628zM199 -214l81 141h90l-103 -141h-68z" />
    <glyph glyph-name="Ldot.ss18" horiz-adv-x="578" 
d="M187 72h354v-72h-513v69h83v631h76v-628zM410 316q-25 0 -42 16.5t-17 41.5q0 24 17 41t42 17t41.5 -17t16.5 -41q0 -25 -16.5 -41.5t-41.5 -16.5z" />
    <glyph glyph-name="Lslash.ss18" horiz-adv-x="578" 
d="M187 72h354v-72h-513v69h83v223l-83 -39v66l83 39v342h76v-307l194 91v-66l-194 -91v-255z" />
    <glyph glyph-name="M.swsh" horiz-adv-x="1017" 
d="M920 0l-188 583l-187 -583h-67l-190 582l-190 -582h-81l237 700h66l190 -582l189 582h66l235 -700h-80z" />
    <glyph glyph-name="G.titl" horiz-adv-x="816" 
d="M790 372v-74h-61q-9 -134 -101.5 -221t-228.5 -87q-148 0 -249 104.5t-101 257.5q0 151 101 254.5t250 103.5q107 0 199 -63t118 -152h-85q-24 61 -90.5 101.5t-141.5 40.5q-116 0 -194.5 -82t-78.5 -203q0 -123 79.5 -206t197.5 -83q104 0 174.5 69.5t72.5 165.5h-236
v74h375z" />
    <glyph glyph-name="Gbreve.titl" horiz-adv-x="816" 
d="M387 755q-63 0 -105 41.5t-43 108.5h58q1 -43 26.5 -71t63.5 -28t63.5 28t25.5 71h58q-1 -67 -42 -108.5t-105 -41.5zM790 372v-74h-61q-9 -134 -101.5 -221t-228.5 -87q-148 0 -249 104.5t-101 257.5q0 151 101 254.5t250 103.5q107 0 199 -63t118 -152h-85
q-24 61 -90.5 101.5t-141.5 40.5q-116 0 -194.5 -82t-78.5 -203q0 -123 79.5 -206t197.5 -83q104 0 174.5 69.5t72.5 165.5h-236v74h375z" />
    <glyph glyph-name="Gcircumflex.titl" horiz-adv-x="816" 
d="M387 858l-66 -92h-65l90 141h82l90 -141h-65zM790 372v-74h-61q-9 -134 -101.5 -221t-228.5 -87q-148 0 -249 104.5t-101 257.5q0 151 101 254.5t250 103.5q107 0 199 -63t118 -152h-85q-24 61 -90.5 101.5t-141.5 40.5q-116 0 -194.5 -82t-78.5 -203q0 -123 79.5 -206
t197.5 -83q104 0 174.5 69.5t72.5 165.5h-236v74h375z" />
    <glyph glyph-name="uni0122.titl" horiz-adv-x="816" 
d="M790 372v-74h-61q-9 -134 -101.5 -221t-228.5 -87q-148 0 -249 104.5t-101 257.5q0 151 101 254.5t250 103.5q107 0 199 -63t118 -152h-85q-24 61 -90.5 101.5t-141.5 40.5q-116 0 -194.5 -82t-78.5 -203q0 -123 79.5 -206t197.5 -83q104 0 174.5 69.5t72.5 165.5h-236
v74h375zM282 -214l81 141h90l-103 -141h-68z" />
    <glyph glyph-name="Gdotaccent.titl" horiz-adv-x="816" 
d="M386 770q-22 0 -37 15t-15 37q0 21 15 36.5t37 15.5q21 0 37 -15.5t16 -36.5t-16 -36.5t-37 -15.5zM790 372v-74h-61q-9 -134 -101.5 -221t-228.5 -87q-148 0 -249 104.5t-101 257.5q0 151 101 254.5t250 103.5q107 0 199 -63t118 -152h-85q-24 61 -90.5 101.5
t-141.5 40.5q-116 0 -194.5 -82t-78.5 -203q0 -123 79.5 -206t197.5 -83q104 0 174.5 69.5t72.5 165.5h-236v74h375z" />
    <glyph glyph-name="I.titl" horiz-adv-x="342" 
d="M287 631h-78v-562h78v-69h-232v69h78v562h-78v69h232v-69z" />
    <glyph glyph-name="IJ.titl" horiz-adv-x="719" 
d="M287 700v-69h-78v-562h78v-69h-232v69h78v562h-78v69h232zM648 700v-69h-77v-442q0 -95 -44.5 -146.5t-124.5 -51.5q-25 0 -37 2v70q5 -1 18 -1q112 0 112 144v425h-78v69h231z" />
    <glyph glyph-name="Iacute.titl" horiz-adv-x="342" 
d="M300 900l-103 -141h-68l81 141h90zM287 700v-69h-78v-562h78v-69h-232v69h78v562h-78v69h232z" />
    <glyph glyph-name="Ibreve.titl" horiz-adv-x="342" 
d="M172 755q-64 0 -105.5 41.5t-42.5 108.5h58q1 -43 26.5 -71t63.5 -28t63.5 28t25.5 71h58q-1 -67 -42 -108.5t-105 -41.5zM287 700v-69h-78v-562h78v-69h-232v69h78v562h-78v69h232z" />
    <glyph glyph-name="Icircumflex.titl" horiz-adv-x="342" 
d="M171 858l-66 -92h-65l90 141h82l90 -141h-65zM287 700v-69h-78v-562h78v-69h-232v69h78v562h-78v69h232z" />
    <glyph glyph-name="Idieresis.titl" horiz-adv-x="342" 
d="M94 770q-21 0 -36.5 15t-15.5 37q0 21 15.5 36.5t36.5 15.5t37 -15.5t16 -36.5t-16 -36.5t-37 -15.5zM250 770q-22 0 -37.5 15t-15.5 37q0 21 15.5 36.5t37.5 15.5q20 0 36 -15.5t16 -36.5t-15.5 -36.5t-36.5 -15.5zM287 700v-69h-78v-562h78v-69h-232v69h78v562h-78v69
h232z" />
    <glyph glyph-name="Idotaccent.titl" horiz-adv-x="342" 
d="M171 770q-22 0 -37 15t-15 37q0 21 15 36.5t37 15.5q21 0 37 -15.5t16 -36.5t-16 -36.5t-37 -15.5zM287 631h-78v-562h78v-69h-232v69h78v562h-78v69h232v-69z" />
    <glyph glyph-name="Igrave.titl" horiz-adv-x="342" 
d="M212 759h-69l-103 141h91zM287 631h-78v-562h78v-69h-232v69h78v562h-78v69h232v-69z" />
    <glyph glyph-name="Imacron.titl" horiz-adv-x="342" 
d="M12 832h320v-60h-320v60zM287 700v-69h-78v-562h78v-69h-232v69h78v562h-78v69h232z" />
    <glyph glyph-name="Iogonek.titl" horiz-adv-x="342" 
d="M274 -128l19 -49q-38 -20 -90 -20q-44 0 -70.5 25.5t-26.5 64.5q0 60 58 107h-109v69h78v562h-78v69h232v-69h-78v-562h78v-69h-29q-41 -13 -64.5 -38t-23.5 -56q0 -21 14 -34t38 -13q29 0 52 13z" />
    <glyph glyph-name="Itilde.titl" horiz-adv-x="342" 
d="M283 885l60 -9q-4 -49 -32 -79.5t-67 -30.5q-32 0 -78 29t-64 29q-19 0 -31 -16t-11 -41l-61 10q4 49 32 79.5t67 30.5q32 0 78.5 -29t61.5 -29q20 0 32.5 15.5t12.5 40.5zM287 700v-69h-78v-562h78v-69h-232v69h78v562h-78v69h232z" />
    <glyph glyph-name="J.titl" horiz-adv-x="377" 
d="M307 700v-69h-78v-442q0 -95 -44.5 -146.5t-124.5 -51.5q-25 0 -37 2v70q5 -1 18 -1q112 0 112 144v425h-78v69h232z" />
    <glyph glyph-name="Jcircumflex.titl" horiz-adv-x="377" 
d="M189 858l-66 -92h-65l90 141h82l90 -141h-65zM307 700v-69h-78v-442q0 -95 -44.5 -146.5t-124.5 -51.5q-25 0 -37 2v70q5 -1 18 -1q112 0 112 144v425h-78v69h232z" />
    <glyph glyph-name="T.titl" horiz-adv-x="593" 
d="M564 628h-230v-559h78v-69h-231v69h78v559h-230v72h535v-72z" />
    <glyph glyph-name="Tbar.titl" horiz-adv-x="593" 
d="M564 628h-230v-252h112v-52h-112v-255h78v-69h-231v69h78v255h-114v52h114v252h-230v72h535v-72z" />
    <glyph glyph-name="Tcaron.titl" horiz-adv-x="593" 
d="M255 759l-91 141h66l66 -92l65 92h66l-90 -141h-82zM564 628h-230v-559h78v-69h-231v69h78v559h-230v72h535v-72z" />
    <glyph glyph-name="uni0162.titl" horiz-adv-x="593" 
d="M564 628h-230v-559h78v-69h-78q74 -79 42 -147.5t-131 -66.5l-18 54q83 6 97 53.5t-47 106.5h-96v69h78v559h-230v72h535v-72z" />
    <glyph glyph-name="uni021A.titl" horiz-adv-x="593" 
d="M564 628h-230v-559h78v-69h-231v69h78v559h-230v72h535v-72zM191 -214l81 141h90l-102 -141h-69z" />
    <glyph glyph-name="Y.titl" horiz-adv-x="620" 
d="M350 314v-245h78v-69h-232v69h78v245l-257 386h92l204 -310l201 310h89z" />
    <glyph glyph-name="Yacute.titl" horiz-adv-x="620" 
d="M431 900l-103 -141h-68l81 141h90zM350 314v-245h78v-69h-232v69h78v245l-257 386h92l204 -310l201 310h89z" />
    <glyph glyph-name="Ycircumflex.titl" horiz-adv-x="620" 
d="M302 858l-66 -93h-65l91 141h81l91 -141h-66zM350 314v-245h78v-69h-232v69h78v245l-257 386h92l204 -310l201 310h89z" />
    <glyph glyph-name="Ydieresis.titl" horiz-adv-x="620" 
d="M225 770q-22 0 -37.5 15t-15.5 37q0 21 15.5 36.5t37.5 15.5q21 0 37 -15.5t16 -36.5t-16 -36.5t-37 -15.5zM380 770q-22 0 -37 15t-15 37q0 21 15 36.5t37 15.5q21 0 37 -15.5t16 -36.5t-16 -36.5t-37 -15.5zM350 314v-245h78v-69h-232v69h78v245l-257 386h92l204 -310
l201 310h89z" />
    <glyph glyph-name="Ygrave.titl" horiz-adv-x="620" 
d="M343 759h-69l-103 141h91zM350 314v-245h78v-69h-232v69h78v245l-257 386h92l204 -310l201 310h89z" />
    <glyph glyph-name="i.loclTRK" horiz-adv-x="213" 
d="M107 698q21 0 37 -15.5t16 -36.5q0 -22 -16 -37.5t-37 -15.5q-22 0 -37 15.5t-15 37.5q0 21 15 36.5t37 15.5zM70 486h73v-486h-73v486z" />
    <glyph glyph-name="eth.alt" horiz-adv-x="589" 
d="M484 436q64 -101 64 -193q0 -105 -76 -179.5t-183 -74.5q-106 0 -181.5 74.5t-75.5 179.5q0 107 71.5 179.5t176.5 72.5q55 0 104 -31l-92 144l-118 -55l-22 44l114 53l-59 92h86l39 -62l131 61l22 -44l-127 -59zM289 61q78 0 132 53t54 130q0 78 -53.5 132t-130.5 54
q-78 0 -132.5 -54t-54.5 -132q0 -76 54 -129.5t131 -53.5z" />
    <glyph glyph-name="germandbls.calt" horiz-adv-x="603" 
d="M306 710q89 0 154 -51t75 -127l-163 -152q90 0 143.5 -49t53.5 -130q0 -82 -60.5 -141.5t-143.5 -59.5h-141v72h140q53 0 90.5 37t37.5 90q0 59 -35.5 94t-96.5 35h-76l-4 50l171 162q-11 42 -51 70t-91 28q-67 0 -110.5 -46.5t-43.5 -118.5v-473h-76v473q0 105 63 171
t164 66z" />
    <glyph glyph-name="iacute_j.loclNLD" horiz-adv-x="426" 
d="M236 686l-103 -141h-68l81 141h90zM448 686l-103 -141h-68l81 141h90zM70 486h73v-486h-73v486zM205 -134q1 0 5.5 -0.5t6.5 -0.5q66 0 66 100v521h73v-527q0 -161 -132 -161q-12 0 -19 1v67z" />
    <glyph glyph-name="a.ss01" horiz-adv-x="508" 
d="M248 496q94 0 147 -52t53 -139v-305h-69v82q-55 -92 -170 -92q-72 0 -117 39t-45 100q0 78 65 120t183 42h84v17q0 58 -36 93t-95 35q-51 0 -88 -30.5t-40 -76.5h-66q4 70 60.5 118.5t133.5 48.5zM219 49q70 0 115 43t45 103v40h-82q-185 0 -185 -101q0 -38 29.5 -61.5
t77.5 -23.5z" />
    <glyph glyph-name="aacute.ss01" horiz-adv-x="508" 
d="M382 686l-103 -141h-68l81 141h90zM248 496q94 0 147 -52t53 -139v-305h-69v82q-55 -92 -170 -92q-72 0 -117 39t-45 100q0 78 65 120t183 42h84v17q0 58 -36 93t-95 35q-51 0 -88 -30.5t-40 -76.5h-66q4 70 60.5 118.5t133.5 48.5zM219 49q70 0 115 43t45 103v40h-82
q-185 0 -185 -101q0 -38 29.5 -61.5t77.5 -23.5z" />
    <glyph glyph-name="abreve.ss01" horiz-adv-x="508" 
d="M254 541q-64 0 -105.5 41.5t-42.5 108.5h58q1 -43 26.5 -71t63.5 -28t63.5 28t25.5 71h58q-1 -67 -42 -108.5t-105 -41.5zM248 496q94 0 147 -52t53 -139v-305h-69v82q-55 -92 -170 -92q-72 0 -117 39t-45 100q0 78 65 120t183 42h84v17q0 58 -36 93t-95 35
q-51 0 -88 -30.5t-40 -76.5h-66q4 70 60.5 118.5t133.5 48.5zM219 49q70 0 115 43t45 103v40h-82q-185 0 -185 -101q0 -38 29.5 -61.5t77.5 -23.5z" />
    <glyph glyph-name="acircumflex.ss01" horiz-adv-x="508" 
d="M253 644l-66 -92h-65l90 141h82l90 -141h-65zM248 496q94 0 147 -52t53 -139v-305h-69v82q-55 -92 -170 -92q-72 0 -117 39t-45 100q0 78 65 120t183 42h84v17q0 58 -36 93t-95 35q-51 0 -88 -30.5t-40 -76.5h-66q4 70 60.5 118.5t133.5 48.5zM219 49q70 0 115 43t45 103
v40h-82q-185 0 -185 -101q0 -38 29.5 -61.5t77.5 -23.5z" />
    <glyph glyph-name="adieresis.ss01" horiz-adv-x="508" 
d="M176 593q-21 0 -36.5 15.5t-15.5 37.5q0 21 15.5 36.5t36.5 15.5t37 -15.5t16 -36.5q0 -22 -16 -37.5t-37 -15.5zM332 593q-22 0 -37.5 15.5t-15.5 37.5q0 21 15.5 36.5t37.5 15.5q20 0 36 -15.5t16 -36.5q0 -22 -16 -37.5t-36 -15.5zM248 496q94 0 147 -52t53 -139v-305
h-69v82q-55 -92 -170 -92q-72 0 -117 39t-45 100q0 78 65 120t183 42h84v17q0 58 -36 93t-95 35q-51 0 -88 -30.5t-40 -76.5h-66q4 70 60.5 118.5t133.5 48.5zM219 49q70 0 115 43t45 103v40h-82q-185 0 -185 -101q0 -38 29.5 -61.5t77.5 -23.5z" />
    <glyph glyph-name="agrave.ss01" horiz-adv-x="508" 
d="M294 545h-69l-103 141h91zM248 496q94 0 147 -52t53 -139v-305h-69v82q-55 -92 -170 -92q-72 0 -117 39t-45 100q0 78 65 120t183 42h84v17q0 58 -36 93t-95 35q-51 0 -88 -30.5t-40 -76.5h-66q4 70 60.5 118.5t133.5 48.5zM219 49q70 0 115 43t45 103v40h-82
q-185 0 -185 -101q0 -38 29.5 -61.5t77.5 -23.5z" />
    <glyph glyph-name="amacron.ss01" horiz-adv-x="508" 
d="M413 618v-60h-320v60h320zM248 496q94 0 147 -52t53 -139v-305h-69v82q-55 -92 -170 -92q-72 0 -117 39t-45 100q0 78 65 120t183 42h84v17q0 58 -36 93t-95 35q-51 0 -88 -30.5t-40 -76.5h-66q4 70 60.5 118.5t133.5 48.5zM219 49q70 0 115 43t45 103v40h-82
q-185 0 -185 -101q0 -38 29.5 -61.5t77.5 -23.5z" />
    <glyph glyph-name="aogonek.ss01" horiz-adv-x="508" 
d="M464 -128l19 -49q-38 -20 -90 -20q-44 0 -70.5 25.5t-26.5 64.5q0 74 83 124v65q-55 -92 -170 -92q-72 0 -117 39t-45 100q0 78 65 120t183 42h84v17q0 58 -36 93t-95 35q-51 0 -88 -30.5t-40 -76.5h-66q4 70 60.5 118.5t133.5 48.5q94 0 147 -52t53 -139v-305
q-41 -13 -64.5 -38t-23.5 -56q0 -21 14 -34t38 -13q29 0 52 13zM219 49q70 0 115 43t45 103v40h-82q-185 0 -185 -101q0 -38 29.5 -61.5t77.5 -23.5z" />
    <glyph glyph-name="aring.ss01" horiz-adv-x="508" 
d="M254 543q-52 0 -86 32.5t-34 81.5q0 50 34 82.5t86 32.5q51 0 85.5 -33t34.5 -82t-34.5 -81.5t-85.5 -32.5zM254 726q-31 0 -51 -20t-20 -49t20 -48.5t51 -19.5t51 19.5t20 48.5t-20 49t-51 20zM248 496q94 0 147 -52t53 -139v-305h-69v82q-55 -92 -170 -92
q-72 0 -117 39t-45 100q0 78 65 120t183 42h84v17q0 58 -36 93t-95 35q-51 0 -88 -30.5t-40 -76.5h-66q4 70 60.5 118.5t133.5 48.5zM219 49q70 0 115 43t45 103v40h-82q-185 0 -185 -101q0 -38 29.5 -61.5t77.5 -23.5z" />
    <glyph glyph-name="atilde.ss01" horiz-adv-x="508" 
d="M184 610q-19 0 -31 -16t-11 -41l-61 10q4 49 32 79.5t67 30.5q32 0 78.5 -29t61.5 -29q20 0 32.5 15.5t12.5 40.5l60 -9q-4 -49 -32 -79.5t-67 -30.5q-32 0 -78 29t-64 29zM248 496q94 0 147 -52t53 -139v-305h-69v82q-55 -92 -170 -92q-72 0 -117 39t-45 100
q0 78 65 120t183 42h84v17q0 58 -36 93t-95 35q-51 0 -88 -30.5t-40 -76.5h-66q4 70 60.5 118.5t133.5 48.5zM219 49q70 0 115 43t45 103v40h-82q-185 0 -185 -101q0 -38 29.5 -61.5t77.5 -23.5z" />
    <glyph glyph-name="ae.ss01" horiz-adv-x="921" 
d="M881 258q0 -16 -2 -28h-406q5 -78 53 -126t124 -48q58 0 100.5 26.5t52.5 71.5h73q-14 -74 -77 -119t-150 -45q-62 0 -115 27t-86 75v-92h-69v82q-55 -92 -170 -92q-72 0 -117 39t-45 100q0 78 65 120t183 42h84v17q0 58 -36 93t-95 35q-51 0 -88 -30.5t-40 -76.5h-66
q4 70 60.5 118.5t133.5 48.5q72 0 121 -31.5t68 -87.5q33 55 88.5 87t122.5 32q98 0 165.5 -67.5t67.5 -170.5zM476 292h327q-6 60 -50 99t-109 39q-64 0 -109.5 -37.5t-58.5 -100.5zM219 49q70 0 115 43t45 103v40h-82q-185 0 -185 -101q0 -38 29.5 -61.5t77.5 -23.5z" />
    <glyph glyph-name="aeacute.ss01" horiz-adv-x="921" 
d="M589 686l-103 -141h-68l81 141h90zM881 258q0 -16 -2 -28h-406q5 -78 53 -126t124 -48q58 0 100.5 26.5t52.5 71.5h73q-14 -74 -77 -119t-150 -45q-62 0 -115 27t-86 75v-92h-69v82q-55 -92 -170 -92q-72 0 -117 39t-45 100q0 78 65 120t183 42h84v17q0 58 -36 93t-95 35
q-51 0 -88 -30.5t-40 -76.5h-66q4 70 60.5 118.5t133.5 48.5q72 0 121 -31.5t68 -87.5q33 55 88.5 87t122.5 32q98 0 165.5 -67.5t67.5 -170.5zM476 292h327q-6 60 -50 99t-109 39q-64 0 -109.5 -37.5t-58.5 -100.5zM219 49q70 0 115 43t45 103v40h-82q-185 0 -185 -101
q0 -38 29.5 -61.5t77.5 -23.5z" />
    <glyph glyph-name="a.ss02" horiz-adv-x="517" 
d="M75 486h372v-486h-73v81q-55 -91 -170 -91q-72 0 -116.5 39t-44.5 100q0 78 65 120t183 42h83v133h-299v62zM215 49q69 0 114 43t45 103v40h-82q-184 0 -184 -101q0 -38 29 -61.5t78 -23.5z" />
    <glyph glyph-name="aacute.ss02" horiz-adv-x="517" 
d="M389 686l-103 -141h-68l81 141h90zM75 486h372v-486h-73v81q-55 -91 -170 -91q-72 0 -116.5 39t-44.5 100q0 78 65 120t183 42h83v133h-299v62zM215 49q69 0 114 43t45 103v40h-82q-184 0 -184 -101q0 -38 29 -61.5t78 -23.5z" />
    <glyph glyph-name="abreve.ss02" horiz-adv-x="517" 
d="M261 541q-63 0 -105 41.5t-43 108.5h58q1 -43 26.5 -71t63.5 -28t63.5 28t25.5 71h58q-1 -67 -42 -108.5t-105 -41.5zM75 486h372v-486h-73v81q-55 -91 -170 -91q-72 0 -116.5 39t-44.5 100q0 78 65 120t183 42h83v133h-299v62zM215 49q69 0 114 43t45 103v40h-82
q-184 0 -184 -101q0 -38 29 -61.5t78 -23.5z" />
    <glyph glyph-name="acircumflex.ss02" horiz-adv-x="517" 
d="M260 644l-66 -92h-65l90 141h82l90 -141h-65zM75 486h372v-486h-73v81q-55 -91 -170 -91q-72 0 -116.5 39t-44.5 100q0 78 65 120t183 42h83v133h-299v62zM215 49q69 0 114 43t45 103v40h-82q-184 0 -184 -101q0 -38 29 -61.5t78 -23.5z" />
    <glyph glyph-name="adieresis.ss02" horiz-adv-x="517" 
d="M182 593q-21 0 -36.5 15.5t-15.5 37.5q0 21 15.5 36.5t36.5 15.5t37 -15.5t16 -36.5q0 -22 -16 -37.5t-37 -15.5zM338 593q-22 0 -37.5 15.5t-15.5 37.5q0 21 15.5 36.5t37.5 15.5q20 0 36 -15.5t16 -36.5q0 -22 -16 -37.5t-36 -15.5zM75 486h372v-486h-73v81
q-55 -91 -170 -91q-72 0 -116.5 39t-44.5 100q0 78 65 120t183 42h83v133h-299v62zM215 49q69 0 114 43t45 103v40h-82q-184 0 -184 -101q0 -38 29 -61.5t78 -23.5z" />
    <glyph glyph-name="agrave.ss02" horiz-adv-x="516" 
d="M299 545h-69l-103 141h91zM75 486h372v-486h-73v81q-55 -91 -170 -91q-72 0 -116.5 39t-44.5 100q0 78 65 120t183 42h83v133h-299v62zM215 49q69 0 114 43t45 103v40h-82q-184 0 -184 -101q0 -38 29 -61.5t78 -23.5z" />
    <glyph glyph-name="amacron.ss02" horiz-adv-x="517" 
d="M420 618v-60h-320v60h320zM75 486h372v-486h-73v81q-55 -91 -170 -91q-72 0 -116.5 39t-44.5 100q0 78 65 120t183 42h83v133h-299v62zM215 49q69 0 114 43t45 103v40h-82q-184 0 -184 -101q0 -38 29 -61.5t78 -23.5z" />
    <glyph glyph-name="aogonek.ss02" horiz-adv-x="517" 
d="M463 -128l19 -49q-38 -20 -90 -20q-44 0 -70.5 25.5t-26.5 64.5q0 73 79 121v67q-55 -91 -170 -91q-72 0 -116.5 39t-44.5 100q0 78 65 120t183 42h83v133h-299v62h372v-486q-41 -13 -64.5 -38t-23.5 -56q0 -21 14 -34t38 -13q29 0 52 13zM215 49q69 0 114 43t45 103v40
h-82q-184 0 -184 -101q0 -38 29 -61.5t78 -23.5z" />
    <glyph glyph-name="aring.ss02" horiz-adv-x="517" 
d="M260 543q-52 0 -86 32.5t-34 81.5q0 50 34 82.5t86 32.5q51 0 85.5 -33t34.5 -82t-34.5 -81.5t-85.5 -32.5zM260 726q-31 0 -51 -20t-20 -49t20 -48.5t51 -19.5t51 19.5t20 48.5t-20 49t-51 20zM75 486h372v-486h-73v81q-55 -91 -170 -91q-72 0 -116.5 39t-44.5 100
q0 78 65 120t183 42h83v133h-299v62zM215 49q69 0 114 43t45 103v40h-82q-184 0 -184 -101q0 -38 29 -61.5t78 -23.5z" />
    <glyph glyph-name="atilde.ss02" horiz-adv-x="517" 
d="M190 610q-19 0 -31 -16t-11 -41l-61 10q4 49 32 79.5t67 30.5q32 0 78.5 -29t61.5 -29q20 0 32.5 15.5t12.5 40.5l60 -9q-4 -49 -32 -79.5t-67 -30.5q-32 0 -78 29t-64 29zM75 486h372v-486h-73v81q-55 -91 -170 -91q-72 0 -116.5 39t-44.5 100q0 78 65 120t183 42h83
v133h-299v62zM215 49q69 0 114 43t45 103v40h-82q-184 0 -184 -101q0 -38 29 -61.5t78 -23.5z" />
    <glyph glyph-name="ae.ss02" horiz-adv-x="905" 
d="M864 263q0 -3 -0.5 -12t-0.5 -13h-412q1 -81 52 -134t128 -53q60 0 103 28t54 74h71q-13 -74 -76 -118.5t-151 -44.5q-64 0 -115.5 28.5t-82.5 79.5v-98h-60v89q-51 -99 -173 -99q-70 0 -114 39.5t-44 99.5q0 78 64.5 118t186.5 40h80v137h-299v62h359v-97
q31 50 82.5 78.5t114.5 28.5q98 0 165.5 -67t67.5 -166zM456 289h333q-4 63 -49.5 105t-110.5 42t-112.5 -40t-60.5 -107zM215 49q70 0 114.5 42t44.5 101v46h-79q-187 0 -187 -104q0 -38 29 -61.5t78 -23.5z" />
    <glyph glyph-name="aeacute.ss02" horiz-adv-x="905" 
d="M580 686l-103 -141h-68l81 141h90zM864 263q0 -3 -0.5 -12t-0.5 -13h-412q1 -81 52 -134t128 -53q60 0 103 28t54 74h71q-13 -74 -76 -118.5t-151 -44.5q-64 0 -115.5 28.5t-82.5 79.5v-98h-60v89q-51 -99 -173 -99q-70 0 -114 39.5t-44 99.5q0 78 64.5 118t186.5 40h80
v137h-299v62h359v-97q31 50 82.5 78.5t114.5 28.5q98 0 165.5 -67t67.5 -166zM456 289h333q-4 63 -49.5 105t-110.5 42t-112.5 -40t-60.5 -107zM215 49q70 0 114.5 42t44.5 101v46h-79q-187 0 -187 -104q0 -38 29 -61.5t78 -23.5z" />
    <glyph glyph-name="c.ss03" horiz-adv-x="488" 
d="M428 418h-285v-349h285v-69h-358v486h358v-68z" />
    <glyph glyph-name="cacute.ss03" horiz-adv-x="488" 
d="M378 686l-103 -141h-68l81 141h90zM428 418h-285v-349h285v-69h-358v486h358v-68z" />
    <glyph glyph-name="ccaron.ss03" horiz-adv-x="488" 
d="M209 545l-90 141h65l66 -92l66 92h65l-90 -141h-82zM428 418h-285v-349h285v-69h-358v486h358v-68z" />
    <glyph glyph-name="ccedilla.ss03" horiz-adv-x="488" 
d="M428 418h-285v-349h285v-69h-138q74 -79 42 -147.5t-131 -66.5l-18 54q83 6 96.5 53.5t-47.5 106.5h-162v486h358v-68z" />
    <glyph glyph-name="ccircumflex.ss03" horiz-adv-x="488" 
d="M250 644l-66 -92h-65l90 141h82l90 -141h-65zM428 418h-285v-349h285v-69h-358v486h358v-68z" />
    <glyph glyph-name="cdotaccent.ss03" horiz-adv-x="488" 
d="M250 698q21 0 37 -15.5t16 -36.5q0 -22 -16 -37.5t-37 -15.5q-22 0 -37 15.5t-15 37.5q0 21 15 36.5t37 15.5zM428 418h-285v-349h285v-69h-358v486h358v-68z" />
    <glyph glyph-name="g.ss04" horiz-adv-x="623" 
d="M480 486h73v-670h-417v68h344v240q-26 -57 -77.5 -88.5t-120.5 -31.5q-100 0 -170.5 72t-70.5 175t70 174.5t171 71.5q142 0 198 -119v108zM296 71q80 0 132 51t52 129q0 77 -52.5 128t-131.5 51q-77 0 -130 -52t-53 -127q0 -76 53 -128t130 -52z" />
    <glyph glyph-name="gbreve.ss04" horiz-adv-x="623" 
d="M328 541q-64 0 -105.5 41.5t-42.5 108.5h58q1 -43 26.5 -71t63.5 -28t63.5 28t25.5 71h58q-1 -67 -42 -108.5t-105 -41.5zM480 486h73v-670h-417v68h344v240q-26 -57 -77.5 -88.5t-120.5 -31.5q-100 0 -170.5 72t-70.5 175t70 174.5t171 71.5q142 0 198 -119v108zM296 71
q80 0 132 51t52 129q0 77 -52.5 128t-131.5 51q-77 0 -130 -52t-53 -127q0 -76 53 -128t130 -52z" />
    <glyph glyph-name="gcircumflex.ss04" horiz-adv-x="623" 
d="M327 644l-66 -92h-65l90 141h82l90 -141h-65zM480 486h73v-670h-417v68h344v240q-26 -57 -77.5 -88.5t-120.5 -31.5q-100 0 -170.5 72t-70.5 175t70 174.5t171 71.5q142 0 198 -119v108zM296 71q80 0 132 51t52 129q0 77 -52.5 128t-131.5 51q-77 0 -130 -52t-53 -127
q0 -76 53 -128t130 -52z" />
    <glyph glyph-name="uni0123.ss04" horiz-adv-x="623" 
d="M455 689l-82 -141h-90l103 141h69zM480 486h73v-670h-417v68h344v240q-26 -57 -77.5 -88.5t-120.5 -31.5q-100 0 -170.5 72t-70.5 175t70 174.5t171 71.5q142 0 198 -119v108zM296 71q80 0 132 51t52 129q0 77 -52.5 128t-131.5 51q-77 0 -130 -52t-53 -127
q0 -76 53 -128t130 -52z" />
    <glyph glyph-name="gdotaccent.ss04" horiz-adv-x="623" 
d="M327 593q-22 0 -37 15.5t-15 37.5q0 21 15 36.5t37 15.5q21 0 37 -15.5t16 -36.5q0 -22 -16 -37.5t-37 -15.5zM480 486h73v-670h-417v68h344v240q-26 -57 -77.5 -88.5t-120.5 -31.5q-100 0 -170.5 72t-70.5 175t70 174.5t171 71.5q142 0 198 -119v108zM296 71
q80 0 132 51t52 129q0 77 -52.5 128t-131.5 51q-77 0 -130 -52t-53 -127q0 -76 53 -128t130 -52z" />
    <glyph glyph-name="h.ss05" horiz-adv-x="566" 
d="M143 700v-214h353v-486h-73v418h-280v-418h-73v700h73z" />
    <glyph glyph-name="hbar.ss05" horiz-adv-x="566" 
d="M143 486h353v-486h-73v418h-280v-418h-73v571h-112v52h112v77h73v-77h116v-52h-116v-85z" />
    <glyph glyph-name="hcircumflex.ss05" horiz-adv-x="566" 
d="M173 766l-66 92l-66 -92h-66l91 141h82l90 -141h-65zM143 486h353v-486h-73v418h-280v-418h-73v700h73v-214z" />
    <glyph glyph-name="j.ss06" horiz-adv-x="213" 
d="M106 698q21 0 37 -15.5t16 -36.5q0 -22 -16 -37.5t-37 -15.5q-22 0 -37 15.5t-15 37.5q0 21 15 36.5t37 15.5zM143 486v-670h-73v670h73z" />
    <glyph glyph-name="uni0237.ss06" horiz-adv-x="213" 
d="M143 486v-670h-73v670h73z" />
    <glyph glyph-name="jcircumflex.ss06" horiz-adv-x="213" 
d="M148 693l90 -141h-65l-66 92l-66 -92h-66l91 141h82zM70 -184v670h73v-670h-73z" />
    <glyph glyph-name="l.ss07" horiz-adv-x="254" 
d="M143 700v-631h79v-69h-152v700h73z" />
    <glyph glyph-name="lacute.ss07" horiz-adv-x="254" 
d="M237 900l-103 -141h-68l81 141h90zM143 700v-631h79v-69h-152v700h73z" />
    <glyph glyph-name="lcaron.ss07" horiz-adv-x="297" 
d="M181 545l21 205h77l-38 -205h-60zM143 700v-631h79v-69h-152v700h73z" />
    <glyph glyph-name="uni013C.ss07" horiz-adv-x="254" 
d="M143 700v-631h79v-69h-152v700h73zM207 -73l-103 -141h-68l81 141h90z" />
    <glyph glyph-name="ldot.ss07" horiz-adv-x="310" 
d="M143 700v-631h79v-69h-152v700h73zM261 296q-25 0 -42 16.5t-17 41.5q0 24 17 41t42 17t41.5 -17t16.5 -41q0 -25 -16.5 -41.5t-41.5 -16.5z" />
    <glyph glyph-name="lslash.ss07" horiz-adv-x="254" 
d="M143 69h79v-69h-152v356l-72 -33v67l72 33v277h73v-243l73 33v-67l-73 -33v-321z" />
    <glyph glyph-name="m.ss08" horiz-adv-x="880" 
d="M809 486v-486h-72v418h-261v-418h-73v418h-260v-418h-73v486h739z" />
    <glyph glyph-name="n.ss09" horiz-adv-x="566" 
d="M496 486v-486h-73v418h-280v-418h-73v486h426z" />
    <glyph glyph-name="nacute.ss09" horiz-adv-x="566" 
d="M412 686l-103 -141h-68l81 141h90zM496 486v-486h-73v418h-280v-418h-73v486h426z" />
    <glyph glyph-name="ncaron.ss09" horiz-adv-x="566" 
d="M242 545l-90 141h65l66 -92l66 92h65l-90 -141h-82zM70 486h426v-486h-73v418h-280v-418h-73v486z" />
    <glyph glyph-name="uni0146.ss09" horiz-adv-x="566" 
d="M496 486v-486h-73v418h-280v-418h-73v486h426zM348 -73l-103 -141h-68l81 141h90z" />
    <glyph glyph-name="eng.ss09" horiz-adv-x="558" 
d="M70 486h426v-527q0 -79 -34 -120t-98 -41q-8 0 -32 2l9 67q10 -2 16 -2q66 0 66 100v453h-280v-418h-73v486z" />
    <glyph glyph-name="ntilde.ss09" horiz-adv-x="566" 
d="M111 563q4 49 32 79.5t67 30.5q32 0 78.5 -29t61.5 -29q20 0 32.5 15.5t12.5 40.5l60 -9q-4 -49 -32 -79.5t-67 -30.5q-32 0 -78 29t-64 29q-19 0 -31 -16t-11 -41zM496 486v-486h-73v418h-280v-418h-73v486h426z" />
    <glyph glyph-name="o.ss10" horiz-adv-x="566" 
d="M495 486v-486h-425v486h425zM423 418h-280v-349h280v349z" />
    <glyph glyph-name="oacute.ss10" horiz-adv-x="566" 
d="M412 686l-103 -141h-68l81 141h90zM495 486v-486h-425v486h425zM423 418h-280v-349h280v349z" />
    <glyph glyph-name="obreve.ss10" horiz-adv-x="566" 
d="M431 691q-1 -67 -42 -108.5t-105 -41.5t-105.5 41.5t-42.5 108.5h58q1 -43 26.5 -71t63.5 -28t63.5 28t25.5 71h58zM495 486v-486h-425v486h425zM423 418h-280v-349h280v349z" />
    <glyph glyph-name="ocircumflex.ss10" horiz-adv-x="566" 
d="M283 644l-66 -92h-65l90 141h82l90 -141h-65zM70 486h425v-486h-425v486zM423 69v349h-280v-349h280z" />
    <glyph glyph-name="odieresis.ss10" horiz-adv-x="566" 
d="M206 698q21 0 37 -15.5t16 -36.5q0 -22 -16 -37.5t-37 -15.5t-36.5 15.5t-15.5 37.5q0 21 15.5 36.5t36.5 15.5zM362 698q20 0 36 -15.5t16 -36.5q0 -22 -16 -37.5t-36 -15.5q-22 0 -37.5 15.5t-15.5 37.5q0 21 15.5 36.5t37.5 15.5zM495 486v-486h-425v486h425zM423 418
h-280v-349h280v349z" />
    <glyph glyph-name="ograve.ss10" horiz-adv-x="566" 
d="M152 686h91l81 -141h-69zM495 486v-486h-425v486h425zM423 418h-280v-349h280v349z" />
    <glyph glyph-name="ohungarumlaut.ss10" horiz-adv-x="566" 
d="M236 545l68 148h-75l-69 -148h76zM392 545l68 148h-76l-68 -148h76zM495 486v-486h-425v486h425zM423 418h-280v-349h280v349z" />
    <glyph glyph-name="omacron.ss10" horiz-adv-x="566" 
d="M123 558v60h320v-60h-320zM495 486v-486h-425v486h425zM423 418h-280v-349h280v349z" />
    <glyph glyph-name="oslash.ss10" horiz-adv-x="566" 
d="M70 486h425v-486h-425v486zM399 418h-256v-308zM166 69h257v308z" />
    <glyph glyph-name="otilde.ss10" horiz-adv-x="566" 
d="M111 563q4 49 32 79.5t67 30.5q32 0 78.5 -29t61.5 -29q20 0 32.5 15.5t12.5 40.5l60 -9q-4 -49 -32 -79.5t-67 -30.5q-32 0 -78 29t-64 29q-19 0 -31 -16t-11 -41zM495 486v-486h-425v486h425zM423 418h-280v-349h280v349z" />
    <glyph glyph-name="oe.ss10" horiz-adv-x="968" 
d="M928 258q0 -16 -2 -28h-406q5 -78 53 -126t124 -48q58 0 100.5 26.5t52.5 71.5h73q-14 -74 -77 -119t-150 -45q-62 0 -115 27t-86 75v-92h-425v486h425v-92q34 47 86.5 74.5t113.5 27.5q98 0 165.5 -67.5t67.5 -170.5zM523 292h327q-6 60 -50 99t-109 39
q-64 0 -109.5 -37.5t-58.5 -100.5zM423 69v349h-280v-349h280z" />
    <glyph glyph-name="r.ss11" horiz-adv-x="349" 
d="M323 486v-68h-180v-418h-73v486h253z" />
    <glyph glyph-name="racute.ss11" horiz-adv-x="349" 
d="M322 686l-103 -141h-68l81 141h90zM323 486v-68h-180v-418h-73v486h253z" />
    <glyph glyph-name="rcaron.ss11" horiz-adv-x="349" 
d="M152 545l-90 141h65l66 -92l66 92h65l-90 -141h-82zM70 0v486h253v-68h-180v-418h-73z" />
    <glyph glyph-name="uni0157.ss11" horiz-adv-x="349" 
d="M323 486v-68h-180v-418h-73v486h253zM168 -73l-103 -141h-68l81 141h90z" />
    <glyph glyph-name="s.ss12" horiz-adv-x="439" 
d="M224 0h-169v60h171q51 0 79.5 20.5t28.5 56.5q0 33 -30 51.5t-73.5 27.5t-86.5 20.5t-73 41.5t-30 79q0 61 44.5 95t124.5 34h162v-60h-170q-42 0 -65.5 -17t-23.5 -48q0 -32 30 -50t72.5 -27.5t85 -22t72.5 -42.5t30 -80q0 -65 -47 -102t-132 -37z" />
    <glyph glyph-name="sacute.ss12" horiz-adv-x="439" 
d="M357 686l-103 -141h-68l81 141h90zM224 0h-169v60h171q51 0 79.5 20.5t28.5 56.5q0 33 -30 51.5t-73.5 27.5t-86.5 20.5t-73 41.5t-30 79q0 61 44.5 95t124.5 34h162v-60h-170q-42 0 -65.5 -17t-23.5 -48q0 -32 30 -50t72.5 -27.5t85 -22t72.5 -42.5t30 -80
q0 -65 -47 -102t-132 -37z" />
    <glyph glyph-name="scaron.ss12" horiz-adv-x="439" 
d="M188 545l-90 141h65l66 -92l66 92h65l-90 -141h-82zM113 361q0 -32 30 -50t72.5 -27.5t85 -22t72.5 -42.5t30 -80q0 -65 -47 -102t-132 -37h-169v60h171q51 0 79.5 20.5t28.5 56.5q0 33 -30 51.5t-73.5 27.5t-86.5 20.5t-73 41.5t-30 79q0 61 44.5 95t124.5 34h162v-60
h-170q-42 0 -65.5 -17t-23.5 -48z" />
    <glyph glyph-name="scedilla.ss12" horiz-adv-x="439" 
d="M403 139q0 -59 -39 -95t-111 -43q50 -51 52.5 -102.5t-36.5 -82.5t-103 -30l-18 54q83 6 96.5 53.5t-47.5 106.5h-142v60h171q51 0 79.5 20.5t28.5 56.5q0 33 -30 51.5t-73.5 27.5t-86.5 20.5t-73 41.5t-30 79q0 61 44.5 95t124.5 34h162v-60h-170q-42 0 -65.5 -17
t-23.5 -48q0 -32 30 -50t72.5 -27.5t85 -22t72.5 -42.5t30 -80z" />
    <glyph glyph-name="scircumflex.ss12" horiz-adv-x="439" 
d="M229 644l-66 -92h-65l90 141h82l90 -141h-65zM113 361q0 -32 30 -50t72.5 -27.5t85 -22t72.5 -42.5t30 -80q0 -65 -47 -102t-132 -37h-169v60h171q51 0 79.5 20.5t28.5 56.5q0 33 -30 51.5t-73.5 27.5t-86.5 20.5t-73 41.5t-30 79q0 61 44.5 95t124.5 34h162v-60h-170
q-42 0 -65.5 -17t-23.5 -48z" />
    <glyph glyph-name="uni0219.ss12" horiz-adv-x="439" 
d="M224 0h-169v60h171q51 0 79.5 20.5t28.5 56.5q0 33 -30 51.5t-73.5 27.5t-86.5 20.5t-73 41.5t-30 79q0 61 44.5 95t124.5 34h162v-60h-170q-42 0 -65.5 -17t-23.5 -48q0 -32 30 -50t72.5 -27.5t85 -22t72.5 -42.5t30 -80q0 -65 -47 -102t-132 -37zM283 -73l-103 -141
h-68l81 141h90z" />
    <glyph glyph-name="t.ss13" horiz-adv-x="349" 
d="M327 486v-68h-120v-418h-72v418h-120v68h120v133h72v-133h120z" />
    <glyph glyph-name="tbar.ss13" horiz-adv-x="349" 
d="M327 418h-120v-157h89v-48h-89v-213h-72v213h-89v48h89v157h-120v68h120v133h72v-133h120v-68z" />
    <glyph glyph-name="tcaron.ss13" horiz-adv-x="349" 
d="M290 750h78l-38 -205h-60zM207 619v-133h120v-68h-120v-418h-72v418h-120v68h120v133h72z" />
    <glyph glyph-name="uni0163.ss13" horiz-adv-x="349" 
d="M327 418h-120v-407q42 -40 55.5 -82t0 -73.5t-49 -51t-84.5 -18.5l-18 54q83 6 96.5 53.5t-47.5 106.5h-25v418h-120v68h120v133h72v-133h120v-68z" />
    <glyph glyph-name="uni021B.ss13" horiz-adv-x="349" 
d="M207 486h120v-68h-120v-418h-72v418h-120v68h120v133h72v-133zM66 -214l81 141h90l-103 -141h-68z" />
    <glyph glyph-name="u.ss14" horiz-adv-x="586" 
d="M514 486v-262q0 -105 -61 -169.5t-160 -64.5t-160 64.5t-61 169.5v262h72v-262q0 -75 40.5 -120t108.5 -45t108.5 45t40.5 120v262h72z" />
    <glyph glyph-name="uacute.ss14" horiz-adv-x="586" 
d="M422 686l-103 -141h-68l81 141h90zM514 486v-262q0 -105 -61 -169.5t-160 -64.5t-160 64.5t-61 169.5v262h72v-262q0 -75 40.5 -120t108.5 -45t108.5 45t40.5 120v262h72z" />
    <glyph glyph-name="ucircumflex.ss14" horiz-adv-x="586" 
d="M294 644l-66 -92h-65l90 141h82l90 -141h-65zM442 486h72v-262q0 -105 -61 -169.5t-160 -64.5t-160 64.5t-61 169.5v262h72v-262q0 -75 40.5 -120t108.5 -45t108.5 45t40.5 120v262z" />
    <glyph glyph-name="udieresis.ss14" horiz-adv-x="586" 
d="M216 698q21 0 37 -15.5t16 -36.5q0 -22 -16 -37.5t-37 -15.5t-36.5 15.5t-15.5 37.5q0 21 15.5 36.5t36.5 15.5zM372 698q20 0 36 -15.5t16 -36.5q0 -22 -16 -37.5t-36 -15.5q-22 0 -37.5 15.5t-15.5 37.5q0 21 15.5 36.5t37.5 15.5zM514 486v-262q0 -105 -61 -169.5
t-160 -64.5t-160 64.5t-61 169.5v262h72v-262q0 -75 40.5 -120t108.5 -45t108.5 45t40.5 120v262h72z" />
    <glyph glyph-name="ugrave.ss14" horiz-adv-x="586" 
d="M163 686h91l81 -141h-69zM514 486v-262q0 -105 -61 -169.5t-160 -64.5t-160 64.5t-61 169.5v262h72v-262q0 -75 40.5 -120t108.5 -45t108.5 45t40.5 120v262h72z" />
    <glyph glyph-name="uhungarumlaut.ss14" horiz-adv-x="586" 
d="M247 545l68 148h-75l-69 -148h76zM403 545l68 148h-76l-68 -148h76zM514 486v-262q0 -105 -61 -169.5t-160 -64.5t-160 64.5t-61 169.5v262h72v-262q0 -75 40.5 -120t108.5 -45t108.5 45t40.5 120v262h72z" />
    <glyph glyph-name="umacron.ss14" horiz-adv-x="586" 
d="M134 558v60h320v-60h-320zM514 486v-262q0 -105 -61 -169.5t-160 -64.5t-160 64.5t-61 169.5v262h72v-262q0 -75 40.5 -120t108.5 -45t108.5 45t40.5 120v262h72z" />
    <glyph glyph-name="uogonek.ss14" horiz-adv-x="586" 
d="M442 486h72v-262q0 -86 -42 -146t-114 -80q-39 -13 -61 -37.5t-22 -54.5q0 -21 14 -34t38 -13q29 0 52 13l19 -49q-38 -20 -90 -20q-44 0 -70.5 25.5t-26.5 64.5q0 55 49 99q-86 11 -137 73.5t-51 158.5v262h72v-262q0 -75 40.5 -120t108.5 -45t108.5 45t40.5 120v262z
" />
    <glyph glyph-name="uring.ss14" horiz-adv-x="586" 
d="M294 543q-52 0 -86 32.5t-34 81.5q0 50 34 82.5t86 32.5q51 0 85.5 -33t34.5 -82t-34.5 -81.5t-85.5 -32.5zM294 589q31 0 51 19.5t20 48.5t-20 49t-51 20t-51 -20t-20 -49t20 -48.5t51 -19.5zM514 486v-262q0 -105 -61 -169.5t-160 -64.5t-160 64.5t-61 169.5v262h72
v-262q0 -75 40.5 -120t108.5 -45t108.5 45t40.5 120v262h72z" />
    <glyph glyph-name="utilde.ss14" horiz-adv-x="586" 
d="M121 563q4 49 32 79.5t67 30.5q32 0 78.5 -29t61.5 -29q20 0 32.5 15.5t12.5 40.5l60 -9q-4 -49 -32 -79.5t-67 -30.5q-32 0 -78 29t-64 29q-19 0 -31 -16t-11 -41zM514 486v-262q0 -105 -61 -169.5t-160 -64.5t-160 64.5t-61 169.5v262h72v-262q0 -75 40.5 -120
t108.5 -45t108.5 45t40.5 120v262h72z" />
    <glyph glyph-name="u.ss15" horiz-adv-x="566" 
d="M496 0h-426v486h73v-418h280v418h73v-486z" />
    <glyph glyph-name="uacute.ss15" horiz-adv-x="566" 
d="M412 686l-103 -141h-68l81 141h90zM496 0h-426v486h73v-418h280v418h73v-486z" />
    <glyph glyph-name="ucircumflex.ss15" horiz-adv-x="566" 
d="M283 644l-66 -92h-65l90 141h82l90 -141h-65zM423 486h73v-486h-426v486h73v-418h280v418z" />
    <glyph glyph-name="udieresis.ss15" horiz-adv-x="566" 
d="M206 698q21 0 37 -15.5t16 -36.5q0 -22 -16 -37.5t-37 -15.5t-36.5 15.5t-15.5 37.5q0 21 15.5 36.5t36.5 15.5zM362 698q20 0 36 -15.5t16 -36.5q0 -22 -16 -37.5t-36 -15.5q-22 0 -37.5 15.5t-15.5 37.5q0 21 15.5 36.5t37.5 15.5zM496 0h-426v486h73v-418h280v418h73
v-486z" />
    <glyph glyph-name="ugrave.ss15" horiz-adv-x="566" 
d="M152 686h91l81 -141h-69zM496 0h-426v486h73v-418h280v418h73v-486z" />
    <glyph glyph-name="uhungarumlaut.ss15" horiz-adv-x="566" 
d="M236 545l68 148h-75l-69 -148h76zM392 545l68 148h-76l-68 -148h76zM496 0h-426v486h73v-418h280v418h73v-486z" />
    <glyph glyph-name="umacron.ss15" horiz-adv-x="566" 
d="M124 558v60h320v-60h-320zM496 0h-426v486h73v-418h280v418h73v-486z" />
    <glyph glyph-name="uogonek.ss15" horiz-adv-x="566" 
d="M368 0q-41 -13 -64.5 -38t-23.5 -56q0 -21 14 -34t38 -13q29 0 52 13l19 -49q-38 -20 -90 -20q-44 0 -70.5 25.5t-26.5 64.5q0 60 58 107h-204v486h73v-418h280v418h73v-486h-128z" />
    <glyph glyph-name="uring.ss15" horiz-adv-x="566" 
d="M284 543q-52 0 -86 32.5t-34 81.5q0 50 34 82.5t86 32.5q51 0 85.5 -33t34.5 -82t-34.5 -81.5t-85.5 -32.5zM284 589q31 0 51 19.5t20 48.5t-20 49t-51 20t-51 -20t-20 -49t20 -48.5t51 -19.5zM496 0h-426v486h73v-418h280v418h73v-486z" />
    <glyph glyph-name="utilde.ss15" horiz-adv-x="566" 
d="M111 563q4 49 32 79.5t67 30.5q32 0 78.5 -29t61.5 -29q20 0 32.5 15.5t12.5 40.5l60 -9q-4 -49 -32 -79.5t-67 -30.5q-32 0 -78 29t-64 29q-19 0 -31 -16t-11 -41zM496 0h-426v486h73v-418h280v418h73v-486z" />
    <glyph glyph-name="uni00CD00A40301" horiz-adv-x="535" 
d="M245 900l-103 -141h-68l81 141h90zM554 900l-103 -141h-68l81 141h90zM79 700h75v-700h-75v700zM256 63q5 -1 18 -1q112 0 112 144v494h76v-511q0 -95 -44.5 -146.5t-124.5 -51.5q-25 0 -37 2v70z" />
    <glyph glyph-name="T_h.dlig" horiz-adv-x="1146" 
d="M871 496q94 0 149.5 -58t55.5 -158v-280h-73v273q0 70 -40 112t-107 42q-69 0 -110 -42t-41 -112v-273h-73v628h-298v-628h-75v628h-230v72h676v-308q50 104 166 104z" />
    <glyph glyph-name="T_i.dlig" horiz-adv-x="721" 
d="M564 700v-72h-230v-628h-75v628h-230v72h535zM578 486h73v-486h-73v486z" />
    <glyph glyph-name="f_f.dlig" horiz-adv-x="650" 
d="M592 644q-102 0 -102 -100v-58h137v-68h-137v-418h-73v418h-225v-418h-73v418h-96v68h96v59q0 83 43 125t119 42q25 0 48 -5v-67q-15 4 -35 4q-102 0 -102 -100v-58h225v59q0 83 43 125t119 42q25 0 48 -5v-67q-15 4 -35 4z" />
    <glyph glyph-name="f_f_i.dlig" horiz-adv-x="849" 
d="M779 486v-486h-73v418h-216v-418h-73v418h-225v-418h-73v418h-96v68h96v59q0 83 43 125t119 42q25 0 48 -5v-67q-15 4 -35 4q-102 0 -102 -100v-58h225v59q0 83 43 125t119 42q25 0 48 -5v-67q-15 4 -35 4q-102 0 -102 -100v-58h289z" />
    <glyph glyph-name="f_f_t.dlig" horiz-adv-x="949" 
d="M917 418h-137v-254q0 -101 103 -101q21 0 34 4v-67q-23 -5 -48 -5q-76 0 -118.5 42.5t-42.5 125.5v255h-218v-418h-73v418h-225v-418h-73v418h-96v68h96v59q0 83 43 125t119 42q25 0 48 -5v-67q-15 4 -35 4q-102 0 -102 -100v-58h225v59q0 83 43 125t119 42q25 0 48 -5
v-67q-15 4 -35 4q-102 0 -102 -100v-58h218v134h72v-134h137v-68z" />
    <glyph glyph-name="f_i.dlig" horiz-adv-x="551" 
d="M481 486v-486h-73v418h-216v-418h-73v418h-96v68h96v59q0 83 43 125t119 42q25 0 48 -5v-67q-15 4 -35 4q-102 0 -102 -100v-58h289z" />
    <glyph glyph-name="f_l.dlig" horiz-adv-x="551" 
d="M408 700h73v-700h-73v418h-216v-418h-73v418h-96v68h96v59q0 83 43 125t119 42q25 0 48 -5v-67q-15 4 -35 4q-102 0 -102 -100v-58h216v214z" />
    <glyph glyph-name="f_t.dlig" horiz-adv-x="651" 
d="M619 418h-137v-254q0 -101 103 -101q21 0 34 4v-67q-23 -5 -48 -5q-76 0 -118.5 42.5t-42.5 125.5v255h-218v-418h-73v418h-96v68h96v59q0 83 43 125t119 42q25 0 48 -5v-67q-15 4 -35 4q-102 0 -102 -100v-58h218v134h72v-134h137v-68z" />
    <glyph glyph-name="A.sinf" horiz-adv-x="395" 
d="M333 0l-39 99h-194l-39 -99h-54l168 420h45l168 -420h-55zM118 143h158l-79 201z" />
    <glyph glyph-name="B.sinf" horiz-adv-x="354" 
d="M45 0v420h148q49 0 84.5 -31t35.5 -75q0 -32 -20 -59t-49 -33q39 -4 65 -34.5t26 -71.5q0 -49 -36.5 -82.5t-87.5 -33.5h-166zM96 238h95q29 0 50 20t21 49q0 27 -21 46t-50 19h-95v-134zM96 48h111q32 0 54 21.5t22 53.5q0 31 -22 53t-54 22h-111v-150z" />
    <glyph glyph-name="C.sinf" horiz-adv-x="458" 
d="M238 -6q-89 0 -149.5 63t-60.5 154t60.5 153t149.5 62q70 0 124 -40.5t66 -102.5h-56q-12 42 -49.5 68t-84.5 26q-67 0 -112 -48t-45 -118q0 -71 45 -119.5t112 -48.5q48 0 86 28t48 72h57q-13 -66 -66.5 -107.5t-124.5 -41.5z" />
    <glyph glyph-name="D.sinf" horiz-adv-x="413" 
d="M177 420q88 0 147.5 -59t59.5 -149q0 -91 -59.5 -151.5t-147.5 -60.5h-132v420h132zM180 48q65 0 108.5 47t43.5 117t-43.5 115t-108.5 45h-84v-324h84z" />
    <glyph glyph-name="E.sinf" horiz-adv-x="315" 
d="M45 420h238v-48h-187v-124h167v-49h-167v-151h187v-48h-238v420z" />
    <glyph glyph-name="F.sinf" horiz-adv-x="305" 
d="M45 420h238v-48h-187v-130h167v-48h-167v-194h-51v420z" />
    <glyph glyph-name="G.sinf" horiz-adv-x="467" 
d="M437 222q2 -18 2 -27q0 -87 -57 -144t-143 -57q-89 0 -150 62.5t-61 154.5q0 91 61 153t151 62q65 0 120.5 -38.5t70.5 -92.5h-57q-13 35 -52 58.5t-82 23.5q-67 0 -113 -48t-46 -118q0 -71 46.5 -119.5t115.5 -48.5q61 0 101 39t41 95v2h-139v43h191z" />
    <glyph glyph-name="H.sinf" horiz-adv-x="421" 
d="M325 420h51v-420h-51v194h-229v-194h-51v420h51v-178h229v178z" />
    <glyph glyph-name="I.sinf" horiz-adv-x="141" 
d="M45 420h51v-420h-51v420z" />
    <glyph glyph-name="J.sinf" horiz-adv-x="183" 
d="M14 43h11q66 0 66 82v295h50v-306q0 -57 -27 -88t-75 -31q-18 0 -25 1v47z" />
    <glyph glyph-name="K.sinf" horiz-adv-x="372" 
d="M361 0h-69l-196 209v-209h-51v420h51v-190l181 190h66l-193 -200z" />
    <glyph glyph-name="L.sinf" horiz-adv-x="328" 
d="M45 420h51v-372h210v-48h-261v420z" />
    <glyph glyph-name="M.sinf" horiz-adv-x="517" 
d="M45 0v420h60l156 -345l158 345h53v-420h-52v318l-144 -318h-38l-142 318v-318h-51z" />
    <glyph glyph-name="N.sinf" horiz-adv-x="416" 
d="M45 420h47l227 -325v325h52v-420h-47l-228 325v-325h-51v420z" />
    <glyph glyph-name="O.sinf" horiz-adv-x="481" 
d="M240 426q90 0 151.5 -62t61.5 -153q0 -92 -61 -154.5t-152 -62.5q-89 0 -150.5 63t-61.5 154t61.5 153t150.5 62zM240 377q-67 0 -113 -48t-46 -118q0 -71 46 -119.5t113 -48.5t113.5 48.5t46.5 119.5q0 70 -46.5 118t-113.5 48z" />
    <glyph glyph-name="P.sinf" horiz-adv-x="354" 
d="M207 420q53 0 89.5 -35t36.5 -87q0 -53 -36 -88t-90 -35h-111v-175h-51v420h162zM207 223q31 0 52.5 21.5t21.5 53.5q0 31 -21.5 52.5t-52.5 21.5h-111v-149h111z" />
    <glyph glyph-name="Q.sinf" horiz-adv-x="481" 
d="M453 211q0 -90 -59 -152l49 -59h-54l-26 32q-55 -38 -123 -38q-89 0 -150.5 63t-61.5 154t61.5 153t150.5 62q90 0 151.5 -62t61.5 -153zM240 43q51 0 90 28l-101 123h54l78 -94q39 47 39 111q0 70 -46.5 118t-113.5 48t-113 -48t-46 -118q0 -71 46 -119.5t113 -48.5z
" />
    <glyph glyph-name="R.sinf" horiz-adv-x="367" 
d="M350 0h-61l-115 178h-78v-178h-51v420h154q53 0 89 -34.5t36 -85.5q0 -47 -26 -79t-69 -40zM96 371v-149h98q34 0 56.5 21.5t22.5 54.5q0 31 -22.5 52t-56.5 21h-98z" />
    <glyph glyph-name="S.sinf" horiz-adv-x="357" 
d="M182 -6q-66 0 -109 39t-43 98h50q0 -39 29 -64t73 -25q42 0 69.5 20.5t27.5 52.5q0 31 -25 49t-60.5 26.5t-71.5 18.5t-61 35.5t-25 68.5q0 49 39.5 81t99.5 32q65 0 103 -35.5t38 -88.5h-52q-1 33 -26 54.5t-64 21.5t-63 -18t-24 -47t25 -45t60.5 -23.5t71.5 -18t61 -38
t25 -73.5q0 -51 -41.5 -86t-106.5 -35z" />
    <glyph glyph-name="T.sinf" horiz-adv-x="356" 
d="M339 420v-48h-135v-372h-51v372h-136v48h322z" />
    <glyph glyph-name="U.sinf" horiz-adv-x="412" 
d="M206 -6q-69 0 -115 47t-46 117v262h51v-262q0 -49 31.5 -82t78.5 -33t78.5 33t31.5 82v262h51v-262q0 -70 -46 -117t-115 -47z" />
    <glyph glyph-name="V.sinf" horiz-adv-x="382" 
d="M10 420h54l127 -342l127 342h54l-159 -420h-44z" />
    <glyph glyph-name="W.sinf" horiz-adv-x="610" 
d="M547 420h54l-141 -420h-44l-110 326l-110 -326h-44l-142 420h54l110 -339l114 339h38l112 -339z" />
    <glyph glyph-name="X.sinf" horiz-adv-x="369" 
d="M359 0h-60l-115 172l-114 -172h-60l144 217l-135 203h61l105 -157l104 157h60l-134 -202z" />
    <glyph glyph-name="Y.sinf" horiz-adv-x="377" 
d="M10 420h61l119 -182l117 182h60l-152 -232v-188h-51v188z" />
    <glyph glyph-name="Z.sinf" horiz-adv-x="351" 
d="M31 420h297v-36l-243 -336h245v-48h-313v36l245 336h-231v48z" />
    <glyph glyph-name="a.sinf" horiz-adv-x="372" 
d="M283 292h49v-292h-49v64q-33 -70 -115 -70q-60 0 -102 44.5t-42 107.5q0 64 42 108t102 44q82 0 115 -70v64zM178 41q45 0 75 30t30 75q0 46 -30 76t-75 30t-76 -31t-31 -75t31 -74.5t76 -30.5z" />
    <glyph glyph-name="b.sinf" horiz-adv-x="372" 
d="M205 298q59 0 101 -44t42 -108q0 -63 -41.5 -107.5t-101.5 -44.5q-82 0 -116 72v-66h-48v420h48v-194q33 72 116 72zM195 41q44 0 75 30.5t31 74.5t-31 75t-75 31q-45 0 -75.5 -30t-30.5 -76q0 -45 30 -75t76 -30z" />
    <glyph glyph-name="c.sinf" horiz-adv-x="335" 
d="M175 -6q-64 0 -107.5 44t-43.5 108t43.5 108t107.5 44q51 0 90 -29.5t46 -74.5h-50q-7 25 -31.5 41t-54.5 16q-43 0 -73 -30.5t-30 -74.5t30 -74.5t73 -30.5q31 0 55.5 17t30.5 43h50q-7 -47 -46 -77t-90 -30z" />
    <glyph glyph-name="d.sinf" horiz-adv-x="372" 
d="M283 420h49v-420h-49v64q-33 -70 -115 -70q-60 0 -102 44.5t-42 107.5q0 64 42 108t102 44q82 0 115 -70v192zM178 41q45 0 75 30t30 75q0 46 -30 76t-75 30t-76 -31t-31 -75t31 -74.5t76 -30.5z" />
    <glyph glyph-name="e.sinf" horiz-adv-x="337" 
d="M313 158v-17h-244q1 -46 30 -76t73 -30q35 0 60 16t30 42h48q-8 -45 -46 -72t-91 -27q-63 0 -106 44t-43 110q0 63 43 106.5t105 43.5q59 0 100 -40.5t41 -99.5zM72 175h190q-1 35 -27.5 59t-63.5 24t-64 -22.5t-35 -60.5z" />
    <glyph glyph-name="f.sinf" horiz-adv-x="214" 
d="M180 383q-60 0 -60 -59v-32h81v-46h-81v-246h-49v246h-57v46h57v33q0 50 27 76.5t73 26.5q17 0 30 -3v-45q-11 3 -21 3z" />
    <glyph glyph-name="g.sinf" horiz-adv-x="372" 
d="M283 292h49v-282q0 -61 -41 -97.5t-105 -36.5q-55 0 -97.5 26.5t-44.5 77.5h48q1 -28 27.5 -45.5t64.5 -17.5q43 0 71 25t28 65v62q-34 -69 -115 -69q-60 0 -102 43.5t-42 105.5t42 105.5t102 43.5q81 0 115 -69v63zM178 44q45 0 75 30t30 75t-30 75t-75 30
q-44 0 -75.5 -31t-31.5 -74q0 -44 31 -74.5t76 -30.5z" />
    <glyph glyph-name="h.sinf" horiz-adv-x="350" 
d="M186 298q57 0 90 -35t33 -95v-168h-49v162q0 41 -23 65t-61 24q-39 0 -63 -24.5t-24 -64.5v-162h-48v420h48v-184q29 62 97 62z" />
    <glyph glyph-name="i.sinf" horiz-adv-x="131" 
d="M66 421q13 0 23.5 -10t10.5 -23q0 -14 -10.5 -24.5t-23.5 -10.5q-14 0 -24 10.5t-10 24.5q0 13 10 23t24 10zM41 292h49v-292h-49v292z" />
    <glyph glyph-name="j.sinf" horiz-adv-x="130" 
d="M65 421q13 0 23.5 -10t10.5 -23q0 -14 -10 -24.5t-24 -10.5t-24 10.5t-10 24.5q0 13 10 23t24 10zM-6 -75h8q39 0 39 57v310h48v-314q0 -46 -21 -72t-62 -26h-12v45z" />
    <glyph glyph-name="k.sinf" horiz-adv-x="306" 
d="M296 0h-64l-143 142v-142h-48v420h48v-258l136 130h62l-148 -140z" />
    <glyph glyph-name="l.sinf" horiz-adv-x="130" 
d="M89 420v-420h-48v420h48z" />
    <glyph glyph-name="m.sinf" horiz-adv-x="541" 
d="M381 298q54 0 86.5 -33t32.5 -89v-176h-50v166q0 40 -20.5 62.5t-56.5 22.5q-32 0 -55 -21t-23 -64l-1 2v-168h-48v166q0 40 -21 62.5t-57 22.5q-31 0 -55 -21t-24 -64v-166h-48v292h48v-49q29 55 94 55q73 0 98 -61q12 29 40 45t60 16z" />
    <glyph glyph-name="n.sinf" horiz-adv-x="350" 
d="M186 298q57 0 90 -35t33 -95v-168h-49v162q0 41 -23 65t-61 24q-39 0 -63 -24.5t-24 -64.5v-162h-48v292h48v-56q29 62 97 62z" />
    <glyph glyph-name="o.sinf" horiz-adv-x="350" 
d="M175 298q63 0 107 -44t44 -108t-44 -108t-107 -44q-64 0 -107.5 44t-43.5 108t43.5 108t107.5 44zM175 251q-43 0 -73 -30.5t-30 -74.5t30 -74.5t73 -30.5t73 30.5t30 74.5q0 45 -30 75t-73 30z" />
    <glyph glyph-name="p.sinf" horiz-adv-x="372" 
d="M205 298q60 0 101.5 -44.5t41.5 -107.5q0 -64 -42 -108t-101 -44q-82 0 -116 72v-174h-48v400h48v-66q33 72 116 72zM195 41q44 0 75 30.5t31 74.5t-31 75t-75 31q-45 0 -75.5 -30t-30.5 -76q0 -45 30 -75t76 -30z" />
    <glyph glyph-name="q.sinf" horiz-adv-x="372" 
d="M283 292h49v-400h-49v172q-33 -70 -115 -70q-60 0 -102 44t-42 108q0 63 42 107.5t102 44.5q82 0 115 -70v64zM178 41q45 0 75 30t30 75q0 46 -30 76t-75 30t-76 -31t-31 -75t31 -74.5t76 -30.5z" />
    <glyph glyph-name="r.sinf" horiz-adv-x="212" 
d="M171 298q11 0 27 -4v-45q-12 5 -29 5q-34 0 -57 -24t-23 -61v-169h-48v292h48v-46q28 52 82 52z" />
    <glyph glyph-name="s.sinf" horiz-adv-x="276" 
d="M139 -6q-50 0 -82.5 25t-37.5 68h45q3 -23 23 -38t49 -15q30 0 48 13.5t18 35.5t-18 33t-44 15.5t-52 10.5t-44 23.5t-18 49.5q0 36 29 59.5t76 23.5q44 0 75.5 -23t36.5 -61h-48q-3 20 -21 32.5t-43 12.5q-26 0 -42.5 -11.5t-16.5 -29.5q0 -21 18 -31t44 -14t52 -10
t44 -25.5t18 -53.5q0 -39 -31 -64.5t-78 -25.5z" />
    <glyph glyph-name="a.ss01.sinf" horiz-adv-x="304" 
d="M149 298q56 0 88 -31.5t32 -83.5v-183h-46v51q-30 -57 -101 -57q-42 0 -68.5 24t-26.5 60q0 46 39 70t109 24h48v13q0 33 -20 53t-54 20q-29 0 -50.5 -17.5t-23.5 -43.5h-44q3 42 37.5 71.5t80.5 29.5zM132 33q40 0 65.5 24t25.5 58v25h-48q-104 0 -104 -58
q0 -22 16.5 -35.5t44.5 -13.5z" />
    <glyph glyph-name="a.ss02.sinf" horiz-adv-x="309" 
d="M44 292h225v-292h-49v53q-30 -59 -102 -59q-41 0 -67.5 24t-26.5 60q0 46 39 70t109 24h48v78h-176v42zM128 33q40 0 66 24t26 58v25h-49q-104 0 -104 -58q0 -22 16.5 -35.5t44.5 -13.5z" />
    <glyph glyph-name="c.ss03.sinf" horiz-adv-x="316" 
d="M256 246h-167v-199h167v-47h-215v292h215v-46z" />
    <glyph glyph-name="g.ss04.sinf" horiz-adv-x="370" 
d="M281 292h49v-401h-253v41h204v142q-33 -70 -115 -70q-59 0 -100.5 43t-41.5 104t41.5 104t100.5 43q82 0 115 -70v64zM175 47q46 0 76 30t30 74q0 45 -30 74.5t-76 29.5q-44 0 -74.5 -30.5t-30.5 -73.5t30.5 -73.5t74.5 -30.5z" />
    <glyph glyph-name="h.ss05.sinf" horiz-adv-x="339" 
d="M89 420v-128h209v-292h-49v246h-160v-246h-48v420h48z" />
    <glyph glyph-name="j.ss06.sinf" horiz-adv-x="131" 
d="M65 421q14 0 24.5 -10t10.5 -23q0 -14 -10.5 -24.5t-24.5 -10.5t-24 10.5t-10 24.5q0 13 10 23t24 10zM89 292v-401h-48v401h48z" />
    <glyph glyph-name="l.ss07.sinf" horiz-adv-x="155" 
d="M89 420v-373h47v-47h-95v420h48z" />
    <glyph glyph-name="m.ss08.sinf" horiz-adv-x="525" 
d="M484 292v-292h-48v246h-149v-246h-49v246h-149v-246h-48v292h443z" />
    <glyph glyph-name="n.ss09.sinf" horiz-adv-x="339" 
d="M298 292v-292h-49v246h-160v-246h-48v292h257z" />
    <glyph glyph-name="O.ss10.sinf" horiz-adv-x="456" 
d="M359 420h52v-420h-366v420h51v-1h263v1zM96 48h263v322h-263v-322z" />
    <glyph glyph-name="o.ss10.sinf" horiz-adv-x="338" 
d="M298 292v-292h-257v292h257zM249 246h-160v-199h160v199z" />
    <glyph glyph-name="r.ss11.sinf" horiz-adv-x="210" 
d="M196 292v-46h-107v-246h-48v292h155z" />
    <glyph glyph-name="S.ss12.sinf" horiz-adv-x="329" 
d="M153 420h122v-49h-131q-33 0 -52.5 -15.5t-19.5 -39.5q0 -28 23.5 -45.5t57.5 -26.5t68 -20.5t57.5 -38.5t23.5 -69q0 -52 -36.5 -84t-102.5 -32h-137v49h139q40 0 63 18t23 49q0 29 -23.5 46t-57.5 26t-68 20t-57.5 37t-23.5 68q0 48 36.5 77.5t95.5 29.5z" />
    <glyph glyph-name="s.ss12.sinf" horiz-adv-x="264" 
d="M135 0h-104v38h105q28 0 44.5 11.5t16.5 32.5q0 19 -18 29.5t-43.5 16.5t-51 13t-43.5 24.5t-18 46.5q0 37 27.5 58.5t75.5 21.5h99v-38h-103q-23 0 -37 -10t-14 -27q0 -23 27 -35t59 -17t59 -25t27 -56q0 -39 -28.5 -61.5t-79.5 -22.5z" />
    <glyph glyph-name="t.ss13.sinf" horiz-adv-x="212" 
d="M199 292v-46h-71v-246h-48v246h-71v46h71v79h48v-79h71z" />
    <glyph glyph-name="u.ss14.sinf" horiz-adv-x="350" 
d="M309 292v-157q0 -63 -37 -102t-97 -39q-59 0 -96 39t-37 102v157h48v-157q0 -43 23.5 -68.5t61.5 -25.5t61.5 25.5t23.5 68.5v157h49z" />
    <glyph glyph-name="u.ss15.sinf" horiz-adv-x="339" 
d="M298 0h-257v292h48v-245h160v245h49v-292z" />
    <glyph glyph-name="D.ss16.sinf" horiz-adv-x="433" 
d="M198 420q88 0 147.5 -59.5t59.5 -148.5q0 -91 -59.5 -151.5t-147.5 -60.5h-182v47h50v373h132zM201 48q65 0 108.5 47t43.5 117t-43 115t-109 45h-84v-324h84z" />
    <glyph glyph-name="J.ss17.sinf" horiz-adv-x="229" 
d="M184 420v-420h-170v48h119v372h51z" />
    <glyph glyph-name="L.ss18.sinf" horiz-adv-x="348" 
d="M117 48h210v-48h-311v47h50v373h51v-372z" />
    <glyph glyph-name="t.sinf" horiz-adv-x="214" 
d="M195 246h-81v-145q0 -58 60 -58q16 0 21 2v-45q-12 -3 -30 -3q-46 0 -72.5 26.5t-26.5 77.5v145h-58v46h58v80h48v-80h81v-46z" />
    <glyph glyph-name="G.titl.sinf" horiz-adv-x="489" 
d="M475 222v-43h-37q-4 -79 -61 -132t-138 -53q-89 0 -150 62.5t-61 154.5q0 91 61 153t151 62q65 0 120.5 -38.5t70.5 -92.5h-57q-13 35 -52 58.5t-82 23.5q-67 0 -113 -48t-46 -118q0 -71 46.5 -119.5t115.5 -48.5q60 0 101 40.5t41 95.5h-139v43h229z" />
    <glyph glyph-name="I.titl.sinf" horiz-adv-x="206" 
d="M175 374h-47v-327h47v-47h-143v47h46v327h-46v46h143v-46z" />
    <glyph glyph-name="J.titl.sinf" horiz-adv-x="228" 
d="M186 420v-46h-45v-260q0 -57 -27 -88t-75 -31q-18 0 -25 1v47h11q66 0 66 82v249h-48v46h143z" />
    <glyph glyph-name="T.titl.sinf" horiz-adv-x="356" 
d="M339 372h-135v-325h45v-47h-143v47h47v325h-136v48h322v-48z" />
    <glyph glyph-name="Y.titl.sinf" horiz-adv-x="377" 
d="M215 188v-141h46v-47h-143v47h46v141l-154 232h61l119 -182l117 182h60z" />
    <glyph glyph-name="u.sinf" horiz-adv-x="350" 
d="M260 292h49v-292h-49v54q-30 -60 -97 -60q-56 0 -89 35t-33 95v168h48v-162q0 -40 23.5 -64.5t61.5 -24.5q39 0 62.5 24.5t23.5 64.5v162z" />
    <glyph glyph-name="v.sinf" horiz-adv-x="311" 
d="M301 292l-124 -292h-43l-124 292h53l92 -229l93 229h53z" />
    <glyph glyph-name="w.sinf" horiz-adv-x="472" 
d="M117 0l-107 292h52l75 -221l79 221h39l81 -221l74 221h52l-107 -292h-40l-79 221l-80 -221h-39z" />
    <glyph glyph-name="x.sinf" horiz-adv-x="301" 
d="M288 0h-58l-80 111l-80 -111h-58l109 151l-102 141h58l73 -101l73 101h58l-102 -141z" />
    <glyph glyph-name="y.sinf" horiz-adv-x="309" 
d="M246 292h53l-168 -401h-52l51 116l-120 285h53l91 -228z" />
    <glyph glyph-name="z.sinf" horiz-adv-x="301" 
d="M274 292v-36l-186 -209h187v-47h-256v36l187 210h-174v46h242z" />
    <glyph glyph-name="zero.cv01" horiz-adv-x="587" 
d="M299 710q117 0 179.5 -77t62.5 -221v-124q0 -144 -62.5 -221t-179.5 -77h-10q-117 0 -180 77t-63 221v124q0 144 63 221t180 77h10zM289 637q-82 0 -124.5 -56.5t-42.5 -165.5v-130q0 -109 42.5 -165.5t124.5 -56.5h10q166 0 166 222v130q0 222 -166 222h-10z" />
    <glyph glyph-name="two.cv01" horiz-adv-x="514" 
d="M28 0v45q0 95 51 157.5t183 142.5q72 43 102.5 79t30.5 84q0 56 -37.5 93t-99.5 37q-71 0 -114.5 -43.5t-41.5 -115.5h-76q-2 104 64 167.5t169 63.5q94 0 153 -57t59 -143q0 -68 -41.5 -117.5t-132.5 -103.5q-114 -72 -151 -113t-37 -103h360v-73h-441z" />
    <glyph glyph-name="three.cv01" horiz-adv-x="526" 
d="M332 377q62 -7 110 -58t48 -120q0 -90 -66 -149.5t-166 -59.5q-98 0 -161.5 54.5t-66.5 140.5h71q4 -54 48 -89t109 -35q68 0 112 41.5t44 102.5t-47 100t-123 39h-30v59h28q64 0 104.5 33.5t40.5 85.5q0 49 -37 82.5t-94 33.5q-60 0 -97 -34t-40 -90h-68q-1 85 59 140
t148 55q86 0 145.5 -53.5t59.5 -130.5q0 -54 -37 -96t-94 -52z" />
    <glyph glyph-name="four.cv01" horiz-adv-x="593" 
d="M565 214v-72h-95v-142h-76v142h-374v57l352 501h98v-486h95zM111 214h283v400z" />
    <glyph glyph-name="seven.cv01" horiz-adv-x="533" 
d="M509 700v-54l-312 -646h-84l306 628h-315v-107h-76v179h481z" />
    <glyph glyph-name="zero.tf" horiz-adv-x="603" 
d="M301 -10q-118 0 -185 96.5t-67 263.5t66.5 263.5t185.5 96.5t185.5 -96.5t66.5 -263.5t-67 -263.5t-185 -96.5zM301 63q83 0 129 74.5t46 212.5t-46 212.5t-129 74.5t-129 -74.5t-46 -212.5t46 -212.5t129 -74.5z" />
    <glyph glyph-name="one.tf" horiz-adv-x="603" 
d="M343 69h187v-69h-454v69h192v527l-161 -138v93l182 149h54v-631z" />
    <glyph glyph-name="two.tf" horiz-adv-x="603" 
d="M96 0v56l268 269q106 108 106 181q0 57 -40 94t-101 37q-71 0 -114.5 -43t-41.5 -115h-76q-2 104 64 167.5t169 63.5q94 0 155.5 -57t61.5 -145q0 -106 -129 -229l-205 -206h343v-73h-460z" />
    <glyph glyph-name="three.tf" horiz-adv-x="603" 
d="M229 402l203 226h-342v72h448v-53l-216 -236q91 12 156 -45t65 -148q0 -100 -67 -164t-170 -64q-95 0 -159.5 51.5t-74.5 133.5h75q10 -50 52.5 -81t106.5 -31q70 0 115 44t45 113q0 81 -70 118t-167 11v53z" />
    <glyph glyph-name="four.tf" horiz-adv-x="603" 
d="M566 226v-69h-95v-157h-75v157h-355v55l258 488h85l-250 -474h262v240h75v-240h95z" />
    <glyph glyph-name="five.tf" horiz-adv-x="603" 
d="M304 -10q-92 0 -157.5 51t-73.5 134h75q11 -50 53.5 -81t102.5 -31q66 0 112 45t46 109q0 67 -46 113.5t-112 46.5q-87 0 -131 -50h-65l32 373h355v-71h-288l-22 -231q45 43 128 43q96 0 161 -63t65 -162q0 -94 -68.5 -160t-166.5 -66z" />
    <glyph glyph-name="six.tf" horiz-adv-x="603" 
d="M314 451q95 0 160 -66t65 -163q0 -96 -69 -164t-167 -68t-167 68t-69 164q0 82 58 175l189 303h87l-175 -273q42 24 88 24zM303 62q69 0 116 46.5t47 114.5t-47.5 115.5t-116.5 47.5q-67 0 -114 -47.5t-47 -115.5t47 -114.5t115 -46.5z" />
    <glyph glyph-name="seven.tf" horiz-adv-x="603" 
d="M72 700h459v-54l-307 -646h-84l302 628h-370v72z" />
    <glyph glyph-name="eight.tf" horiz-adv-x="603" 
d="M301 -9q-100 0 -165.5 57.5t-65.5 146.5q0 63 39.5 113.5t101.5 68.5q-49 16 -80.5 59t-31.5 93q0 78 57 128.5t145 50.5t145.5 -50.5t57.5 -128.5q0 -50 -31.5 -92.5t-81.5 -59.5q62 -18 101.5 -68.5t39.5 -113.5q0 -89 -65 -146.5t-166 -57.5zM301 412q57 0 93.5 32
t36.5 82t-36.5 82t-93.5 32q-56 0 -92.5 -32t-36.5 -82t36.5 -82t92.5 -32zM301 61q68 0 112.5 39.5t44.5 99.5q0 59 -44.5 98t-112.5 39t-112 -39t-44 -98q0 -60 44 -99.5t112 -39.5z" />
    <glyph glyph-name="nine.tf" horiz-adv-x="603" 
d="M315 710q98 0 167 -68t69 -164q0 -82 -58 -175l-189 -303h-86l174 274q-41 -25 -88 -25q-95 0 -160 66t-65 163q0 96 69 164t167 68zM316 314q68 0 115 47.5t47 115.5t-47.5 114.5t-115.5 46.5t-115.5 -46.5t-47.5 -114.5t47.5 -115.5t116.5 -47.5z" />
    <glyph glyph-name="zero.tf.cv01" horiz-adv-x="603" 
d="M307 710q117 0 179.5 -77t62.5 -221v-124q0 -144 -62.5 -221t-179.5 -77h-10q-117 0 -180 77t-63 221v124q0 144 63 221t180 77h10zM297 637q-82 0 -124.5 -56.5t-42.5 -165.5v-130q0 -109 42.5 -165.5t124.5 -56.5h10q166 0 166 222v130q0 222 -166 222h-10z" />
    <glyph glyph-name="two.tf.cv01" horiz-adv-x="603" 
d="M88 0v45q0 95 51.5 157.5t183.5 142.5q72 43 102 78.5t30 84.5q0 56 -37.5 93t-99.5 37q-71 0 -114 -43t-42 -116h-76q-2 104 64 167.5t170 63.5q93 0 152 -57t59 -143q0 -68 -41.5 -117.5t-132.5 -103.5q-114 -72 -150.5 -113t-36.5 -103h360v-73h-442z" />
    <glyph glyph-name="three.tf.cv01" horiz-adv-x="603" 
d="M386 377q61 -7 109 -58t48 -120q0 -90 -66 -149.5t-166 -59.5q-97 0 -160.5 54.5t-66.5 140.5h70q4 -54 48.5 -89t108.5 -35q68 0 112.5 41.5t44.5 102.5t-47 100t-123 39h-30v59h27q64 0 105 33.5t41 85.5q0 49 -37 82.5t-94 33.5q-60 0 -97.5 -34t-39.5 -90h-69
q0 85 59.5 140t148.5 55q86 0 145 -53.5t59 -130.5q0 -54 -36.5 -96t-93.5 -52z" />
    <glyph glyph-name="four.tf.cv01" horiz-adv-x="603" 
d="M615 214v-72h-95v-142h-75v142h-374v57l352 501h97v-486h95zM162 214h283v401z" />
    <glyph glyph-name="seven.tf.cv01" horiz-adv-x="603" 
d="M549 700v-54l-311 -646h-84l305 628h-315v-107h-76v179h481z" />
    <glyph glyph-name="zero.tf.zero" horiz-adv-x="603" 
d="M301 710q119 0 185.5 -96.5t66.5 -263.5t-66.5 -263.5t-185.5 -96.5t-185.5 96.5t-66.5 263.5t66.5 263.5t185.5 96.5zM301 637q-83 0 -129 -74.5t-46 -212.5q0 -82 17 -145l292 348q-46 84 -134 84zM301 63q83 0 129 74.5t46 212.5q0 81 -17 143l-291 -348
q46 -82 133 -82z" />
    <glyph glyph-name="zero.zero" horiz-adv-x="597" 
d="M299 710q118 0 185 -96.5t67 -263.5t-67 -263.5t-185 -96.5q-119 0 -186 96.5t-67 263.5t67 263.5t186 96.5zM299 637q-84 0 -129.5 -74.5t-45.5 -212.5q0 -82 17 -145l292 349q-46 83 -134 83zM299 63q83 0 129 74.5t46 212.5q0 81 -17 143l-292 -348q46 -82 134 -82z
" />
    <glyph glyph-name="three.sinf" horiz-adv-x="323" 
d="M107 242l117 130h-200v48h272v-35l-126 -137q54 6 91.5 -28.5t37.5 -87.5q0 -60 -40.5 -99t-103.5 -39q-58 0 -97.5 31.5t-44.5 81.5h51q5 -28 30 -46t61 -18q40 0 65.5 25.5t25.5 64.5q0 47 -41 68t-98 6v35z" />
    <glyph glyph-name="four.sinf" horiz-adv-x="347" 
d="M331 141v-48h-56v-93h-51v93h-212v35l154 292h57l-147 -279h148v137h51v-137h56z" />
    <glyph glyph-name="five.sinf" horiz-adv-x="317" 
d="M154 -6q-56 0 -96.5 31t-44.5 82h51q6 -29 30.5 -46.5t59.5 -17.5q37 0 63.5 26t26.5 62q0 39 -26 65.5t-64 26.5q-51 0 -77 -29h-44l20 226h217v-48h-172l-13 -130q29 24 75 24q58 0 97 -37.5t39 -97.5q0 -57 -41.5 -97t-100.5 -40z" />
    <glyph glyph-name="six.sinf" horiz-adv-x="320" 
d="M169 272q57 0 96 -40t39 -98t-42 -99t-101 -41t-100.5 41t-41.5 99q0 48 34 104l113 182h58l-101 -160q24 12 46 12zM161 42q40 0 67 27t27 66t-27.5 66t-66.5 27t-66 -27t-27 -66t27 -66t66 -27z" />
    <glyph glyph-name="seven.sinf" horiz-adv-x="301" 
d="M9 420h278v-36l-183 -384h-57l179 371h-217v49z" />
    <glyph glyph-name="eight.sinf" horiz-adv-x="320" 
d="M160 -5q-60 0 -100 35t-40 88q0 36 22.5 66t60.5 42q-29 11 -47.5 36t-18.5 55q0 47 35 77.5t88 30.5q54 0 88.5 -30.5t34.5 -77.5q0 -29 -18 -54.5t-48 -36.5q37 -10 60 -40.5t23 -67.5q0 -53 -39.5 -88t-100.5 -35zM160 247q34 0 55 19t21 48t-21 48t-55 19
q-33 0 -54.5 -19t-21.5 -48t21 -48t55 -19zM160 40q40 0 65.5 23t25.5 58q0 36 -25.5 58.5t-65.5 22.5t-66 -22.5t-26 -58.5q0 -35 26 -58t66 -23z" />
    <glyph glyph-name="nine.sinf" horiz-adv-x="320" 
d="M158 426q59 0 101.5 -41t42.5 -99q0 -48 -35 -104l-113 -182h-59l104 161q-24 -13 -48 -13q-57 0 -96 40t-39 98t41.5 99t100.5 41zM159 192q39 0 66 27.5t27 65.5q0 39 -27 66t-67 27q-38 0 -65.5 -27t-27.5 -66q0 -38 27.5 -65.5t66.5 -27.5z" />
    <glyph glyph-name="zero.dnom" 
d="M180 -6q-72 0 -112.5 58t-40.5 158t40.5 158t112.5 58q71 0 112 -58t41 -158q0 -99 -41 -157.5t-112 -58.5zM180 43q48 0 74 43.5t26 123.5t-26 123.5t-74 43.5t-74.5 -43t-26.5 -124t26.5 -124t74.5 -43z" />
    <glyph glyph-name="zero.sinf" 
d="M180 -6q-72 0 -112.5 58t-40.5 158t40.5 158t112.5 58q71 0 112 -58t41 -158q0 -99 -41 -157.5t-112 -58.5zM180 43q48 0 74 43.5t26 123.5t-26 123.5t-74 43.5t-74.5 -43t-26.5 -124t26.5 -124t74.5 -43z" />
    <glyph glyph-name="one.sinf" horiz-adv-x="219" 
d="M174 420v-420h-50v350l-97 -81v62l111 89h36z" />
    <glyph glyph-name="two.sinf" horiz-adv-x="331" 
d="M27 0v38l158 157q63 65 63 107q0 32 -23 53.5t-58 21.5q-41 0 -66 -25t-24 -68h-51q-1 64 39 103t103 39q57 0 94.5 -34.5t37.5 -88.5q0 -65 -79 -139l-114 -115h198v-49h-278z" />
    <glyph glyph-name="one.dnom" horiz-adv-x="207" 
d="M174 420v-420h-50v350l-97 -81v62l111 89h36z" />
    <glyph glyph-name="two.dnom" horiz-adv-x="299" 
d="M27 0v38l158 157q63 65 63 107q0 32 -23 53.5t-58 21.5q-41 0 -66 -25t-24 -68h-51q-1 64 39 103t103 39q57 0 94.5 -34.5t37.5 -88.5q0 -65 -79 -139l-114 -115h198v-49h-278z" />
    <glyph glyph-name="three.dnom" horiz-adv-x="323" 
d="M107 242l117 130h-200v48h272v-35l-126 -137q54 6 91.5 -28.5t37.5 -87.5q0 -60 -40.5 -99t-103.5 -39q-58 0 -97.5 31.5t-44.5 81.5h51q5 -28 30 -46t61 -18q40 0 65.5 25.5t25.5 64.5q0 47 -41 68t-98 6v35z" />
    <glyph glyph-name="four.dnom" horiz-adv-x="347" 
d="M331 141v-48h-56v-93h-51v93h-212v35l154 292h57l-147 -279h148v137h51v-137h56z" />
    <glyph glyph-name="five.dnom" horiz-adv-x="312" 
d="M154 -6q-56 0 -96.5 31t-44.5 82h51q6 -29 30.5 -46.5t59.5 -17.5q37 0 63.5 26t26.5 62q0 39 -26 65.5t-64 26.5q-51 0 -77 -29h-44l20 226h217v-48h-172l-13 -130q29 24 75 24q58 0 97 -37.5t39 -97.5q0 -57 -41.5 -97t-100.5 -40z" />
    <glyph glyph-name="six.dnom" horiz-adv-x="324" 
d="M169 272q57 0 96 -40t39 -98t-42 -99t-101 -41t-100.5 41t-41.5 99q0 48 34 104l113 182h58l-101 -160q24 12 46 12zM161 42q40 0 67 27t27 66t-27.5 66t-66.5 27t-66 -27t-27 -66t27 -66t66 -27z" />
    <glyph glyph-name="seven.dnom" horiz-adv-x="301" 
d="M9 420h278v-36l-183 -384h-57l179 371h-217v49z" />
    <glyph glyph-name="eight.dnom" horiz-adv-x="320" 
d="M160 -5q-60 0 -100 35t-40 88q0 36 22.5 66t60.5 42q-29 11 -47.5 36t-18.5 55q0 47 35 77.5t88 30.5q54 0 88.5 -30.5t34.5 -77.5q0 -29 -18 -54.5t-48 -36.5q37 -10 60 -40.5t23 -67.5q0 -53 -39.5 -88t-100.5 -35zM160 247q34 0 55 19t21 48t-21 48t-55 19
q-33 0 -54.5 -19t-21.5 -48t21 -48t55 -19zM160 40q40 0 65.5 23t25.5 58q0 36 -25.5 58.5t-65.5 22.5t-66 -22.5t-26 -58.5q0 -35 26 -58t66 -23z" />
    <glyph glyph-name="nine.dnom" horiz-adv-x="320" 
d="M158 426q59 0 101.5 -41t42.5 -99q0 -48 -35 -104l-113 -182h-59l104 161q-24 -13 -48 -13q-57 0 -96 40t-39 98t41.5 99t100.5 41zM159 192q39 0 66 27.5t27 65.5q0 39 -27 66t-67 27q-38 0 -65.5 -27t-27.5 -66q0 -38 27.5 -65.5t66.5 -27.5z" />
    <glyph glyph-name="zero.numr" 
d="M180 47q-72 0 -112.5 58t-40.5 158t40.5 158t112.5 58q71 0 112 -58t41 -158q0 -99 -41 -157.5t-112 -58.5zM180 96q48 0 74 43.5t26 123.5t-26 123.5t-74 43.5t-74.5 -43t-26.5 -124t26.5 -124t74.5 -43z" />
    <glyph glyph-name="one.numr" horiz-adv-x="223" 
d="M174 700v-420h-50v350l-97 -81v62l111 89h36z" />
    <glyph glyph-name="two.numr" horiz-adv-x="299" 
d="M27 280v38l158 157q63 65 63 107q0 32 -23 53.5t-58 21.5q-41 0 -66 -25t-24 -68h-51q-1 64 39 103t103 39q57 0 94.5 -34.5t37.5 -88.5q0 -65 -79 -139l-114 -115h198v-49h-278z" />
    <glyph glyph-name="three.numr" horiz-adv-x="323" 
d="M107 522l117 130h-200v48h272v-35l-126 -137q54 6 91.5 -28.5t37.5 -87.5q0 -60 -40.5 -99t-103.5 -39q-58 0 -97.5 31.5t-44.5 81.5h51q5 -28 30 -46t61 -18q40 0 65.5 25.5t25.5 64.5q0 47 -41 68t-98 6v35z" />
    <glyph glyph-name="four.numr" horiz-adv-x="347" 
d="M331 421v-48h-56v-93h-51v93h-212v35l154 292h57l-147 -279h148v137h51v-137h56z" />
    <glyph glyph-name="five.numr" horiz-adv-x="312" 
d="M154 274q-56 0 -96.5 31t-44.5 82h51q6 -29 30.5 -46.5t59.5 -17.5q37 0 63.5 26t26.5 62q0 39 -26 65.5t-64 26.5q-51 0 -77 -29h-44l20 226h217v-48h-172l-13 -130q29 24 75 24q58 0 97 -37.5t39 -97.5q0 -57 -41.5 -97t-100.5 -40z" />
    <glyph glyph-name="six.numr" horiz-adv-x="324" 
d="M169 552q57 0 96 -40t39 -98t-42 -99t-101 -41t-100.5 41t-41.5 99q0 48 34 104l113 182h58l-101 -160q24 12 46 12zM161 322q40 0 67 27t27 66t-27.5 66t-66.5 27t-66 -27t-27 -66t27 -66t66 -27z" />
    <glyph glyph-name="seven.numr" horiz-adv-x="301" 
d="M9 700h278v-36l-183 -384h-57l179 371h-217v49z" />
    <glyph glyph-name="eight.numr" horiz-adv-x="320" 
d="M160 275q-60 0 -100 35t-40 88q0 36 22.5 66t60.5 42q-29 11 -47.5 36t-18.5 55q0 47 35 77.5t88 30.5q54 0 88.5 -30.5t34.5 -77.5q0 -29 -18 -54.5t-48 -36.5q37 -10 60 -40.5t23 -67.5q0 -53 -39.5 -88t-100.5 -35zM160 527q34 0 55 19t21 48t-21 48t-55 19
q-33 0 -54.5 -19t-21.5 -48t21 -48t55 -19zM160 320q40 0 65.5 23t25.5 58q0 36 -25.5 58.5t-65.5 22.5t-66 -22.5t-26 -58.5q0 -35 26 -58t66 -23z" />
    <glyph glyph-name="nine.numr" horiz-adv-x="320" 
d="M158 706q59 0 101.5 -41t42.5 -99q0 -48 -35 -104l-113 -182h-59l104 161q-24 -13 -48 -13q-57 0 -96 40t-39 98t41.5 99t100.5 41zM159 472q39 0 66 27.5t27 65.5q0 39 -27 66t-67 27q-38 0 -65.5 -27t-27.5 -66q0 -38 27.5 -65.5t66.5 -27.5z" />
    <glyph glyph-name="zero.sups" 
d="M180 279q-72 0 -112.5 58t-40.5 158t40.5 158t112.5 58q71 0 112 -58t41 -158q0 -99 -41 -157.5t-112 -58.5zM180 328q48 0 74 43.5t26 123.5t-26 123.5t-74 43.5t-74.5 -43t-26.5 -124t26.5 -124t74.5 -43z" />
    <glyph glyph-name="one.sups" horiz-adv-x="219" 
d="M174 705v-420h-50v350l-97 -81v62l111 89h36z" />
    <glyph glyph-name="two.sups" horiz-adv-x="331" 
d="M27 285v38l158 157q63 64 63 107q0 32 -23 53.5t-58 21.5q-41 0 -66 -25t-24 -68h-51q-1 64 39 103t103 39q57 0 94.5 -34.5t37.5 -88.5q0 -65 -79 -139l-114 -115h198v-49h-278z" />
    <glyph glyph-name="three.sups" horiz-adv-x="323" 
d="M107 527l117 130h-200v48h272v-35l-126 -137q54 6 91.5 -28.5t37.5 -87.5q0 -60 -40.5 -99t-103.5 -39q-58 0 -97.5 31.5t-44.5 81.5h51q5 -28 30 -46t61 -18q40 0 65.5 25.5t25.5 64.5q0 47 -41 68t-98 6v35z" />
    <glyph glyph-name="four.sups" horiz-adv-x="347" 
d="M331 426v-48h-56v-93h-51v93h-212v35l154 292h57l-147 -279h148v137h51v-137h56z" />
    <glyph glyph-name="five.sups" horiz-adv-x="317" 
d="M154 279q-56 0 -96.5 31t-44.5 82h51q6 -29 30.5 -46.5t59.5 -17.5q37 0 63.5 26t26.5 62q0 39 -26 65.5t-64 26.5q-51 0 -77 -29h-44l20 226h217v-48h-172l-13 -130q29 24 75 24q58 0 97 -37.5t39 -97.5q0 -57 -41.5 -97t-100.5 -40z" />
    <glyph glyph-name="six.sups" horiz-adv-x="320" 
d="M169 557q57 0 96 -40t39 -98t-42 -99t-101 -41t-100.5 41t-41.5 99q0 48 34 104l113 182h58l-101 -160q24 12 46 12zM161 327q40 0 67 27t27 66t-27.5 66t-66.5 27t-66 -27t-27 -66t27 -66t66 -27z" />
    <glyph glyph-name="seven.sups" horiz-adv-x="301" 
d="M9 705h278v-36l-183 -384h-57l179 371h-217v49z" />
    <glyph glyph-name="eight.sups" horiz-adv-x="320" 
d="M160 280q-60 0 -100 35t-40 88q0 36 22.5 66t60.5 42q-29 11 -47.5 36t-18.5 55q0 47 35 77.5t88 30.5q54 0 88.5 -30.5t34.5 -77.5q0 -29 -18 -54.5t-48 -36.5q37 -10 60 -40.5t23 -67.5q0 -53 -39.5 -88t-100.5 -35zM160 532q34 0 55 19t21 48t-21 48t-55 19
q-33 0 -54.5 -19t-21.5 -48t21 -48t55 -19zM160 325q40 0 65.5 23t25.5 58q0 36 -25.5 58.5t-65.5 22.5t-66 -22.5t-26 -58.5q0 -35 26 -58t66 -23z" />
    <glyph glyph-name="nine.sups" horiz-adv-x="320" 
d="M158 711q59 0 101.5 -41t42.5 -99q0 -48 -35 -104l-113 -182h-59l104 161q-24 -13 -48 -13q-57 0 -96 40t-39 98t41.5 99t100.5 41zM159 477q39 0 66 27.5t27 65.5q0 39 -27 66t-67 27q-38 0 -65.5 -27t-27.5 -66q0 -38 27.5 -65.5t66.5 -27.5z" />
    <glyph glyph-name="three.sinf.cv01" horiz-adv-x="331" 
d="M204 226q36 -5 63.5 -35.5t27.5 -70.5q0 -54 -39.5 -90t-100.5 -36q-59 0 -98 33.5t-40 86.5h48q2 -30 27 -51t63 -21t63.5 23.5t25.5 58.5q0 34 -26.5 56.5t-70.5 22.5h-17v40h15q37 0 60.5 19.5t23.5 48.5q0 28 -21 47t-54 19q-35 0 -56 -20t-23 -51h-46q-1 52 36 85.5
t91 33.5q51 0 87.5 -32.5t36.5 -78.5q0 -32 -21.5 -57.5t-54.5 -30.5z" />
    <glyph glyph-name="four.sinf.cv01" horiz-adv-x="379" 
d="M351 133v-47h-55v-86h-51v86h-225v36l209 298h67v-287h55zM82 133h163v230z" />
    <glyph glyph-name="seven.sinf.cv01" horiz-adv-x="323" 
d="M309 420v-36l-185 -384h-57l181 371h-180v-63h-52v112h293z" />
    <glyph glyph-name="zero.dnom.cv01" horiz-adv-x="352" 
d="M179 426q71 0 109 -46.5t38 -132.5v-74q0 -86 -38 -132.5t-109 -46.5h-6q-70 0 -108 46.5t-38 132.5v74q0 86 38 132.5t108 46.5h6zM173 377q-95 0 -95 -128v-78q0 -128 95 -128h6q95 0 95 128v78q0 128 -95 128h-6z" />
    <glyph glyph-name="zero.sinf.cv01" horiz-adv-x="352" 
d="M179 426q71 0 109 -46.5t38 -132.5v-74q0 -86 -38 -132.5t-109 -46.5h-6q-70 0 -108 46.5t-38 132.5v74q0 86 38 132.5t108 46.5h6zM173 377q-95 0 -95 -128v-78q0 -128 95 -128h6q95 0 95 128v78q0 128 -95 128h-6z" />
    <glyph glyph-name="two.sinf.cv01" horiz-adv-x="311" 
d="M16 0v29q0 55 30 93t110 87q43 26 60.5 46t17.5 49q0 31 -21.5 52.5t-57.5 21.5q-41 0 -65.5 -26t-23.5 -68h-51q-1 64 38.5 103t102.5 39q57 0 93 -34.5t36 -86.5q0 -41 -25.5 -71t-81.5 -63q-63 -41 -84.5 -64.5t-21.5 -57.5h212v-49h-268z" />
    <glyph glyph-name="two.dnom.cv01" horiz-adv-x="311" 
d="M16 0v29q0 55 30 93t110 87q43 26 60.5 46t17.5 49q0 31 -21.5 52.5t-57.5 21.5q-41 0 -65.5 -26t-23.5 -68h-51q-1 64 38.5 103t102.5 39q57 0 93 -34.5t36 -86.5q0 -41 -25.5 -71t-81.5 -63q-63 -41 -84.5 -64.5t-21.5 -57.5h212v-49h-268z" />
    <glyph glyph-name="three.dnom.cv01" horiz-adv-x="331" 
d="M204 226q36 -5 63.5 -35.5t27.5 -70.5q0 -54 -39.5 -90t-100.5 -36q-59 0 -98 33.5t-40 86.5h48q2 -30 27 -51t63 -21t63.5 23.5t25.5 58.5q0 34 -26.5 56.5t-70.5 22.5h-17v40h15q37 0 60.5 19.5t23.5 48.5q0 28 -21 47t-54 19q-35 0 -56 -20t-23 -51h-46q-1 52 36 85.5
t91 33.5q51 0 87.5 -32.5t36.5 -78.5q0 -32 -21.5 -57.5t-54.5 -30.5z" />
    <glyph glyph-name="four.dnom.cv01" horiz-adv-x="379" 
d="M351 133v-47h-55v-86h-51v86h-225v36l209 298h67v-287h55zM82 133h163v230z" />
    <glyph glyph-name="seven.dnom.cv01" horiz-adv-x="323" 
d="M309 420v-36l-185 -384h-57l181 371h-180v-63h-52v112h293z" />
    <glyph glyph-name="zero.numr.cv01" horiz-adv-x="352" 
d="M179 706q71 0 109 -46.5t38 -132.5v-74q0 -86 -38 -132.5t-109 -46.5h-6q-70 0 -108 46.5t-38 132.5v74q0 86 38 132.5t108 46.5h6zM173 657q-95 0 -95 -128v-78q0 -128 95 -128h6q95 0 95 128v78q0 128 -95 128h-6z" />
    <glyph glyph-name="two.numr.cv01" 
d="M53 280v29q0 55 30 93t110 87q43 26 60.5 46t17.5 49q0 31 -21.5 52.5t-57.5 21.5q-41 0 -65.5 -26t-23.5 -68h-51q-1 64 39 103t102 39q57 0 93 -34.5t36 -86.5q0 -41 -25.5 -71t-81.5 -63q-63 -41 -84.5 -64.5t-21.5 -57.5h212v-49h-268z" />
    <glyph glyph-name="three.numr.cv01" horiz-adv-x="331" 
d="M204 506q36 -5 63.5 -35.5t27.5 -70.5q0 -54 -39.5 -90t-100.5 -36q-59 0 -98 33.5t-40 86.5h48q2 -30 27 -51t63 -21t63.5 23.5t25.5 58.5q0 34 -26.5 56.5t-70.5 22.5h-17v40h15q37 0 60.5 19.5t23.5 48.5q0 28 -21 47t-54 19q-35 0 -56 -20t-23 -51h-46q-1 52 36 85.5
t91 33.5q51 0 87.5 -32.5t36.5 -78.5q0 -32 -21.5 -57.5t-54.5 -30.5z" />
    <glyph glyph-name="four.numr.cv01" horiz-adv-x="379" 
d="M351 413v-47h-55v-86h-51v86h-225v36l209 298h67v-287h55zM82 413h163v230z" />
    <glyph glyph-name="seven.numr.cv01" horiz-adv-x="323" 
d="M309 700v-36l-185 -384h-57l181 371h-180v-63h-52v112h293z" />
    <glyph glyph-name="zero.sups.cv01" horiz-adv-x="352" 
d="M179 711q71 0 109 -46.5t38 -132.5v-74q0 -86 -38 -132.5t-109 -46.5h-6q-70 0 -108 46.5t-38 132.5v74q0 86 38 132.5t108 46.5h6zM173 662q-95 0 -95 -128v-78q0 -128 95 -128h6q95 0 95 128v78q0 128 -95 128h-6z" />
    <glyph glyph-name="two.sups.cv01" horiz-adv-x="311" 
d="M16 285v29q0 55 30 93t110 87q43 26 60.5 46t17.5 49q0 31 -21.5 52.5t-57.5 21.5q-41 0 -65.5 -26t-23.5 -68h-51q-1 64 38.5 103t102.5 39q57 0 93 -34.5t36 -86.5q0 -41 -25.5 -71t-81.5 -63q-63 -41 -84.5 -64.5t-21.5 -57.5h212v-49h-268z" />
    <glyph glyph-name="three.sups.cv01" horiz-adv-x="331" 
d="M204 511q36 -5 63.5 -35.5t27.5 -70.5q0 -54 -39.5 -90t-100.5 -36q-59 0 -98 33.5t-40 86.5h48q2 -30 27 -51t63 -21t63.5 23.5t25.5 58.5q0 34 -26.5 56.5t-70.5 22.5h-17v40h15q37 0 60.5 19.5t23.5 48.5q0 28 -21 47t-54 19q-35 0 -56 -20t-23 -51h-46q-1 52 36 85.5
t91 33.5q51 0 87.5 -32.5t36.5 -78.5q0 -32 -21.5 -57.5t-54.5 -30.5z" />
    <glyph glyph-name="four.sups.cv01" horiz-adv-x="379" 
d="M351 418v-47h-55v-86h-51v86h-225v36l209 298h67v-287h55zM82 418h163v230z" />
    <glyph glyph-name="seven.sups.cv01" horiz-adv-x="323" 
d="M309 705v-36l-185 -384h-57l181 371h-180v-63h-52v112h293z" />
    <glyph glyph-name="three.sinf.tf" 
d="M131 242l117 130h-201v48h272v-35l-126 -137q54 6 91.5 -28.5t37.5 -87.5q0 -61 -40.5 -99.5t-102.5 -38.5q-58 0 -97.5 31.5t-45.5 81.5h51q5 -28 30.5 -46t61.5 -18q40 0 65.5 25.5t25.5 64.5q0 47 -41 68t-98 6v35z" />
    <glyph glyph-name="four.sinf.tf" 
d="M343 141v-48h-56v-93h-50v93h-212v35l154 292h57l-148 -279h149v137h50v-137h56z" />
    <glyph glyph-name="five.sinf.tf" 
d="M185 -6q-56 0 -96 31t-45 82h51q6 -29 30.5 -46.5t59.5 -17.5q37 0 63.5 26t26.5 62q0 39 -26 65.5t-64 26.5q-52 0 -76 -29h-44l19 226h217v-48h-171l-13 -130q27 24 74 24q59 0 97.5 -37.5t38.5 -97.5q0 -58 -41.5 -97.5t-100.5 -39.5z" />
    <glyph glyph-name="six.sinf.tf" 
d="M189 272q58 0 97 -39.5t39 -98.5q0 -58 -42 -99t-101 -41t-101 41t-42 99q0 49 35 104l113 182h58l-103 -161q23 13 47 13zM182 42q39 0 66 27t27 66t-27 66t-66 27t-66 -27t-27 -66t27 -66t66 -27z" />
    <glyph glyph-name="seven.sinf.tf" 
d="M44 420h277v-36l-182 -384h-57l179 371h-217v49z" />
    <glyph glyph-name="eight.sinf.tf" 
d="M183 -5q-61 0 -100.5 35t-39.5 88q0 36 22 66t60 42q-29 11 -47 36t-18 55q0 47 34.5 77.5t88.5 30.5q53 0 88 -30.5t35 -77.5q0 -29 -18 -54.5t-48 -36.5q37 -10 60 -40.5t23 -67.5q0 -53 -39.5 -88t-100.5 -35zM183 247q34 0 55 19t21 48t-21.5 48t-54.5 19
q-34 0 -55 -19t-21 -48t21 -48t55 -19zM183 40q39 0 65 23t26 58q0 36 -26 58.5t-65 22.5q-40 0 -66 -22.5t-26 -58.5q0 -35 26 -58t66 -23z" />
    <glyph glyph-name="nine.sinf.tf" 
d="M174 426q59 0 101.5 -41t42.5 -99q0 -48 -35 -104l-113 -182h-59l102 160q-24 -12 -46 -12q-58 0 -96.5 39.5t-38.5 98.5q0 58 41.5 99t100.5 41zM175 192q39 0 66 27.5t27 65.5q0 39 -27 66t-67 27q-39 0 -66 -27t-27 -66t27.5 -66t66.5 -27z" />
    <glyph glyph-name="zero.sinf.tf" 
d="M180 -6q-72 0 -112.5 58t-40.5 158t40.5 158t112.5 58t112.5 -58t40.5 -158t-40.5 -158t-112.5 -58zM180 43q48 0 74.5 43.5t26.5 123.5t-26.5 123.5t-74.5 43.5t-74.5 -43t-26.5 -124t26.5 -124t74.5 -43z" />
    <glyph glyph-name="one.sinf.tf" horiz-adv-x="363" 
d="M209 47h105v-47h-266v47h111v303l-96 -81v62l111 89h35v-373z" />
    <glyph glyph-name="two.sinf.tf" 
d="M64 0v38l158 157q63 65 63 107q0 32 -23 53.5t-58 21.5q-41 0 -66 -25.5t-24 -67.5h-51q-1 64 39 103t103 39q57 0 94.5 -34.5t37.5 -88.5q0 -65 -79 -139l-114 -115h198v-49h-278z" />
    <glyph glyph-name="zero.sups.tf" 
d="M186 274q-72 0 -112.5 58t-40.5 158t40.5 158t112.5 58q71 0 112 -58t41 -158q0 -99 -41 -157.5t-112 -58.5zM186 323q48 0 74 43.5t26 123.5t-26 123.5t-74 43.5t-74.5 -43t-26.5 -124t26.5 -124t74.5 -43z" />
    <glyph glyph-name="one.sups.tf" 
d="M209 332h105v-47h-266v47h111v303l-96 -81v62l111 89h35v-373z" />
    <glyph glyph-name="two.sups.tf" 
d="M64 280v38l158 157q63 65 63 107q0 32 -23 53.5t-58 21.5q-41 0 -66 -25.5t-24 -67.5h-51q-1 64 39 103t103 39q57 0 94.5 -34.5t37.5 -88.5q0 -65 -79 -139l-114 -115h198v-49h-278z" />
    <glyph glyph-name="three.sups.tf" 
d="M131 522l117 130h-201v48h272v-35l-126 -137q54 6 91.5 -28.5t37.5 -87.5q0 -61 -40.5 -99.5t-102.5 -38.5q-58 0 -97.5 31.5t-45.5 81.5h51q5 -28 30.5 -46t61.5 -18q40 0 65.5 25.5t25.5 64.5q0 47 -41 68t-98 6v35z" />
    <glyph glyph-name="four.sups.tf" 
d="M343 421v-48h-56v-93h-50v93h-212v35l154 292h57l-148 -279h149v137h50v-137h56z" />
    <glyph glyph-name="five.sups.tf" 
d="M185 274q-56 0 -96 31t-45 82h51q6 -29 30.5 -46.5t59.5 -17.5q37 0 63.5 26t26.5 62q0 39 -26 65.5t-64 26.5q-52 0 -76 -29h-44l19 226h217v-48h-171l-13 -130q27 24 74 24q59 0 97.5 -37.5t38.5 -97.5q0 -58 -41.5 -97.5t-100.5 -39.5z" />
    <glyph glyph-name="six.sups.tf" 
d="M189 552q58 0 97 -39.5t39 -98.5q0 -58 -42 -99t-101 -41t-101 41t-42 99q0 49 35 104l113 182h58l-103 -161q23 13 47 13zM182 322q39 0 66 27t27 66t-27 66t-66 27t-66 -27t-27 -66t27 -66t66 -27z" />
    <glyph glyph-name="seven.sups.tf" 
d="M44 700h277v-36l-182 -384h-57l179 371h-217v49z" />
    <glyph glyph-name="eight.sups.tf" 
d="M183 275q-61 0 -100.5 35t-39.5 88q0 36 22 66t60 42q-29 11 -47 36t-18 55q0 47 34.5 77.5t88.5 30.5q53 0 88 -30.5t35 -77.5q0 -29 -18 -54.5t-48 -36.5q37 -10 60 -40.5t23 -67.5q0 -53 -39.5 -88t-100.5 -35zM183 527q34 0 55 19t21 48t-21.5 48t-54.5 19
q-34 0 -55 -19t-21 -48t21 -48t55 -19zM183 320q39 0 65 23t26 58q0 36 -26 58.5t-65 22.5q-40 0 -66 -22.5t-26 -58.5q0 -35 26 -58t66 -23z" />
    <glyph glyph-name="nine.sups.tf" 
d="M174 706q59 0 101.5 -41t42.5 -99q0 -48 -35 -104l-113 -182h-59l102 160q-24 -12 -46 -12q-58 0 -96.5 39.5t-38.5 98.5q0 58 41.5 99t100.5 41zM175 472q39 0 66 27.5t27 65.5q0 39 -27 66t-67 27q-39 0 -66 -27t-27 -66t27.5 -66t66.5 -27z" />
    <glyph glyph-name="three.sinf.tf.cv01" 
d="M227 226q36 -5 64 -35.5t28 -70.5q0 -54 -40 -90t-101 -36q-59 0 -97.5 33.5t-39.5 86.5h48q2 -31 26.5 -51.5t62.5 -20.5q39 0 64.5 23.5t25.5 58.5q0 34 -26.5 56.5t-70.5 22.5h-18v40h16q36 0 59.5 19.5t23.5 48.5q0 28 -21 47t-54 19q-34 0 -55.5 -19.5t-23.5 -51.5
h-45q-1 52 36 85.5t90 33.5q51 0 87.5 -32.5t36.5 -78.5q0 -32 -21.5 -57.5t-54.5 -30.5z" />
    <glyph glyph-name="four.sinf.tf.cv01" 
d="M342 133v-47h-55v-86h-52v86h-224v36l209 298h67v-287h55zM72 133h163v229z" />
    <glyph glyph-name="seven.sinf.tf.cv01" 
d="M330 420v-36l-185 -384h-56l180 371h-180v-63h-51v112h292z" />
    <glyph glyph-name="zero.sinf.tf.cv01" 
d="M179 426q71 0 109 -46.5t38 -132.5v-74q0 -86 -38 -132.5t-109 -46.5h-6q-70 0 -108 46.5t-38 132.5v74q0 86 38 132.5t108 46.5h6zM173 377q-95 0 -95 -128v-78q0 -128 95 -128h6q95 0 95 128v78q0 128 -95 128h-6z" />
    <glyph glyph-name="two.sinf.tf.cv01" 
d="M53 0v29q0 55 30 93t110 87q43 26 60.5 46t17.5 49q0 31 -21.5 52.5t-57.5 21.5q-41 0 -65.5 -26t-23.5 -68h-51q-1 64 39 103t102 39q57 0 93 -34.5t36 -86.5q0 -41 -25.5 -71t-81.5 -63q-63 -41 -84.5 -64.5t-21.5 -57.5h212v-49h-268z" />
    <glyph glyph-name="zero.sups.tf.cv01" 
d="M179 706q71 0 109 -46.5t38 -132.5v-74q0 -86 -38 -132.5t-109 -46.5h-6q-70 0 -108 46.5t-38 132.5v74q0 86 38 132.5t108 46.5h6zM173 657q-95 0 -95 -128v-78q0 -128 95 -128h6q95 0 95 128v78q0 128 -95 128h-6z" />
    <glyph glyph-name="two.sups.tf.cv01" 
d="M53 280v29q0 55 30 93t110 87q43 26 60.5 46t17.5 49q0 31 -21.5 52.5t-57.5 21.5q-41 0 -65.5 -26t-23.5 -68h-51q-1 64 39 103t102 39q57 0 93 -34.5t36 -86.5q0 -41 -25.5 -71t-81.5 -63q-63 -41 -84.5 -64.5t-21.5 -57.5h212v-49h-268z" />
    <glyph glyph-name="three.sups.tf.cv01" 
d="M227 506q36 -5 64 -35.5t28 -70.5q0 -54 -40 -90t-101 -36q-59 0 -97.5 33.5t-39.5 86.5h48q2 -31 26.5 -51.5t62.5 -20.5q39 0 64.5 23.5t25.5 58.5q0 34 -26.5 56.5t-70.5 22.5h-18v40h16q36 0 59.5 19.5t23.5 48.5q0 28 -21 47t-54 19q-34 0 -55.5 -19.5t-23.5 -51.5
h-45q-1 52 36 85.5t90 33.5q51 0 87.5 -32.5t36.5 -78.5q0 -32 -21.5 -57.5t-54.5 -30.5z" />
    <glyph glyph-name="four.sups.tf.cv01" 
d="M351 413v-47h-55v-86h-51v86h-225v36l209 298h67v-287h55zM82 413h163v230z" />
    <glyph glyph-name="seven.sups.tf.cv01" 
d="M309 700v-36l-185 -384h-57l181 371h-180v-63h-52v112h293z" />
    <glyph glyph-name="zero.sinf.tf.zero" 
d="M180 426q72 0 112.5 -58t40.5 -158t-40.5 -158t-112.5 -58t-112.5 58t-40.5 158t40.5 158t112.5 58zM180 377q-48 0 -74.5 -43t-26.5 -124q0 -46 9 -81l169 201q-27 47 -77 47zM180 43q48 0 74.5 43.5t26.5 123.5q0 46 -9 80l-168 -201q26 -46 76 -46z" />
    <glyph glyph-name="zero.sups.tf.zero" 
d="M180 706q72 0 112.5 -58t40.5 -158t-40.5 -158t-112.5 -58t-112.5 58t-40.5 158t40.5 158t112.5 58zM180 657q-48 0 -74.5 -43t-26.5 -124q0 -46 9 -81l169 201q-27 47 -77 47zM180 323q48 0 74.5 43.5t26.5 123.5q0 46 -9 80l-168 -201q26 -46 76 -46z" />
    <glyph glyph-name="zero.dnom.zero" 
d="M180 426q71 0 112 -58t41 -158q0 -99 -41 -157.5t-112 -58.5q-72 0 -112.5 58t-40.5 158t40.5 158t112.5 58zM180 377q-48 0 -74.5 -43t-26.5 -124q0 -46 9 -81l168 201q-26 47 -76 47zM180 43q48 0 74 43.5t26 123.5q0 46 -9 79l-167 -200q26 -46 76 -46z" />
    <glyph glyph-name="zero.sinf.zero" 
d="M180 426q71 0 112 -58t41 -158q0 -99 -41 -157.5t-112 -58.5q-72 0 -112.5 58t-40.5 158t40.5 158t112.5 58zM180 377q-48 0 -74.5 -43t-26.5 -124q0 -46 9 -81l168 201q-26 47 -76 47zM180 43q48 0 74 43.5t26 123.5q0 46 -9 79l-167 -200q26 -46 76 -46z" />
    <glyph glyph-name="zero.numr.zero" 
d="M180 706q71 0 112 -58t41 -158q0 -99 -41 -157.5t-112 -58.5q-72 0 -112.5 58t-40.5 158t40.5 158t112.5 58zM180 657q-48 0 -74.5 -43t-26.5 -124q0 -46 9 -81l168 201q-26 47 -76 47zM180 323q48 0 74 43.5t26 123.5q0 46 -9 79l-167 -200q26 -46 76 -46z" />
    <glyph glyph-name="zero.sups.zero" 
d="M180 706q71 0 112 -58t41 -158q0 -99 -41 -157.5t-112 -58.5q-72 0 -112.5 58t-40.5 158t40.5 158t112.5 58zM180 657q-48 0 -74.5 -43t-26.5 -124q0 -46 9 -81l168 201q-26 47 -76 47zM180 323q48 0 74 43.5t26 123.5q0 46 -9 79l-167 -200q26 -46 76 -46z" />
    <glyph glyph-name="colon.case" horiz-adv-x="233" 
d="M116 460q-25 0 -41.5 17t-16.5 41q0 25 16.5 41.5t41.5 16.5t42 -16.5t17 -41.5q0 -24 -17 -41t-42 -17zM116 122q-25 0 -41.5 16.5t-16.5 40.5q0 25 16.5 42t41.5 17t42 -17t17 -42q0 -24 -17 -40.5t-42 -16.5z" />
    <glyph glyph-name="bullet.case" horiz-adv-x="309" 
d="M154 239q-48 0 -80 32.5t-32 80.5t32 80.5t80 32.5t81 -32.5t33 -80.5t-33 -80.5t-81 -32.5z" />
    <glyph glyph-name="parenleft.case" horiz-adv-x="307" 
d="M79 332q0 150 57.5 284.5t148.5 210.5l43 -49q-80 -67 -130 -188.5t-50 -257.5q0 -137 50 -258.5t130 -188.5l-43 -49q-91 76 -148.5 211t-57.5 285z" />
    <glyph glyph-name="parenright.case" horiz-adv-x="308" 
d="M228 332q0 -150 -57.5 -285t-148.5 -211l-43 49q80 67 130 188.5t50 258.5q0 136 -50 257.5t-130 188.5l43 49q91 -76 148.5 -210.5t57.5 -284.5z" />
    <glyph glyph-name="braceleft.case" horiz-adv-x="376" 
d="M284 -144q-75 0 -120.5 47t-45.5 127v170q0 36 -27 66.5t-71 42.5v47q44 12 71 43t27 67v170q0 79 45.5 126t120.5 48h64v-60h-64q-44 0 -72.5 -31t-28.5 -83v-165q0 -44 -23 -81.5t-60 -56.5q37 -21 60 -58t23 -80v-165q0 -52 28.5 -83t72.5 -31h64v-60h-64z" />
    <glyph glyph-name="braceright.case" horiz-adv-x="376" 
d="M92 -144h-64v60h64q44 0 72.5 31t28.5 83v165q0 43 23 80t60 58q-37 19 -60 56.5t-23 81.5v165q0 52 -28.5 83t-72.5 31h-64v60h64q75 -1 120.5 -48t45.5 -126v-170q0 -36 27.5 -67t70.5 -43v-47q-43 -12 -70.5 -42.5t-27.5 -66.5v-170q0 -80 -45.5 -127t-120.5 -47z" />
    <glyph glyph-name="bracketleft.case" horiz-adv-x="314" 
d="M138 750v-834h146v-60h-214v954h214v-60h-146z" />
    <glyph glyph-name="bracketright.case" horiz-adv-x="315" 
d="M177 750h-147v60h214v-954h-214v60h147v834z" />
    <glyph glyph-name="hyphen.case" horiz-adv-x="315" 
d="M25 314v67h265v-67h-265z" />
    <glyph glyph-name="endash.case" horiz-adv-x="563" 
d="M50 314v67h462v-67h-462z" />
    <glyph glyph-name="emdash.case" horiz-adv-x="1100" 
d="M50 314v67h1000v-67h-1000z" />
    <glyph glyph-name="guillemotleft.case" horiz-adv-x="640" 
d="M47 382l277 210v-79l-205 -154l205 -155v-78l-277 210v46zM312 382l278 210v-79l-205 -154l205 -155v-78l-278 210v46z" />
    <glyph glyph-name="guillemotright.case" horiz-adv-x="640" 
d="M328 382v-46l-278 -210v78l205 155l-205 154v79zM593 382v-46l-277 -210v78l205 155l-205 154v79z" />
    <glyph glyph-name="guilsinglleft.case" horiz-adv-x="378" 
d="M50 382l278 210v-79l-205 -154l205 -155v-78l-278 210v46z" />
    <glyph glyph-name="guilsinglright.case" horiz-adv-x="378" 
d="M328 382v-46l-278 -210v78l206 155l-206 154v79z" />
    <glyph glyph-name="at.case" horiz-adv-x="912" 
d="M458 709q193 0 306 -97.5t113 -264.5q0 -115 -41.5 -178.5t-112.5 -63.5q-93 0 -117 81q-53 -88 -159 -88q-85 0 -143.5 62t-58.5 151t58.5 151t143.5 62q102 0 151 -88v80h61v-261q0 -49 16 -71.5t50 -22.5q42 0 67 49t25 137q0 141 -97 223.5t-262 82.5
q-150 0 -249 -98.5t-99 -248.5q0 -146 95.5 -242t241.5 -96q59 0 110 18t72 46h80q-32 -54 -104 -86.5t-158 -32.5q-170 0 -283.5 111.5t-113.5 281.5q0 174 116.5 288.5t291.5 114.5zM453 157q65 0 105 42.5t40 111.5q0 70 -40 112t-105 42q-62 0 -105.5 -44.5
t-43.5 -109.5q0 -64 43.5 -109t105.5 -45z" />
    <glyph glyph-name="caroncomb.alt" horiz-adv-x="0" 
d="M-147 545l20 205h78l-38 -205h-60z" />
    <glyph glyph-name="uni0328.alt" horiz-adv-x="0" 
d="M-94 76l4 -34q-53 -42 -77 -73t-24 -63q0 -21 14 -34t38 -13q29 0 52 13l19 -49q-38 -20 -90 -20q-44 0 -70.5 25.5t-26.5 64.5q0 91 161 183z" />
    <glyph glyph-name="uni0308.case" horiz-adv-x="0" 
d="M-363 874q21 0 37 -15.5t16 -36.5t-16 -36.5t-37 -15.5t-36.5 15t-15.5 37q0 21 15.5 36.5t36.5 15.5zM-207 874q20 0 36 -15.5t16 -36.5t-15.5 -36.5t-36.5 -15.5q-22 0 -37.5 15t-15.5 37q0 21 15.5 36.5t37.5 15.5z" />
    <glyph glyph-name="uni0307.case" horiz-adv-x="0" 
d="M-269 874q21 0 37 -15.5t16 -36.5t-16 -36.5t-37 -15.5q-22 0 -37 15t-15 37q0 21 15 36.5t37 15.5z" />
    </font>
</defs>
</svg>
