<?xml version="1.0" encoding="utf-8"?>
<!-- Generator: Adobe Illustrator 24.0.3, SVG Export Plug-In . SVG Version: 6.00 Build 0)  -->
<svg version="1.1" id="Capa_1" xmlns="http://www.w3.org/2000/svg" xmlns:xlink="http://www.w3.org/1999/xlink" x="0px" y="0px"
	 viewBox="0 0 193 70" style="enable-background:new 0 0 193 70;" xml:space="preserve">
<style type="text/css">
	.st0{fill:#FFFFFF;}
</style>
<g>
	<path class="st0" d="M19.7,49.2c0,0.1,0.1,0.1,0.1,0.2c0.1,0,0.2-0.1,0.2-0.2c0-0.1-0.1-0.1-0.1-0.1C19.8,49.1,19.7,49.1,19.7,49.2
		 M19.7,53.8c-0.1,0-0.2,0-0.3,0.1c-0.1,0.3,0.1,0.4,0.3,0.6h0.1C20.1,54.3,19.9,54,19.7,53.8 M19.5,55c-0.1,0-0.1,0.1-0.2,0.1
		c0,0.1,0.1,0.2,0.2,0.2c0.1,0,0.1-0.1,0.1-0.1C19.6,55.1,19.6,55,19.5,55 M19.6,51.3c0.1,0.1,0.3,0.3,0.4,0.4
		c0.1,0.1,0.1,0.3-0.1,0.4c-0.6,0.5-0.6,0.7,0.1,1.1c0.4-1,0.3-1.9-0.3-2.7C19.1,50.9,19.1,50.9,19.6,51.3 M19.6,40.8
		c-0.3,0-0.4,0.1-0.4,0.3c-0.1,0.2,0,0.3,0.2,0.3c0.3,0.1,0.4,0,0.4-0.3C19.8,41,19.7,40.9,19.6,40.8 M18.9,52.7
		c-0.1,0-0.3,0-0.3,0.1c-0.1,0.2,0.1,0.3,0.3,0.3s0.3-0.1,0.3-0.2S19.1,52.7,18.9,52.7 M18.9,49.7c-0.2,0-0.3,0.1-0.3,0.3
		c0,0.2,0.1,0.3,0.3,0.3c0.2,0,0.2-0.1,0.2-0.3C19.1,49.9,19.1,49.7,18.9,49.7 M18.4,50.8c-0.1,0-0.1,0-0.2,0.1c0,0.1,0,0.2,0.1,0.2
		c0.1,0,0.1-0.1,0.2-0.1C18.5,51,18.5,50.9,18.4,50.8 M19.1,48.8c0.1,0.1,0.1,0.2,0.3,0.1c0.4-0.3,0.8-0.2,1.2-0.2
		c0.3-0.1,0.4-0.2,0.4-0.4c-0.1-0.3,0.2-0.7-0.1-0.8c-0.4-0.3-0.4,0.3-0.6,0.5c-0.3,0.3-0.4,0.4-0.8,0c-0.2-0.2-0.3-0.3-0.6-0.1
		c-0.1,0.1-0.4,0.1-0.6,0.4C18.5,48.4,18.8,48.5,19.1,48.8 M18.4,45.1c-0.1,0-0.2,0.1-0.2,0.1c0,0.1,0.1,0.2,0.2,0.2
		c0.1,0,0.1-0.1,0.1-0.2C18.5,45.1,18.5,45.1,18.4,45.1 M19.7,43.1c-0.3-0.1-0.5,0.1-0.7,0.2c-0.6,0.1-0.8,0.2-0.9,0.6
		c-0.1,0.3,0,0.4,0.3,0.4h1.8C20.3,43.4,20.3,43.3,19.7,43.1 M19.6,58.1c0.2-0.4,0.4-0.9,0.4-1.3c0-0.2,0-0.6-0.3-0.7
		c-0.1,0-0.3,0-0.3,0.1c-0.3,0.3,0.1,0.5,0.1,0.7c-0.9,0.1-1,0.4-0.4,1.1c0.1,0.1,0.1,0.2,0.1,0.3c-0.4,0.1-0.5,0.3-0.8,0.5
		c-0.1,0.1-0.5,0-0.4,0.4c0.1,0.2,0.4,0.1,0.6,0.1c0.4,0,0.6-0.1,0.6-0.5c-0.1-0.2-0.1-0.3-0.1-0.5C19.2,58.3,19.5,58.4,19.6,58.1
		 M18.1,49.5c0-0.1-0.1-0.1-0.1-0.1c-0.1,0.1-0.2,0.1-0.1,0.2c0,0.1,0.1,0.1,0.1,0.1C18,49.6,18.2,49.6,18.1,49.5 M17.8,48.1
		c-0.1,0-0.1,0.1-0.2,0.1c0,0.1,0.1,0.1,0.1,0.1c0.1,0.1,0.1,0,0.2-0.1C18,48.2,17.9,48.1,17.8,48.1 M17.7,57.2
		c0.1,0,0.2-0.1,0.2-0.1c0-0.1-0.1-0.3-0.2-0.2c-0.1,0-0.1,0.1-0.1,0.2C17.5,57.1,17.6,57.2,17.7,57.2 M18,46c0-0.1-0.1-0.1-0.1-0.1
		c-0.3,0.2-0.5,0.4-0.4,0.8c0,0.1,0,0.1,0.1,0.1C17.8,46.5,18.1,46.5,18,46 M16.4,50.8c-0.1,0-0.1,0.1-0.1,0.1
		c-0.1,0.1,0.1,0.2,0.2,0.2c0.1,0,0.1-0.1,0.1-0.2C16.6,50.9,16.5,50.8,16.4,50.8 M14.4,53.2c0,0.1,0.3,0.7,0.4,0.6
		c0.2-0.1,0.4-0.2,0.4-0.3c0-0.3-0.3-0.4-0.5-0.4C14.5,53.1,14.5,53.2,14.4,53.2 M13.9,55c0-0.1-0.1-0.2-0.1-0.3
		c-0.1-0.1-0.3,0-0.3,0.1c0,0.2-0.3,0.4-0.3,0.6C13.6,55.5,13.8,55.3,13.9,55 M12.1,32.3c-0.3,0-0.4,0.1-0.4,0.3
		c0,0.2,0.1,0.3,0.3,0.4c0.3,0,0.4-0.1,0.4-0.3C12.3,32.5,12.3,32.3,12.1,32.3 M12.2,56.4c0.2-0.1,0.4-0.2,0.2-0.4
		c-0.1-0.1-0.1-0.3-0.2-0.3c-0.2,0-0.3,0.1-0.4,0.3c0,0.2,0,0.3-0.3,0.3c-0.4,0-0.6,0.4-0.9,0.8C11.3,57.1,11.7,56.7,12.2,56.4
		 M10.6,33.4c-0.1,0-0.1,0.1-0.1,0.1c0,0.1,0.1,0.2,0.2,0.2c0.1-0.1,0.1-0.1,0.1-0.2C10.8,33.5,10.7,33.4,10.6,33.4 M10.5,34.2
		c-0.1,0-0.2,0.1-0.1,0.2c0,0.1,0.1,0.1,0.2,0.1c0.1,0,0.1-0.1,0.1-0.1C10.6,34.3,10.5,34.2,10.5,34.2 M9.3,57.3
		c0-0.1-0.1-0.2-0.1-0.2C9,57.1,9,57.2,9,57.3c0,0.1,0.1,0.1,0.2,0.1C9.2,57.4,9.3,57.4,9.3,57.3 M9.3,35c-0.2,0.1-0.4,0.2-0.4,0.4
		c0,0.1,0.1,0.1,0.3,0.1c0.3,0,0.3-0.2,0.3-0.4C9.5,35.1,9.3,35,9.3,35 M8.7,39c0.1-0.1,0-0.2-0.1-0.2c-0.1,0.1-0.3,0.1-0.2,0.3
		c0,0.1,0.1,0.1,0.1,0.1C8.7,39.2,8.7,39.1,8.7,39 M8.3,55.1C8,55,7.9,55.3,7.8,55.5c-0.1,0.2-0.1,0.4,0.1,0.6
		c0.1,0.1,0.2,0.1,0.3,0.1c0.3-0.1,0.2-0.3,0.2-0.5v-0.1C8.4,55.4,8.5,55.2,8.3,55.1 M7.4,42.3c-0.1,0-0.2,0.1-0.1,0.1
		c0,0.1,0.1,0.2,0.1,0.1c0.1,0,0.2-0.1,0.1-0.1C7.6,42.3,7.5,42.2,7.4,42.3 M8.1,36.8c0.2,0,0.3,0.1,0.3,0.3c0,0.1,0.1,0.1,0.1,0.2
		c0.1,0.1,0.3,0.1,0.4,0C9,37.2,9,37.1,8.9,37c-0.2-0.4-0.1-0.9-0.7-1c-0.3-0.1-0.4-0.5-0.2-0.8c0.2-0.1,0.3-0.3,0.3-0.5
		c0-0.3,0.5-0.1,0.4-0.5l-0.1-0.1c-0.3,0.1-0.3,0.4-0.4,0.6c-0.6,0.6-0.6,0.6-0.5,1.3c0.1,0.2,0,0.3-0.1,0.4
		c-0.1,0.3-0.3,0.4-0.3,0.7c-0.1,0.2-0.1,0.4,0.1,0.4c0.3,0.1,0.5,0.2,0.7,0.4c0.1,0.1,0.4,0.1,0.4-0.1c0.1-0.2-0.1-0.3-0.3-0.2
		c-0.3,0-0.4-0.1-0.3-0.3C7.9,37.1,7.9,36.9,8.1,36.8 M7.2,56.9c0.1,0.2,0,0.4,0.3,0.3c0.2-0.1,0.4-0.2,0.4-0.4
		c-0.1-0.2-0.2-0.3-0.4-0.3C7.2,56.6,7.2,56.8,7.2,56.9 M7.6,54.5c0-0.1,0-0.2-0.1-0.3c-0.3-0.1-0.4,0.1-0.5,0.3v0.1
		C7.2,54.8,7.4,54.6,7.6,54.5 M6.9,43.5c0,0.1,0.1,0.1,0.1,0.1c0.1,0.1,0.2,0,0.2-0.1c0-0.1-0.1-0.1-0.1-0.1
		C7,43.4,6.9,43.4,6.9,43.5 M6.7,55.6c0.2-0.1,0.3-0.2,0.3-0.4C6.9,55,6.8,55,6.5,55c-0.1,0-0.3,0.1-0.3,0.3
		C6.4,55.5,6.5,55.6,6.7,55.6 M6.3,52.6c0,0.1,0.1,0.2,0.2,0.2c0.2,0,0.2-0.2,0.2-0.4c0-0.1-0.1-0.2-0.3-0.1
		C6.3,52.4,6.3,52.5,6.3,52.6 M6.4,40.2c-0.1,0-0.2,0.1-0.2,0.2c-0.1,0.3,0.1,0.4,0.3,0.4c0.1,0.1,0.3,0.1,0.3-0.1
		C6.8,40.4,6.6,40.2,6.4,40.2 M6.3,44.7c-0.1,0-0.2,0.1-0.2,0.2c-0.1,0.3,0.1,0.4,0.3,0.4c0.1,0.1,0.3,0.1,0.3-0.1
		C6.7,44.9,6.5,44.7,6.3,44.7 M6,46.3c0,0.2,0.1,0.3,0.3,0.3c0.3,0,0.4-0.1,0.4-0.3c0-0.2-0.1-0.3-0.3-0.3C6.1,45.9,6,46,6,46.3
		 M5.8,38.8L5.8,38.8H6c0-0.1-0.1-0.1-0.1-0.1S5.8,38.7,5.8,38.8 M5.5,52.9c0,0.2,0.1,0.2,0.3,0.2c0.1,0,0.2,0,0.2-0.1
		c0.1-0.2-0.1-0.2-0.3-0.3C5.7,52.7,5.5,52.8,5.5,52.9 M5.3,45.4c-0.1,0-0.2,0.1-0.2,0.3c0,0.1,0.1,0.3,0.3,0.3
		c0.1-0.1,0.2-0.2,0.2-0.3C5.5,45.6,5.5,45.4,5.3,45.4 M5.1,55.9c0.1-0.1-0.1-0.2-0.2-0.2c-0.2,0-0.4,0.1-0.4,0.3
		c0,0.2,0,0.3,0.2,0.4C4.9,56.2,5,56.1,5.1,55.9 M4.6,55c-0.1,0-0.1-0.1-0.1-0.3s0-0.3,0.2-0.3c0.1,0,0.2,0.1,0.2,0.2
		C4.9,54.8,4.8,55,4.6,55 M4.6,48.5c0.1,0.1,0.2,0,0.2-0.1c0-0.1,0-0.2-0.2-0.2c-0.1,0-0.1,0.1-0.1,0.1C4.5,48.5,4.6,48.5,4.6,48.5
		 M5.7,49.1c-0.3,0.3-0.7,0.1-1.1,0.1c-0.1,0-0.2,0.1-0.1,0.3c0.1,0.2,0.3,0.4,0.6,0.4c0.1-0.1,0.2-0.1,0.3-0.2
		C5.8,49.4,6,49.6,6,50.1c0,0.1,0.1,0.2,0.2,0.2c0.1,0,0.1-0.1,0.1-0.2c0.1-0.6,0.1-1.1,0.1-1.8C5.9,48.4,5.9,48.9,5.7,49.1
		 M4.8,55.2c0.5,0.2,0.6,0.1,0.5-0.5c-0.1-0.3-0.1-0.6-0.5-0.6c-0.2,0-0.3-0.1-0.4-0.2c-0.1-0.1-0.2-0.1-0.3-0.1
		c-0.1,0.1-0.2,0.2-0.1,0.3c0.2,0.4,0.2,0.7,0,1.1C4.3,55.4,4.4,55.2,4.8,55.2 M4,45.6c-0.1-0.1-0.1,0-0.1,0.1
		c-0.1,0.1,0,0.1,0.1,0.1c0.1,0.1,0.1,0,0.1-0.1C4.2,45.7,4.1,45.6,4,45.6 M3.6,41.2c0,0.3,0.2,0.3,0.4,0.3c0.3,0,0.4-0.3,0.4-0.6
		c0-0.2-0.1-0.3-0.3-0.3C3.8,40.7,3.6,41,3.6,41.2 M3.4,53.3c0.1,0.2,0.1,0.3,0.3,0.3c0.3,0,0.6-0.3,0.6-0.4
		c-0.1-0.2-0.3-0.2-0.4-0.2C3.5,52.9,3.4,53.1,3.4,53.3 M3.1,43.9c-0.1,0-0.2,0.2-0.1,0.3c0,0.1,0,0.3,0.2,0.3
		c0.2,0,0.2-0.2,0.2-0.3C3.4,44,3.3,43.9,3.1,43.9 M21.8,46.6C22,46.8,22,47,22,47.3c0,1,0,1.9-0.3,2.8c-0.6,2-0.7,4.1-0.9,6.1
		c-0.1,0.7-0.1,1.3-0.2,2c0,0.3-0.1,0.5,0.1,0.7c0.3,0.2,0.5-0.1,0.8-0.2c0.6-0.3,1-0.8,1.5-1.3c0.7-0.8,1.3-1.6,1.8-2.5
		c1.1-2,2.2-4,3.2-6c1.5-3,3.1-6.1,4.4-9.3c0.2-0.5,0.4-1,0.6-1.5c0.2-0.5,1-0.7,1.4-0.4c0.2,0.2,0.1,0.4,0.1,0.6
		c-0.6,1.5-1,3.2-1.8,4.7c-1.5,2.9-2.7,5.8-4.1,8.8c-1,2-2,3.9-3.3,5.7c-1,1.3-2.2,2.4-3.5,3.4c-1.6,1.2-4.1,0.3-4.8-1.2
		c-0.4-1-0.9-2.1-1.1-3.2c-0.1-0.3-0.1-0.4-0.2-0.7c-0.1-0.3-0.3-0.4-0.5-0.1c-0.9,0.7-1.8,1.3-2.8,2c-2.2,1.3-4.4,1.5-6.7,0.6
		C4.1,57.6,3,56.6,2.4,55c-0.6-1.5-0.8-3.1-1-4.7C0.7,44,2.9,38.6,7.1,34c0.8-0.8,1.6-1.5,2.6-2.1c1.5-0.8,3-0.9,4.6-0.1
		c0.6,0.3,1.2,0.6,1.7,1c0.8,0.5,1.4,1.2,1.7,2.1c0.3,0.6,0.5,1.3,0.9,1.9c0.1,0.3,0.3,0.5,0.1,0.8c-0.2,0.3-0.5,0.3-0.8,0.2
		c-0.8-0.2-1.4-0.7-1.8-1.4c-0.3-0.4-0.6-0.9-0.8-1.4c-0.7-1.3-2.7-1.6-3.4,0.1c-0.1,0.2-0.2,0.4-0.3,0.7c-1,1.7-1.8,3.4-2,5.4
		c-0.3,1.8-1,3.5-1.5,5.2c-0.8,2.5-0.6,4.8,0.6,7.1c0.9,1.8,2.5,2.1,3.7,0.6c2-2.5,3.6-5.1,4.1-8.3c0.1-1.1,0.6-2.2,1-3.2
		c0.3-0.7,0.4-1.4,0.5-2.1c0-0.6,0.3-0.8,0.8-1h0.1c1.6-0.2,2.3-0.1,2.6,1.8c0.1,0.6,0.1,1.3,0.1,2C21.3,44.4,21.3,45.5,21.8,46.6"
		/>
	<path class="st0" d="M76.9,12.2c-0.2,0.1-0.4,0.1-0.5,0.1c-0.1,0-0.1,0.1-0.1,0.2c0.1,0.1,0.1,0.1,0.2,0.1c0.4-0.1,0.5-0.2,0.7-0.9
		c-0.2,0.1-0.4-0.1-0.7,0.1C76.5,12.1,76.8,12.1,76.9,12.2 M75.6,12.1h-0.1c-0.1,0.1,0.1,0.2,0.1,0.4l0.1,0.1
		C75.8,12.3,75.8,12.1,75.6,12.1 M74.4,11.3c-0.1,0-0.1,0.1-0.2,0.1c-0.1,0.1-0.1,0.4,0.1,0.5c0.1,0.1,0.2-0.1,0.4-0.1
		c0.1-0.1,0.1-0.4,0.4-0.4c0.1,0.6,0.2,0.6,1,0.2C75.5,11.3,75,11.2,74.4,11.3 M74.5,12.5c-0.2,0-0.4,0-0.5-0.1
		c-0.1-0.1-0.1-0.1-0.2,0c-0.1,0.1,0.1,0.1,0.1,0.3c0.1,0.1,0.3-0.1,0.3,0.1c0.1,0.4,0,0.6-0.3,0.8c-0.1,0-0.1,0.1-0.1,0.2
		c0.4,0.1,0.7,0,1-0.1c0.1,0,0.2,0,0.2-0.1c0-0.1-0.1-0.1-0.1-0.2s-0.2,0.1-0.2-0.1c0-0.1,0.1-0.1,0.3-0.1c0.1,0,0.2,0.1,0.3-0.1
		C75.1,12.7,74.8,12.4,74.5,12.5 M72.6,11.7c0,0.2-0.3,0.5,0.1,0.7c0.3,0.4,0.3,0.4,0.6,0c-0.1-0.1-0.4,0-0.5-0.1
		c0-0.1-0.1-0.3,0.1-0.4c0.1,0,0.1-0.1,0.1-0.3c0.1,0.1,0.3,0.1,0.5,0.1c-0.1-0.1-0.1-0.4-0.4-0.4c-0.1,0-0.1,0.2-0.1,0.4
		C72.9,11.7,72.7,11.5,72.6,11.7 M72.4,11.4c-0.1-0.1-0.1-0.1-0.3-0.1c-0.1,0.1-0.4,0.1-0.4,0.4c0,0.1,0.1,0.2,0.3,0.2
		C72.2,11.8,72.4,11.5,72.4,11.4 M70.2,12.2c0,0-0.1-0.1-0.1-0.1c-0.3,0.1-0.4,0.3-0.2,0.5C70.1,12.7,70.2,12.4,70.2,12.2
		 M69.2,12.5c0-0.1-0.1-0.1-0.1-0.1v0.1C69.1,12.5,69.1,12.6,69.2,12.5C69.2,12.6,69.2,12.5,69.2,12.5 M68.9,13.5
		c0.3,0.1,0.4,0.1,0.6-0.1C69.3,13.2,69.2,13.3,68.9,13.5 M70.2,11.6C70.1,11.6,70.1,11.7,70.2,11.6c-0.1,0.1,0.1,0.1,0.1,0.1
		c-0.1,0.4-0.1,0.5,0.3,0.4c0.1-0.1,0.2-0.2,0.3,0c0.1,0.1,0.1,0.4-0.1,0.3c-0.4-0.1-0.4-0.1-0.3,0.3c0.1,0.1-0.1,0.2-0.2,0.3
		c-0.1,0.1-0.4,0.1-0.3,0.3c0.2,0.3-0.1,0.3-0.2,0.4c-0.2,0.1-0.4,0.2-0.4,0.4c-0.1,0.2-0.3,0.3-0.6,0.2c-0.1,0-0.2,0-0.2,0.1
		c0.4,0.3,0.9,0.2,1.2,0c0.4-0.4,1-0.1,1.3-0.4c0.4,0.2,0.9-0.1,1.3-0.1c0.1,0,0.2-0.2,0.4-0.1c0.2,0.1,0.4,0,0.7-0.1
		c0-0.1-0.1-0.3-0.1-0.4c0.1-0.3-0.1-0.4-0.3-0.5c-0.1-0.1-0.1-0.2-0.3-0.2c-0.2-0.1-0.4-0.2-0.4-0.5S72.1,12,72,12.1
		c-0.1,0.1-0.1,0.2-0.2,0.1c-0.1-0.1-0.1-0.1,0-0.1c0-0.1,0-0.1-0.1-0.2c-0.1,0-0.2,0-0.2,0.1c0,0.5-0.3,0.1-0.5,0.1
		c-0.1-0.3,0-0.5,0-0.7c0.1-0.1,0.1-0.2-0.1-0.2c-0.1,0-0.2-0.1-0.4,0.1c0,0.2,0.4,0.1,0.3,0.4c-0.1,0.2-0.2,0.2-0.4,0.1
		C70.3,11.8,70.3,11.6,70.2,11.6 M68.6,12.3c0.1,0,0.2-0.1,0.2-0.2c0-0.1-0.1-0.2-0.2-0.2c-0.2,0.1-0.4,0.1-0.4,0.3
		C68.3,12.3,68.4,12.3,68.6,12.3 M67.5,14.1c0.1-0.3,0.2-0.4,0-0.7C67.3,13.7,67.3,13.8,67.5,14.1 M67.2,14.8
		c0.1,0.1,0.2,0.1,0.3-0.1c0.1-0.1,0.1-0.2,0-0.3c-0.1-0.1-0.1-0.1-0.3,0c-0.1,0.1-0.2,0-0.3,0.1C67,14.7,67.2,14.7,67.2,14.8
		 M66.9,14.1c-0.1,0-0.1,0-0.2,0.1c0,0.1,0.1,0.1,0.1,0.1c0.1,0,0.2,0,0.3-0.1C67.1,14.1,66.9,14.1,66.9,14.1 M67.7,12
		c0.1-0.1-0.1-0.1-0.1-0.1c-0.1-0.1-0.2-0.2-0.2-0.3c-0.1-0.4-0.4-0.4-0.7-0.3c-0.2,0-0.2,0.1,0,0.2c0.1,0.1,0.1,0.1-0.1,0.3
		c-0.1,0-0.1,0.1-0.1,0.2c0.1,0.1,0.1,0.1,0.3,0.1c0.2,0.1,0.4-0.2,0.7-0.1C67.5,12.1,67.6,12.1,67.7,12 M66.6,13.2
		c-0.1,0-0.4,0.3-0.4,0.4c0.1,0.3,0.4,0.1,0.6,0.2c0.1,0.1,0.3-0.3,0.3-0.4C66.9,13.2,66.8,13.2,66.6,13.2 M65.9,15.3
		c0.1,0,0.1-0.1,0.1-0.1c0-0.1-0.1-0.1-0.1-0.1c-0.1,0-0.1,0-0.1,0.1C65.8,15.3,65.8,15.3,65.9,15.3 M64.7,12.1
		c-0.1,0-0.1,0.1-0.1,0.1c0,0.1,0.1,0.1,0.1,0.1c0,0,0.1,0,0.1-0.1C64.9,12.1,64.8,12.1,64.7,12.1 M64.5,14c0,0.1,0.1,0.2,0.1,0.2
		c0.1,0,0.2,0,0.2-0.1c0-0.2,0.3-0.3,0.2-0.5C64.7,13.6,64.5,13.7,64.5,14 M63.8,14.5c-0.1-0.1-0.3,0.1-0.3,0.2
		c-0.1,0.1,0.1,0.1,0.2,0.1c0.1-0.1,0.3,0,0.4,0.1c0.2,0.1,0.4,0.1,0.7-0.1C64.4,14.5,64.1,14.8,63.8,14.5 M64.1,13.8
		c-0.2,0.1-0.4,0.2-0.7,0.4C64.1,14.4,64.1,14.4,64.1,13.8 M62.4,15.8c0.1,0.2,0.2,0.2,0.4,0.1c0.1,0,0.1-0.1,0.1-0.2
		c-0.1-0.1,0-0.4-0.3-0.3c-0.1,0-0.2-0.1-0.4,0C62.2,15.6,62.3,15.7,62.4,15.8 M62.2,14.1c-0.1,0-0.2-0.1-0.2,0
		c-0.1,0.1,0,0.2,0.1,0.3c0.2,0.1,0.5,0.1,0.8,0.2C62.6,14.5,62.6,14.1,62.2,14.1 M61.8,15.3c0,0-0.1-0.1-0.1-0.1v0.1
		C61.7,15.4,61.8,15.5,61.8,15.3L61.8,15.3z M61.3,14c-0.1,0.1-0.3,0.1-0.3,0.3c0,0.2,0.1,0.3,0.3,0.3c0.2,0,0.3-0.1,0.4-0.4
		C61.6,14.1,61.5,14,61.3,14 M61.2,12.4c0.1,0,0.2-0.1,0.2-0.1c0-0.1-0.1-0.2-0.2-0.2C61,12,61,12.1,61,12.2
		C61,12.3,61,12.4,61.2,12.4 M60.2,13.2L60.2,13.2c0,0.1,0,0.1,0.1,0.1c0.1,0,0.1-0.1,0.1-0.1C60.3,13.2,60.3,13.2,60.2,13.2
		 M60.2,12.3C60.2,12.3,60.2,12.4,60.2,12.3c0,0.1,0,0.1,0.1,0.1c0.1,0,0.1-0.1,0.1-0.1H60.2z M59.8,16c0.2,0.1,0.4-0.1,0.5-0.2
		c0.1-0.3-0.3-0.2-0.4-0.4C59.9,15.6,59.5,15.8,59.8,16 M59.7,14.5c0,0.1,0.1,0.2,0.2,0.2c0.1,0,0.2,0,0.3-0.1
		c0-0.2-0.1-0.2-0.3-0.2C59.8,14.4,59.7,14.4,59.7,14.5 M59.6,12.3C59.6,12.3,59.6,12.4,59.6,12.3c0,0.1,0,0.1,0.1,0.1
		c0.1,0,0.1-0.1,0.1-0.1C59.7,12.3,59.7,12.2,59.6,12.3 M59.3,11.5c-0.1-0.1-0.1-0.2-0.3-0.1c-0.1,0-0.1,0.1-0.1,0.1
		c0,0.2,0.1,0.1,0.3,0.2c0.1,0.1,0.1,0.1,0.2,0.1C59.5,11.6,59.4,11.6,59.3,11.5 M58.9,14.5C58.8,14.5,58.8,14.5,58.9,14.5
		L58.9,14.5C58.9,14.6,58.9,14.5,58.9,14.5L58.9,14.5z M59.3,15.5c0.1-0.1,0.1-0.2,0-0.3c-0.1-0.1-0.1-0.1-0.3,0
		c-0.1,0.1-0.2,0.1-0.4,0.2C58.9,15.8,59.1,15.8,59.3,15.5 M58.3,11.5c0.1,0.1,0.1,0,0.1-0.1c0-0.1,0.1-0.1,0-0.1
		c0-0.1-0.1,0-0.1,0.1C58.3,11.4,58.2,11.5,58.3,11.5 M58.3,14.7c-0.1,0-0.1,0.1-0.1,0.2c0,0.1,0.1,0.1,0.1,0.1
		c0.1,0,0.1-0.1,0.1-0.2C58.5,14.9,58.5,14.7,58.3,14.7 M58,16.4c-0.1,0.1,0,0.1,0,0.1c0.1-0.1,0.4-0.1,0.4-0.3c0-0.1,0-0.1-0.1-0.1
		C58,16.1,58,16.4,58,16.4 M57.7,26.4c-0.1,0-0.1,0-0.1,0.1c0,0.1,0,0.1,0.1,0.1h0.1V26.4z M57.6,25.1
		C57.6,25.1,57.6,25.2,57.6,25.1c0.1,0.1,0.1,0.1,0.1,0C57.7,25.1,57.7,25,57.6,25.1L57.6,25.1z M57.5,21.8c-0.1,0-0.1,0.1-0.1,0.1
		c0,0,0,0.1,0.1,0.1C57.6,22.1,57.6,21.9,57.5,21.8C57.6,21.8,57.6,21.8,57.5,21.8 M57.5,24.1c-0.1,0-0.1,0.1-0.1,0.1
		c0,0.1,0.1,0.1,0.1,0.1c0.1,0,0.1-0.1,0.1-0.1C57.6,24.2,57.6,24.1,57.5,24.1 M57.1,36.2c0,0.1,0,0.2,0.1,0.3
		c0.1,0,0.1-0.1,0.1-0.1c0.1-0.1,0-0.2-0.1-0.3C57.2,36.1,57.2,36.2,57.1,36.2 M56.9,32.5c0,0.1,0.1,0.1,0.1,0.2
		c0.1,0,0.1,0,0.1-0.1c0.1-0.1,0-0.2-0.1-0.2C56.9,32.4,56.9,32.4,56.9,32.5 M56.9,23.7c0.3,0.1,0.5-0.1,0.8-0.2
		C57.2,23.2,57.2,23.2,56.9,23.7 M56.9,17.2c-0.1,0.4,0.2,0.4,0.4,0.7C57.4,17.5,57,17.4,56.9,17.2 M56.9,19.1
		c0,0.1,0.1,0.1,0.1,0.1s0.1-0.1,0.1-0.1c-0.1-0.1,0.1-0.4-0.2-0.4C56.8,18.8,56.8,19,56.9,19.1 M56.8,34.2
		C56.8,34.1,56.7,34.1,56.8,34.2l-0.1,0.1C56.8,34.2,56.8,34.2,56.8,34.2C56.9,34.2,56.9,34.2,56.8,34.2 M56.9,34.6
		c-0.1,0-0.1,0.1-0.2,0.2c0,0.1,0.1,0.2,0.2,0.2c0.1,0,0.1-0.1,0.1-0.2C57,34.7,57,34.5,56.9,34.6 M57.2,14.2c0.1-0.1,0.1-0.2,0-0.3
		c-0.1-0.1-0.3-0.1-0.6,0.1c-0.1,0-0.1,0.1-0.1,0.1c0,0.1,0.1,0.1,0.2,0.1C56.9,14.4,57.1,14.3,57.2,14.2 M56.7,41.9
		c-0.1,0-0.3,0.1-0.3,0.3c-0.1,0.2,0.1,0.4,0.3,0.3c0.2,0,0.1-0.2,0.2-0.4C56.9,42.1,56.9,41.9,56.7,41.9 M56.6,35.9
		c0.1,0,0.1-0.1,0.1-0.1c-0.1-0.1-0.1-0.2-0.3-0.2c0,0-0.1,0.1-0.1,0.1C56.4,35.7,56.4,35.9,56.6,35.9 M56.3,41.2
		c0,0.1,0,0.1,0.1,0.1c0.3,0.1,0.2-0.1,0.3-0.3c0.1-0.1,0.1-0.1,0.1-0.2c0.1-0.1,0.2-0.1,0.3-0.3c0.1-0.1,0-0.2-0.1-0.2
		c-0.1,0-0.1,0-0.1,0.1c-0.1,0.1,0,0.3,0,0.4C56.3,40.6,56.4,41,56.3,41.2 M56.3,24.4c0.1,0.1,0.2,0.1,0.4,0
		c0.2-0.2-0.1-0.4-0.1-0.6C56.2,24,56.1,24.1,56.3,24.4 M56.1,29.3L56.1,29.3c0,0.1,0,0.1,0.1,0.1L56.1,29.3L56.1,29.3z M56.4,31.5
		c-0.1-0.1-0.1-0.1-0.2-0.1c-0.1,0-0.1,0-0.1,0.1c0,0.1,0.1,0.1,0.1,0.1C56.3,31.6,56.4,31.6,56.4,31.5 M56.1,33.5
		c-0.1,0-0.1,0.1-0.1,0.2c0.1,0.1,0.2,0.1,0.3,0.1c0.1-0.1,0.4-0.1,0.6-0.1c0.1,0.1,0.2-0.1,0.2-0.2c0-0.2-0.1-0.2-0.4-0.2
		S56.3,33.3,56.1,33.5 M56,30.7c0,0.1,0.1,0.2,0.1,0.1c0.2,0,0.3-0.1,0.3-0.2c0-0.1-0.1-0.1-0.1-0.1C56.1,30.5,56,30.6,56,30.7
		 M56,23c0,0.2,0.1,0.3,0.3,0.4c0.2,0,0.2-0.1,0.2-0.3c0-0.1-0.1-0.2-0.3-0.2C56.2,22.9,56,23,56,23 M56.6,30l-0.1-0.1
		c-0.3-0.1-0.4,0.2-0.5,0.4C56.1,30.2,56.4,30.3,56.6,30 M56.1,17c-0.1,0-0.2,0-0.1,0.1c0,0.1,0.1,0.1,0.2,0.1
		c0.1,0,0.1-0.1,0.1-0.1C56.3,17,56.2,17,56.1,17 M56.2,43.7c-0.2,0-0.3,0.1-0.3,0.4c0,0.1,0,0.2,0.1,0.3c0.2,0,0.2-0.2,0.3-0.3
		c0.1-0.1,0.1-0.1,0.1-0.3C56.3,43.7,56.3,43.7,56.2,43.7 M56.4,43.5c0.3-0.1,0.3-0.4,0.2-0.7c-0.2,0.1-0.4,0.1-0.7,0.2
		C56.1,43.3,56.1,43.6,56.4,43.5 M56.3,22.1c0-0.1,0-0.2-0.2-0.2c-0.1,0-0.1,0.1-0.1,0.2c0,0.1,0,0.2,0.1,0.3
		C56.3,22.3,56.3,22.3,56.3,22.1 M55.8,40.8c0,0.1,0.1,0.1,0.1,0.1c0.1,0,0.1,0,0.1-0.1c0-0.1-0.1-0.1-0.1-0.1
		C55.9,40.8,55.8,40.8,55.8,40.8 M56,28.9C56,28.8,56,28.8,56,28.9c-0.1-0.1-0.2-0.1-0.2,0s0.1,0.1,0.1,0.1C56,29,56,29,56,28.9
		 M56.1,39c0-0.1-0.1-0.1-0.1-0.1c-0.1,0-0.3,0.1-0.3,0.2c-0.1,0.1,0.1,0.1,0.1,0.1C56,39.3,56,39.3,56.1,39 M55.5,43.1
		c0,0-0.1,0.1-0.1,0.1h0.1L55.5,43.1L55.5,43.1z M55.5,19.5c0.1,0,0.2-0.1,0.2-0.1c0.1-0.1,0-0.1-0.1-0.1s-0.1,0.1-0.2,0.1
		C55.5,19.4,55.5,19.5,55.5,19.5 M56.3,25.6c0.1,0.1,0.2,0,0.2-0.1c0-0.1-0.1-0.1-0.3-0.2c-0.1-0.1-0.2,0-0.3,0
		c-0.1,0.1-0.3,0.1-0.3-0.1c0-0.1-0.1-0.2-0.2-0.1c-0.1,0.1,0,0.1,0.1,0.2c0.2,0,0.1,0.2,0.2,0.4c0.1,0.1,0.1,0.1,0.2,0.2
		C56.2,25.9,56.1,25.6,56.3,25.6 M55.4,17.3c-0.1,0.1,0,0.1,0.1,0.1s0.1,0,0.1-0.1C55.6,17.2,55.5,17.2,55.4,17.3
		C55.5,17.2,55.4,17.2,55.4,17.3 M55.7,13.2c-0.1,0.3-0.1,0.5,0,0.7c0.1,0.2,0,0.4,0.1,0.6c0.1,0.1,0,0.2-0.1,0.2
		c-0.1,0-0.2,0-0.1,0.2c0.4-0.1,0.6,0.3,0.7,0.6c0.1,0.1,0.1,0.4,0.1,0.5c0.1,0.3,0.1,0.5,0.4,0.7c0.1,0.1,0.1,0.1,0.2,0
		c0.1-0.1,0.1-0.1,0.1-0.2c-0.3-0.1-0.2-0.5-0.4-0.7c-0.1-0.4-0.1-0.7-0.4-1c-0.3-0.4,0-0.9-0.3-1.3c0.3-0.3,0.1-0.6,0-0.9
		c-0.1-0.4-0.1-0.4-0.7-0.1C55.8,12.7,55.9,12.8,55.7,13.2 M55.9,27.9c0.2-0.1,0.4-0.1,0.4-0.4c0-0.1,0.1-0.3-0.1-0.4
		c-0.1-0.1-0.4,0-0.4,0.1c-0.1,0-0.1,0.1-0.2,0.1c-0.1,0.1-0.2,0.1-0.1,0.3c0.1,0.2,0.2,0.1,0.3,0.1H55.9z M55.3,21.8
		C55.2,21.7,55.2,21.8,55.3,21.8l-0.1,0.1C55.2,21.9,55.3,21.9,55.3,21.8L55.3,21.8z M55.5,34.7c0.1,0,0.1-0.1,0-0.2
		c-0.1-0.1-0.1,0-0.2,0.1c-0.1,0.2-0.1,0.4-0.1,0.7C55.4,35.1,55.4,34.9,55.5,34.7 M55.2,45.1c-0.1,0-0.1,0.1-0.1,0.1
		c0,0.1,0.1,0.1,0.2,0.1c0.1,0,0.1-0.1,0.1-0.1C55.4,45.2,55.4,45.1,55.2,45.1 M54.9,47c0-0.1,0-0.1,0.1-0.1c0.1,0,0.2,0,0.1,0.1
		c0,0.1-0.1,0.1-0.1,0.1C54.9,47.2,54.9,47.1,54.9,47 M55,36.7c-0.1,0-0.1,0.1-0.1,0.1c0,0.1,0.1,0.2,0.2,0.1c0.1,0,0.1-0.1,0.1-0.1
		C55.2,36.7,55.1,36.7,55,36.7 M54.9,31c0,0.1,0.1,0.2,0.1,0.2s0.1,0,0.2-0.1c0-0.1-0.1-0.1-0.1-0.2C54.9,30.9,54.9,31,54.9,31
		 M54.9,16.2C54.9,16.2,54.9,16.1,54.9,16.2l-0.1-0.1C54.7,16.2,54.7,16.2,54.9,16.2C54.8,16.2,54.9,16.2,54.9,16.2 M54.7,13.6
		c0,0.1,0.1,0.2,0.2,0.1c0.1-0.1,0.1-0.1,0.1-0.3c-0.1-0.1-0.1-0.2-0.2-0.4C54.6,13.3,54.6,13.5,54.7,13.6 M54.8,49.3
		c-0.1,0.1-0.1,0-0.1-0.1c0-0.2,0.2-0.1,0.3-0.1C54.9,49.1,54.9,49.2,54.8,49.3 M54.6,44.8c0,0,0.1,0.1,0.1,0
		c0.2-0.1-0.1-0.4,0.1-0.4c0-0.1-0.1-0.1-0.1-0.2C54.7,44.4,54.6,44.6,54.6,44.8 M54.8,30.4c-0.1-0.1-0.1,0.1-0.1,0.2
		c0.1,0.1,0.1,0.1,0.1,0.1c0.1,0,0.1-0.1,0.1-0.2C54.9,30.4,54.9,30.4,54.8,30.4 M55.9,41.6c-0.1,0.1-0.2,0.3-0.4,0.1
		c-0.2-0.4-0.5,0-0.8-0.1c-0.1,0-0.1,0.1-0.1,0.1c0,0.1,0.1,0.1,0.2,0.2c0.1,0,0.2-0.1,0.3,0c0.4,0.3,0.7,0,1-0.1
		c0.1,0,0.1-0.1,0.2-0.1C56.2,41.6,56.1,41.5,55.9,41.6 M54.6,37.6C54.6,37.6,54.6,37.6,54.6,37.6c-0.1,0.1-0.1,0.1,0,0.1h0.1
		C54.7,37.6,54.7,37.6,54.6,37.6 M54.6,19c0.1,0,0.1,0.1,0.1,0.1c0.1,0,0.1-0.1,0.1-0.1c0-0.1-0.1-0.1-0.1-0.1
		C54.6,18.8,54.6,18.9,54.6,19 M54.6,17.9c0.1,0.1,0.1,0.1,0.1,0.1c0,0,0.1-0.1,0-0.1C54.7,17.8,54.6,17.8,54.6,17.9
		C54.6,17.9,54.6,17.9,54.6,17.9 M54.9,17.4c0.1-0.1,0.1-0.1,0.1-0.2c0-0.2-0.1-0.1-0.3-0.1c-0.1,0-0.1,0.1-0.1,0.2
		C54.6,17.3,54.7,17.4,54.9,17.4 M55.7,32.5c-0.3-0.2-0.1-0.6-0.1-0.9c-0.2,0.2-0.5,0.3-0.3,0.7c0.1,0.1,0,0.4,0,0.5
		c-0.1,0.2-0.1,0.5-0.5,0.4c-0.3-0.1-0.3,0.1-0.3,0.4c0.4,0,0.8,0.1,1-0.3c0.1-0.1,0.2,0,0.3,0c0.1,0,0.2,0,0.3-0.1V33
		c-0.1-0.1-0.2-0.1-0.4,0c0,0.1-0.1,0.1-0.1,0C55.5,32.7,55.9,32.6,55.7,32.5 M54.6,45.4c0.1,0.1,0.3,0.1,0.2-0.1
		c-0.1-0.3-0.3,0.1-0.4,0C54.5,45.3,54.6,45.3,54.6,45.4 M54.4,19.9c0,0.1,0,0.1,0.1,0.1c0.1,0,0.1-0.1,0.1-0.1
		C54.6,19.8,54.6,19.8,54.4,19.9C54.4,19.8,54.4,19.8,54.4,19.9 M55.8,11.8c0-0.1-0.1-0.2-0.1-0.3c-0.3-0.3-0.7-0.1-1.1-0.3
		c-0.1-0.1-0.1,0-0.1,0.1c0,0.1,0,0.2,0.1,0.2c0.4,0.1,0.6,0.3,1,0.4C55.6,12,55.7,12,55.8,11.8 M54.4,32.2c-0.1,0-0.1,0-0.1,0.1
		c0,0.1,0.1,0.2,0.2,0.3c0.1,0,0.1-0.1,0.1-0.1C54.6,32.3,54.6,32.2,54.4,32.2 M54.4,26.7c-0.1,0-0.3,0-0.2,0.1
		c0,0.1,0.1,0.1,0.1,0.1c0.1,0,0.2,0,0.2-0.1C54.6,26.7,54.5,26.7,54.4,26.7 M54.2,24.6c-0.1,0-0.2,0-0.2,0.1c0,0.1,0.1,0.1,0.2,0.1
		h0.6C54.6,24.7,54.4,24.6,54.2,24.6 M53.9,23C53.8,23.1,53.9,23.1,53.9,23c0.1,0.1,0.2,0.1,0.2,0S54,23,54.1,23
		C54,22.9,53.9,23,53.9,23 M54.4,44.2c0.1-0.1,0.1-0.3,0-0.4c-0.2-0.1-0.4-0.1-0.6,0.3C54,44.1,54.2,44.4,54.4,44.2 M54,14.4
		c-0.1,0-0.1,0-0.1,0.1c0,0,0,0.1,0.1,0.1C53.9,14.5,54,14.5,54,14.4L54,14.4z M54.1,50.2c-0.1,0.1-0.3,0.2-0.4,0.4
		c0,0.1,0.1,0.1,0.2,0.2c0.2,0.1,0.1-0.1,0.3-0.1c0.1-0.1,0.3,0,0.3-0.2C54.6,50.2,54.3,50.1,54.1,50.2 M53.8,37.6
		c-0.1,0.1-0.1,0.1-0.1,0.1c0.1,0.2,0.3,0.2,0.4,0.1c0.1,0,0.1,0,0.1-0.1C54.2,37.6,54,37.5,53.8,37.6 M53.8,27.9
		c-0.1,0-0.1,0-0.1,0.1c0,0.1,0.1,0.1,0.1,0.1c0.1,0,0.1,0,0.1-0.1C54,27.9,53.9,27.9,53.8,27.9 M54,11.9c-0.1-0.2,0.4-0.2,0.1-0.4
		c-0.1-0.1-0.3-0.2-0.5-0.1C53.8,11.6,53.9,11.8,54,11.9 M53.7,42.9c0,0.1,0.1,0.1,0.1,0.1c0.1,0,0.6-0.4,0.6-0.6
		c-0.1-0.3-0.3-0.1-0.4-0.1h-0.3C53.6,42.5,53.7,42.7,53.7,42.9 M53.7,31.5c-0.1,0.1-0.1,0.1-0.1,0.1c0,0.1,0.1,0.1,0.1,0.1
		c0.1,0,0.2,0,0.2-0.1C53.9,31.5,53.8,31.5,53.7,31.5 M53.7,15.1l-0.1,0.1c0,0.1,0.1,0.2,0.2,0.2c0,0,0.1,0,0.1-0.1
		C53.9,15.2,53.8,15.1,53.7,15.1 M55.1,19.3c0,0.4,0.2,0.7,0.6,0.8c-0.1,0.2,0.4,0.2,0.1,0.4c-0.1,0.1-0.3,0.2-0.4,0.3
		c-0.1,0-0.1,0.1-0.1,0c-0.3-0.1-0.3,0.1-0.3,0.3c-0.2,0.1-0.5,0.1-0.6,0.4c0,0.1-0.1,0.1-0.1,0.1c-0.1,0-0.3,0.1-0.5,0.1
		c-0.1,0-0.1,0.1-0.1,0.1c-0.1,0.1,0,0.3,0.1,0.4c0.1,0.1,0.2,0,0.2-0.1c0.1-0.1,0.4-0.4,0.6-0.3s0.3,0.1,0.3-0.1
		c0-0.1-0.1-0.4,0.1-0.4c0.4,0.1,1,0,1.4,0.2c0.1,0,0.1-0.1,0.2-0.1c0.1-0.5,0.3-1-0.1-1.6c0.1-0.1,0.2-0.1,0.1-0.3
		c-0.1-0.1-0.1,0-0.2,0.1c0,0.1-0.1,0.1-0.1,0.2c-0.1,0.1-0.3,0.3-0.5,0.3C55.7,19.7,55.2,19.7,55.1,19.3 M53.6,12.4
		c-0.1,0-0.1,0.1-0.1,0.2c0,0,0,0.1,0.1,0.1c0.1-0.1,0.1-0.1,0.1-0.1C53.7,12.4,53.7,12.4,53.6,12.4 M53.7,41.6
		c-0.1,0-0.3,0-0.3,0.1c0,0.2,0.2,0.2,0.4,0.1c0.1,0,0.1-0.1,0.2-0.2C53.8,41.6,53.7,41.6,53.7,41.6 M54.9,39.3
		c0.1-0.1,0.1-0.1,0.2-0.1c0.2-0.1,0.3-0.5,0.1-0.7c-0.1,0-0.2-0.1-0.3,0.1c-0.1,0.1,0.1,0.1,0.1,0.1c0.1,0.1,0.1,0.1-0.1,0.1
		c0,0.1-0.1,0.1-0.1,0c-0.1,0-0.1-0.1-0.1-0.2c-0.1-0.7-0.1-0.7-0.8-0.6h-0.4c-0.1,0-0.2,0-0.2,0.1c-0.1,0.2,0.1,0.3,0.2,0.3
		c0.3,0.1,0.5,0,0.8-0.3c-0.1,0.4,0.1,0.9-0.5,0.9c-0.1,0-0.1,0.2-0.1,0.3c0.1,0.2,0.1,0.5,0.4,0.6C54.2,39.6,54.5,39.4,54.9,39.3
		 M54.2,51.7c0.2,0.1,0.2-0.1,0.3-0.3c0.1-0.1,0.1-0.1,0.1-0.2c-0.2-0.2-0.3,0-0.4,0.1c0,0.1-0.1,0.1-0.1,0.1
		c-0.1-0.1-0.1-0.4-0.4-0.4c-0.1,0-0.2,0-0.2,0.1c-0.1,0.1,0.1,0.1,0.1,0.2c0.1,0,0.4-0.1,0.5,0C53.9,51.6,54,51.6,54.2,51.7
		 M53.6,24.1C53.6,24.1,53.7,24.1,53.6,24.1c0.1-0.3-0.2-0.3-0.3-0.4C53.4,23.8,53.2,24.1,53.6,24.1 M54.2,35.7
		c0.1,0,0.4-0.3,0.5,0.1c0.1,0.1,0.1,0.1,0.1,0c0.1-0.1,0.1-0.2,0-0.2c-0.4,0-0.1-0.3-0.3-0.4c-0.1-0.1-0.4-0.1-0.5-0.3
		c-0.1,0-0.1-0.1-0.1-0.1c-0.1-0.1,0-0.1,0.1-0.2c0.1-0.1,0.1,0,0.1,0.1c0.1,0.1,0.1,0.1,0.3,0c0.1-0.1,0.1-0.1,0.1-0.2
		c0-0.1-0.1-0.1-0.3-0.1c-0.2,0.1-0.4,0.1-0.7,0.1c-0.3,0-0.3,0.1-0.3,0.4c0,0.3,0,0.4,0.4,0.4c0.3,0,0.4,0.1,0.3,0.4
		C53.9,35.7,54,35.8,54.2,35.7 M53.5,16c0-0.1,0-0.1-0.1-0.1c-0.1,0-0.1,0.1-0.1,0.2c0,0.1,0.1,0.1,0.1,0.1
		C53.5,16.2,53.5,16.1,53.5,16 M53.2,46C53.2,46,53.2,45.9,53.2,46c0-0.1,0-0.1-0.1-0.1L53.2,46C53.1,46,53.2,46,53.2,46 M53.2,13.2
		C53.2,13.2,53.2,13.1,53.2,13.2c0.1-0.1,0-0.1,0-0.1C53.1,13,53.1,13.1,53.2,13.2L53.2,13.2z M52.9,33.9c0,0,0.1,0.1,0.1,0.1
		c0.1,0,0.1-0.1,0.1-0.1c0-0.1-0.1-0.1-0.1-0.1C53,33.8,52.9,33.8,52.9,33.9 M53.5,36.8c0.1-0.2,0.6-0.2,0.5-0.6
		c-0.1-0.1,0-0.3-0.1-0.3c-0.2,0-0.2,0.1-0.2,0.2c-0.1,0.3-0.1,0.5-0.6,0.5c-0.1-0.1-0.2-0.1-0.3,0.1c-0.1,0.2,0.1,0.3,0.1,0.4
		c0.1,0.1,0.1,0.1,0.3,0.1C53.3,37.1,53.5,37,53.5,36.8 M52.8,47.2c-0.1,0-0.1,0.1-0.1,0.1c0,0.1,0.1,0.1,0.1,0.1
		c0.1,0,0.1,0,0.1-0.1C52.9,47.3,52.9,47.2,52.8,47.2 M53.2,49.9c0.2,0.1,0.4,0.1,0.5-0.1c0.1-0.3,0.4-0.6,0.9-0.5
		c0.1,0.3,0.1,0.3-0.4,0.5c0.1,0.2,0.2,0.4,0.5,0.4c0.2,0,0.2-0.2,0.3-0.4c0.1-0.3,0.1-0.6,0.1-0.8c0.1-0.4,0.2-0.9,0.3-1.3
		c0.1-0.2,0.1-0.4,0.1-0.6c0-0.3-0.4-0.1-0.5-0.4c0.9-0.2,0.9-0.9,1-1.6C56,45,55.6,45,55.7,45.3c0.1,0.3-0.1,0.3-0.2,0.4
		c-0.1,0.1-0.4,0.1-0.4,0.3c-0.1,0.3-0.4,0.4-0.8,0.4c-0.1,0-0.1,0.1-0.1,0.1c0.1,0.1,0.3,0,0.4,0.1c0,0.2-0.2,0.2-0.2,0.4
		c-0.1,0.4-0.3,0.3-0.5,0.4c-0.2-0.1-0.1-0.2-0.1-0.4c0-0.1-0.1-0.1-0.2-0.1c-0.1,0-0.1,0.1-0.1,0.2c0,0.4,0.4,0.1,0.5,0.3
		c-0.1,0.1-0.2,0.1,0,0.2c0.2,0.1,0.1,0.3,0.1,0.4c-0.1,0-0.1,0-0.2-0.1c-0.4-0.2-0.4-0.2-0.4,0.1c-0.1,0.2-0.1,0.2-0.3,0.3
		c-0.1,0-0.1,0.1-0.1,0.1c0,0.1,0.1,0.1,0.1,0.1c0.2,0.1,0.4,0.1,0.4-0.2c0.1-0.2,0.3-0.1,0.4-0.2c-0.1,0.1-0.1,0.2-0.1,0.3
		c-0.1,0.4-0.3,1-0.9,1.1c-0.1-0.1-0.1-0.1-0.1,0c0,0.1,0.1,0.1,0.1,0.1C52.9,49.9,53.1,49.8,53.2,49.9 M52.8,26.9
		c0.1,0,0.1-0.1,0.1-0.1c0-0.1-0.1-0.1-0.1-0.2c-0.1,0-0.1,0.1-0.1,0.1C52.6,26.8,52.6,26.9,52.8,26.9 M52.6,25.2v0.1
		c0,0.1,0.1,0.1,0.1,0c0.1,0,0.1-0.1,0.1-0.1C52.7,25.2,52.7,25.2,52.6,25.2 M52.9,36.3c0.1,0.1,0.3,0.1,0.4,0
		c0.1-0.1,0-0.1-0.1-0.2c-0.2-0.3-0.4-0.4-0.6-0.7C52.4,35.8,52.6,36.1,52.9,36.3 M53.1,17.3c-0.1,0.1-0.2,0-0.3,0.1
		c-0.2,0.1-0.4,0.4-0.2,0.6c0.1,0.1,0.3,0.2,0.4,0.4c0.1,0.1,0.4,0.1,0.4-0.1c0-0.4,0.1-0.8-0.1-1.2C53.2,17.2,53.2,17.3,53.1,17.3
		 M53.6,52.5c-0.4-0.1-0.7,0-1,0.3c0,0.1-0.1,0.1-0.1,0.2c0.1,0.1,0.1,0.1,0.3,0.1c0,0,0.1-0.1,0.1-0.1c0.2-0.1,0.4-0.2,0.4,0.2
		c0.1,0.1,0.4,0.1,0.5,0.1c0.1-0.1,0.1-0.3,0.2-0.5c0.1-0.2-0.1-0.2-0.2-0.2c-0.1-0.1-0.3-0.1-0.1-0.2h0.4c0.1,0,0.1-0.1,0.1-0.2
		c-0.1-0.1-0.1-0.1-0.2-0.1c-0.1,0.1-0.3,0.1-0.4,0.3C53.7,52.4,53.7,52.5,53.6,52.5 M53,37.6c0.1,0,0-0.1-0.1-0.1
		c-0.2-0.1-0.4,0-0.4,0.2C52.7,37.8,52.9,37.8,53,37.6 M54.8,41.3c0.1,0,0.1,0.1,0.2,0v-0.1c0-0.2-0.4-0.1-0.4-0.4
		c-0.1-0.1,0-0.3,0-0.4c0.2-0.1,0.7,0,1,0.1c0.2,0.1,0.4,0.1,0.6,0.1s0.3-0.1,0.1-0.3c-0.1-0.1-0.1-0.3-0.2-0.4
		c-0.1-0.1-0.3-0.2-0.3,0c-0.1,0.4-0.2,0.3-0.4,0.2c-0.5-0.1-0.5-0.1-0.7,0.3c-0.1,0-0.1,0-0.2-0.1c-0.2-0.3-0.4,0.1-0.6,0.1
		c-0.1-0.1-0.1,0.1-0.2,0.2c-0.1,0-0.3,0.1-0.3-0.1c-0.1-0.3,0.3-0.1,0.3-0.4c-0.1-0.1-0.1-0.1-0.3-0.1c-0.3,0.1-0.4,0.1-0.2-0.3
		c0-0.1-0.1-0.2-0.2-0.2c-0.1-0.1-0.2,0-0.2,0.1c-0.1,0.2,0,0.4-0.1,0.7c-0.1,0.1,0.2,0.3,0.3,0.4c0.4,0.6,0.4,0.6,1,0.4h0.1
		c0.1,0.1,0.2,0.2,0.4,0c0.1-0.1,0.1-0.4,0.4-0.3C54.8,40.9,54.6,41.1,54.8,41.3 M52.3,57.5c0,0.1,0,0.1,0.1,0.1
		c0.1,0,0.4,0.1,0.5-0.4C52.7,57.4,52.5,57.4,52.3,57.5 M52.6,42.9c-0.1,0.1-0.1,0.1-0.2-0.1c0.1,0,0.1-0.1,0.1-0.1
		C52.6,42.8,52.6,42.9,52.6,42.9 M52.6,34.4c-0.1,0.1-0.3,0.1-0.3,0.3c0,0.1,0.1,0.1,0.1,0.1c0.2,0,0.3-0.1,0.3-0.2
		C52.8,34.4,52.7,34.4,52.6,34.4 M52.3,34.1C52.3,34.1,52.4,34.1,52.3,34.1c0.1,0,0.1,0,0.1-0.1c0-0.1-0.1-0.1-0.1-0.1
		C52.3,34,52.3,34,52.3,34.1 M53,33.3c0.1,0.2,0.1,0.3,0.3,0.1c0.1-0.1,0.2-0.2,0.4-0.1c0.1,0.1,0,0.2-0.1,0.3
		c-0.1,0.1,0,0.2,0.1,0.3c0.1,0.1,0.1-0.1,0.2-0.1c0.3-0.2,0.1-0.5,0.1-0.8c0-0.4,0-0.5-0.4-0.5c-0.2-0.1-0.2-0.1-0.2-0.3
		c0-0.1-0.1-0.1-0.2-0.1c-0.1,0.1-0.1,0.1-0.1,0.2c0.2,0.3,0.1,0.3-0.1,0.4h-0.4c-0.1,0-0.2,0.1-0.3,0.2c0,0.1,0,0.2,0.1,0.4
		c0.1,0.1,0.2,0,0.4-0.1c0.1,0,0.1-0.1,0.2-0.1C53.1,33.1,53,33.2,53,33.3 M52.4,23.1c-0.1,0-0.1,0.1-0.1,0.1c0,0.1,0.1,0.1,0.1,0.1
		c0.1,0.1,0.1,0,0.1-0.1C52.5,23.2,52.5,23.2,52.4,23.1 M52.3,50.3c-0.1,0.3,0.4,0.2,0.4,0.5c-0.1,0,0,0.1,0,0.1
		c0.1,0,0.1,0.1,0.1,0.1c0.1-0.1,0.1-0.1,0.1-0.1c-0.2-0.4,0.1-0.5,0.3-0.8C52.4,50.2,52.3,50.2,52.3,50.3 M52.6,45.7
		c0-0.2-0.1-0.4-0.3-0.3c-0.2,0-0.1,0.1-0.1,0.3c0.1,0.1,0,0.1,0,0.2c0,0.2,0.1,0.3,0.3,0.3c0.2,0,0.2-0.1,0.1-0.3V45.7z M52.3,47
		L52.3,47L52.3,47C52.3,47.1,52.3,47.1,52.3,47C52.3,47,52.3,47,52.3,47 M52.3,56.8c-0.1,0-0.2,0.1-0.1,0.1c0,0.1,0.1,0.1,0.1,0.1
		C52.4,57.1,52.4,57,52.3,56.8L52.3,56.8z M52.2,14.2C52.2,14.2,52.1,14.3,52.2,14.2c0,0.1,0.1,0.1,0.1,0.1l0.1-0.1
		C52.3,14.2,52.3,14.2,52.2,14.2 M52.3,45C52.3,45,52.2,45,52.3,45c-0.1-0.1-0.1,0-0.1,0C52.2,45,52.2,45.1,52.3,45
		C52.3,45.1,52.3,45,52.3,45 M52.3,26.2c-0.1,0-0.2,0.1-0.2,0.3c0,0.1,0,0.3,0.1,0.4c0.2,0,0.2-0.1,0.2-0.3
		C52.5,26.4,52.6,26.3,52.3,26.2 M52.3,43.3c0.1,0.1,0.2,0.1,0.1,0.2c-0.1,0.1-0.2,0.1-0.1,0.3c0.1,0.1,0.2,0.1,0.4,0.1
		c0.3-0.1,0.5-0.1,0.8,0c-0.1-0.3-0.3-0.4-0.4-0.5c-0.1-0.1-0.1-0.1-0.1-0.1c0.4-0.4-0.2-0.4-0.4-0.7c0,0-0.1,0.1-0.1,0.1
		c-0.1,0-0.1,0.1-0.1,0.1C52,43,52.1,43.2,52.3,43.3 M52.2,54.6c0.1,0.1,0.2,0.1,0.2,0c0-0.3,0.3-0.2,0.4-0.4c0.1,0,0.3-0.1,0.1-0.3
		c-0.1-0.1-0.1-0.1-0.3,0C52.5,54,52.3,54.2,52,54C52,54.3,52.1,54.5,52.2,54.6 M52,33.5C52,33.5,52,33.6,52,33.5
		c0.1,0.1,0.1,0.1,0.3,0.1C52.3,33.5,52.1,33.4,52,33.5 M51.9,20.3c0,0.1,0.1,0.1,0.1,0.1c0,0,0.1,0,0.1-0.1S52,20.1,51.9,20.3
		C52,20.2,51.8,20.2,51.9,20.3 M52,18.4c0.1,0,0.1,0,0.1-0.1S52,18.2,52,18.2c-0.1,0-0.1,0-0.1,0.1C51.8,18.4,51.9,18.4,52,18.4
		 M51.8,51.1c0,0-0.1,0.1-0.1,0.1s0.1,0.1,0.1,0.1c0.1,0,0.1,0,0.1-0.1C52,51.2,51.9,51.1,51.8,51.1 M52,31c0-0.1-0.1-0.1-0.1-0.2
		c-0.1,0-0.1,0.1-0.1,0.1c0,0.1,0.1,0.1,0.1,0.2C52,31.1,52,31,52,31 M51.9,22.3c-0.1,0-0.2,0.1-0.2,0.1c0.1,0.2,0.1,0.4,0.4,0.5
		c0.1,0,0.2-0.1,0.2-0.3C52.3,22.5,52,22.3,51.9,22.3 M51.8,55.9c-0.1,0-0.2-0.1-0.2,0.1c0,0.1,0.1,0.2,0.2,0.3
		c0.3,0.1,0.5-0.2,0.5-0.5c0-0.1-0.1-0.1-0.1-0.1C52,55.6,52,55.9,51.8,55.9 M51.8,39.6c0-0.1-0.1-0.1-0.1-0.1c0,0-0.1,0-0.1,0.1
		C51.6,39.7,51.7,39.7,51.8,39.6C51.8,39.7,51.8,39.7,51.8,39.6 M51.7,61.4c-0.1,0-0.1,0.1-0.1,0.1c0,0.1,0.1,0.1,0.1,0.1
		c0.1-0.1,0.1-0.1,0.1-0.2C51.8,61.4,51.7,61.4,51.7,61.4 M51.7,45L51.7,45c-0.1-0.1-0.1-0.1-0.1,0C51.5,45,51.5,45.1,51.7,45
		L51.7,45z M51.8,57.8c-0.1-0.1-0.1-0.1-0.1-0.2c0-0.1-0.1-0.1-0.2-0.1c-0.1,0.2,0.3,0.1,0.2,0.3c0,0.1,0.1,0.1,0.1,0.1V57.8z
		 M51.6,17.8h-0.1C51.4,18,51.5,18,51.6,18C51.6,18,51.7,18,51.6,17.8C51.7,17.8,51.7,17.8,51.6,17.8 M51.5,55.1
		c-0.1,0-0.1,0.1-0.1,0.2c0,0.1,0.1,0.1,0.2,0.1c0.1,0,0.1-0.1,0.1-0.2C51.7,55.1,51.6,55.1,51.5,55.1 M52,48.6
		c-0.2,0.1-0.4,0.2-0.5,0.3c-0.1,0-0.1,0.1-0.1,0.2c0.1,0.1,0.1,0.1,0.3,0c0.1-0.1,0.3,0,0.4-0.2c0.1,0,0.1-0.1,0.1-0.2
		C52.2,48.6,52.1,48.6,52,48.6 M51.3,11.7c0.1,0.2,0.2,0.4,0.5,0.2c0.4-0.1,0-0.4,0-0.7C51.6,11.4,51.2,11.3,51.3,11.7 M51.8,53.1
		c-0.2,0-0.1,0.4-0.4,0.3c-0.1,0-0.1,0.1-0.1,0.1c0.1,0.1,0.1,0.3,0.1,0.4C51.4,53.6,51.9,53.5,51.8,53.1 M51.4,28.6
		c-0.1,0-0.1,0-0.1,0.1c-0.1,0.1-0.1,0.1,0,0.1c0.1,0,0.1,0,0.2-0.1C51.5,28.7,51.5,28.7,51.4,28.6 M51.7,37.5c0-0.1,0-0.1-0.1-0.2
		c-0.2-0.1-0.3,0.1-0.4,0.3C51.4,37.6,51.6,37.7,51.7,37.5 M51.3,23c-0.1,0-0.1,0.1-0.1,0.1c0,0.1,0.1,0.1,0.1,0.1
		c0.1-0.1,0.1-0.1,0.1-0.1C51.4,23,51.4,23,51.3,23 M51.2,16.8c0,0.2,0.2,0.2,0.4,0.2c0.1,0,0.2-0.1,0.2-0.2c0-0.2-0.1-0.2-0.3-0.2
		C51.3,16.6,51.2,16.7,51.2,16.8 M51.2,62.5c-0.1,0-0.1,0.1-0.1,0.1c0,0,0,0.1,0.1,0.1c0.1,0,0.1-0.1,0.1-0.1
		C51.2,62.5,51.2,62.5,51.2,62.5 M51.5,16.1c0-0.1-0.1-0.1-0.1-0.1c-0.1,0-0.3,0-0.3,0.2c0,0.1,0.1,0.1,0.1,0.1
		C51.4,16.3,51.5,16.3,51.5,16.1 M51.2,29.1c-0.1,0-0.1,0-0.1,0.1c0,0.1,0,0.1,0.1,0.1C51.2,29.3,51.2,29.3,51.2,29.1
		C51.2,29.1,51.2,29.1,51.2,29.1 M51.2,62c-0.1,0.1-0.1,0.1-0.1,0.1c-0.1,0.1,0,0.1,0.1,0.1C51.2,62.2,51.2,62.2,51.2,62L51.2,62z
		 M51.1,52.4c0,0.1,0,0.3,0.2,0.1c0.1-0.1,0.2-0.1,0.2-0.3c0.1,0,0.3,0.1,0.4-0.1c0-0.1,0-0.1-0.1-0.1c-0.2-0.1-0.2,0.1-0.3,0.3
		c-0.1-0.1-0.2-0.1-0.4,0C50.9,52.3,50.9,52.3,51.1,52.4 M51.2,60.3c-0.1,0-0.3,0-0.3,0.1c0,0.1,0.1,0.1,0.1,0.2
		c0.1,0,0.2-0.1,0.3-0.2C51.4,60.4,51.3,60.3,51.2,60.3 M50.9,56.2c-0.1,0-0.1,0.1-0.1,0.1c0,0.1,0.1,0.1,0.1,0.1
		c0.1,0,0.1,0,0.1-0.1C51,56.3,51,56.2,50.9,56.2 M50.8,35.1c0,0.1,0.1,0.2,0.2,0.2c0.1,0,0.3,0,0.3-0.2c0-0.1-0.1-0.3-0.3-0.3
		C50.9,34.8,50.8,35,50.8,35.1 M51,54.9c-0.2,0-0.3,0.1-0.4,0.3c0,0.1,0,0.2,0.1,0.1c0.1-0.1,0.4-0.1,0.4-0.2
		C51.1,55,51.1,54.9,51,54.9 M50.8,54.2c-0.1,0-0.1,0-0.1,0.1c0,0.1,0,0.1,0.1,0.1c0.1,0,0.1-0.1,0.2-0.2
		C50.9,54.2,50.9,54.2,50.8,54.2 M50.9,32.7C51,32.7,50.9,32.6,50.9,32.7c-0.2-0.1-0.3,0-0.3,0.1c0,0.1,0.1,0.1,0.1,0.1
		C50.9,32.8,50.9,32.8,50.9,32.7 M50.9,56.7c-0.1,0.1-0.3-0.2-0.4,0v0.1c0.1,0.2,0.3,0.1,0.4,0.1c0,0,0.1-0.1,0.2-0.1
		C51,56.8,50.9,56.7,50.9,56.7 M50.6,39.9c-0.1,0.1-0.1,0.1-0.1,0.1c0,0.1,0.1,0.1,0.1,0.1C50.6,40.1,50.6,40.1,50.6,39.9
		C50.6,40,50.6,40,50.6,39.9 M50.6,16.4h-0.1C50.5,16.4,50.5,16.4,50.6,16.4L50.6,16.4L50.6,16.4z M50.9,12.3
		c-0.1-0.1-0.4,0.2-0.4,0.4c0,0.2,0.1,0.2,0.2,0.2c0.2,0,0.3-0.1,0.3-0.3C51,12.4,50.9,12.3,50.9,12.3 M50.6,61.1
		c-0.1-0.1-0.1,0-0.1,0.1c-0.1,0.1,0.1,0.5,0.3,0.5c0.2,0.1,0.4,0,0.4-0.2v-0.2c0.2-0.1,0.4,0.1,0.6,0c-0.1-0.5-0.1-0.5-0.6-0.3
		C51,60.9,50.9,61.2,50.6,61.1 M50.5,57.7L50.5,57.7c-0.1,0-0.1,0.1-0.1,0.1c0,0.1,0.1,0.1,0.1,0.1C50.5,57.7,50.5,57.7,50.5,57.7
		 M50.9,26.1c0-0.1-0.1-0.1-0.2-0.1c-0.1,0-0.3,0-0.3,0.1c0,0.2,0.1,0.2,0.2,0.2C50.7,26.3,50.9,26.3,50.9,26.1 M50.3,45.9
		c-0.1-0.1-0.1,0.1-0.1,0.1c0.1,0.3,0.4,0.3,0.6,0.2c0.3-0.1,0.1-0.4,0.1-0.6C50.7,45.7,50.6,46.1,50.3,45.9 M50.3,35.5
		c-0.1,0-0.1,0.1-0.1,0.1c0,0.1,0.1,0.1,0.1,0.1c0.1,0,0.1-0.1,0.2-0.1C50.5,35.5,50.5,35.5,50.3,35.5 M50.3,20.2
		c-0.1,0-0.2-0.1-0.2,0.1c-0.1,0.2,0.1,0.1,0.2,0.2c0.1,0.1,0.1,0,0.2-0.1C50.6,20.3,50.5,20.2,50.3,20.2 M50.3,36.5
		c-0.1-0.1-0.2-0.1-0.3,0.1c0,0.1,0.1,0.1,0.2,0.1c0.1,0.1,0.2,0.1,0.3-0.1C50.6,36.6,50.5,36.5,50.3,36.5 M50.9,48.6
		c-0.3-0.1-0.5-0.1-1,0C50.6,49.1,50.6,49.1,50.9,48.6 M50.8,59.3c-0.1-0.1,0-0.2,0.1-0.3c0.2-0.2,0.1-0.4-0.1-0.5
		c-0.2-0.1-0.4,0-0.5,0c-0.3,0.1-0.4,0.3-0.4,0.6c0.1,0.2,0.3,0.4,0.6,0.4C50.5,59.3,50.8,59.6,50.8,59.3 M50.1,49.5
		c-0.1-0.1-0.2-0.1-0.3,0.1c-0.1,0.1,0,0.1,0.1,0.1c0.1,0,0.2,0,0.3-0.1C50.2,49.5,50.1,49.5,50.1,49.5 M49.8,46.6
		c-0.1,0.1-0.1,0.1,0,0.2c0.2,0.2,0.4,0,0.7-0.1C50.2,46.6,50,46.4,49.8,46.6 M49.9,50.5c-0.1,0-0.1,0.1-0.1,0.1
		c0,0.1,0.1,0.1,0.2,0.1c0.1,0.1,0.1,0,0.1-0.1C50.1,50.6,50,50.5,49.9,50.5 M49.6,52.4c0,0.1,0,0.1,0.1,0.1c0,0.1,0.1,0.1,0.1,0.1
		c0.1-0.1,0-0.1-0.1-0.1C49.7,52.4,49.7,52.3,49.6,52.4 M49.7,32.5c-0.1,0.1-0.1,0.1-0.1,0.1s0.1,0.2,0.2,0.2c0.1,0,0.1-0.1,0.1-0.1
		C49.9,32.6,49.8,32.5,49.7,32.5 M49.9,11.6c0-0.1-0.1-0.1-0.1-0.1s-0.1,0.1-0.1,0.1c0,0.1,0.1,0.1,0.1,0.1S49.9,11.6,49.9,11.6
		 M50,37.4c-0.1-0.1-0.2-0.1-0.4,0c-0.1,0.1-0.1,0.2,0,0.3c0,0.1,0.1,0.1,0.2,0.1h0.7c0.1,0.1-0.1,0.5,0.1,0.4
		c0.3-0.1,0.6,0.2,0.7-0.1c0.1-0.2-0.2-0.4-0.4-0.5c-0.1-0.1-0.1-0.1-0.3-0.2c-0.1-0.1-0.1,0-0.2,0.1C50.3,37.8,50.1,37.5,50,37.4
		 M49.7,45.8c-0.1,0-0.2,0.1-0.2,0.2c0,0.1,0.1,0.1,0.1,0.2c0.1,0,0.2-0.1,0.2-0.3C49.8,45.9,49.8,45.8,49.7,45.8 M49.5,12.1
		C49.5,12.1,49.4,12.1,49.5,12.1c-0.1,0.1-0.1,0.1,0,0.1C49.5,12.2,49.5,12.2,49.5,12.1C49.6,12.2,49.6,12.1,49.5,12.1 M49.4,61.8
		L49.4,61.8l-0.1-0.1v0.1C49.4,61.9,49.4,61.9,49.4,61.8 M49.4,43.6c-0.1-0.1-0.1,0-0.1,0.1c0,0.1,0.1,0.1,0.1,0.1
		c0.1,0,0.1,0,0.2-0.1C49.6,43.6,49.5,43.6,49.4,43.6 M49.3,17.7c0,0.1,0,0.2,0.2,0.4c0.2,0.1,0.4,0.5,0.9,0.4
		c0.1-0.1,0.3,0.1,0.4,0.2c0.1,0.1,0.1,0.3,0.4,0.1c0.1-0.1,0.2-0.3,0-0.4c-0.1-0.1-0.1-0.1-0.1-0.3c0-0.3-0.1-0.3-0.4-0.2
		c-0.2,0.1-0.4,0.1-0.5-0.1c-0.1-0.3-0.2-0.3-0.4-0.3C49.5,17.5,49.4,17.5,49.3,17.7 M50.1,29.9c0.2-0.1,0.5-0.1,0.2-0.4
		c0.1-0.4,0-0.6-0.1-0.5c-0.3,0.2-0.6,0.1-1,0.2c0.2,0.2,0.4,0.1,0.6,0.1c0.1,0,0.3,0.2,0.5,0.1C50.4,29.6,50.1,29.6,50.1,29.9
		 M49.2,60.5c0,0.1,0.1,0.1,0.1,0.1c0.1-0.1,0.2-0.1,0.2-0.3c0,0,0-0.1-0.1-0.1C49.3,60.4,49.2,60.4,49.2,60.5 M49.7,36.5
		c-0.1-0.3-0.4-0.1-0.6-0.1c0.1,0.3,0.3,0.4,0.3,0.6C49.7,36.9,49.9,36.7,49.7,36.5 M49.6,26.6c0.2-0.1,0.4-0.2,0.4-0.4
		c0.1,0,0.1-0.1,0-0.1c-0.1-0.1-0.2-0.1-0.3-0.1c0,0.3-0.3,0.3-0.4,0.4c-0.1,0.1-0.2,0.1-0.1,0.4C49.3,26.7,49.4,26.7,49.6,26.6
		 M49.3,16.4c-0.2,0.1-0.2,0.1-0.1,0.3c0.1,0.2,0.1-0.1,0.2-0.1c0.4,0.1,0.4-0.3,0.7-0.4C49.8,16.4,49.5,16.2,49.3,16.4 M49,13.2
		c0.2,0.2,0.4,0.4,0.7,0.7c0,0.1,0.1,0.1,0.2,0c0-0.1,0.1-0.1,0-0.1c-0.1-0.3-0.1-0.7-0.4-1c-0.1-0.1-0.1-0.1-0.2-0.1
		C49,12.7,48.9,13.1,49,13.2 M49.9,31.3c0.1-0.2,0-0.4-0.1-0.5c-0.1-0.1-0.4-0.4-0.7-0.3c-0.3,0.1-0.1,0.4-0.1,0.7
		C49.3,31,49.6,31.3,49.9,31.3 M48.9,58.8C48.9,58.8,48.9,58.8,48.9,58.8L48.9,58.8C49,58.8,49,58.8,48.9,58.8L48.9,58.8z
		 M48.9,42.3c-0.1,0.1,0,0.2,0.1,0.2c0.1,0,0.3,0,0.3-0.2c0-0.1-0.1-0.2-0.3-0.2C48.9,42.1,48.9,42.1,48.9,42.3 M48.7,50.1
		c-0.1,0.1,0,0.1,0.1,0.2c0,0,0.1-0.1,0.1-0.1c0-0.1-0.1-0.1-0.1-0.1C48.7,49.9,48.7,50,48.7,50.1 M48.6,13.5
		c-0.1,0-0.1,0.1-0.1,0.1c-0.1,0.1-0.1,0.2,0.1,0.3c0.1,0,0.1-0.1,0.2-0.3C48.8,13.6,48.8,13.5,48.6,13.5 M48.7,56.5
		c-0.1,0-0.2,0.1-0.2,0.1c0,0.1,0.1,0.2,0.2,0.2c0.1-0.1,0.2-0.1,0.3-0.2C48.9,56.5,48.8,56.5,48.7,56.5 M48.5,59.6
		c-0.1,0-0.1,0-0.1,0.1s0,0.1,0.1,0.1C48.5,59.7,48.5,59.7,48.5,59.6L48.5,59.6z M48.5,36.5c-0.1,0-0.1,0.1-0.1,0.1l0.1,0.1
		c0.1,0,0.2,0,0.2-0.1C48.6,36.5,48.6,36.5,48.5,36.5 M48.4,37.9c-0.1,0-0.1,0-0.2,0.1c0,0.1,0,0.2,0.1,0.2c0.1,0,0.2-0.1,0.2-0.1
		C48.6,37.9,48.6,37.9,48.4,37.9 M48.3,39.6c-0.2,0-0.2,0.1-0.2,0.3c-0.1,0.2,0.1,0.2,0.2,0.2h0.4c0.1,0,0.1,0,0.1,0.1
		c0.1,0.4,0.4,0.4,0.7,0.6c0.1,0.1,0.4,0.4,0.4-0.1c0-0.1,0.1-0.1,0.2,0c0.1,0.1,0.3,0.3,0.4,0.4c0.1,0.1,0.2,0.2,0.4,0.2
		c0.1-0.1,0.1-0.1,0.2-0.1c0-0.1,0-0.2-0.1-0.2c-0.2,0-0.4-0.1-0.4-0.4c-0.1-0.3-0.4-0.4-0.7-0.5c-0.1-0.1-0.3-0.1-0.4-0.1
		c-0.3-0.3-0.7-0.2-1-0.4H48.3z M48.4,40.5c-0.1-0.1-0.3-0.3-0.4-0.1c-0.1,0.2,0.1,0.3,0.2,0.4c0.2,0.1,0.4,0,0.6-0.1
		C48.6,40.6,48.5,40.5,48.4,40.5 M48.1,16.1c-0.1,0-0.1,0.1-0.2,0.1c0,0.1,0.1,0.1,0.1,0.1c0.1,0.1,0.2-0.1,0.3-0.1
		C48.3,16.2,48.2,16.1,48.1,16.1 M48,12c0-0.1-0.1-0.1-0.1-0.1c-0.1,0.1-0.1,0.1-0.1,0.1c0.2,0.2,0.2,0.4,0.4,0.7
		C48.4,12.4,48.2,12.2,48,12 M48,55.2c0.1-0.1,0.2-0.2,0.1-0.4H48c-0.1,0-0.2,0.1-0.3,0.4c0,0.1,0,0.1,0.1,0.1
		C48,55.3,48,55.3,48,55.2 M48.5,47.3c-0.1-0.1-0.4-0.2-0.6-0.1c-0.1,0.1-0.1,0.2-0.1,0.4c0.1,0.1,0.3-0.1,0.4,0
		c-0.1,0.4,0.1,0.7,0.1,1c0,0.1,0.2,0.1,0.4,0.2c0.2,0,0.4-0.1,0.5-0.1c0.4,0,0.3-0.3,0.3-0.5c0-0.3-0.2-0.3-0.4-0.3
		c-0.3,0.1-0.6,0-0.7-0.4C48.4,47.4,48.6,47.3,48.5,47.3 M47.7,45.9c-0.1,0-0.1,0.1,0,0.1c0.1,0.1,0.2,0.1,0.5,0
		C48,46.1,47.8,45.9,47.7,45.9 M47.4,50.8c0.1,0.1,0.1,0.2,0.2,0.2c0.1-0.1,0.2-0.1,0.2-0.3c0-0.1-0.1-0.1-0.3-0.1
		C47.4,50.5,47.4,50.6,47.4,50.8 M47.5,15.1c-0.4,0.1-0.4,0.4-0.5,0.7C47.4,15.6,47.4,15.4,47.5,15.1 M46.6,15.8
		c0.1,0.1,0,0.3,0.2,0.4C46.9,15.9,46.9,15.8,46.6,15.8 M46.6,12.2c-0.2,0.1-0.1,0.2-0.1,0.4c0,0.1,0,0.3,0.1,0.3
		c0.2,0,0.2-0.1,0.2-0.4C46.8,12.4,46.8,12.2,46.6,12.2 M46.2,15.3c-0.1,0.1,0.1,0.1,0.1,0.1c0.1,0,0.3-0.1,0.3-0.2
		c0-0.1-0.1-0.1-0.2-0.1C46.3,15.1,46.2,15.2,46.2,15.3 M46.8,13.9c0-0.1-0.1-0.1-0.2-0.1c-0.1-0.1-0.3,0-0.4,0.1
		c-0.1,0.1,0,0.2,0.1,0.2c0.1,0.1,0.2,0.3,0.5,0.4V13.9z M46,11.6C46,11.6,46,11.7,46,11.6c-0.1,0.1,0,0.1,0.1,0.1L46,11.6
		C46.1,11.6,46,11.5,46,11.6 M45.5,15.7c0,0.2,0.2,0.2,0.3,0.2C46,16,46,15.8,46,15.8c0-0.1-0.1-0.2-0.2-0.2
		C45.6,15.5,45.5,15.6,45.5,15.7 M45.2,12.1C45.2,12.1,45.1,12.1,45.2,12.1c-0.1,0-0.1,0.1-0.1,0.1s0.1,0,0.1,0.1V12.1z M45.1,11.8
		h0.1c0.1,0,0.2,0,0.1-0.1c0-0.1-0.1-0.1-0.2-0.1c-0.1,0-0.1,0.1-0.2,0.2C45.1,11.6,45.1,11.8,45.1,11.8 M44.4,12.4l0.1-0.1
		c-0.1-0.3-0.3-0.1-0.5-0.1C44,12.3,44.2,12.4,44.4,12.4 M43.7,12.1c-0.1,0-0.2,0-0.2,0.1c-0.1,0.2,0,0.3,0.3,0.4
		C43.7,12.4,43.8,12.2,43.7,12.1 M45.2,13.5c-0.6,0-1.2-0.1-1.8-0.1c-0.1,0-0.3,0-0.3,0.1c0,0.2,0.1,0.1,0.3,0.1h1
		c0.2,0,0.4,0,0.5,0.3c0.1,0.1,0.2,0.3,0.4,0.2c0.1-0.1,0.2-0.2,0.2-0.4S45.5,13.5,45.2,13.5 M42.6,12.7c0,0.1,0,0.1,0.1,0.1
		c0.1,0,0.2-0.1,0.2-0.2c0-0.1,0-0.1-0.1-0.2C42.7,12.4,42.6,12.5,42.6,12.7 M43,14.7c0.1,0.1,0.4,0.1,0.4-0.1
		c0.1-0.3,0.3-0.2,0.5-0.2c0.1-0.1,0.1-0.1,0.1-0.2c0-0.1-0.1-0.1-0.2-0.1c-0.4,0-0.7,0-1.1-0.1c-0.1-0.1-0.2,0-0.2,0.1
		c0,0.1,0.1,0.2,0.1,0.2h0.3c0.1,0.1,0,0.1,0,0.1C42.8,14.5,42.9,14.6,43,14.7 M42,13.2c0,0.2,0.2,0.4,0.4,0.4
		c0.2-0.1,0.3-0.1,0.3-0.3c0-0.2-0.1-0.2-0.4-0.2C42.2,13.1,42,13,42,13.2 M41.8,14c-0.1,0.1-0.1,0.1-0.1,0.1
		c0.1,0.3,0.2,0.2,0.4,0.1C42.1,14.1,42,13.9,41.8,14 M41.4,12.6c0.1,0.1,0.2,0.1,0.4,0c0.1-0.1,0.1-0.2,0.1-0.3
		c-0.1-0.1-0.2,0-0.4,0c-0.1,0-0.1,0-0.2,0.1C41.3,12.5,41.4,12.6,41.4,12.6 M40.8,12.4c-0.4-0.1-0.7,0.1-1.1,0.4
		C40.6,13,40.6,13,40.8,12.4 M40,14.1c0.2,0.1,0.4,0.1,0.6-0.1c0.2-0.3-0.1-0.4-0.2-0.5c0.4-0.1,0.7,0.2,1.1,0
		c0.1-0.1,0.2-0.1,0.2-0.2c0-0.1-0.1-0.1-0.3-0.1c-0.1,0-0.2-0.1-0.3,0c-0.6,0.1-1.2,0.4-1.9,0.1c-0.1-0.1-0.1,0-0.2,0.1
		C39.1,13.8,39.7,13.9,40,14.1 M38.8,13.7c0.1-0.1,0.1-0.1,0-0.1c-0.1-0.2-0.4-0.2-0.6-0.1C38.5,13.5,38.6,13.8,38.8,13.7
		 M38.5,12.7c-0.1,0.1-0.3,0.2-0.2,0.4c0.1,0.1,0.3,0.1,0.4,0.1c0.2-0.1,0.4-0.3,0.7-0.4C39,12.5,38.7,12.7,38.5,12.7 M37.6,12.8
		C37.6,12.8,37.6,12.7,37.6,12.8C37.5,12.8,37.4,12.8,37.6,12.8V13C37.7,12.9,37.7,12.9,37.6,12.8 M76.5,10.4c0.4,0,1.1-0.1,1.3,0.4
		c0.3,0.7,0.3,1.4-0.1,2.1c-0.1,0.1-0.2,0.3-0.4,0.4c-0.7,0.6-1.5,1.1-2.4,1.3c-2.7,0.4-5.5,1-8.2,1.6c-2,0.4-4.1,0.7-6.2,0.8
		c-0.4,0-0.9,0.1-1.4,0.1c-0.7,0.1-1,0.5-1,1.3c0,0.6,0.1,1.2,0.1,1.8c0.4,3.1,0.3,6.3,0.2,9.5s-0.3,6.4-0.4,9.6
		c-0.1,1.7-0.4,3.3-0.8,5c-0.6,2.1-1.1,4.4-1.6,6.5c-0.1,0.7-0.4,1.3-0.6,2c-0.7,1.6-1,3.1-1.3,4.7c-0.3,1.9-0.8,3.8-1.7,5.5
		c-0.6,1-0.9,2.2-1.3,3.4c-0.1,0.4-0.2,0.7-0.4,1.1c-0.1,0.2-0.3,0.4-0.5,0.6c-0.2,0.1-0.5,0.3-0.7,0.3c-0.4-0.1-0.3-0.4-0.3-0.7
		c-0.4-2.7-1-5.3-1.5-7.9c-0.1-1.1-0.3-2.2-0.4-3.4c-0.1-1.6-0.4-3.3-0.5-5c-0.1-2.4-0.1-4.9,0.1-7.3c0.3-2.4,0.4-4.7,0.7-7
		c0.2-2.4,0.4-4.7,0.7-7c0.1-0.7,0.1-1.6,0.1-2.4c0.1-3.1,0.3-6.3,0.3-9.5c0-0.1-0.1-0.2,0-0.3c0-0.2-0.1-0.4-0.4-0.4
		c-1.6-0.4-3.2-1.1-4.8-1.7c-0.4-0.1-0.8-0.2-1.3-0.3c-1.3-0.3-2.4-0.7-3.7-1c-0.4-0.1-0.8-0.4-1.2-0.7c-0.4-0.4-0.7-0.7-0.8-1.3
		c-0.1-0.6-0.1-0.7,0.5-0.8h0.3c2.1,0,4.2-0.4,6.3-0.9c1.6-0.3,3.2-0.4,4.8-0.4c0.8,0,1.6-0.1,2.4-0.1c3.5-0.1,7-0.1,10.5-0.1H76.5z
		"/>
	<path class="st0" d="M86,47.9c0,0.1,0.1,0.1,0.1,0.2c0.1,0,0.2-0.1,0.2-0.2c0-0.1-0.1-0.1-0.1-0.1C86.1,47.8,86,47.8,86,47.9
		 M85.9,53.3c-0.1,0-0.2,0-0.3,0.1c-0.1,0.4,0.1,0.5,0.4,0.7h0.1C86.4,53.8,86.2,53.5,85.9,53.3 M85.7,54.7c-0.1,0-0.1,0.1-0.2,0.1
		c0,0.1,0.1,0.2,0.2,0.2c0.1,0,0.1-0.1,0.1-0.1C85.8,54.8,85.8,54.7,85.7,54.7 M85.8,50.4c0.1,0.1,0.3,0.3,0.4,0.4
		c0.1,0.1,0.1,0.3-0.1,0.4c-0.7,0.6-0.7,0.8,0.1,1.3c0.4-1.1,0.3-2.2-0.4-3.2C85.2,49.9,85.2,49.9,85.8,50.4 M85.8,38.1
		c-0.3,0-0.4,0.1-0.4,0.4c-0.1,0.2,0,0.4,0.2,0.4c0.3,0.1,0.4,0,0.5-0.3C86.1,38.3,86,38.2,85.8,38.1 M85,51.9c-0.1,0-0.3,0-0.3,0.1
		c-0.1,0.2,0.1,0.3,0.3,0.3s0.3-0.1,0.3-0.2S85.2,51.9,85,51.9 M85,48.5c-0.2,0-0.3,0.1-0.3,0.4c0,0.2,0.1,0.4,0.4,0.4
		c0.2,0,0.2-0.1,0.2-0.3C85.2,48.7,85.2,48.5,85,48.5 M84.4,49.8c-0.1,0-0.1,0-0.2,0.1c0,0.1,0,0.2,0.1,0.2c0.1,0,0.1-0.1,0.2-0.1
		C84.6,49.9,84.6,49.9,84.4,49.8 M85.2,47.4c0.1,0.1,0.1,0.2,0.3,0.1c0.4-0.4,1-0.2,1.4-0.2c0.4-0.1,0.5-0.2,0.4-0.5
		c-0.1-0.3,0.2-0.8-0.1-1c-0.5-0.3-0.5,0.3-0.7,0.6c-0.4,0.4-0.4,0.4-0.9,0c-0.2-0.2-0.4-0.4-0.7-0.1c-0.1,0.1-0.5,0.1-0.7,0.4
		C84.6,47,84.9,47.1,85.2,47.4 M84.4,43c-0.1,0-0.2,0.1-0.2,0.1c0,0.1,0.1,0.2,0.2,0.2c0.1,0,0.1-0.1,0.1-0.2S84.5,43,84.4,43
		 M85.9,40.8c-0.4-0.1-0.6,0.1-0.8,0.2c-0.7,0.1-0.9,0.2-1,0.7c-0.1,0.4,0,0.5,0.4,0.5h2.2C86.7,41.1,86.6,41,85.9,40.8 M85.8,58.3
		c0.2-0.5,0.4-1,0.5-1.6c0-0.2,0-0.7-0.4-0.8c-0.1,0-0.3,0-0.4,0.1c-0.4,0.3,0.1,0.6,0.1,0.8c-1,0.1-1.1,0.4-0.5,1.3
		c0.1,0.1,0.1,0.2,0.1,0.3c-0.4,0.1-0.6,0.4-0.9,0.6c-0.1,0.1-0.6,0-0.4,0.4c0.1,0.2,0.4,0.1,0.7,0.1c0.4,0,0.7-0.1,0.7-0.6
		c-0.1-0.2-0.1-0.4-0.1-0.6C85.4,58.5,85.7,58.6,85.8,58.3 M84.1,48.2c0-0.1-0.1-0.1-0.1-0.1c-0.1,0.1-0.2,0.1-0.1,0.2
		c0,0.1,0.1,0.1,0.1,0.1C84,48.4,84.1,48.4,84.1,48.2 M83.8,46.6c-0.1,0-0.1,0.1-0.2,0.1c0,0.1,0.1,0.1,0.1,0.1
		c0.1,0.1,0.1,0,0.2-0.1C83.9,46.7,83.8,46.6,83.8,46.6 M83.5,57.2c0.1,0,0.2-0.1,0.2-0.1c0-0.1-0.1-0.3-0.2-0.2
		c-0.1,0-0.1,0.1-0.1,0.2C83.4,57.1,83.5,57.2,83.5,57.2 M83.9,44.2c0-0.1-0.1-0.1-0.1-0.1c-0.4,0.2-0.6,0.5-0.4,0.9
		c0,0.1,0,0.1,0.1,0.1C83.7,44.8,84.1,44.7,83.9,44.2 M82.1,49.8c-0.1,0-0.1,0.1-0.1,0.1c-0.1,0.1,0.1,0.2,0.2,0.2
		c0.1,0,0.1-0.1,0.1-0.2C82.3,49.9,82.2,49.8,82.1,49.8 M79.8,52.6c0,0.1,0.4,0.8,0.4,0.7c0.2-0.1,0.4-0.2,0.4-0.4
		c0-0.4-0.4-0.4-0.6-0.5C79.9,52.4,79.8,52.5,79.8,52.6 M79.2,54.7c0-0.1-0.1-0.2-0.1-0.3c-0.1-0.1-0.3,0-0.3,0.1
		c0,0.2-0.3,0.4-0.3,0.7C78.8,55.2,79,55.1,79.2,54.7 M77,28.1c-0.3,0-0.4,0.1-0.5,0.3c0,0.2,0.1,0.4,0.3,0.4c0.3,0,0.4-0.1,0.5-0.4
		C77.3,28.4,77.2,28.1,77,28.1 M77.2,56.2c0.2-0.1,0.4-0.2,0.2-0.5c-0.1-0.1-0.1-0.3-0.2-0.3c-0.2,0-0.4,0.1-0.4,0.4
		c0,0.2,0,0.4-0.3,0.4c-0.5,0-0.7,0.5-1,0.9C76.1,57.1,76.6,56.6,77.2,56.2 M75.3,29.5c-0.1,0-0.1,0.1-0.1,0.1
		c0,0.1,0.1,0.2,0.2,0.2c0.1-0.1,0.1-0.1,0.1-0.2C75.5,29.6,75.5,29.5,75.3,29.5 M75.2,30.4c-0.1,0-0.2,0.1-0.1,0.2
		c0,0.1,0.1,0.1,0.2,0.1c0.1,0,0.1-0.1,0.1-0.1C75.3,30.4,75.2,30.4,75.2,30.4 M73.8,57.4c0-0.1-0.1-0.2-0.1-0.2
		c-0.1,0-0.2,0.1-0.2,0.2c0,0.1,0.1,0.1,0.2,0.1C73.7,57.5,73.8,57.4,73.8,57.4 M73.8,31.3c-0.2,0.1-0.5,0.2-0.4,0.5
		c0,0.1,0.1,0.1,0.3,0.1c0.3,0,0.4-0.2,0.4-0.4C74,31.4,73.8,31.3,73.8,31.3 M73.1,36c0.1-0.1,0-0.2-0.1-0.2
		c-0.1,0.1-0.3,0.1-0.2,0.4c0,0.1,0.1,0.1,0.1,0.1C73.1,36.2,73.1,36.1,73.1,36 M72.6,54.8c-0.3-0.1-0.4,0.2-0.5,0.4
		c-0.1,0.2-0.1,0.5,0.1,0.7c0.1,0.1,0.2,0.1,0.4,0.1c0.4-0.1,0.2-0.4,0.2-0.6v-0.1C72.7,55.1,72.9,54.8,72.6,54.8 M71.6,39.8
		c-0.1,0-0.2,0.1-0.1,0.1c0,0.1,0.1,0.2,0.1,0.1c0.1,0,0.2-0.1,0.1-0.1C71.8,39.8,71.7,39.7,71.6,39.8 M72.4,33.4
		c0.2,0,0.3,0.1,0.4,0.3c0,0.1,0.1,0.1,0.1,0.2c0.1,0.1,0.3,0.1,0.4,0c0.1-0.1,0.1-0.2,0-0.3c-0.2-0.4-0.1-1-0.8-1.2
		c-0.4-0.1-0.5-0.6-0.2-0.9c0.2-0.1,0.3-0.3,0.4-0.6c0-0.3,0.6-0.1,0.4-0.6L73,30.3c-0.4,0.1-0.3,0.4-0.4,0.7
		c-0.7,0.7-0.7,0.7-0.6,1.6c0.1,0.2,0,0.3-0.1,0.4c-0.1,0.3-0.3,0.5-0.4,0.8c-0.1,0.2-0.1,0.4,0.1,0.4c0.3,0.1,0.6,0.2,0.8,0.4
		c0.1,0.1,0.4,0.1,0.4-0.1c0.1-0.2-0.1-0.3-0.3-0.2c-0.3,0-0.4-0.1-0.4-0.4C72.2,33.7,72.1,33.5,72.4,33.4 M71.3,56.9
		c0.1,0.2,0,0.4,0.3,0.4c0.2-0.1,0.5-0.2,0.4-0.5c-0.1-0.2-0.2-0.4-0.5-0.4C71.4,56.5,71.3,56.8,71.3,56.9 M71.8,54
		c0-0.1,0-0.2-0.1-0.3c-0.4-0.1-0.4,0.1-0.6,0.4v0.1C71.4,54.4,71.6,54.2,71.8,54 M70.9,41.3c0,0.1,0.1,0.1,0.1,0.1
		c0.1,0.1,0.2,0,0.2-0.1c0-0.1-0.1-0.1-0.1-0.1C71.1,41.1,71,41.1,70.9,41.3 M70.7,55.4c0.2-0.1,0.4-0.2,0.3-0.4
		c0-0.2-0.1-0.3-0.4-0.3c-0.1,0-0.3,0.1-0.3,0.4C70.3,55.3,70.5,55.4,70.7,55.4 M70.3,51.9c0,0.1,0.1,0.2,0.2,0.2
		c0.2,0,0.2-0.2,0.2-0.4c0-0.1-0.1-0.2-0.4-0.1C70.3,51.6,70.3,51.7,70.3,51.9 M70.4,37.3c-0.1,0-0.2,0.1-0.2,0.2
		c-0.1,0.3,0.1,0.4,0.3,0.4c0.1,0.1,0.3,0.1,0.4-0.1C70.9,37.6,70.6,37.4,70.4,37.3 M70.3,42.6c-0.1,0-0.2,0.1-0.2,0.2
		c-0.1,0.3,0.1,0.4,0.3,0.4c0.1,0.1,0.3,0.1,0.4-0.1C70.7,42.8,70.5,42.7,70.3,42.6 M69.9,44.5c0,0.2,0.1,0.4,0.3,0.4
		c0.3,0,0.4-0.1,0.4-0.4c0-0.2-0.1-0.4-0.4-0.4C70.1,44.1,69.9,44.2,69.9,44.5 M69.7,35.7L69.7,35.7h0.2c0-0.1-0.1-0.1-0.1-0.1
		S69.8,35.6,69.7,35.7 M69.4,52.2c0,0.2,0.1,0.2,0.4,0.2c0.1,0,0.2,0,0.2-0.1c0.1-0.2-0.1-0.2-0.3-0.3C69.5,52,69.4,52.1,69.4,52.2
		 M69.1,43.5c-0.1,0-0.2,0.1-0.2,0.4c0,0.1,0.1,0.3,0.3,0.3c0.1-0.1,0.2-0.2,0.2-0.4C69.3,43.6,69.3,43.5,69.1,43.5 M68.9,55.7
		c0.1-0.1-0.1-0.2-0.2-0.2c-0.2,0-0.4,0.1-0.4,0.3c0,0.2,0,0.4,0.2,0.4C68.6,56.1,68.8,55.9,68.9,55.7 M68.3,54.7
		c-0.1,0-0.1-0.1-0.1-0.3c0-0.1,0-0.3,0.2-0.3c0.1,0,0.2,0.1,0.2,0.2C68.6,54.5,68.5,54.6,68.3,54.7 M68.3,47.1
		c0.1,0.1,0.2,0,0.2-0.1c0-0.1,0-0.2-0.2-0.2c-0.1,0-0.1,0.1-0.1,0.1C68.2,47.1,68.3,47.1,68.3,47.1 M69.5,47.7
		c-0.4,0.3-0.8,0.1-1.3,0.1c-0.1,0-0.2,0.1-0.1,0.3c0.1,0.2,0.4,0.5,0.7,0.4c0.1-0.1,0.2-0.1,0.3-0.2c0.6-0.2,0.8-0.1,0.8,0.6
		c0,0.1,0.1,0.2,0.2,0.2c0.1,0,0.1-0.1,0.1-0.2c0.1-0.7,0.1-1.3,0.1-2.1C69.8,47,69.8,47.5,69.5,47.7 M68.5,54.9
		c0.6,0.2,0.7,0.1,0.6-0.6c-0.1-0.4-0.1-0.7-0.6-0.7c-0.2,0-0.4-0.1-0.5-0.2c-0.1-0.1-0.2-0.1-0.3-0.1c-0.1,0.1-0.2,0.2-0.1,0.4
		c0.2,0.4,0.2,0.8,0,1.3C67.9,55.1,68.1,54.8,68.5,54.9 M67.6,43.7c-0.1-0.1-0.1,0-0.1,0.1c-0.1,0.1,0,0.1,0.1,0.1
		c0.1,0.1,0.1,0,0.1-0.1C67.8,43.8,67.7,43.7,67.6,43.7 M67.1,38.6c0,0.3,0.2,0.3,0.4,0.3c0.3,0,0.5-0.4,0.4-0.7
		c0-0.2-0.1-0.3-0.4-0.3S67.1,38.3,67.1,38.6 M66.9,52.7c0.1,0.2,0.1,0.3,0.4,0.3c0.3,0,0.7-0.4,0.7-0.5c-0.1-0.2-0.3-0.2-0.4-0.2
		C67,52.2,66.9,52.4,66.9,52.7 M66.6,41.7c-0.1,0-0.2,0.2-0.1,0.4c0,0.1,0,0.3,0.2,0.3c0.2,0,0.2-0.2,0.2-0.4
		C66.9,41.9,66.8,41.7,66.6,41.7 M88.4,44.8c0.1,0.2,0.2,0.5,0.2,0.8c0,1.1,0,2.2-0.3,3.3c-0.7,2.4-0.8,4.7-1,7.1
		c-0.1,0.8-0.1,1.6-0.2,2.4c0,0.3-0.1,0.6,0.1,0.8c0.3,0.2,0.6-0.1,0.9-0.2c0.7-0.4,1.2-0.9,1.7-1.5c0.8-0.9,1.5-1.9,2.1-2.9
		c1.3-2.3,2.5-4.7,3.7-7c1.7-3.6,3.6-7.1,5.2-10.8c0.2-0.6,0.4-1.2,0.7-1.8c0.2-0.6,1.2-0.8,1.6-0.4c0.2,0.2,0.1,0.5,0.1,0.7
		c-0.7,1.8-1.2,3.7-2.1,5.5c-1.8,3.3-3.2,6.8-4.7,10.2c-1.1,2.3-2.3,4.6-3.9,6.6c-1.2,1.6-2.5,2.8-4.1,3.9c-1.9,1.4-4.8,0.3-5.6-1.4
		c-0.5-1.2-1-2.4-1.3-3.7c-0.1-0.3-0.1-0.5-0.2-0.8c-0.1-0.4-0.3-0.4-0.6-0.1c-1,0.8-2.2,1.6-3.3,2.3c-2.5,1.5-5.2,1.7-7.9,0.7
		c-1.9-0.7-3.1-1.9-3.8-3.7c-0.7-1.8-0.9-3.6-1.1-5.5c-0.9-7.4,1.7-13.6,6.6-19.1c0.9-1,1.9-1.8,3-2.4c1.8-0.9,3.5-1,5.3-0.1
		c0.7,0.3,1.4,0.7,2,1.2c0.9,0.6,1.6,1.4,2,2.4c0.3,0.7,0.6,1.6,1,2.2c0.1,0.3,0.3,0.6,0.1,0.9c-0.2,0.3-0.6,0.3-1,0.2
		c-0.9-0.2-1.6-0.8-2.1-1.6c-0.4-0.5-0.7-1-1-1.6c-0.8-1.6-3.1-1.9-4,0.1c-0.1,0.2-0.2,0.5-0.4,0.8c-1.1,2-2.1,4-2.4,6.3
		c-0.3,2.1-1.1,4.1-1.8,6.1c-1,2.9-0.7,5.6,0.7,8.3c1,2.1,2.9,2.4,4.4,0.7c2.3-2.9,4.2-5.9,4.8-9.6c0.1-1.3,0.7-2.5,1.1-3.8
		c0.3-0.8,0.5-1.6,0.6-2.4c0-0.7,0.3-1,1-1.1h0.1c1.9-0.2,2.7-0.1,3,2.1c0.1,0.7,0.1,1.5,0.1,2.4C87.8,42.3,87.8,43.6,88.4,44.8"/>
	<path class="st0" d="M122.4,46.2c0.1-0.4,0.1-0.6-0.1-0.9C122.2,45.6,122.1,45.9,122.4,46.2 M122,39c-0.1,0.1-0.1,0.2,0.1,0.3
		c0.1,0.1,0.3,0.1,0.4,0c0.1-0.2,0.4-0.4,0-0.7C122.3,38.7,122.2,38.9,122,39 M121.3,52.7c0,0.1,0.1,0.2,0.2,0.2
		c0.1,0.1,0.3-0.1,0.2-0.2c0-0.1-0.1-0.2-0.2-0.2C121.4,52.5,121.3,52.6,121.3,52.7 M122.1,45c0.1,0,0.3-0.1,0.1-0.3
		c-0.1-0.1-0.2,0-0.3,0.1c-0.2-0.1-0.1-0.4-0.1-0.5c-0.1-0.1-0.1-0.3-0.3-0.2c-0.2,0-0.2,0.2-0.2,0.4c0,0.4,0.4,0.1,0.6,0.3
		C121.9,44.9,121.9,45.1,122.1,45 M121.4,48.2c-0.1-0.1-0.2,0-0.1,0.1c0,0.1,0.1,0.1,0.2,0.1c0.1,0.1,0.1,0,0.1-0.1
		C121.6,48.2,121.6,48.2,121.4,48.2 M121.3,38.8c-0.1,0-0.1,0.1-0.1,0.1c0,0.1,0.1,0.2,0.2,0.2c0,0,0.1-0.1,0.1-0.2
		C121.4,38.9,121.4,38.8,121.3,38.8 M121,47.4c0,0.1,0.1,0.2,0.2,0.2c0.1,0,0.2-0.1,0.1-0.2c-0.1-0.1-0.1-0.1-0.3-0.2
		C121.1,47.3,121,47.4,121,47.4 M121.4,31.3c-0.2,0-0.7-0.1-0.7,0.3c0,0.4,0.4,0.1,0.6,0.3c0.1,0.1,0.2,0.1,0.4,0
		C121.6,31.8,122,31.3,121.4,31.3 M121,45.9c-0.1-0.1-0.3-0.1-0.4,0.1c0,0.2,0.2,0.2,0.3,0.1c0.2,0,0.4,0.1,0.6-0.1
		C121.4,45.8,121.2,46,121,45.9 M121,36.8c-0.2,0-0.3,0.1-0.3,0.4s0.1,0.4,0.3,0.3c0.3,0,0.2-0.2,0.3-0.4
		C121.3,36.9,121.1,36.8,121,36.8 M120.6,35.6c-0.1,0-0.1,0.1-0.1,0.2c0,0.1,0,0.1,0.1,0.1c0.1,0,0.1-0.1,0.2-0.1
		C120.8,35.7,120.8,35.6,120.6,35.6 M120.4,55.1c0,0.1,0.1,0.1,0.1,0.1c0.1,0,0.2-0.1,0.2-0.1c0.1-0.1,0-0.1-0.1-0.2
		C120.5,55,120.4,55.1,120.4,55.1 M120.2,38.7c0,0.3,0,0.5,0.3,0.7c0.1,0.1,0.2,0,0.2-0.1c0.1-0.2-0.1-0.7-0.4-0.7
		C120.3,38.6,120.2,38.6,120.2,38.7 M120.2,52.4c0.4,0.4,0.7,0.4,1-0.1C120.8,52.2,120.5,52.2,120.2,52.4 M120.3,43.4
		c0,0.3,0.2,0.4,0.7,0.4c-0.3-0.6-0.2-1.3-0.8-1.6C120.3,42.6,120.3,43,120.3,43.4 M121.8,33.9c0.1,0,0.3,0,0.3-0.1
		c0-0.1-0.1-0.2-0.2-0.3c-0.6-0.1-1.1,0-1.7,0c-0.1,0-0.1,0.1-0.1,0.2c0,0.1,0.1,0.2,0.2,0.2h0.8H121.8z M120.8,41.3
		c0,0.7,0.1,1.1,0.8,1.3c0.1,0.1,0.3,0,0.3,0.1c0,0.3,0.1,0.3,0.4,0.1c0.5-0.4,0.6-0.4,0.5-1c0-0.5-0.1-1-0.1-1.5
		c0-0.1,0-0.4-0.1-0.3c-0.4,0.1-0.7-0.1-1-0.4c-0.1-0.1-0.2-0.1-0.3,0c-0.1,0.1,0,0.1,0,0.2c0.1,0.6,0.1,0.7-0.4,0.7h-0.6
		c-0.1,0-0.3,0.2-0.2,0.3c0.4,0.1,0.3,0.4,0.2,0.6c-0.1,0.1,0,0.3,0.1,0.4c0.1,0,0.1,0,0.1-0.1c0.2-0.1,0.1-0.2,0.1-0.4
		c-0.4-0.3-0.1-0.4,0.1-0.4C120.7,41.1,120.8,41.2,120.8,41.3 M119.8,35.2c-0.1,0.1-0.1,0.1-0.1,0.2c0,0.1,0.1,0.2,0.2,0.1
		c0.1,0,0.1-0.1,0.1-0.1C119.9,35.3,119.9,35.2,119.8,35.2 M119.6,45c0.4,0.3,0.4-0.3,0.6-0.1C120.1,45,119.8,44.8,119.6,45
		 M119.7,29.2c-0.1,0.4-0.4,0.7,0,1C119.9,29.9,119.9,29.6,119.7,29.2 M119.6,57.8c-0.1,0-0.1,0.1-0.1,0.1h0.1
		c0.1,0,0.1-0.1,0.1-0.1C119.6,57.8,119.6,57.8,119.6,57.8 M119.8,56.3c-0.1,0.1-0.2,0.1-0.3,0.3c0,0,0.1,0.1,0.1,0.1
		c0.1,0.1,0.3,0,0.3-0.1C119.9,56.4,119.9,56.3,119.8,56.3 M120.2,49.4c0.1-0.1,0.1-0.3,0-0.4c-0.3-0.2-0.4,0.1-0.7,0.3
		C119.7,49.3,119.9,49.8,120.2,49.4 M119.5,54.8c-0.1,0-0.2,0-0.1,0.1c0,0.1,0.1,0.1,0.2,0.1c0.1,0,0.2,0,0.2-0.1
		C119.7,54.8,119.6,54.8,119.5,54.8 M119.3,52.4C119.3,52.5,119.3,52.5,119.3,52.4c0.1,0.1,0.1,0.1,0.1,0
		C119.4,52.4,119.4,52.3,119.3,52.4C119.3,52.3,119.3,52.3,119.3,52.4 M120.7,53.8c0.1,0.1,0.4,0,0.6,0c0.1-0.1,0.1-0.1,0.1-0.2
		c0-0.1,0-0.2-0.1-0.2c-0.7,0.1-1.3-0.6-2.1,0.1C119.8,53.6,120.2,53.6,120.7,53.8 M121,39.7c0-0.1-0.1-0.1-0.1-0.1
		c-0.5-0.1-1-0.1-1.5-0.1c-0.2,0.1-0.3,0.1-0.3,0.3c0.1,0.1,0.2,0.2,0.3,0.2c0.4-0.3,1-0.1,1.5-0.3C121,39.8,121,39.8,121,39.7
		 M119.1,34.4c0,0.1,0.1,0.2,0.3,0.2c0.5,0.1,1,0.2,1.6,0.3c0.1,0.1,0.4,0.1,0.4-0.1c0.1-0.2-0.1-0.4-0.4-0.5
		c-0.5-0.1-1.1,0.1-1.6-0.2C119.3,34.1,119.1,34.2,119.1,34.4 M119.3,58.4c-0.1,0-0.2,0.1-0.2,0.1c-0.1,0.3,0.1,0.4,0.4,0.6
		C119.5,58.8,119.6,58.5,119.3,58.4 M119.9,31.6c-0.3,0.1-0.6,0.1-0.9-0.1c-0.1,0-0.1,0.1-0.2,0.2c-0.1,0.1-0.1,0.2,0.1,0.2
		c0.3,0.1,0.4,0.2,0.4,0.5c0.1,0.1,0.2,0.2,0.4,0.1c0.1-0.3,0.3-0.6,0.4-0.8C120.2,31.7,120,31.6,119.9,31.6 M118.8,56.9
		c-0.1,0-0.1,0-0.1,0.1c0,0.1,0.1,0.1,0.2,0.1c0.1,0,0.1-0.1,0.1-0.2C119,56.9,118.9,56.9,118.8,56.9 M119.4,33.3
		c0-0.2-0.2-0.3-0.4-0.3c-0.1,0-0.4,0-0.4,0.2c0,0.3,0.2,0.4,0.6,0.5C119.3,33.7,119.4,33.6,119.4,33.3 M119,39
		c-0.1,0.1-0.6,0.1-0.4,0.4c0.1,0.3,0.4-0.1,0.5-0.1c0.2,0.1,0.4,0.1,0.7,0.1c0.2,0,0.4-0.1,0.4-0.4C119.5,38.9,119.3,38.9,119,39
		 M118.8,53.7c-0.1,0-0.4,0.1-0.4,0.3c0,0.1,0.2,0.2,0.4,0.2c0.3-0.1,0.5-0.1,0.9-0.1C119.2,54.2,119.1,53.7,118.8,53.7 M118.8,49.9
		c-0.2,0.1-0.6,0-0.5,0.4c0.1,0.3,0.4,0.2,0.6,0.2c0.5,0,0.5-0.1,0.4-0.9C119,49.6,119,49.9,118.8,49.9 M118.2,34.4
		c0,0.1-0.1,0.2-0.1,0.2c0.1,0.3,0.4,0.2,0.7,0.1C118.6,34.4,118.5,34.2,118.2,34.4 M118.2,36.5c0.1,0.3,0.1,0.7,0.4,0.9
		c0.1,0,0,0.1,0,0.2h-0.2c-0.1-0.1-0.2-0.4-0.4-0.1c-0.1,0.2-0.3,0.6-0.1,0.8c0.1,0.3,0.4,0.2,0.6,0.1c0.4-0.2,1.1-0.2,1.2-1
		c0-0.1,0.3-0.1,0.1-0.4c0.5,0.1,0.7-0.4,0.7-0.7c-0.1-0.4-0.6-0.3-0.9-0.4c-0.4,0-1-0.1-1-0.7c-0.7,0.7-0.7,0.7-0.5,1.2
		c0.1,0.2-0.4,0-0.2,0.4c0,0.1,0.1,0.1,0.1,0.1c0.3-0.1-0.1-0.3,0.1-0.4l0.1-0.1C118.1,36.4,118.2,36.4,118.2,36.5 M117.6,39.9
		c0.1,0.4,0.4,0.7,0.6,1.1c0.2,0.2,0.5-0.1,0.7-0.1h0.4c0.1,0,0.3-0.1,0.2-0.2c0-0.2-0.1-0.1-0.3-0.1c-0.4,0.1-0.7,0.1-0.9-0.4
		c0-0.2-0.2-0.4-0.4-0.5C117.8,39.7,117.6,39.8,117.6,39.9 M117.6,45.1c-0.1,0.2-0.1,0.4,0.1,0.4c0.1,0.1,0.2,0.2,0.4,0.1
		c0.1-0.1,0.2-0.2,0.1-0.4c-0.2-0.3,0.3-0.5,0-0.9C118.1,44.8,117.8,44.9,117.6,45.1 M117.6,41.7c-0.1,0-0.2,0-0.2,0.2
		c0,0.1,0.1,0.2,0.3,0.2c0.1,0,0.1-0.1,0.2-0.2C117.8,41.8,117.7,41.7,117.6,41.7 M118.4,54.2c-0.4,0.3-0.9-0.1-1,0.3
		c-0.1,0.4,0.4,0.5,0.6,0.7C118.2,55,118.3,54.8,118.4,54.2 M117.3,48.7c0.3-0.1,0.7-0.2,0.7-0.7c0.9-0.1,0.9-0.1,1.4,0.4
		c-0.4,0.1-0.7,0.4-0.4,1c0.2-0.5,0.7-0.7,1.1-1c-0.1-0.1-0.1-0.1-0.1-0.1c-0.3,0-0.4-0.1-0.4-0.4c0-0.1,0-0.3,0.1-0.4
		c0.3,0,0.4,0.1,0.4,0.4c0.1,0.2,0.2,0.2,0.4,0.1c0.1-0.1,0.1-0.2,0-0.4c-0.1-0.1-0.2-0.2-0.4-0.3c-0.1-0.2-0.1-0.4,0.1-0.5
		c0.1,0,0.2-0.1,0.2-0.3c-0.4-0.4-0.7-0.3-1-0.1c-0.4,0.1-0.4,0.4-0.2,0.7c0.1,0.1-0.1,0.4-0.2,0.2c-0.2-0.1-0.5-0.1-0.5-0.5
		c0-0.2-0.6-0.5-0.9-0.4c-0.2,0.1-0.3,0.3-0.1,0.4c0.4,0.2,0.2,0.5,0.3,0.8c-0.2,0.1-0.4,0.1-0.5,0.1c-0.6-0.1-0.2,0.4-0.3,0.5
		C117,48.4,116.9,48.8,117.3,48.7 M117.9,49.3c-0.2,0-0.5,0.2-0.7-0.1c0-0.1-0.1-0.1-0.1-0.1v0.2c-0.1,0.1-0.1,0.4,0.1,0.4
		c0.3,0.1,0.5,0.4,0.7,0.2c0.2-0.2,0.5-0.3,0.9-0.4C118.5,49.3,118.2,49.3,117.9,49.3 M117.4,52.1c-0.2-0.1-0.4,0.1-0.2,0.3
		c0.1,0.3,0.2,0.4-0.2,0.6c-0.1,0-0.1,0.2,0,0.3c0.1,0.1,0.1,0.1,0.1,0.1c0.1,0,0.3-0.1,0.3-0.1c-0.1-0.8,0.4-0.5,0.7-0.6
		C118.1,52.2,117.7,52.2,117.4,52.1 M116.6,54c0,0.1,0.1,0.1,0.2,0.1h0.1c0-0.1-0.1-0.2-0.1-0.2c-0.1,0-0.1-0.1-0.1-0.1
		c-0.4-0.1,0.1-0.5-0.1-0.7c-0.2,0.1-0.4,0.2-0.4,0.4c0,0.3,0.3,0.1,0.4,0.1l0.1,0.1C116.6,53.9,116.7,53.9,116.6,54 M111.3,57.7
		c0.1-0.1,0.2-0.2,0.1-0.4c-0.3-0.5-0.8-0.9-1.3-0.3c-0.2,0.3-0.4,0.6-0.7,1C110.2,58.1,110.7,57.8,111.3,57.7 M107,30.3L107,30.3
		c0.1,0,0.1,0,0.2-0.1c-0.1,0-0.1-0.1-0.1-0.1C107.1,30.2,107,30.2,107,30.3 M107.3,42.2c0-0.1-0.1-0.1-0.1-0.1
		c-0.1,0-0.1,0-0.1,0.1c0,0.1,0.1,0.1,0.2,0.1C107.3,42.4,107.3,42.3,107.3,42.2 M106.8,56.8c0,0.1,0,0.3,0.1,0.4
		c0.1,0,0.3-0.1,0.3-0.3c0.1-0.1,0-0.2-0.1-0.3C106.9,56.5,106.8,56.6,106.8,56.8 M106.9,43c0.1,0.1,0.3,0.2,0.4,0
		c0.1-0.1-0.1-0.3-0.3-0.3c-0.1,0-0.2,0-0.3,0.1C106.7,43,106.8,43,106.9,43 M106.8,47.1c-0.2-0.1-0.2,0.1-0.2,0.1
		c0,0.1,0.1,0.2,0.1,0.2c0.1,0,0.2-0.1,0.2-0.2C107,47.1,106.9,47.1,106.8,47.1 M106.7,30.8c-0.1,0-0.1,0.1-0.1,0.1
		c0,0.1,0.1,0.2,0.2,0.2c0.1,0,0.1-0.1,0.1-0.1C107,30.9,106.9,30.8,106.7,30.8 M106.3,45.8L106.3,45.8c-0.1,0.1-0.1,0.1,0,0.1
		C106.4,45.9,106.4,45.9,106.3,45.8C106.4,45.8,106.4,45.7,106.3,45.8 M106.4,32.7c-0.1,0-0.2,0.1-0.2,0.2c0,0.1,0.1,0.2,0.1,0.1
		c0.1,0,0.3-0.1,0.3-0.2C106.7,32.7,106.6,32.7,106.4,32.7 M106.8,44.8c0-0.1,0.1-0.3-0.1-0.3c-0.3,0.1-0.5,0.1-0.6,0.4
		c0,0.1,0.1,0.2,0.4,0.2C106.7,45.1,106.9,45,106.8,44.8 M106.2,41.7c-0.1,0-0.2,0-0.1,0.1c0,0.1,0.1,0.3,0.3,0.2
		c0.1,0,0.1-0.1,0.2-0.2C106.5,41.7,106.4,41.7,106.2,41.7 M106.1,43.4L106.1,43.4c-0.1,0.1-0.1,0.1,0,0.2
		C106.1,43.6,106.1,43.6,106.1,43.4L106.1,43.4z M106,46.5c0-0.1-0.1-0.1-0.1-0.1c-0.1,0.1-0.1,0.1-0.1,0.2c0.1,0.1,0.1,0.1,0.1,0.1
		C105.9,46.7,106,46.7,106,46.5 M106.4,38.3c0.1,0.6,0.1,0.6,1.1,0.8c0-0.4,0.2-1-0.3-1.4c-0.2-0.1-0.3-0.2-0.1-0.5
		c0.1-0.2-0.1-0.4-0.4-0.2C106.1,37.2,106,37.5,106.4,38.3c-0.3,0.1-0.6-0.1-0.8,0.1C106,39.1,106.2,38.4,106.4,38.3 M105.8,55.9
		c-0.1-0.1-0.3-0.1-0.4,0.1c0,0.1,0.1,0.1,0.1,0.1c0.1,0.1,0.3,0.1,0.3,0C105.9,55.9,105.9,55.9,105.8,55.9 M105.4,45.9
		c0,0.1,0.1,0.1,0.1,0.1c0.1-0.1,0.2-0.1,0.1-0.1c0-0.1-0.1-0.1-0.1-0.1S105.4,45.8,105.4,45.9 M105.3,48.9c0.7-0.3,0.7-0.3,0.5-1
		C105.5,48.1,105.4,48.5,105.3,48.9 M106.4,34.1c-0.3,0.2-0.7,0.1-1,0.2c-0.1,0-0.1,0-0.1,0.1c0,0.1,0.1,0.3,0.3,0.3
		c0.4-0.1,1,0,1.5-0.2c0.3-0.1,0.4-0.4,0.2-0.8C107,33.9,106.7,33.9,106.4,34.1 M105.3,28.3c0,0.1,0,0.3,0.1,0.3
		c0.1,0,0.2-0.1,0.2-0.2c0.1-0.1-0.1-0.2-0.2-0.3C105.3,28.1,105.3,28.1,105.3,28.3 M105.5,36.3c0-0.1-0.1-0.1-0.2-0.1
		c-0.1,0-0.2,0.1-0.2,0.2c0,0.1,0.1,0.2,0.2,0.2C105.4,36.6,105.5,36.5,105.5,36.3 M104.9,31.1c0,0.1,0,0.1,0.1,0.2
		c0.3,0.2,0.4-0.1,0.6-0.3C105.3,31,105.1,30.7,104.9,31.1 M105.2,32.7c0.2-0.1,0.4-0.2,0.4-0.4c0-0.1-0.1-0.2-0.1-0.2
		c-0.3-0.1-0.5,0-0.7,0.2c-0.1,0.1-0.1,0.4,0,0.6C105,32.7,105,32.7,105.2,32.7 M104.8,29.1c-0.1,0-0.1,0.1-0.1,0.2
		c0,0,0,0.1,0.1,0.1c0.1,0,0.1-0.1,0.1-0.1C105,29.2,104.9,29.1,104.8,29.1 M105,53.4c0-0.1-0.1-0.2-0.2-0.2c-0.1,0-0.2,0.1-0.2,0.2
		c0,0.1,0.1,0.2,0.2,0.2C104.9,53.5,105,53.5,105,53.4 M104.4,40.5c-0.3,0.2,0.2,1.3,0.3,1.5c0,0.1,0.1,0.1,0.3,0.1
		c0.1-0.1,0.1-0.3,0.1-0.4c0-0.2,0.1-2.5,0.1-2.7C104.9,39,104.5,40.5,104.4,40.5 M104.3,56.1c0,0.2,0.1,0.4,0.4,0.4
		c0.1-0.2,0.1-0.5,0.2-1C104.7,55.9,104.3,55.7,104.3,56.1 M105.4,27.6c0.1,0,0.1-0.1,0.1-0.1c0.1-0.3-0.2-0.2-0.4-0.4H105
		c-0.3-0.1-0.5-0.1-0.7,0.1c0,0,0,0.1,0.1,0.1c0.2,0.2,0.4,0.1,0.7-0.1C105,27.4,105.1,27.6,105.4,27.6 M104,48.8
		c-0.1-0.1-0.1,0-0.1,0.1c0,0.1,0.1,0.2,0.2,0.2c0.1,0,0.1,0,0.2-0.1C104.2,48.9,104.1,48.8,104,48.8 M103.8,53.1
		c0.1,0.1,0.1,0.2,0.3,0.3c0.1,0,0.2,0,0.2-0.1c0-0.1-0.1-0.1-0.2-0.2C104,53,103.9,52.9,103.8,53.1C103.9,53.1,103.8,53,103.8,53.1
		 M103.7,33.3c-0.1,0.1,0,0.1,0,0.1c0.1,0,0.1-0.1,0.1-0.1C103.8,33.3,103.8,33.3,103.7,33.3 M104.9,51.2c-0.4-0.3-0.7-0.3-1.3,0.2
		c0.5,0,0.7,0.4,1.2,0.6c0.1-0.1-0.1-0.4,0.1-0.4c0.1,0,0.4,0.1,0.4,0.4c0,0.1-0.1,0.4,0.1,0.4c0.4-0.1,0.4,0.4,0.7,0.4
		c0.1-0.3,0.2-0.6-0.3-0.7c-0.1-0.1-0.7-0.1-0.4-0.7c0.2-0.1,0.4,0,0.7-0.1c0.1-0.1,0.2-0.1,0.1-0.3c-0.1-0.3-0.3-0.4-0.6-0.3
		c-0.3,0-0.2,0.2-0.2,0.4v0.3C105.3,51.5,105.1,51.4,104.9,51.2 M104.2,29.8c-0.2,0-0.5,0.1-0.6,0.4c-0.1,0.1,0.1,0.4,0.3,0.3
		c0.2-0.1,0.4-0.3,0.5-0.4C104.4,29.9,104.4,29.8,104.2,29.8 M103.9,50.1c0-0.1,0.2-0.2-0.1-0.3c0,0-0.1,0.1-0.1,0.1
		C103.5,50.2,103.6,50.2,103.9,50.1c0.1,0.1,0.1,0.1,0.1,0.2v0.3c0.1,0.1,0.2,0.3,0.4,0.1c0.1-0.1,0.2-0.1,0.2-0.3
		c-0.1-0.1-0.1-0.1-0.2-0.2c-0.1-0.1-0.3,0.1-0.4,0.1C103.9,50.2,103.9,50.2,103.9,50.1 M103.5,31.1c-0.1,0.1-0.3,0.1-0.2,0.3
		c0,0.2,0.2,0.2,0.4,0.2c0.1,0,0.3-0.1,0.2-0.3C103.9,31.2,103.7,31.1,103.5,31.1 M103.3,39.3c-0.2,0.1-0.1,0.2-0.1,0.4
		c0,0.1,0.1,0.2,0.2,0.1c0.1,0,0.2-0.1,0.2-0.3C103.6,39.5,103.5,39.3,103.3,39.3 M103,46.3c0.4,0.1,0.8,0.7,0.9-0.1
		c0-0.3,0.4-0.3,0.6-0.6C103.6,45.2,103.6,46,103,46.3 M103.7,43.1c-0.2-0.3-0.2-0.7-0.1-1c-0.2-0.1-0.3,0-0.4,0.1
		c-0.2,0.1-0.5,0.4,0,0.6c0.1,0.1,0.2,0.3,0,0.5c-0.4,0.3-0.1,0.4,0.2,0.7C103.6,43.7,103.3,43.3,103.7,43.1 M103.6,56.2
		c0.1,0.1,0.2,0.1,0.3,0V56c-0.1-0.6-0.1-0.6-1-0.5C103,55.9,103.3,56.1,103.6,56.2 M102.9,48.3C102.9,48.3,102.8,48.3,102.9,48.3
		c-0.1,0.1-0.1,0.1,0,0.1c0.1,0,0.1,0,0.1-0.1C103,48.3,103,48.3,102.9,48.3 M103.8,32.5c0.1-0.1,0.1-0.1,0-0.2
		c0-0.1-0.1-0.1-0.1-0.1c-0.3,0-0.4,0.4-0.7,0.4c-0.1,0.1-0.3,0.4,0,0.7C103,32.9,103.4,32.7,103.8,32.5 M103,45
		c-0.1-0.1-0.2,0.1-0.3,0.1c-0.1,0.1,0,0.1,0.1,0.1C102.9,45.3,102.9,45.2,103,45C103,45,103,45,103,45 M105.6,54.2
		c-0.1-0.4-0.4-0.1-0.7-0.1c-0.1,0-0.2,0-0.2,0.1c-0.2,0.2-0.6,0.2-0.7,0.5c-0.1,0-0.4,0.1-0.3-0.1c0.1-0.3,0.4-0.4,0.5-0.9
		c-0.4,0.4-1,0.2-1.3,0.4c-0.2,0.1-0.4,0.2-0.4,0.5c0.1,0.2,0.2,0.4,0.5,0.4c0.3,0,0.7,0.1,1,0c0.3-0.1,0.5-0.2,0.8-0.3
		C105.3,54.8,105.8,54.4,105.6,54.2 M102.4,35.2c-0.1,0-0.2,0.1-0.2,0.3c0,0.1,0,0.1,0.1,0.1c0.1-0.1,0.2-0.1,0.2-0.3
		C102.6,35.2,102.5,35.2,102.4,35.2 M103,46.2c-0.1-0.5-0.3-0.7-0.8-0.7C102.3,45.9,102.6,46,103,46.2 M101.9,37.6
		c-0.1,0.2,0.4,0.7,0.5,0.7c0.1,0,0.1,0,0.1-0.1c0.1-0.1-0.4-0.7-0.5-0.7C102,37.5,101.9,37.6,101.9,37.6 M101.9,54h-0.1
		c-0.1,0.1,0,0.1,0.1,0.2c0.1,0.1,0.1,0.1,0.1,0C102,54.2,102,54,101.9,54 M101.4,48.9c0,0.2,0.1,0.3,0.3,0.3c0.2,0,0.4-0.1,0.4-0.3
		c0-0.1-0.1-0.2-0.3-0.2C101.6,48.7,101.4,48.7,101.4,48.9 M101.3,41.8c-0.1,0.1,0.1,0.1,0.2,0.1c0.1,0,0.2,0,0.2-0.1
		c-0.1-0.1-0.1-0.2-0.3-0.2C101.3,41.6,101.3,41.7,101.3,41.8 M102.2,52.8c0.2,0.2,0.5,0.1,0.8,0c0.3-0.1,0.4-0.4,0.7-0.5
		c0.1,0,0.3-0.2,0.1-0.4c-0.1-0.1-0.3-0.2-0.5-0.1c-0.2,0.1-0.5,0-0.8,0c-0.4-0.1-1.1-0.2-1.3,0.4C101.4,52.5,101.9,52.5,102.2,52.8
		 M101.1,46.2c0,0.2,0.2,0.2,0.4,0.2c0.3,0.1,0.5,0,0.5-0.3c0-0.2-0.3-0.1-0.4-0.2C101.4,45.9,101.1,45.9,101.1,46.2 M101.1,42.9
		c0,0-0.1,0.1-0.1,0.2c0.1,0.1,0.2,0.2,0.4,0.3c0.1,0.1,0.3,0,0.4-0.1c0.1-0.3,0.4-0.5,0.1-0.9C101.6,42.5,101.5,42.9,101.1,42.9
		 M108.2,47.3c-0.2,1.4-0.3,2.9-0.6,4.3c-0.1,0.6-0.1,1.2,0,1.8c0.1,0.5,0.1,1,0.1,1.5c0,0.6,0.2,0.8,0.7,0.8
		c2.4-0.1,4.7-0.3,6.3-2.4c0-0.1,0.1-0.1,0.1-0.2c0.7-0.7,1-1.4,1-2.4c-0.1-2.7,0-5.5,0.1-8.3c0.1-4.2,0.7-8.4,2.3-12.4
		c0.3-1,0.4-1.9,0.7-2.9c0.4-1.7,0.9-1.9,2.3-0.9c1.2,0.8,1.9,1.9,1.6,3.3c-0.1,1.3,0.1,2.4,0.4,3.7c0.7,4.3,0.8,8.6,0.7,13
		c-0.1,1.7-0.4,3.4-0.5,5.1c-0.1,1.6-0.6,3-1.2,4.3c-0.4,1-0.7,2-1,3c-0.3,0.9,0.1,1.6,0.5,2.4c0.2,0.4,0.8,0.4,1.4,0.2
		c0.7-0.2,1.3-0.7,1.7-1.3c0.6-1,1-1.9,1.5-3c1.5-3.8,2.6-7.8,3.7-11.7c1.1-4,2.1-7.9,3.4-11.9c0.1-0.4,0.3-0.9,0.4-1.3
		c0.3-0.7,0.9-0.8,1.6-0.5c0.7,0.2,0.8,0.5,0.6,1.3c-0.7,2-1.3,4-2,6c-1.8,5.6-3.3,11.2-5.3,16.8c-0.7,1.8-1.3,3.5-2.1,5.2
		c-0.4,0.9-1,1.6-1.8,2.2c-1.4,1-3,0.9-4.2-0.2c-1.9-1.7-3.3-3.8-3.8-6.2c-0.1-0.2-0.1-0.4-0.2-0.6c-0.2-0.4-0.4-0.4-0.7-0.1
		c-0.4,0.6-0.9,1.1-1.4,1.6c-0.5,0.6-1.2,1-2,1.3c-1.3,0.4-2.7,0.7-4.2,0.9c-0.9,0.1-1.7-0.1-2.5-0.4c-3.3-1.5-5.6-3.8-6.2-7.3
		c-0.4-1.9-0.4-3.9-0.1-5.8c0.4-3,0.8-6.2,1.4-9.2c0.4-2.3,0.9-4.5,1.5-6.7c0.4-1.3,0.6-2.5,0.7-3.8c0.1-0.4,0.1-0.8,0.2-1.2
		c0.1-0.6,0.4-0.7,0.9-0.5c0.9,0.3,1.7,0.7,2.4,1.3c0.3,0.2,0.6,0.4,0.9,0.6c0.9,0.6,1.3,1.5,1.3,2.5v7.1
		C108.7,39.9,108.6,43.6,108.2,47.3"/>
	<path class="st0" d="M142.2,27.4c0.1,0,0.1-0.1,0.1-0.3c0.1-0.1,0-0.1-0.1-0.1c-0.1,0-0.2,0.1-0.2,0.3
		C142,27.3,142.1,27.5,142.2,27.4 M142.2,25c0.4-1.6,0.9-3.1,1.3-4.7c0.9-3.6,1.5-7.2,1.9-10.8c0.1-1.5,0.1-2.9-0.2-4.4
		c-0.1-0.4-0.2-0.7-0.5-1.1c-0.2-0.3-0.5-0.5-0.9-0.4c-0.4,0.1-0.5,0.4-0.6,0.7c-0.1,0.4-0.1,0.9-0.1,1.3c-0.1,0.6-0.1,1.2-0.1,1.7
		c-0.1,1.8-0.3,3.6-0.4,5.4c-0.1,2.3-0.3,4.7-0.4,7c-0.1,1.9-0.2,3.9-0.3,6C142.1,25.4,142.1,25.2,142.2,25 M141.7,3.7
		c0,0.1,0.1,0.1,0.2,0.1c0.1,0,0.1-0.1,0.1-0.3c0-0.1,0-0.1-0.1-0.1C141.8,3.5,141.7,3.5,141.7,3.7 M141.6,6.7
		C141.5,6.7,141.4,6.7,141.6,6.7v0.1C141.7,6.8,141.7,6.8,141.6,6.7L141.6,6.7z M141.9,4.5c0.1-0.1,0.1-0.2-0.1-0.3
		c-0.3-0.1-0.3,0.2-0.5,0.3C141.6,4.5,141.8,4.9,141.9,4.5 M141.4,6.1c0.1,0,0.2,0.1,0.4,0c0.1,0,0.1-0.1,0.1-0.2
		c-0.1-0.2-0.3-0.4-0.1-0.7c0.1-0.1-0.1-0.4-0.3-0.4c-0.1,0-0.3,0.1-0.2,0.3c0.2,0.3,0.3,0.5,0,0.7C141.3,6,141.3,6.1,141.4,6.1
		 M141.1,28.4c-0.1-0.2-0.1-0.5-0.3-0.7c-0.1,0.2-0.2,0.5-0.1,0.6c0.1,0.1,0.9,1.1,0.9,0.6c0.1-0.1,0.2-0.2,0.1-0.4
		C141.6,28.4,141.4,28.6,141.1,28.4 M140.7,12c-0.1,0-0.1,0.1-0.1,0.1s0,0.1,0.1,0.1c0.2-0.1,0.4-0.1,0.7-0.1
		C141.1,11.8,140.9,11.9,140.7,12 M140.5,6.3c0,0.1,0,0.1,0.1,0.1c0.1,0.1,0.1,0,0.1-0.1c0-0.1,0-0.1-0.1-0.2
		C140.5,6.1,140.5,6.2,140.5,6.3 M140.7,17.3c0.1,0,0.4,0.1,0.4-0.1c0.1-0.1,0-0.1-0.1-0.2c-0.1-0.1-0.3-0.1-0.4,0
		c-0.1,0.1-0.2,0.1-0.1,0.2C140.5,17.3,140.6,17.3,140.7,17.3 M140.4,8.7c0.4,0.1,0.7,0.1,1-0.4C141,8.2,140.6,8.1,140.4,8.7
		 M140.8,20.6c-0.4,0-0.4,0.2-0.4,0.4c0,0.2,0,0.4,0.3,0.4c0.3,0,0.4-0.2,0.4-0.5C141,20.8,141,20.6,140.8,20.6 M140.7,26.3
		c-0.1-0.1-0.3-0.3-0.4-0.1c-0.2,0.1,0,0.3,0.1,0.4c0.1,0.1,0.1,0.4,0.4,0.3C140.8,26.7,140.8,26.4,140.7,26.3 M139.9,14.4
		C139.9,14.3,139.9,14.4,139.9,14.4l-0.1,0.1h0.1C140,14.4,140,14.4,139.9,14.4 M140,18.5c-0.2,0-0.2,0.1-0.2,0.3
		c0,0.1,0.1,0.1,0.2,0.1c0.1-0.1,0.1-0.1,0.2-0.3C140.2,18.5,140.1,18.5,140,18.5 M140.5,15.4c0.3-0.1,0.3-0.4,0.1-0.6
		c-0.3,0-0.5,0.3-0.9,0.1C140,15.3,140.1,15.6,140.5,15.4 M139.9,32.4c-0.1,0-0.2,0.1-0.1,0.2c0,0.1,0.1,0.2,0.2,0.1
		c0.1,0,0.4-0.1,0.4-0.2C140.2,32.3,140,32.4,139.9,32.4 M139.9,24.6c0.1,0.1,0.2,0.3,0.2,0.4c0.1,0.3,0.3,0.3,0.4,0.1
		c0.1-0.1,0.2-0.2,0-0.4c-0.2-0.2-0.4-0.5-0.4-0.9c0.1-0.1,0.1-0.1,0.2-0.1c0.1,0,0.1-0.1,0.1-0.1c0-0.1-0.1-0.1-0.1-0.1
		c-0.1,0-0.1,0-0.1,0.1s0,0.1-0.1,0.1C139.6,24,139.6,24.1,139.9,24.6 M139.7,45.7C139.7,45.8,139.7,45.8,139.7,45.7
		c0.1,0.1,0.1,0,0.1-0.1C139.8,45.6,139.7,45.6,139.7,45.7C139.7,45.6,139.7,45.7,139.7,45.7 M139.6,46.1c-0.1,0.1-0.1,0.2,0.1,0.2
		v0.3c0,0.1,0,0.2,0.1,0.1c0.1,0,0.1-0.1,0.1-0.1c0-0.1,0-0.3-0.1-0.4C139.7,46.2,139.7,46,139.6,46.1 M139.8,41.9
		c-0.4,0.1-0.4,0.1-0.1,0.8C139.7,42.5,139.9,42.2,139.8,41.9 M139.5,44.9C139.5,44.9,139.5,45,139.5,44.9c0,0.1,0.1,0.1,0.1,0.1
		c0.1,0,0.1-0.1,0.1-0.1C139.7,44.9,139.6,44.8,139.5,44.9 M139.4,50.6c0,0.2-0.1,0.4,0.1,0.5c0.1,0.1,0.1,0.1,0.2,0
		c0.1-0.2-0.1-0.4-0.1-0.5c0-0.1,0-0.1-0.1-0.3C139.4,50.5,139.4,50.5,139.4,50.6 M139.7,8.7c-0.2,0.1-0.3,0.2-0.3,0.4
		c0,0.1,0.1,0.2,0.1,0.2c0.2,0,0.3-0.2,0.4-0.4C139.8,8.8,139.7,8.7,139.7,8.7 M139.3,51.9c0,0.1,0.1,0.2,0.2,0.2
		c0.1,0.1,0.1,0,0.1-0.1c0-0.1-0.1-0.2-0.2-0.3C139.4,51.8,139.3,51.9,139.3,51.9 M139.4,15.7c0,0-0.1-0.1-0.1-0.1
		c0.1,0,0.2-0.1,0.3-0.1c0,0.1,0,0.1,0.1,0.1C139.6,15.7,139.5,15.7,139.4,15.7 M139.3,17.8C139.3,17.9,139.4,17.9,139.3,17.8
		c0.1,0.1,0.1,0,0.1-0.1L139.3,17.8C139.3,17.8,139.2,17.8,139.3,17.8 M139.3,24.5c-0.1,0-0.2,0.1-0.1,0.2c0,0,0.1,0.1,0.1,0.1
		c0.1,0,0.1-0.1,0.1-0.1C139.4,24.6,139.4,24.5,139.3,24.5 M139.3,9.4c-0.1,0-0.1,0.1-0.1,0.1c-0.1,0.1,0,0.2,0.1,0.2
		c0.1,0,0.2,0,0.2-0.1C139.4,9.5,139.4,9.5,139.3,9.4 M139.1,39.6C139.1,39.6,139.1,39.6,139.1,39.6c0.3,0.1,0.2-0.1,0.4-0.2
		c0-0.1,0-0.1-0.1-0.1C139.2,39.3,139.1,39.3,139.1,39.6 M138.9,52.8c0.1,0,0.1,0.1,0.1,0.1c0-0.1,0.1-0.1,0.1-0.1L138.9,52.8
		C138.9,52.8,138.9,52.8,138.9,52.8 M139.7,10c-0.3-0.1-0.6-0.1-0.8,0.1C139.2,10.2,139.4,10.2,139.7,10 M139.1,22
		c0,0.3,0.2,0.5-0.1,0.8c-0.1,0.1-0.1,0.3,0.1,0.3c0.2,0.1,0.4,0.1,0.4-0.1c0-0.3,0.1-0.7,0.1-0.9C139.7,21.6,139.1,21.6,139.1,22
		 M139.2,30.9c0,0.1,0.1,0.3,0.2,0.3c0.1,0,0.1-0.1,0.1-0.1c0-0.1,0.1-0.4-0.1-0.5c-0.1-0.1-0.4-0.4-0.6-0.1
		C138.8,30.6,139.1,30.7,139.2,30.9 M138.8,57.9c0.2,0.1,0.4,0.2,0.7,0.1C139.1,57.6,139.1,57.6,138.8,57.9 M138.8,44.2v0.1
		c0,0.1,0.1,0.1,0.1,0.1c0.1-0.1,0.1-0.1,0.1-0.1C138.9,44.3,138.8,44.2,138.8,44.2 M141.6,9.5c0.1-0.5-0.1-0.7-0.7-0.7
		c-0.2,0-0.9,0.4-0.9,0.7c0,0.6-0.2,1.1-0.7,1.4c-0.1,0.1-0.1,0.1,0,0.2c0.4,0.4,0.2,0.6-0.3,0.6c-0.1,0-0.2,0-0.2,0.1
		c-0.1,0.1,0.1,0.1,0.1,0.2c0.2,0.2,0.5,0.3,0.7,0.4c0.4,0.1,0.7-0.1,0.7-0.4c-0.1-0.7,0.4-0.7,0.8-0.9c0.1,0.1,0.1,0.2,0.2,0.1
		c0.1-0.1,0.1-0.2-0.1-0.3C141.7,10.7,141.5,10.1,141.6,9.5 M138.8,20.1c-0.1,0-0.1,0.1-0.1,0.2c0,0.2,0.1,0.4,0.2,0.4
		c0.1,0,0.2-0.1,0.2-0.2S139.1,20.2,138.8,20.1 M138.9,10.4c-0.1,0-0.2,0.1-0.2,0.2c0,0.1,0,0.2,0.1,0.1c0.1,0,0.2-0.1,0.3-0.2
		C139.1,10.4,139,10.4,138.9,10.4 M138.6,56.7C138.6,56.7,138.7,56.7,138.6,56.7l0.1,0.2c-0.1-0.1-0.1-0.1-0.1-0.1
		C138.5,56.8,138.5,56.7,138.6,56.7 M138.6,38.5c-0.1,0.1,0,0.2,0.1,0.2c0.1,0,0.2,0,0.3-0.1c0.1-0.2,0-0.4,0-0.7
		c0.1-0.1-0.1-0.2-0.5-0.2C138.6,38,138.8,38.3,138.6,38.5 M138.6,51.4c-0.1,0-0.1,0.1-0.1,0.1c0,0.1,0.1,0.2,0.2,0.1
		c0,0,0-0.1,0.1-0.1C138.8,51.4,138.7,51.4,138.6,51.4 M138.4,40.9c0,0.1,0.1,0.2,0.3,0.2c0.4-0.1,0.2-0.4,0.2-0.7
		C138.6,40.5,138.3,40.5,138.4,40.9 M138.5,32.5h-0.1c-0.1,0.1,0.1,0.2,0.1,0.2c0.1,0,0.1-0.1,0.1-0.1S138.6,32.4,138.5,32.5
		 M138.7,39.8c-0.1,0.1-0.4,0.1-0.4,0.3c0,0.1,0,0.1,0.1,0.1c0.2,0,0.3-0.1,0.4-0.3c0,0,0.1-0.1,0-0.1
		C138.8,39.6,138.7,39.7,138.7,39.8 M139.1,50.7c-0.4-0.3-0.4-0.3-0.7,0.1c0,0.1,0,0.1-0.1,0.1c0,0-0.1,0-0.1,0.1l0.1,0.1
		c0.1,0,0.1-0.1,0.1-0.2l0.1-0.1C138.6,50.7,138.8,51,139.1,50.7 M138.7,27.9c0.1,0.1,0.3,0.1,0.4,0c0.1-0.1,0.1-0.2,0-0.3
		c-0.1-0.1-0.1-0.2,0.1-0.3c0.1-0.1,0.2-0.1,0.2-0.3c-0.1-0.2-0.2-0.1-0.4-0.1c-0.1,0.1-0.3,0.1-0.4-0.1c-0.1-0.2-0.1-0.7-0.5-0.5
		c-0.3,0.1,0.4,0.4,0.1,0.6C138.2,27.4,138.2,27.7,138.7,27.9 M137.9,19.1c0,0.1,0.1,0.1,0.1,0.1c0.1,0,0.2-0.1,0.1-0.2
		c0-0.1-0.1-0.1-0.1-0.1C137.9,19,137.9,19,137.9,19.1 M137.9,55.9C137.8,56,137.9,56.1,137.9,55.9h0.1
		C137.9,55.9,137.9,55.9,137.9,55.9L137.9,55.9z M137.8,25.1c0.1,0.1,0.2,0.1,0.4,0.2c0.1,0,0.3-0.1,0.3-0.2
		c0.1-0.1-0.1-0.2-0.1-0.3c-0.1-0.1-0.2-0.3-0.5-0.3V25.1z M138.4,53.4c-0.3-0.1-0.4,0-0.6,0.2c-0.1,0.2-0.1,0.4,0.1,0.6
		c0.3-0.6,1-0.1,1.4-0.4C139,53.6,138.7,53.5,138.4,53.4 M137.8,45.6c-0.1,0.1-0.1,0.2,0.1,0.3c0.1,0.1,0.3,0.1,0.3-0.1
		c0-0.2,0.2-0.3,0.4-0.4C138.2,45.2,137.9,45.3,137.8,45.6 M139.1,37.4c0.4,0,0.7,0.1,1,0.3c0.2-0.9,0.2-0.9-0.5-0.9h-0.1
		c-0.1-0.5-0.5-0.4-0.8-0.4c-0.1-0.2,0.1-0.4,0.1-0.5c0-0.1-0.1-0.1-0.1-0.2c-0.1,0-0.2,0.1-0.2,0.2c-0.1,0.2,0.1,0.4,0.1,0.5
		c-0.6-0.1-0.6-0.1-0.7,0.4c0.6,0.1,1.2-0.1,1.8-0.1C139.4,37,139.1,37.1,139.1,37.4 M138.2,28.3c0-0.1,0-0.1-0.1-0.2
		c-0.1-0.1-0.3,0.1-0.4,0.1l-0.1,0.1C137.9,28.4,138,28.4,138.2,28.3 M137.9,29.3c0-0.1-0.1-0.2-0.2-0.2c-0.1,0-0.1,0.1-0.1,0.2
		c0,0.1-0.1,0.3,0.1,0.3C137.9,29.6,138,29.6,137.9,29.3 M138.7,34.6c-0.4,0.1-0.8,0-1.1,0.4C138.5,35,138.5,35,138.7,34.6
		 M137.9,52.6c-0.2,0-0.4,0.1-0.4,0.4c0,0.1,0.1,0.1,0.1,0.1c0.3,0.1,0.4-0.1,0.4-0.4C138,52.7,138,52.5,137.9,52.6 M137.5,21.5
		c0,0.1,0.1,0.1,0.1,0.1c0.1,0,0.1,0,0.1-0.1c-0.1-0.1-0.1-0.1-0.1-0.1C137.6,21.3,137.5,21.4,137.5,21.5 M137.4,60.2
		c0.2,0.7,0.2,0.7,0.7,1C138.1,60.8,137.9,60.4,137.4,60.2 M137.6,34.2c0.3,0.3,1,0.2,1.3-0.1c0.1-0.1,0.1-0.1,0.2-0.1
		c0.4,0.2,0.4-0.4,0.7-0.4c0.1,0,0.1-0.1,0-0.3c-0.1-0.1-0.1-0.2-0.3-0.1c-0.3,0.1-0.7,0-0.8,0.4c-0.1,0.1-0.4,0.4-0.7,0.1
		c-0.1-0.2-0.4-0.1-0.5,0.1C137.4,34,137.5,34.1,137.6,34.2 M137.5,30.1C137.4,30.1,137.4,30.2,137.5,30.1c-0.1,0.1,0,0.1,0.1,0.1
		C137.6,30.3,137.6,30.2,137.5,30.1C137.6,30.1,137.5,30.1,137.5,30.1 M137.7,39.9c-0.1-0.1-0.1-0.1-0.2-0.1
		c-0.1,0.1-0.1,0.3,0.1,0.3c0.1,0.1,0.2,0.2,0.5,0.1C137.9,40.2,137.8,40,137.7,39.9 M137.5,43c-0.1,0-0.1,0.1-0.1,0.1
		c0,0.1,0.1,0.1,0.1,0.1c0.1,0.1,0.1-0.1,0.1-0.1C137.6,43.1,137.6,43.1,137.5,43 M137.4,35.8c0,0.1,0.1,0.2,0.1,0.2
		c0.1-0.1,0.1-0.2,0.1-0.3c0-0.1,0-0.2-0.1-0.2C137.4,35.6,137.4,35.7,137.4,35.8 M137.4,23.6c-0.1,0.1-0.2,0.2-0.1,0.4
		c0.1,0.2,0.2,0.2,0.4,0.1c0.1-0.1,0.3-0.1,0.4-0.4C137.8,23.6,137.6,23.6,137.4,23.6 M137.3,61.3c-0.1,0-0.1,0.1-0.1,0.1h0.1
		l0.1-0.1C137.4,61.4,137.4,61.3,137.3,61.3 M137.4,46.5c-0.1,0.1-0.4,0.1-0.1,0.4c0.1,0.1,0.3,0.4,0.5,0.2c0.2-0.1,0.4-0.3,0.7-0.5
		C138.1,46.3,137.8,46.2,137.4,46.5 M137.3,43.9c-0.2,0.2,0,0.4,0.1,0.6c0.1,0.1,0.1,0.1,0.2,0c0.2-0.1,0.1-0.3,0.1-0.4
		c-0.1-0.1-0.1-0.3-0.2-0.4C137.4,43.7,137.4,43.8,137.3,43.9 M137.1,25.3C137.1,25.4,137.2,25.4,137.1,25.3c0.1,0.1,0.1,0,0.1-0.1
		L137.1,25.3C137.1,25.3,137.1,25.3,137.1,25.3 M137.2,56.6c0,0-0.1,0-0.1,0.1c0.1,0,0.1,0.1,0.1,0.1
		C137.2,56.8,137.2,56.8,137.2,56.6C137.3,56.7,137.3,56.6,137.2,56.6 M137.4,14.2c-0.4-0.1-0.3,0.4-0.3,0.6v0.5
		c0,0.1,0.1,0.1,0.2,0.1c0.1,0,0.1-0.1,0.2-0.1v-0.5C137.4,14.6,137.6,14.2,137.4,14.2 M137.3,47.3c-0.1-0.1-0.3,0-0.3,0.1
		c-0.1,0.1,0,0.2,0.1,0.3c0.1,0.1,0.2-0.1,0.3-0.3C137.4,47.4,137.4,47.3,137.3,47.3 M137,43.1c-0.1,0.1-0.1,0.1-0.1,0.1
		s0.1,0.1,0.1,0C137.1,43.3,137.1,43.2,137,43.1L137,43.1z M137.4,39.4c0.4,0.1,0.4-0.1,0.1-0.3c-0.2-0.1-0.4,0.1-0.6,0.4
		C137.1,39.4,137.3,39.4,137.4,39.4 M137,30.2c-0.1,0-0.1,0.1-0.1,0.1c0,0,0.1,0.1,0.1,0C137.1,30.4,137.1,30.3,137,30.2
		C137.1,30.2,137,30.2,137,30.2 M137.1,18.7c0-0.1-0.1-0.1-0.1-0.1c-0.1,0-0.1,0.1-0.1,0.1c0.1,0.1,0.1,0.1,0.1,0.1
		C137.1,18.9,137.1,18.9,137.1,18.7 M136.9,58.5c-0.1-0.1-0.2,0-0.2,0.1c0,0.1,0.1,0.2,0.2,0.2c0.1,0,0.2-0.1,0.2-0.2
		C137.1,58.5,137,58.5,136.9,58.5 M136.8,49.6c-0.1,0-0.1,0.1-0.1,0.1c0.1,0.1,0.1,0.1,0.2,0.1c0.1,0,0.1,0,0.1-0.1
		C137,49.6,136.9,49.6,136.8,49.6 M136.7,48.1c0,0.1,0.1,0.2,0.2,0.2c0.1,0,0.1,0,0.1-0.1c0-0.1-0.1-0.2-0.2-0.3
		C136.8,47.9,136.7,48,136.7,48.1 M137.6,31.8c0.1,0,0.1,0,0.1-0.1c0.1-0.1-0.1-0.1-0.1-0.1c-0.3,0.2-0.4-0.2-0.7-0.1
		c-0.1,0-0.3-0.1-0.3,0.1c-0.1,0.2,0.1,0.2,0.3,0.3C137.1,31.9,137.3,31.6,137.6,31.8L137.6,31.8z M136.9,36.2
		c-0.1,0-0.2,0.1-0.2,0.3c-0.1,0.1,0,0.2,0.1,0.2c0.1,0.1,0.2-0.1,0.2-0.2C137.1,36.4,137.1,36.2,136.9,36.2 M137.6,55
		c0.1,0.1,0.1,0.1,0.2,0c0.1,0,0.1-0.1,0.1-0.2c-0.1-0.6-0.7-0.8-1.3-0.4C137,54.5,137.1,54.5,137.6,55 M136.7,45
		c-0.1,0-0.2,0.1-0.2,0.1c0,0.1,0.1,0.2,0.2,0.2c0.3,0,0.6,0.1,1-0.1C137.4,44.9,137,45.1,136.7,45 M136.5,42.2
		C136.5,42.2,136.4,42.2,136.5,42.2l-0.1,0.1C136.5,42.5,136.5,42.4,136.5,42.2C136.5,42.3,136.5,42.2,136.5,42.2 M136.5,35
		c-0.1,0-0.1,0-0.1,0.1c0.1,0.1,0.1,0.1,0.1,0.1c0.1,0,0.1,0,0.1-0.1C136.7,35,136.6,35,136.5,35 M137.1,17c0,0.1-0.1,0.1-0.3,0.1
		c-0.5,0-0.5,0.3-0.4,0.7c0.2,0.1,0.4,0,0.5-0.1c0.1-0.5,0.7-0.5,1-0.7c0.1,0.4,0.5,0.4,0.8,0.3c0.4-0.1,0.5-0.3,0.5-0.7
		c0-0.1,0.1-0.1,0.1-0.1c0.1,0,0.3,0.1,0.3-0.1c0.1-0.1-0.1-0.2-0.2-0.3c-0.2-0.1-0.5-0.1-0.7-0.4c-0.1-0.3-0.3-0.1-0.4,0
		c-0.1,0.1-0.1,0.4-0.4,0.3c-0.3-0.1-0.6,0.1-0.9-0.1c-0.1-0.1-0.3-0.1-0.4-0.1c-0.1,0.1-0.1,0.4-0.1,0.5c0.1,0.1,0.3,0.2,0.4,0.1
		c0.1-0.1,0.3-0.1,0.4-0.1c0.2,0,0.4,0,0.5,0.2c0.1,0.2-0.1,0.3-0.2,0.4C137.6,16.8,137.4,16.4,137.1,17 M136.3,50.7
		c0,0.1,0.1,0.1,0.1,0.1c0.1,0.1,0.1-0.1,0.1-0.1c0.1-0.1,0-0.1-0.1-0.1C136.4,50.5,136.3,50.6,136.3,50.7 M137,41.3L137,41.3
		c0.1-0.2-0.1-0.1-0.1-0.2c-0.2-0.1,0.3-0.4-0.1-0.6c-0.1,0.1-0.4,0.2-0.4,0.5c0.1,0.2,0.4-0.1,0.5,0.1
		C136.9,41.1,136.9,41.2,137,41.3 M136.3,43.6c-0.1-0.1-0.1,0-0.1,0.1c-0.1,0.1,0.1,0.2,0.1,0.2c0.1,0,0.1,0,0.2-0.1
		C136.5,43.7,136.5,43.6,136.3,43.6 M136.3,25c-0.1-0.1-0.1-0.1-0.1-0.1c0,0-0.1,0.1-0.1,0.1C136.2,25.1,136.2,25.2,136.3,25
		C136.3,25.1,136.3,25,136.3,25 M136.8,19.5c0.1-0.3-0.2-0.3-0.4-0.4c-0.1-0.1-0.2-0.1-0.3,0c-0.1,0.1-0.1,0.3,0,0.4
		c0.3,0.2,0.2,0.5,0.2,0.7c0.4,0.1,0.5-0.1,0.8-0.2C137.1,19.8,136.5,20,136.8,19.5 M136.2,57.9c-0.2,0-0.3,0.1-0.3,0.2
		c0,0.1,0.1,0.1,0.1,0.2c0.2,0,0.3-0.1,0.3-0.2C136.4,57.9,136.3,57.9,136.2,57.9 M136.5,56.7c-0.2-0.1-0.4-0.1-0.6,0
		C136.2,56.8,136.4,56.8,136.5,56.7 M136.2,49.7c-0.1-0.1-0.2,0.1-0.3,0.1c0,0.1,0,0.1,0.1,0.1c0.1,0,0.2-0.1,0.3-0.1
		C136.3,49.8,136.2,49.7,136.2,49.7 M135.9,35.7c0,0.1,0.1,0.1,0.1,0.1c0.1,0,0.1,0,0.1-0.1c0-0.1,0-0.1-0.1-0.1
		C136,35.6,136,35.6,135.9,35.7 M135.9,24.1c0.1,0.2,0.2,0.4,0.4,0.3c0.1-0.1,0.2-0.2,0.1-0.4c-0.1-0.2-0.2-0.4-0.1-0.7
		c0-0.1-0.1-0.1-0.2-0.1c-0.1,0-0.2,0.1-0.2,0.2c0,0.1,0.1,0.1,0.1,0.3C136,23.8,135.9,23.9,135.9,24.1 M136,39.2
		c-0.1,0-0.2,0.1-0.2,0.2c0.1,0,0.1,0.1,0.2,0.1c0.1,0,0.1-0.1,0.1-0.1C136.1,39.3,136.1,39.2,136,39.2 M136.2,21
		c0-0.1-0.1-0.1-0.2-0.1c-0.2,0.1-0.1,0.3-0.1,0.5C135.9,21.3,136.3,21.3,136.2,21 M135.9,41.8c0.1,0.1,0.1,0.2,0.3,0.1
		c0.2,0,0.3-0.1,0.4-0.4c0-0.1-0.1-0.2-0.2-0.2c-0.2,0-0.3-0.2-0.5-0.2C135.7,41.4,135.8,41.6,135.9,41.8 M135.6,37.6
		c0.1,0.3,0.4,0.2,0.4,0.4c0.1,0.1,0.1,0,0.2,0c0.1-0.1,0.1-0.2,0-0.2c-0.5-0.1-0.1-0.5-0.2-0.8C135.7,37,135.6,37.1,135.6,37.6
		 M135.9,29.9c-0.2-0.1-0.4,0-0.4,0.1c-0.1,0.1-0.1,0.1,0,0.2c0.1,0.1,0.1,0.3,0.3,0.2c0.2-0.1,0.4,0,0.7,0
		C136.3,30.1,136.1,30.1,135.9,29.9 M135.4,58.3c0,0.1,0.1,0.2,0.2,0.2c0.1,0,0.2-0.1,0.2-0.2c0-0.1-0.1-0.1-0.4-0.2
		C135.5,58.1,135.4,58.2,135.4,58.3 M135.4,30.8c0,0.1,0.1,0.2,0.2,0.2c0.1,0,0.2,0,0.2-0.1c0-0.1-0.1-0.2-0.2-0.2
		C135.5,30.7,135.4,30.7,135.4,30.8 M135.4,23.9C135.4,23.9,135.4,24,135.4,23.9l0.2,0.1c0-0.1-0.1-0.1-0.1-0.1
		C135.5,23.8,135.4,23.8,135.4,23.9 M135.6,55.3c0,0-0.1-0.1-0.1-0.1c-0.1,0.1-0.2,0.1-0.2,0.3c0,0,0.1,0,0.1,0.1
		C135.4,55.5,135.6,55.4,135.6,55.3 M135.3,47.9C135.2,47.9,135.2,47.9,135.3,47.9c-0.1,0.1,0,0.1,0.1,0.1
		C135.4,48,135.4,47.9,135.3,47.9L135.3,47.9z M135.3,39.8c-0.1,0-0.1,0-0.1,0.1c-0.1,0.1,0,0.1,0.1,0.1c0.1,0.1,0.1,0,0.2-0.1
		C135.4,39.8,135.4,39.8,135.3,39.8 M135.4,34.4c-0.1,0.1-0.4,0.4-0.2,0.7c0.2,0.3,0.4-0.1,0.5-0.2c0.1-0.1,0.3-0.2,0.4-0.4
		c0.1-0.1-0.1-0.2-0.2-0.3C135.6,34.3,135.5,34.4,135.4,34.4 M135,31.8c0,0.1,0,0.1,0.1,0.1c0.1-0.1,0.3-0.1,0.3-0.3
		c0-0.1-0.1-0.1-0.1-0.1C135.1,31.6,135,31.6,135,31.8 M135.1,50.8c-0.1,0-0.1,0.1-0.1,0.1c0,0,0,0.1,0.1,0.1c0.1,0.1,0.1,0,0.1-0.1
		C135.1,50.8,135.1,50.8,135.1,50.8 M134.8,30.8c-0.1,0-0.2,0.1-0.2,0.3s0,0.3,0.2,0.2c0.1,0,0.2-0.1,0.2-0.3
		C135,31,135,30.8,134.8,30.8 M135.2,28.4c-0.3,0.1-0.4,0.4-0.7,0.6c-0.1,0.1-0.1,0.2,0,0.3c0.1,0.1,0.4,0.1,0.5,0.1
		c0.1-0.3,0.4-0.4,0.6-0.6C135.5,28.6,135.4,28.4,135.2,28.4 M135,29.9c0-0.1-0.1-0.1-0.1-0.1c-0.1,0.1-0.4,0-0.4,0.3
		c0,0.1,0.1,0.1,0.2,0.1C134.8,30.1,135,30.1,135,29.9 M134.3,53.5c-0.1,0.4,0.3,0.6,0.2,0.9C135.1,53.8,135.1,53.7,134.3,53.5
		 M134.3,54.5c-0.1,0-0.2,0.1-0.2,0.3c0.1,0.1,0.2,0.1,0.4,0.1c0.1,0,0.2-0.1,0.2-0.2C134.6,54.5,134.5,54.5,134.3,54.5 M134.1,33
		c-0.1,0-0.1,0.1-0.1,0.1c0.1,0.1,0.1,0.1,0.1,0.1c0.1,0,0.1-0.1,0.1-0.1C134.2,33,134.2,33,134.1,33 M134,42.8
		c-0.1,0-0.1,0.1-0.1,0.1h0.1c0,0,0-0.1,0.1-0.1C134.1,42.8,134,42.8,134,42.8 M134.1,40.7c-0.1,0.1-0.2,0.2-0.1,0.4
		c0.1,0.1,0.4,0.1,0.5-0.1c0.1-0.1,0.3-0.3,0.4-0.5C134.5,40.3,134.3,40.5,134.1,40.7 M135.4,49.4c0,0.1,0.1,0.2,0.3,0.1
		c0.1-0.1,0.1-0.1,0.1-0.2c-0.2-0.3-0.1-0.7-0.7-0.7c-0.2-0.1-0.4-0.2-0.7-0.4c-0.1-0.1-0.1-0.1-0.1-0.3c0-0.2,0.1-0.1,0.2-0.1
		c0.1,0,0.3-0.1,0.3-0.2c0-0.2-0.2-0.2-0.4-0.1c-0.1,0.1-0.1,0.1-0.3,0.1c-0.4,0.1-0.5,0.3-0.4,0.7c0.1,0.2,0.1,0.4,0.1,0.6
		c-0.1,0.3,0.1,0.4,0.4,0.2c0.1-0.2,0.3-0.2,0.7-0.2C135.3,48.8,135.4,49.1,135.4,49.4 M134,34.1c-0.1,0.1-0.1,0.2-0.2,0.4l0.1,0.1
		c0.1,0,0.3-0.1,0.3-0.3C134.2,34.2,134.1,34.1,134,34.1 M133.5,53.3c-0.1,0.1-0.1,0.2-0.1,0.2c0.1,0.1,0.4,0.2,0.6,0.1
		C133.9,53.4,133.7,53.2,133.5,53.3 M133.5,48.5c-0.1,0-0.1,0.1-0.1,0.1c0.1,0.1,0.1,0.1,0.1,0.1C133.6,48.8,133.6,48.8,133.5,48.5
		C133.6,48.6,133.6,48.5,133.5,48.5 M134.3,41.4c-0.3-0.1-0.7,0.2-0.8,0.5c0,0.1,0.1,0.3-0.1,0.4c-0.1,0.1-0.2,0.2-0.1,0.4
		c0,0.1,0.1,0.1,0.2,0.1c0.1-0.1,0.2-0.1,0.2-0.3c-0.1-0.2-0.1-0.3,0.1-0.2c0.2,0.1,0.4-0.3,0.7-0.1c0.1,0.1,0.1-0.1,0.1-0.2
		C134.8,41.6,134.5,41.5,134.3,41.4 M133,43.2c0,0.1,0.1,0.2,0.1,0.2c0.1,0,0.2-0.1,0.1-0.2c0-0.1-0.1-0.1-0.2-0.1
		C133,43.1,133,43.1,133,43.2 M133.8,38.6c-0.1,0.1-0.4,0.1-0.5,0.1c-0.1,0.4-0.4,0.8-0.4,1.3c0,0.2,0.3,0.1,0.4,0.3
		c0.2,0.2,0.1-0.1,0.2-0.1c0.1-0.1,0.3-0.2,0.4-0.3c0.4-0.2,0.4-0.4,0.1-0.7c-0.1-0.1-0.4-0.2-0.2-0.5c0.1,0,0.2-0.1,0.2-0.3
		c0.2,0,0.1-0.1,0.1-0.3c0-0.1-0.1-0.1-0.2-0.1c-0.1,0.1-0.1,0.2-0.1,0.4C133.9,38.5,133.9,38.5,133.8,38.6 M133.2,47.6
		c0-0.1-0.1-0.2-0.2-0.2c-0.1,0-0.1,0-0.1,0.1c0,0.1,0.1,0.2,0.2,0.2C133.1,47.8,133.2,47.7,133.2,47.6 M133.5,49.8
		c0.1,0,0.2,0,0.3-0.1c0-0.1,0-0.3-0.2-0.4c-0.2,0-0.4-0.1-0.9,0.1C133.1,49.5,133.2,49.8,133.5,49.8 M132.8,48.2
		c-0.1,0-0.1,0.1-0.1,0.2c0,0.1,0,0.3,0.2,0.3c0.1,0,0.2-0.1,0.2-0.2C133.1,48.3,133,48.2,132.8,48.2 M132.5,45.9
		c0,0.1,0.1,0.1,0.2,0.1c0.1,0,0.1-0.1,0.1-0.2c-0.1-0.2-0.1-0.5-0.2-0.7C132.5,45.3,132.5,45.6,132.5,45.9 M132.2,37.4
		c0.4-2.7,0.7-5.5,1.2-8.2c0.4-3,1-6.1,1.5-9.1c0.1-1,0.4-2.1,0.5-3.1c0.2-1.8,0.7-3.4,1.5-5c1.2-2.8,2.4-5.6,3.6-8.4
		c0.7-2.1,2.5-2.2,3.9-1.9c0.8,0.2,1.3,0.8,1.6,1.5c0.5,1.1,0.7,2.2,0.8,3.4c0.1,2.4,0,4.9-0.4,7.3c-0.7,5.1-1.9,10.2-3.6,15
		c-0.3,1-0.6,2-1.3,2.9c-0.1,0.3-0.2,0.6-0.2,0.9v1.8c0.1,1.9-0.3,3.7-0.4,5.6c-0.1,1.6-0.2,3.1-0.1,4.7c0.1,3.1,0.3,6.2,0.1,9.3
		c-0.1,1.3-0.2,2.7-0.4,4.1c0,0.6-0.3,1.2-0.5,1.7c-0.3,0.5-0.5,1-0.7,1.5c-0.2,0.7-0.1,1.3,0.4,1.8c1,0.9,2.5,1.6,4.2,0.4
		c0.8-0.6,1.5-1.3,2.1-2.1c1.3-1.7,2.3-3.6,3.2-5.5c2-4.4,3.6-8.9,5-13.6c0.8-2.4,1.5-5,2.2-7.4c0.1-0.5,0.4-1,0.8-1.4
		c0.3-0.2,0.6-0.4,1-0.2c0.4,0.2,0.5,0.5,0.5,1c0,0.2-0.1,0.4-0.1,0.6c-2,6.1-3.9,12.2-6.2,18c-1,2.4-1.9,4.7-3.1,7
		c-0.4,0.9-0.9,1.8-1.6,2.6c-1.2,1.6-2.7,2.7-4.6,3.2c-1.8,0.5-4.7,0.1-6.4-2.2c-2.6-3.6-4.4-7.6-5-12.1c-0.2-1.7-0.2-3.5-0.3-5.2
		C131.4,43.2,131.7,40.3,132.2,37.4"/>
	<path class="st0" d="M174.4,47.9c0,0.1,0.1,0.1,0.1,0.2c0.1,0,0.2-0.1,0.2-0.2c0-0.1-0.1-0.1-0.1-0.1
		C174.5,47.8,174.4,47.8,174.4,47.9 M174.3,53.3c-0.1,0-0.2,0-0.3,0.1c-0.1,0.4,0.1,0.5,0.4,0.7h0.1
		C174.8,53.8,174.6,53.5,174.3,53.3 M174.1,54.7c-0.1,0-0.1,0.1-0.2,0.1c0,0.1,0.1,0.2,0.2,0.2c0.1,0,0.1-0.1,0.1-0.1
		C174.3,54.8,174.2,54.7,174.1,54.7 M174.2,50.4c0.1,0.1,0.3,0.3,0.4,0.4c0.1,0.1,0.1,0.3-0.1,0.4c-0.7,0.6-0.7,0.8,0.1,1.3
		c0.4-1.1,0.3-2.2-0.4-3.2C173.7,49.9,173.7,49.9,174.2,50.4 M174.2,38.1c-0.3,0-0.4,0.1-0.4,0.4c-0.1,0.2,0,0.4,0.2,0.4
		c0.3,0.1,0.4,0,0.5-0.3C174.5,38.3,174.4,38.2,174.2,38.1 M173.5,51.9c-0.1,0-0.3,0-0.3,0.1c-0.1,0.2,0.1,0.3,0.3,0.3
		c0.1,0,0.3-0.1,0.3-0.2S173.6,51.9,173.5,51.9 M173.4,48.5c-0.2,0-0.3,0.1-0.3,0.4c0,0.2,0.1,0.4,0.4,0.4c0.2,0,0.2-0.1,0.2-0.3
		C173.7,48.7,173.6,48.5,173.4,48.5 M172.9,49.8c-0.1,0-0.1,0-0.2,0.1c0,0.1,0,0.2,0.1,0.2c0.1,0,0.1-0.1,0.2-0.1
		C173,49.9,173,49.9,172.9,49.8 M173.6,47.4c0.1,0.1,0.1,0.2,0.3,0.1c0.4-0.4,1-0.2,1.4-0.2c0.4-0.1,0.5-0.2,0.4-0.5
		c-0.1-0.3,0.2-0.8-0.1-1c-0.5-0.3-0.5,0.3-0.7,0.6c-0.4,0.4-0.4,0.4-0.9,0c-0.2-0.2-0.4-0.4-0.7-0.1c-0.1,0.1-0.5,0.1-0.7,0.4
		C173,47,173.3,47.1,173.6,47.4 M172.9,43c-0.1,0-0.2,0.1-0.2,0.1c0,0.1,0.1,0.2,0.2,0.2c0.1,0,0.1-0.1,0.1-0.2S172.9,43,172.9,43
		 M174.3,40.8c-0.4-0.1-0.6,0.1-0.8,0.2c-0.7,0.1-0.9,0.2-1,0.7c-0.1,0.4,0,0.5,0.4,0.5h2.1C175.1,41.1,175,41,174.3,40.8
		 M174.2,58.3c0.2-0.5,0.4-1,0.5-1.6c0-0.2,0-0.7-0.4-0.8c-0.1,0-0.3,0-0.4,0.1c-0.4,0.3,0.1,0.6,0.1,0.8c-1,0.1-1.1,0.4-0.5,1.3
		c0.1,0.1,0.1,0.2,0.1,0.3c-0.4,0.1-0.6,0.4-0.9,0.6c-0.1,0.1-0.6,0-0.4,0.4c0.1,0.2,0.4,0.1,0.7,0.1c0.4,0,0.7-0.1,0.7-0.6
		c-0.1-0.2-0.1-0.4-0.1-0.6C173.8,58.5,174.1,58.6,174.2,58.3 M172.5,48.2c0-0.1-0.1-0.1-0.1-0.1c-0.1,0.1-0.2,0.1-0.1,0.2
		c0,0.1,0.1,0.1,0.1,0.1C172.4,48.4,172.6,48.4,172.5,48.2 M172.2,46.6c-0.1,0-0.1,0.1-0.2,0.1c0,0.1,0.1,0.1,0.1,0.1
		c0.1,0.1,0.1,0,0.2-0.1C172.3,46.7,172.3,46.6,172.2,46.6 M172,57.2c0.1,0,0.2-0.1,0.2-0.1c0-0.1-0.1-0.3-0.2-0.2
		c-0.1,0-0.1,0.1-0.1,0.2C171.8,57.1,171.9,57.2,172,57.2 M172.3,44.2c0-0.1-0.1-0.1-0.1-0.1c-0.4,0.2-0.6,0.5-0.4,0.9
		c0,0.1,0,0.1,0.1,0.1C172.1,44.8,172.5,44.7,172.3,44.2 M170.6,49.8c-0.1,0-0.1,0.1-0.1,0.1c-0.1,0.1,0.1,0.2,0.2,0.2
		c0.1,0,0.1-0.1,0.1-0.2C170.7,49.9,170.6,49.8,170.6,49.8 M168.2,52.6c0,0.1,0.4,0.8,0.4,0.7c0.2-0.1,0.4-0.2,0.4-0.4
		c0-0.4-0.4-0.4-0.6-0.5C168.3,52.4,168.3,52.5,168.2,52.6 M167.6,54.7c0-0.1-0.1-0.2-0.1-0.3c-0.1-0.1-0.3,0-0.3,0.1
		c0,0.2-0.3,0.4-0.3,0.7C167.2,55.2,167.4,55.1,167.6,54.7 M165.4,28.1c-0.3,0-0.4,0.1-0.5,0.3c0,0.2,0.1,0.4,0.3,0.4
		c0.3,0,0.4-0.1,0.5-0.4C165.7,28.4,165.7,28.1,165.4,28.1 M165.6,56.2c0.2-0.1,0.4-0.2,0.2-0.5c-0.1-0.1-0.1-0.3-0.2-0.3
		c-0.2,0-0.4,0.1-0.4,0.4c0,0.2,0,0.4-0.3,0.4c-0.5,0-0.7,0.5-1,0.9C164.6,57.1,165.1,56.6,165.6,56.2 M163.7,29.5
		c-0.1,0-0.1,0.1-0.1,0.1c0,0.1,0.1,0.2,0.2,0.2c0.1-0.1,0.1-0.1,0.1-0.2C164,29.6,163.9,29.5,163.7,29.5 M163.6,30.4
		c-0.1,0-0.2,0.1-0.1,0.2c0,0.1,0.1,0.1,0.2,0.1c0.1,0,0.1-0.1,0.1-0.1C163.7,30.4,163.7,30.4,163.6,30.4 M162.2,57.4
		c0-0.1-0.1-0.2-0.1-0.2c-0.1,0-0.2,0.1-0.2,0.2c0,0.1,0.1,0.1,0.2,0.1C162.1,57.5,162.2,57.4,162.2,57.4 M162.2,31.3
		c-0.2,0.1-0.5,0.2-0.4,0.5c0,0.1,0.1,0.1,0.3,0.1c0.3,0,0.4-0.2,0.4-0.4C162.4,31.4,162.3,31.3,162.2,31.3 M161.5,36
		c0.1-0.1,0-0.2-0.1-0.2c-0.1,0.1-0.3,0.1-0.2,0.4c0,0.1,0.1,0.1,0.1,0.1C161.5,36.2,161.5,36.1,161.5,36 M161,54.8
		c-0.3-0.1-0.4,0.2-0.5,0.4c-0.1,0.2-0.1,0.5,0.1,0.7c0.1,0.1,0.2,0.1,0.4,0.1c0.4-0.1,0.2-0.4,0.2-0.6v-0.1
		C161.1,55.1,161.3,54.8,161,54.8 M160,39.8c-0.1,0-0.2,0.1-0.1,0.1c0,0.1,0.1,0.2,0.1,0.1c0.1,0,0.2-0.1,0.1-0.1
		C160.2,39.8,160.1,39.7,160,39.8 M160.8,33.4c0.2,0,0.3,0.1,0.4,0.3c0,0.1,0.1,0.1,0.1,0.2c0.1,0.1,0.3,0.1,0.4,0
		c0.1-0.1,0.1-0.2,0-0.3c-0.2-0.4-0.1-1-0.8-1.2c-0.4-0.1-0.5-0.6-0.2-0.9c0.2-0.1,0.3-0.3,0.4-0.6c0-0.3,0.6-0.1,0.4-0.6l-0.1-0.1
		c-0.4,0.1-0.3,0.4-0.4,0.7c-0.7,0.7-0.7,0.7-0.6,1.6c0.1,0.2,0,0.3-0.1,0.4c-0.1,0.3-0.3,0.5-0.4,0.8c-0.1,0.2-0.1,0.4,0.1,0.4
		c0.3,0.1,0.6,0.2,0.8,0.4c0.1,0.1,0.4,0.1,0.4-0.1c0.1-0.2-0.1-0.3-0.3-0.2c-0.3,0-0.4-0.1-0.4-0.4
		C160.6,33.7,160.6,33.5,160.8,33.4 M159.7,56.9c0.1,0.2,0,0.4,0.3,0.4c0.2-0.1,0.5-0.2,0.4-0.5c-0.1-0.2-0.2-0.4-0.5-0.4
		C159.8,56.5,159.7,56.8,159.7,56.9 M160.3,54c0-0.1,0-0.2-0.1-0.3c-0.4-0.1-0.4,0.1-0.6,0.4v0.1C159.8,54.4,160,54.2,160.3,54
		 M159.4,41.3c0,0.1,0.1,0.1,0.1,0.1c0.1,0.1,0.2,0,0.2-0.1c0-0.1-0.1-0.1-0.1-0.1C159.5,41.1,159.4,41.1,159.4,41.3 M159.1,55.4
		c0.2-0.1,0.4-0.2,0.3-0.4c0-0.2-0.1-0.3-0.4-0.3c-0.1,0-0.3,0.1-0.3,0.4C158.8,55.3,158.9,55.4,159.1,55.4 M158.7,51.9
		c0,0.1,0.1,0.2,0.2,0.2c0.2,0,0.2-0.2,0.2-0.4c0-0.1-0.1-0.2-0.4-0.1C158.7,51.6,158.7,51.7,158.7,51.9 M158.8,37.3
		c-0.1,0-0.2,0.1-0.2,0.2c-0.1,0.3,0.1,0.4,0.3,0.4c0.1,0.1,0.3,0.1,0.4-0.1C159.3,37.6,159.1,37.4,158.8,37.3 M158.7,42.6
		c-0.1,0-0.2,0.1-0.2,0.2c-0.1,0.3,0.1,0.4,0.3,0.4c0.1,0.1,0.3,0.1,0.4-0.1C159.1,42.8,158.9,42.7,158.7,42.6 M158.3,44.5
		c0,0.2,0.1,0.4,0.3,0.4c0.3,0,0.4-0.1,0.4-0.4c0-0.2-0.1-0.4-0.4-0.4S158.3,44.2,158.3,44.5 M158.1,35.7L158.1,35.7h0.2
		c0-0.1-0.1-0.1-0.1-0.1S158.2,35.6,158.1,35.7 M157.8,52.2c0,0.2,0.1,0.2,0.4,0.2c0.1,0,0.2,0,0.2-0.1c0.1-0.2-0.1-0.2-0.3-0.3
		C158,52,157.8,52.1,157.8,52.2 M157.5,43.5c-0.1,0-0.2,0.1-0.2,0.4c0,0.1,0.1,0.3,0.3,0.3c0.1-0.1,0.2-0.2,0.2-0.4
		C157.7,43.6,157.7,43.5,157.5,43.5 M157.3,55.7c0.1-0.1-0.1-0.2-0.2-0.2c-0.2,0-0.4,0.1-0.4,0.3c0,0.2,0,0.4,0.2,0.4
		C157.1,56.1,157.2,55.9,157.3,55.7 M156.8,54.7c-0.1,0-0.1-0.1-0.1-0.3c0-0.1,0-0.3,0.2-0.3c0.1,0,0.2,0.1,0.2,0.2
		C157.1,54.5,156.9,54.6,156.8,54.7 M156.8,47.1c0.1,0.1,0.2,0,0.2-0.1c0-0.1,0-0.2-0.2-0.2c-0.1,0-0.1,0.1-0.1,0.1
		C156.6,47.1,156.7,47.1,156.8,47.1 M158,47.7c-0.4,0.3-0.8,0.1-1.3,0.1c-0.1,0-0.2,0.1-0.1,0.3c0.1,0.2,0.4,0.5,0.7,0.4
		c0.1-0.1,0.2-0.1,0.3-0.2c0.6-0.2,0.8-0.1,0.8,0.6c0,0.1,0.1,0.2,0.2,0.2c0.1,0,0.1-0.1,0.1-0.2c0.1-0.7,0.1-1.3,0.1-2.1
		C158.3,47,158.3,47.5,158,47.7 M156.9,54.9c0.6,0.2,0.7,0.1,0.6-0.6c-0.1-0.4-0.1-0.7-0.6-0.7c-0.2,0-0.4-0.1-0.5-0.2
		c-0.1-0.1-0.2-0.1-0.3-0.1c-0.1,0.1-0.2,0.2-0.1,0.4c0.2,0.4,0.2,0.8,0,1.3C156.3,55.1,156.6,54.8,156.9,54.9 M156,43.7
		c-0.1-0.1-0.1,0-0.1,0.1c-0.1,0.1,0,0.1,0.1,0.1c0.1,0.1,0.1,0,0.1-0.1C156.3,43.8,156.1,43.7,156,43.7 M155.5,38.6
		c0,0.3,0.2,0.3,0.4,0.3c0.3,0,0.5-0.4,0.4-0.7c0-0.2-0.1-0.3-0.4-0.3S155.5,38.3,155.5,38.6 M155.3,52.7c0.1,0.2,0.1,0.3,0.4,0.3
		c0.3,0,0.7-0.4,0.7-0.5c-0.1-0.2-0.3-0.2-0.4-0.2C155.4,52.2,155.3,52.4,155.3,52.7 M155,41.7c-0.1,0-0.2,0.2-0.1,0.4
		c0,0.1,0,0.3,0.2,0.3c0.2,0,0.2-0.2,0.2-0.4C155.3,41.9,155.2,41.7,155,41.7 M176.9,44.8c0.1,0.2,0.2,0.5,0.2,0.8
		c0,1.1,0,2.2-0.3,3.3c-0.7,2.4-0.8,4.7-1,7.1c-0.1,0.8-0.1,1.6-0.2,2.4c0,0.3-0.1,0.6,0.1,0.8c0.3,0.2,0.6-0.1,0.9-0.2
		c0.7-0.4,1.2-0.9,1.7-1.5c0.8-0.9,1.5-1.9,2.1-2.9c1.3-2.3,2.5-4.7,3.7-7c1.7-3.6,3.6-7.1,5.2-10.8c0.2-0.6,0.4-1.2,0.7-1.8
		c0.2-0.6,1.2-0.8,1.6-0.4c0.2,0.2,0.1,0.5,0.1,0.7c-0.7,1.8-1.2,3.7-2.1,5.5c-1.8,3.3-3.2,6.8-4.7,10.2c-1.1,2.3-2.3,4.6-3.9,6.6
		c-1.2,1.6-2.5,2.8-4.1,3.9c-1.9,1.4-4.8,0.3-5.6-1.4c-0.5-1.2-1-2.4-1.3-3.7c-0.1-0.3-0.1-0.5-0.2-0.8c-0.1-0.4-0.3-0.4-0.6-0.1
		c-1,0.8-2.2,1.6-3.3,2.3c-2.5,1.5-5.2,1.7-7.9,0.7c-1.9-0.7-3.1-1.9-3.8-3.7c-0.7-1.8-0.9-3.6-1.1-5.5c-0.9-7.4,1.7-13.6,6.6-19.1
		c0.9-1,1.9-1.8,3-2.4c1.8-0.9,3.5-1,5.3-0.1c0.7,0.3,1.4,0.7,2,1.2c0.9,0.6,1.6,1.4,2,2.4c0.3,0.7,0.6,1.6,1,2.2
		c0.1,0.3,0.3,0.6,0.1,0.9c-0.2,0.3-0.6,0.3-1,0.2c-0.9-0.2-1.6-0.8-2.1-1.6c-0.4-0.5-0.7-1-1-1.6c-0.8-1.6-3.1-1.9-4,0.1
		c-0.1,0.2-0.2,0.5-0.4,0.8c-1.1,2-2.1,4-2.4,6.3c-0.3,2.1-1.1,4.1-1.8,6.1c-1,2.9-0.7,5.6,0.7,8.3c1,2.1,2.9,2.4,4.4,0.7
		c2.3-2.9,4.2-5.9,4.8-9.6c0.1-1.3,0.7-2.5,1.1-3.8c0.3-0.8,0.5-1.6,0.6-2.4c0-0.7,0.3-1,1-1.1h0.1c1.9-0.2,2.7-0.1,3,2.1
		c0.1,0.7,0.1,1.5,0.1,2.4C176.2,42.3,176.3,43.6,176.9,44.8"/>
</g>
</svg>
